<svg width="732" height="542" viewBox="0 0 732 542" fill="none" xmlns="http://www.w3.org/2000/svg">
<g opacity="0.2">
<path d="M670.015 253.294C670.036 253.838 670.042 254.325 670.049 254.811C670.04 255.241 670.019 255.857 669.983 256.415C669.969 257.518 670.012 258.605 670.096 259.62C670.278 261.464 670.474 263.365 670.21 265.144C670.106 265.904 670.656 266.369 671.244 266.519C671.875 266.596 672.587 266.287 672.734 265.455C672.877 264.379 672.907 263.334 672.894 262.361C672.867 261.331 672.839 260.3 672.769 259.342C672.685 258.327 672.615 257.369 672.603 256.396C672.596 255.909 672.59 255.423 672.569 254.879L672.52 253.305C672.48 252.461 671.846 252.14 671.231 252.119C670.543 252.057 669.975 252.45 670.015 253.294Z" fill="#2B2B2B"/>
<path d="M668.042 274.505C667.826 275.539 667.611 276.572 667.467 277.648C667.251 278.681 667.108 279.756 667.078 280.802C667.019 281.733 666.974 282.721 666.857 283.667C666.741 284.613 666.624 285.56 666.435 286.464C666.274 287.239 666.839 287.761 667.484 287.896C668.13 288.031 668.857 287.778 669.004 286.946C669.234 285.97 669.393 284.951 669.495 283.948C669.596 282.945 669.713 281.999 669.815 280.995C669.916 279.992 670.018 278.989 670.134 278.043C670.236 277.039 670.41 276.078 670.568 275.06C670.862 273.396 668.35 272.898 668.042 274.505Z" fill="#2B2B2B"/>
<path d="M663.775 295.589L663.322 297.112L662.797 298.593C662.452 299.599 662.164 300.591 661.949 301.624C661.703 302.543 661.514 303.447 661.196 304.325C660.878 305.202 660.575 306.136 660.185 306.971C659.894 307.719 660.303 308.344 660.922 308.608C661.541 308.872 662.298 308.733 662.646 307.97C663.078 307.063 663.438 306.114 663.741 305.179C664.044 304.245 664.331 303.254 664.619 302.262C664.907 301.271 665.138 300.295 665.426 299.303L666.232 296.344C666.727 294.749 664.227 294.066 663.775 295.589Z" fill="#2B2B2B"/>
<path d="M655.844 315.497C655.355 316.42 654.881 317.399 654.392 318.321C653.903 319.244 653.486 320.208 653.069 321.173C652.679 322.008 652.361 322.885 651.914 323.735C651.524 324.571 651.02 325.436 650.558 326.229C649.703 327.614 652.01 328.959 652.865 327.573C653.369 326.708 653.874 325.843 654.363 324.92C654.795 324.013 655.227 323.106 655.659 322.198L656.883 319.434C657.315 318.527 657.732 317.563 658.179 316.712C658.932 315.171 656.556 314.028 655.844 315.497Z" fill="#2B2B2B"/>
<path d="M645.148 334.187L644.278 335.515L643.842 336.179L643.392 336.786C643.14 337.218 642.816 337.609 642.507 338.057C642.198 338.504 641.946 338.937 641.694 339.37C641.231 340.163 640.697 340.914 640.106 341.68C639.515 342.447 638.908 343.156 638.287 343.808C637.707 344.388 637.903 345.13 638.396 345.61C638.889 346.09 639.664 346.252 640.243 345.672C640.964 344.933 641.627 344.209 642.275 343.427L643.233 342.198L644.118 340.927C644.679 340.047 645.256 339.224 645.802 338.286C646.363 337.406 646.867 336.541 647.371 335.675C648.269 334.218 646.003 332.802 645.148 334.187Z" fill="#2B2B2B"/>
<path d="M631.246 350.426C630.865 350.831 630.541 351.222 630.16 351.628C629.778 352.033 629.454 352.424 629.073 352.83C628.367 353.626 627.692 354.537 627.146 355.474C626.894 355.907 626.627 356.282 626.432 356.7C626.165 357.075 625.97 357.493 625.687 357.812L625.279 358.346C625.138 358.506 624.997 358.665 624.799 358.839C624.517 359.158 624.177 359.491 623.823 359.768C623.229 360.291 623.367 361.048 623.803 361.543C624.239 362.038 624.987 362.329 625.68 361.719C626.077 361.371 626.473 361.022 626.797 360.631C627.179 360.226 627.503 359.835 627.827 359.444C628.151 359.054 628.46 358.606 628.769 358.158L629.613 356.959C630.189 356.136 630.708 355.328 631.357 354.547C631.948 353.78 632.596 352.999 633.26 352.275C634.289 351.088 632.39 349.209 631.246 350.426Z" fill="#2B2B2B"/>
<path d="M615.946 365.078C615.066 365.677 614.186 366.275 613.249 366.888C612.781 367.195 612.385 367.543 611.988 367.892C611.592 368.241 611.196 368.589 610.784 368.881C610.091 369.491 609.397 370.101 608.632 370.669C607.866 371.237 607.085 371.748 606.275 372.145C604.881 372.879 606.114 375.239 607.622 374.475C608.531 373.991 609.426 373.45 610.249 372.867C611.072 372.284 611.879 371.644 612.687 371.003L613.891 370.014C614.287 369.666 614.641 369.389 615.038 369.041C615.788 368.416 616.611 367.832 617.434 367.249C618.797 366.401 617.294 364.174 615.946 365.078Z" fill="#2B2B2B"/>
<path d="M597.546 375.609C596.591 375.922 595.564 376.193 594.594 376.449C593.567 376.719 592.597 376.975 591.6 377.36C590.759 377.643 589.861 377.941 588.891 378.197C587.978 378.438 587.05 378.621 586.107 378.748C584.521 378.983 584.913 381.626 586.556 381.376C588.556 381.092 590.511 380.638 592.494 380.054C593.464 379.798 594.476 379.47 595.431 379.157C596.386 378.845 597.398 378.517 598.353 378.204C600.019 377.581 599 375.104 597.546 375.609Z" fill="#2B2B2B"/>
<path d="M576.544 379.741C575.487 379.898 574.445 380.112 573.388 380.268C572.859 380.347 572.346 380.482 571.832 380.618C571.319 380.753 570.862 380.873 570.349 381.009C568.637 381.46 566.709 381.786 564.876 381.781C563.287 381.773 563.265 384.464 564.968 384.442C565.998 384.414 567.028 384.387 568.028 384.245C568.557 384.167 569.029 384.103 569.557 384.025C570.086 383.947 570.599 383.811 571.113 383.676L574.08 382.893C575.05 382.637 576.035 382.439 577.035 382.297C578.579 382.134 578.13 379.506 576.544 379.741Z" fill="#2B2B2B"/>
<path d="M555.404 381.045C554.344 380.958 553.326 380.8 552.322 380.698C551.821 380.647 551.304 380.539 550.745 380.504C550.244 380.453 549.685 380.417 549.183 380.366C547.45 380.274 545.612 379.783 543.899 379.075C542.388 378.436 541.461 380.938 542.973 381.577C544.829 382.369 546.869 382.93 549.062 383.145C550.065 383.246 551.11 383.276 552.114 383.377C553.117 383.479 554.162 383.508 555.165 383.61C556.757 383.861 556.966 381.182 555.404 381.045Z" fill="#2B2B2B"/>
<path d="M534.526 375.932C532.459 375.5 530.392 375.069 528.413 374.737C527.524 374.605 526.62 374.416 525.757 374.155C524.895 373.894 524.06 373.504 523.282 373.099C522.633 372.721 521.936 373.088 521.6 373.665C521.264 374.242 521.288 375.029 522.025 375.506C522.962 376.052 523.926 376.469 524.933 376.814C525.939 377.159 526.973 377.375 528.006 377.59C530.073 378.022 532.079 378.225 534.017 378.629C535.594 378.824 536.133 376.24 534.526 375.932Z" fill="#2B2B2B"/>
<path d="M515.524 367.518C513.805 366.324 512.171 364.985 510.353 363.878C508.751 362.896 507.135 361.858 505.716 360.645C504.457 359.574 502.81 361.656 504.069 362.728C507.137 365.336 510.655 367.338 513.963 369.7C515.321 370.684 516.81 368.461 515.524 367.518Z" fill="#2B2B2B"/>
<path d="M498.634 354.154C497.099 352.728 495.662 351.215 494.027 349.876C493.318 349.27 492.609 348.663 491.942 347.985C491.275 347.306 490.607 346.628 490.054 345.919C489.589 345.31 488.817 345.391 488.264 345.842C487.769 346.278 487.478 347.026 488.016 347.677C488.656 348.485 489.338 349.221 490.021 349.956C490.76 350.677 491.499 351.397 492.223 352.061C492.963 352.781 493.744 353.429 494.525 354.078C495.306 354.726 496.046 355.447 496.827 356.095C498.101 357.224 499.836 355.24 498.634 354.154Z" fill="#2B2B2B"/>
<path d="M484.587 338.143C483.334 336.398 482.138 334.639 480.686 333.069C479.409 331.697 478.116 330.268 477.094 328.706C476.247 327.343 474.019 328.846 474.939 330.251C477.172 333.629 480.114 336.454 482.432 339.688C482.913 340.354 483.684 340.273 484.252 339.879C484.762 339.5 485.068 338.809 484.587 338.143Z" fill="#2B2B2B"/>
<path d="M472.577 320.38C471.681 318.602 471.083 316.563 470.099 314.686C469.233 313.023 468.265 311.203 467.27 309.513C466.831 308.774 466.101 308.783 465.534 309.177C464.951 309.514 464.603 310.277 465.027 310.958C465.935 312.55 466.816 314.271 467.655 316.063C468.494 317.856 469.306 319.778 470.217 321.613C470.599 322.366 471.401 322.399 471.999 322.119C472.509 321.741 472.944 321.076 472.577 320.38Z" fill="#2B2B2B"/>
<path d="M463.567 301.026C463.24 300.014 463.011 298.914 462.683 297.902C462.355 296.89 462.027 295.878 461.528 294.911C461.116 294.044 460.761 293.161 460.349 292.293C459.994 291.41 459.639 290.527 459.341 289.629C458.806 288.062 456.313 289.024 456.834 290.535C457.46 292.445 458.241 294.252 458.966 296.075C459.336 297.015 459.691 297.898 460.061 298.838C460.431 299.778 460.687 300.748 460.985 301.646C461.09 302.045 461.336 302.285 461.625 302.453C461.898 302.564 462.271 302.588 462.613 302.498C462.955 302.408 463.211 302.218 463.379 301.93C463.634 301.741 463.73 301.41 463.567 301.026Z" fill="#2B2B2B"/>
<path d="M456.491 280.436C456.163 279.424 455.835 278.412 455.522 277.457C455.194 276.445 454.824 275.505 454.439 274.508C454.099 273.682 453.744 272.799 453.446 271.901C453.148 271.003 452.851 270.105 452.739 269.219C452.447 267.649 449.834 268.155 450.156 269.84C450.355 270.825 450.611 271.795 450.882 272.822C451.138 273.792 451.507 274.732 451.892 275.729C452.262 276.669 452.632 277.609 453.002 278.549C453.372 279.488 453.742 280.428 454.055 281.383C454.503 282.852 457.068 281.931 456.491 280.436Z" fill="#2B2B2B"/>
<path d="M451.7 259.728C451.678 259.185 451.6 258.656 451.579 258.112C451.557 257.569 451.464 256.983 451.385 256.454C451.214 255.34 451 254.298 450.6 253.244C450.004 251.448 449.321 249.553 448.912 247.769C448.563 246.214 445.98 246.834 446.344 248.446C446.543 249.432 446.856 250.387 447.112 251.357C447.367 252.327 447.665 253.224 447.921 254.195C448.177 255.165 448.418 256.078 448.616 257.063C448.68 257.534 448.8 257.991 448.863 258.462C448.927 258.934 448.99 259.405 449.011 259.949C449.205 261.607 451.863 261.272 451.7 259.728Z" fill="#2B2B2B"/>
<path d="M447.733 238.436C447.606 236.334 447.536 234.216 447.108 232.132C446.756 230.333 446.473 228.333 446.363 226.531C446.299 224.9 443.611 225.12 443.675 226.751C443.87 230.728 444.737 234.71 445.003 238.729C445.043 239.573 445.734 239.879 446.449 239.813C447.148 239.689 447.758 239.223 447.733 238.436Z" fill="#2B2B2B"/>
<path d="M446.109 216.772C445.981 214.67 445.896 212.495 445.541 210.453C445.245 208.639 444.905 206.654 444.853 204.836C444.789 203.205 442.143 203.354 442.207 204.985C442.344 208.977 443.211 212.959 443.478 216.978C443.542 218.609 446.245 218.445 446.109 216.772Z" fill="#2B2B2B"/>
<path d="M444.799 195.148C444.771 194.117 444.728 193.03 444.701 192C444.673 190.97 444.631 189.882 444.474 188.825C444.347 187.882 444.293 186.981 444.223 186.023C444.153 185.065 444.156 184.149 444.216 183.218C444.248 182.416 443.641 181.965 442.968 181.96C442.296 181.954 441.599 182.321 441.566 183.123C441.522 184.111 441.492 185.156 441.562 186.114C441.589 187.145 441.659 188.103 441.744 189.118C441.913 191.148 442.082 193.179 442.179 195.167C442.159 196.942 444.863 196.779 444.799 195.148Z" fill="#2B2B2B"/>
<path d="M445.181 173.685C445.267 172.625 445.426 171.606 445.512 170.546C445.656 169.471 445.685 168.425 445.7 167.323C445.69 165.434 445.665 163.487 445.913 161.652C446.164 160.06 443.455 159.737 443.276 161.371C443 163.336 442.926 165.369 442.837 167.346C442.793 168.334 442.748 169.322 442.719 170.367C442.674 171.356 442.588 172.416 442.486 173.419C442.396 174.236 443.076 174.728 443.691 174.749C444.394 174.869 445.091 174.502 445.181 173.685Z" fill="#2B2B2B"/>
<path d="M447.581 152.243C447.74 151.224 448.027 150.233 448.243 149.2C448.459 148.166 448.69 147.19 448.833 146.115C449.082 144.279 449.501 142.399 450.08 140.659C450.59 139.121 448.06 138.324 447.55 139.862C446.888 141.745 446.441 143.755 446.052 145.75C445.662 147.744 445.345 149.781 444.956 151.775C444.809 152.608 445.431 153.115 446.062 153.193C446.692 153.27 447.491 153.06 447.581 152.243Z" fill="#2B2B2B"/>
<path d="M453.572 131.681C454.262 129.669 455.008 127.641 455.44 125.574C455.817 123.766 456.294 121.87 457.002 120.158C457.293 119.41 456.827 118.8 456.208 118.536C455.589 118.272 454.775 118.426 454.499 119.231C453.707 121.088 453.189 123.055 452.67 125.023C452.152 126.991 451.69 128.943 451.027 130.827C450.517 132.365 453.062 133.22 453.572 131.681Z" fill="#2B2B2B"/>
<path d="M461.156 111.619C461.393 111.129 461.645 110.696 461.897 110.264C462.149 109.831 462.401 109.399 462.638 108.909L463.379 107.554C463.631 107.121 463.868 106.631 464.121 106.199C464.511 105.364 464.973 104.57 465.492 103.762C466.011 102.954 466.545 102.203 467.137 101.436C468.151 100.192 466.069 98.5444 464.997 99.8035C464.349 100.585 463.773 101.408 463.196 102.231C462.635 103.112 462.074 103.992 461.57 104.857C461.066 105.723 460.577 106.645 460.087 107.568C459.835 108 459.598 108.49 459.403 108.908L458.719 110.247C458.356 110.954 458.723 111.65 459.357 111.971C460.021 112.406 460.793 112.325 461.156 111.619Z" fill="#2B2B2B"/>
<path d="M473.573 94.3662C474.927 92.7886 476.44 91.3521 477.779 89.7174C478.328 89.0232 478.976 88.2419 479.598 87.5898L480.078 87.097C480.276 86.9227 480.459 86.6913 480.6 86.532C480.925 86.1414 481.249 85.7507 481.588 85.4172C482.152 84.7801 481.843 84.0684 481.308 83.6602C480.773 83.252 479.956 83.1623 479.506 83.7693C479.166 84.1028 478.899 84.4784 478.617 84.797C478.476 84.9562 478.335 85.1155 478.137 85.2898L477.614 85.8548C476.894 86.5941 476.231 87.3183 475.525 88.1146C474.156 89.6352 472.932 91.2398 471.563 92.7603C470.503 93.8332 472.543 95.5532 473.573 94.3662Z" fill="#2B2B2B"/>
<path d="M488.366 79.1756C490.098 78.1084 492.062 77.2243 493.792 75.9138C494.203 75.6222 494.557 75.3457 494.954 74.9971C495.308 74.7206 495.719 74.429 496.059 74.0954C496.824 73.5273 497.605 73.0163 498.401 72.5623C499.097 72.1955 499.13 71.3935 498.793 70.811C498.456 70.2285 497.75 69.8654 497.054 70.2322C496.144 70.7163 495.321 71.2994 494.441 71.8976L493.264 72.7573C492.853 73.0489 492.499 73.3254 492.088 73.6169C490.484 74.7111 488.752 75.7783 486.962 76.8606C486.223 77.2995 486.248 78.0865 486.642 78.6539C486.978 79.2365 487.684 79.5995 488.366 79.1756Z" fill="#2B2B2B"/>
<path d="M507.099 68.9877C509.051 68.2898 511.049 67.7631 513.001 67.0653C513.883 66.7104 514.781 66.4125 515.679 66.1147C516.577 65.8168 517.49 65.5761 518.403 65.3353C519.974 65.0431 519.396 62.3882 517.783 62.7525C516.798 62.9513 515.828 63.2071 514.873 63.52C513.918 63.8329 512.948 64.0887 512.008 64.4586C511.053 64.7715 510.056 65.1565 509.101 65.4694L506.209 66.5372C505.425 66.805 505.263 67.58 505.501 68.2497C505.694 68.7482 506.316 69.2555 507.099 68.9877Z" fill="#2B2B2B"/>
<path d="M527.723 64.3407C528.21 64.3345 528.754 64.3132 529.255 64.364C529.742 64.3577 530.244 64.4085 530.802 64.4442C531.863 64.5308 532.908 64.5602 533.938 64.5327C535.812 64.4656 537.759 64.4405 539.594 64.6888C540.354 64.7936 540.804 64.1866 540.939 63.5407C541.074 62.8949 540.692 62.1412 539.803 62.0095C537.796 61.8063 535.763 61.7323 533.801 61.7003L530.795 61.6388C529.807 61.5943 528.719 61.637 527.689 61.6645C526.845 61.704 526.467 62.353 526.533 63.0678C526.513 63.6836 526.937 64.3652 527.723 64.3407Z" fill="#2B2B2B"/>
<path d="M548.351 67.8112L549.156 68.0871C549.429 68.198 549.745 68.2369 550.018 68.3479C550.607 68.4978 551.181 68.5906 551.739 68.6263C552.872 68.7549 553.917 68.7843 554.947 68.7568C555.863 68.7593 556.722 68.7769 557.555 68.9236C558.387 69.0703 559.264 69.3882 560.042 69.7933C560.748 70.1564 561.373 69.7476 561.709 69.1707C562.045 68.5938 561.948 67.7648 561.17 67.3598C560.68 67.1227 560.206 66.9428 559.716 66.7057C559.443 66.5948 559.184 66.5408 558.911 66.4299C558.637 66.3189 558.379 66.2649 558.064 66.2261C556.958 65.9683 555.856 65.9539 554.868 65.9094C553.822 65.8799 552.849 65.8924 551.918 65.8329C551.416 65.7821 550.987 65.7733 550.527 65.6504C550.269 65.5964 550.068 65.5275 549.881 65.5156L549.221 65.3237C548.488 65.0898 547.878 65.5557 547.614 66.1746C547.407 66.7784 547.546 67.5353 548.351 67.8112Z" fill="#2B2B2B"/>
<path d="M568.11 74.9288C569.048 75.475 569.871 76.0513 570.752 76.6125C571.632 77.1737 572.512 77.7349 573.435 78.224C575.063 79.0761 576.737 80.0995 578.14 81.2551C578.762 81.7624 579.489 81.5097 579.897 80.9748C580.305 80.44 580.41 79.68 579.773 79.1157C578.21 77.8189 576.522 76.7386 574.776 75.6732C573.911 75.169 573.045 74.6649 572.108 74.1187C571.243 73.6146 570.32 73.1255 569.497 72.5492C568.142 71.8081 566.725 74.0735 568.11 74.9288Z" fill="#2B2B2B"/>
<path d="M585.221 87.746C586.742 89.1149 588.121 90.643 589.657 92.0689C591.018 93.2966 592.353 94.6536 593.318 96.2299C593.742 96.9115 594.528 96.8871 595.039 96.5084C595.606 96.1146 595.969 95.4085 595.473 94.6849C594.349 92.9675 592.955 91.3823 591.476 89.9413C589.998 88.5004 588.477 87.1315 586.956 85.7627C585.811 84.661 584.034 86.7164 585.221 87.746Z" fill="#2B2B2B"/>
<path d="M596.734 104.789C597.062 105.801 597.42 106.927 597.949 108.008C598.463 109.032 599.076 109.969 599.731 110.833C600.284 111.542 600.853 112.308 601.291 113.046C601.511 113.416 601.673 113.8 601.851 114.241C602.028 114.683 602.191 115.067 602.311 115.524C602.507 116.265 603.24 116.499 603.924 116.319C604.552 116.153 605.131 115.573 604.906 114.717L604.71 113.976C604.65 113.747 604.518 113.477 604.457 113.249C604.265 112.75 604.072 112.252 603.766 111.783C603.267 110.816 602.611 109.952 602.028 109.129C601.445 108.306 600.877 107.541 600.423 106.745C599.969 105.949 599.614 105.066 599.358 104.096C599.106 103.37 598.373 103.136 597.745 103.301C596.988 103.44 596.466 104.005 596.734 104.789Z" fill="#2B2B2B"/>
<path d="M603.547 124.84C603.789 126.913 603.874 129.087 604.302 131.171C604.485 132.1 604.741 133.07 604.91 133.941C605.094 134.869 605.205 135.755 605.203 136.671C605.227 137.458 605.876 137.836 606.549 137.841C607.222 137.847 607.888 137.366 607.849 136.522C607.821 135.492 607.737 134.477 607.523 133.434L607.384 132.678L607.261 131.978L606.999 130.521C606.673 128.593 606.333 126.608 606.106 124.593C606.01 123.764 605.319 123.458 604.661 123.509C604.06 123.545 603.451 124.011 603.547 124.84Z" fill="#2B2B2B"/>
<path d="M604.725 146.199C604.609 148.304 604.378 150.44 604.578 152.584C604.647 153.543 604.702 154.444 604.714 155.417C604.727 156.39 604.724 157.306 604.593 158.195C604.503 159.012 605.11 159.463 605.798 159.525C606.486 159.588 607.182 159.221 607.272 158.404C607.374 157.401 607.418 156.413 607.448 155.367L607.471 153.835L607.437 152.319C607.397 150.315 607.357 148.312 607.431 146.278C607.439 144.689 604.79 144.595 604.725 146.199Z" fill="#2B2B2B"/>
<path d="M603.069 167.69C602.91 168.708 602.694 169.742 602.551 170.817C602.392 171.835 602.249 172.911 602.147 173.914C602.087 174.845 601.971 175.791 601.854 176.738C601.738 177.684 601.549 178.588 601.303 179.507C600.865 181.087 603.479 181.741 603.901 180.104C604.189 179.112 604.363 178.151 604.522 177.133C604.695 176.171 604.854 175.153 604.956 174.15C605.114 173.132 605.216 172.128 605.317 171.125C605.476 170.107 605.578 169.103 605.736 168.085C605.883 167.253 605.261 166.746 604.573 166.683C603.87 166.563 603.159 166.873 603.069 167.69Z" fill="#2B2B2B"/>
<path d="M598.272 188.605C597.927 189.612 597.639 190.603 597.294 191.609C596.95 192.616 596.662 193.607 596.446 194.64C596.069 196.449 595.535 198.359 594.827 200.072C594.245 201.568 596.748 202.495 597.33 200.999C597.689 200.049 597.992 199.115 598.352 198.166C598.655 197.231 598.943 196.24 599.231 195.249C599.519 194.257 599.749 193.281 600.037 192.29C600.325 191.298 600.556 190.322 600.859 189.388C601.296 187.808 598.725 187.082 598.272 188.605Z" fill="#2B2B2B"/>
<path d="M591.078 208.996C590.661 209.96 590.316 210.967 589.899 211.931C589.554 212.938 589.137 213.902 588.864 214.95C588.357 216.732 587.752 218.6 586.957 220.214C586.245 221.683 588.679 222.811 589.375 221.285C590.239 219.47 590.959 217.571 591.607 215.631C592.254 213.69 592.845 211.764 593.565 209.866C594.147 208.37 591.644 207.443 591.078 208.996Z" fill="#2B2B2B"/>
<path d="M582.326 228.573L581.528 229.943L580.73 231.313C580.184 232.25 579.68 233.116 579.206 234.095C578.425 235.766 577.474 237.481 576.406 238.984C575.478 240.327 577.702 241.815 578.629 240.472C579.205 239.649 579.782 238.826 580.286 237.96C580.79 237.095 581.294 236.23 581.783 235.307C582.287 234.442 582.719 233.535 583.209 232.612L583.95 231.257C584.202 230.825 584.439 230.335 584.691 229.902C585.111 229.181 584.687 228.5 584.11 228.163C583.533 227.827 582.746 227.852 582.326 228.573Z" fill="#2B2B2B"/>
<path d="M570.59 246.56C569.957 247.399 569.324 248.237 568.69 249.075C568.057 249.914 567.424 250.752 566.878 251.689C565.896 253.291 564.786 254.865 563.573 256.284C562.486 257.486 564.527 259.206 565.614 258.004C566.277 257.279 566.91 256.441 567.502 255.675C568.078 254.852 568.654 254.028 569.23 253.205L570.944 250.678C571.52 249.855 572.097 249.031 572.673 248.208C573.699 246.778 571.518 245.217 570.59 246.56Z" fill="#2B2B2B"/>
<path d="M556.921 263.226C555.51 264.819 553.997 266.255 552.73 267.932C551.59 269.392 550.35 270.94 549.035 272.202C547.861 273.305 549.703 275.199 550.934 274.081C552.405 272.717 553.702 271.154 555.014 269.649C556.311 268.086 557.607 266.524 558.919 265.018C559.991 263.759 558.007 262.024 556.921 263.226Z" fill="#2B2B2B"/>
<path d="M541.731 278.521C540.939 279.219 540.146 279.916 539.338 280.556C538.942 280.905 538.546 281.253 538.149 281.602C537.753 281.951 537.357 282.299 537.033 282.69C536.411 283.342 535.661 283.967 534.967 284.577C534.274 285.187 533.508 285.755 532.727 286.266C531.364 287.114 532.867 289.342 534.287 288.479C535.11 287.896 535.933 287.313 536.74 286.673C537.548 286.033 538.284 285.35 539.076 284.653C539.812 283.971 540.547 283.289 541.34 282.591C542.075 281.909 542.796 281.17 543.603 280.53C544.762 279.37 542.962 277.403 541.731 278.521Z" fill="#2B2B2B"/>
<path d="M524.398 290.784C522.465 291.782 520.546 292.838 518.874 294.133C517.399 295.254 515.826 296.462 514.22 297.313C512.826 298.047 514.059 300.407 515.567 299.643C519.149 297.722 522.148 294.978 525.646 293.201C526.4 292.819 526.433 292.017 526.096 291.435C525.744 290.795 525.095 290.417 524.398 290.784Z" fill="#2B2B2B"/>
<path d="M505.421 300.975C503.442 301.802 501.448 302.572 499.658 303.655C498.01 304.578 496.319 305.573 494.611 306.268C493.073 306.917 494.249 309.292 495.744 308.715C499.432 307.193 502.84 305.074 506.57 303.48C507.978 302.803 506.901 300.341 505.421 300.975Z" fill="#2B2B2B"/>
<path d="M485.608 309.618C484.668 309.988 483.641 310.258 482.629 310.586C481.617 310.914 480.662 311.227 479.665 311.612C478.839 311.952 477.956 312.307 477.058 312.605C476.16 312.903 475.247 313.143 474.319 313.327C472.749 313.619 473.327 316.274 474.939 315.91C475.925 315.711 476.895 315.455 477.85 315.142C478.805 314.83 479.76 314.517 480.715 314.204C481.654 313.834 482.609 313.521 483.606 313.136L486.498 312.068C488.081 311.59 487.119 309.097 485.608 309.618Z" fill="#2B2B2B"/>
<path d="M464.837 315.096C462.753 315.523 460.653 315.894 458.644 316.607C457.746 316.905 456.848 317.203 455.951 317.501C455.053 317.798 454.083 318.054 453.212 318.223C452.398 318.376 452.221 319.094 452.344 319.794C452.51 320.422 453.09 321.001 453.904 320.848C454.889 320.649 455.787 320.351 456.757 320.095C457.727 319.839 458.682 319.527 459.652 319.271C461.577 318.702 463.502 318.133 465.457 317.679C467.013 317.329 466.45 314.732 464.837 315.096Z" fill="#2B2B2B"/>
<path d="M443.724 319.505C441.652 319.746 439.507 319.946 437.381 320.446C436.925 320.566 436.468 320.686 436.012 320.807L435.327 320.987C435.099 321.048 434.928 321.093 434.699 321.153C433.828 321.322 432.927 321.376 432.053 321.301C431.308 321.254 430.858 321.861 430.795 322.549C430.733 323.237 431.099 323.933 431.973 324.008C433.034 324.094 434.121 324.052 435.22 323.823C435.806 323.729 436.262 323.609 436.719 323.489L438.161 323.169C440.131 322.772 442.101 322.374 444.044 322.106C445.717 321.97 445.325 319.327 443.724 319.505Z" fill="#2B2B2B"/>
<path d="M422.199 320.725C421.127 320.825 420.126 320.967 419.153 320.979C418.667 320.985 418.18 320.992 417.751 320.983C417.507 320.986 417.321 320.974 417.063 320.92C416.819 320.923 416.561 320.869 416.318 320.873C415.387 320.813 414.456 320.753 413.566 320.622C412.62 320.505 411.716 320.316 410.854 320.055C409.331 319.603 408.605 322.174 410.2 322.669C411.192 322.957 412.168 323.188 413.186 323.346L414.706 323.556L416.211 323.708C416.713 323.759 417.272 323.795 417.83 323.83C418.389 323.866 418.918 323.788 419.461 323.766C420.533 323.667 421.534 323.525 422.534 323.383C423.363 323.287 423.669 322.596 423.617 321.938C423.494 321.238 422.956 320.587 422.199 320.725Z" fill="#2B2B2B"/>
<path d="M401.708 316.853C400.702 316.508 399.737 316.091 398.788 315.731C397.839 315.371 396.832 315.026 395.826 314.681C394.964 314.421 394.029 314.118 393.152 313.8C392.275 313.482 391.383 313.107 390.604 312.702C389.192 311.976 387.992 314.367 389.476 315.135C390.384 315.567 391.291 315.999 392.24 316.359C393.19 316.719 394.139 317.079 395.088 317.439C396.038 317.799 397.029 318.087 397.963 318.39C398.955 318.678 399.904 319.038 400.838 319.34C402.392 319.907 403.246 317.363 401.708 316.853Z" fill="#2B2B2B"/>
<path d="M382.441 307.899C381.618 307.323 380.779 306.69 379.998 306.041C379.217 305.393 378.379 304.76 377.54 304.126C376.038 303.058 374.49 301.818 373.171 300.518C371.954 299.375 370.234 301.415 371.379 302.517C372.77 303.859 374.276 305.17 375.895 306.452C376.677 307.1 377.515 307.734 378.338 308.31C379.177 308.943 380 309.519 380.88 310.081C381.56 310.573 382.313 310.191 382.649 309.614C383.058 309.079 383.105 308.334 382.441 307.899Z" fill="#2B2B2B"/>
<path d="M366.228 293.865C365.488 293.145 364.806 292.409 364.109 291.617L363.078 290.485L362.555 289.89C362.381 289.692 362.149 289.509 361.975 289.311C360.584 287.969 359.093 286.714 357.873 285.327C357.35 284.733 356.593 284.872 356.098 285.307C355.603 285.743 355.384 286.533 355.907 287.128C357.229 288.671 358.735 289.983 360.012 291.354L361.043 292.486C361.391 292.883 361.782 293.207 362.131 293.603C362.87 294.324 363.609 295.044 364.348 295.765C364.928 296.344 365.727 296.133 366.151 295.655C366.631 295.163 366.808 294.445 366.228 293.865Z" fill="#2B2B2B"/>
<path d="M353.174 277.23C352.852 276.704 352.458 276.137 352.037 275.699C351.848 275.443 351.545 275.218 351.37 275.02C351.139 274.837 350.965 274.639 350.733 274.456C349.865 273.708 348.927 273.162 348.176 272.628C347.44 272.151 346.875 271.628 346.28 270.992C346.003 270.638 345.784 270.268 345.507 269.914C345.273 269.488 344.981 269.076 344.762 268.707C343.899 267.287 341.713 268.718 342.504 270.096C342.738 270.522 342.973 270.949 343.264 271.36C343.571 271.828 343.821 272.312 344.184 272.765C344.855 273.687 345.738 274.491 346.634 275.11C347.529 275.728 348.337 276.247 349.103 276.839C349.32 276.965 349.479 277.106 349.653 277.304C349.813 277.445 349.972 277.586 350.131 277.727C350.45 278.009 350.669 278.379 350.889 278.748C351.225 279.33 351.985 279.435 352.583 279.155C353.222 278.804 353.7 278.068 353.174 277.23Z" fill="#2B2B2B"/>
<path d="M339.348 260.431C337.995 258.774 336.57 257.074 334.936 255.736C334.226 255.129 333.46 254.538 332.736 253.875C332.012 253.211 331.303 252.605 330.693 251.911C330.17 251.317 329.413 251.456 328.932 251.948C328.437 252.384 328.218 253.174 328.813 253.811C329.162 254.207 329.495 254.546 329.844 254.943C330.178 255.282 330.568 255.606 330.902 255.945C331.626 256.609 332.35 257.272 333.09 257.992C334.538 259.319 336.002 260.703 337.267 262.261C337.79 262.856 338.562 262.774 339.057 262.339C339.595 261.831 339.886 261.083 339.348 260.431Z" fill="#2B2B2B"/>
<path d="M324.682 244.404C323.288 242.819 321.977 241.089 320.442 239.663C319.789 239.042 319.065 238.379 318.398 237.7C317.731 237.022 317.064 236.343 316.439 235.593C315.901 234.941 315.159 235.137 314.663 235.573C314.168 236.008 313.949 236.798 314.472 237.393C315.097 238.143 315.78 238.879 316.462 239.615C317.144 240.35 317.868 241.013 318.55 241.749C319.957 243.148 321.378 244.604 322.644 246.162C323.705 247.408 325.743 245.65 324.682 244.404Z" fill="#2B2B2B"/>
<path d="M309.662 228.408L308.403 227.336L307.781 226.829L307.102 226.337C306.655 226.028 306.207 225.718 305.759 225.409C305.311 225.1 304.879 224.848 304.446 224.596C303.653 224.134 302.845 223.615 302.051 223.153C301.243 222.633 300.477 222.042 299.783 221.493C298.524 220.421 296.891 222.561 298.135 223.575C298.916 224.223 299.682 224.815 300.506 225.391C301.329 225.967 302.152 226.544 303.033 227.105L304.346 227.918L305.587 228.689C306.019 228.941 306.41 229.266 306.786 229.533C307.176 229.857 307.552 230.124 307.942 230.448C309.129 231.478 310.937 229.536 309.662 228.408Z" fill="#2B2B2B"/>
<path d="M292.43 215.134C291.592 214.5 290.738 213.81 289.843 213.192C288.948 212.574 288.052 211.955 287.13 211.466C286.28 211.019 285.429 210.572 284.579 210.125C284.146 209.873 283.729 209.678 283.296 209.426C282.863 209.174 282.446 208.979 282.07 208.712C281.349 208.291 280.652 208.658 280.388 209.277C280.052 209.854 280.134 210.626 280.798 211.061C281.231 211.313 281.663 211.565 282.024 211.775L283.322 212.531C284.172 212.979 285.037 213.483 285.903 213.987C286.768 214.491 287.576 215.01 288.442 215.514C289.265 216.091 290.073 216.61 290.911 217.243C292.098 218.273 293.731 216.133 292.43 215.134Z" fill="#2B2B2B"/>
<path d="M272.968 204.52L272.178 204.301L271.445 204.067C270.929 203.959 270.454 203.78 269.994 203.657C269.003 203.369 268.012 203.081 267.035 202.85C265.269 202.401 263.415 201.852 261.787 201C261.081 200.637 260.399 201.061 260.135 201.679C259.871 202.298 259.896 203.085 260.659 203.433C261.566 203.865 262.531 204.282 263.48 204.642C264.429 205.002 265.421 205.29 266.412 205.578C267.403 205.866 268.38 206.096 269.428 206.369C270.404 206.6 271.495 206.801 272.372 207.119C273.105 207.352 273.699 206.829 273.891 206.169C274.011 205.466 273.815 204.724 272.968 204.52Z" fill="#2B2B2B"/>
<path d="M253.439 196.182C253.223 196.056 252.949 195.945 252.718 195.762L251.94 195.357C251.393 195.135 250.888 194.84 250.357 194.676C249.81 194.454 249.278 194.289 248.746 194.124C248.215 193.959 247.641 193.866 247.082 193.83C246.581 193.78 246.079 193.729 245.634 193.663C245.133 193.612 244.631 193.561 244.145 193.568C243.141 193.466 242.21 193.406 241.264 193.29C239.615 193.053 239.406 195.733 240.983 195.927C241.929 196.044 242.932 196.145 243.879 196.262C244.825 196.379 245.771 196.495 246.732 196.669C247.694 196.843 248.598 197.031 249.475 197.349C249.935 197.472 250.352 197.667 250.77 197.862C251.187 198.057 251.605 198.252 252.038 198.504C253.537 199.33 254.809 196.98 253.439 196.182Z" fill="#2B2B2B"/>
<path d="M231.809 191.695C229.758 191.321 227.676 190.832 225.498 190.674C223.636 190.555 221.602 190.481 219.725 190.305C218.908 190.215 218.473 190.879 218.395 191.51C218.39 192.183 218.756 192.88 219.516 192.984C221.451 193.146 223.4 193.364 225.335 193.525C227.284 193.743 229.306 194.003 231.285 194.336C232.949 194.629 233.402 191.947 231.809 191.695Z" fill="#2B2B2B"/>
<path d="M209.873 189.972C207.713 190.114 205.554 190.257 203.484 190.741C201.643 191.166 199.703 191.677 197.874 191.916C196.231 192.166 196.794 194.764 198.38 194.528C202.252 193.935 206.132 192.911 210.078 192.603C211.652 192.554 211.561 189.893 209.873 189.972Z" fill="#2B2B2B"/>
<path d="M188.223 193.728C187.196 193.999 186.169 194.269 185.141 194.54C184.129 194.868 183.117 195.196 182.12 195.581C181.238 195.936 180.37 196.348 179.472 196.646C178.589 197.001 177.691 197.299 176.793 197.597C175.21 198.075 176.116 200.582 177.641 200.119C178.611 199.863 179.566 199.55 180.449 199.195C181.404 198.883 182.344 198.513 183.227 198.158L186.077 197.162C187.032 196.849 187.987 196.536 188.957 196.28C190.513 195.931 189.82 193.306 188.223 193.728Z" fill="#2B2B2B"/>
<path d="M167.425 200.494C166.428 200.879 165.431 201.264 164.434 201.649C163.437 202.034 162.455 202.476 161.56 203.018C160.764 203.472 159.912 203.941 159.044 204.353C158.191 204.822 157.308 205.177 156.44 205.588C154.903 206.238 156.078 208.613 157.574 208.036C158.514 207.666 159.382 207.254 160.307 206.827C161.231 206.4 162.099 205.988 163.009 205.504C163.934 205.077 164.787 204.608 165.712 204.181C166.637 203.754 167.519 203.399 168.459 203.029C169.228 202.704 169.348 202.001 169.11 201.332C168.831 200.734 168.209 200.227 167.425 200.494Z" fill="#2B2B2B"/>
<path d="M147.518 209.471C147.034 209.721 146.551 209.971 146.067 210.22L144.617 210.969C143.65 211.468 142.77 212.066 141.891 212.664C141.125 213.232 140.359 213.8 139.579 214.311C138.798 214.823 137.975 215.406 137.18 215.86C135.744 216.665 137.19 218.908 138.568 218.118C139.421 217.649 140.259 217.123 141.097 216.596C141.934 216.07 142.757 215.487 143.595 214.961C144.433 214.435 145.255 213.852 146.093 213.326C146.931 212.8 147.783 212.331 148.693 211.847C150.144 211.098 148.953 208.666 147.518 209.471Z" fill="#2B2B2B"/>
<path d="M128.784 220.82C127.904 221.418 127.024 222.016 126.16 222.672C125.295 223.327 124.487 223.967 123.695 224.664C123.016 225.331 122.323 225.942 121.587 226.624C120.837 227.249 120.143 227.859 119.378 228.427C118.06 229.446 119.761 231.5 121.079 230.481C121.901 229.898 122.652 229.272 123.403 228.647C124.153 228.022 124.889 227.34 125.696 226.7C126.447 226.075 127.182 225.392 127.99 224.752C128.798 224.112 129.563 223.544 130.386 222.961C131.62 222.086 130.132 219.915 128.784 220.82Z" fill="#2B2B2B"/>
<path d="M111.696 234.48C110.904 235.177 110.126 235.932 109.334 236.629C108.541 237.326 107.821 238.065 107.1 238.805C105.872 240.166 104.473 241.573 103.029 242.808C101.783 243.869 103.584 245.835 104.83 244.774C106.331 243.524 107.787 242.102 109.186 240.696L111.305 238.55C112.026 237.811 112.704 237.144 113.44 236.462C114.034 235.939 113.88 235.125 113.445 234.629C113.009 234.134 112.276 233.9 111.696 234.48Z" fill="#2B2B2B"/>
<path d="M95.7892 249.601C95.0988 250.454 94.4235 251.365 93.8202 252.317C93.5111 252.765 93.217 253.27 92.98 253.759L92.7699 254.12L92.6169 254.465L92.311 255.156C91.588 256.812 90.7088 258.569 89.6253 260.015C89.118 260.637 89.4277 261.348 89.9626 261.757C90.4975 262.165 91.3145 262.254 91.8067 261.575C93.0313 259.971 94.0666 258.111 94.9307 256.296L95.2367 255.605L95.5577 254.971C95.7527 254.554 96.0049 254.121 96.2569 253.688C96.509 253.256 96.761 252.823 97.0282 252.447C97.2953 252.072 97.5474 251.639 97.8715 251.249C98.3788 250.627 98.1262 249.9 97.5913 249.492C97.0984 249.011 96.3385 248.907 95.7892 249.601Z" fill="#2B2B2B"/>
<path d="M83.2634 267.364C82.0269 269.154 80.7904 270.945 79.8994 272.889C79.1193 274.559 78.2401 276.317 77.1867 277.876C76.2743 279.277 78.5819 280.621 79.4522 279.293C79.9714 278.485 80.5326 277.604 80.9797 276.754C81.4839 275.889 81.973 274.966 82.42 274.116C83.3562 272.343 84.2924 270.571 85.3878 268.939C85.823 268.275 85.5132 267.564 84.9784 267.155C84.5727 266.774 83.7556 266.684 83.2634 267.364Z" fill="#2B2B2B"/>
<path d="M71.9982 286.206C71.5241 287.185 71.035 288.107 70.576 289.144C70.102 290.123 69.7571 291.13 69.4273 292.193C69.3044 292.653 69.1815 293.112 69.0586 293.572C68.9356 294.032 68.7977 294.434 68.6178 294.909C68.2999 295.786 67.9819 296.663 67.5348 297.514C66.8238 298.983 69.2573 300.111 69.9684 298.642C70.4004 297.734 70.8324 296.827 71.1773 295.821C71.3573 295.346 71.5372 294.871 71.7022 294.34L72.185 292.931C72.7907 291.062 73.5106 289.163 74.3897 287.406C75.1729 285.979 72.7663 284.721 71.9982 286.206Z" fill="#2B2B2B"/>
<path d="M63.3258 306.313C62.9959 307.377 62.594 308.398 62.3363 309.504C62.2823 309.762 62.2284 310.02 62.1895 310.336L62.0428 311.168C61.95 311.742 61.9713 312.285 61.9356 312.844C61.9418 313.331 61.9632 313.874 61.9694 314.361C61.9757 314.847 62.039 315.319 62.0453 315.806C62.0516 316.292 62.0428 316.722 62.0491 317.208C62.0553 317.695 61.9895 318.139 61.9236 318.584C61.7292 320.161 64.4236 320.427 64.603 318.793C64.6538 318.291 64.7046 317.79 64.7554 317.288C64.7491 316.801 64.7848 316.243 64.7786 315.756L64.7598 314.296C64.7535 313.81 64.7623 313.38 64.756 312.894L64.8187 312.206L64.8814 311.518C64.9322 311.016 64.9981 310.572 65.121 310.112C65.2947 309.151 65.5405 308.232 65.8434 307.297C66.1343 306.549 65.6113 305.955 64.9924 305.691C64.4156 305.355 63.6017 305.508 63.3258 306.313Z" fill="#2B2B2B"/>
<path d="M60.4573 328.063C60.155 330.157 59.7957 332.266 59.7518 334.413C59.7493 335.329 59.7048 336.318 59.6603 337.306C59.6666 337.792 59.6157 338.294 59.5499 338.739C59.4991 339.24 59.4903 339.67 59.4395 340.171C59.2602 341.805 61.9245 341.957 62.1189 340.38C62.1697 339.879 62.2205 339.377 62.2863 338.932C62.3371 338.431 62.3879 337.929 62.4387 337.427C62.4832 336.439 62.5848 335.436 62.6293 334.448C62.7755 332.456 62.9216 330.465 63.1818 328.443C63.3612 326.809 60.7087 326.471 60.4573 328.063Z" fill="#2B2B2B"/>
<path d="M58.7938 349.985C58.8151 350.528 58.8935 351.057 58.9299 351.658L59.0264 352.487L59.18 353.301C59.2584 353.829 59.3518 354.415 59.4873 354.928C59.6227 355.442 59.7732 356.012 59.9657 356.511C60.1431 356.952 60.2635 357.409 60.456 357.907C60.6334 358.349 60.7539 358.805 60.9313 359.247C61.2292 360.145 61.4699 361.058 61.7107 361.971C62.06 363.526 64.6428 362.906 64.2935 361.351C64.0947 360.365 63.8389 359.395 63.526 358.44L63.0777 356.972L62.6595 355.617C62.3617 354.72 62.1629 353.734 61.9221 352.822C61.8619 352.593 61.8017 352.365 61.7986 352.122L61.7321 351.407C61.6688 350.935 61.6054 350.464 61.5841 349.92C61.5026 349.148 60.8536 348.77 60.1808 348.765C59.4359 348.717 58.7543 349.141 58.7938 349.985Z" fill="#2B2B2B"/>
<path d="M63.405 371.41C63.8896 373.479 64.2602 375.578 64.9161 377.602C65.5118 379.398 66.1225 381.251 66.547 383.092C66.9113 384.705 69.4791 384.028 69.1298 382.472C68.9311 381.487 68.6752 380.517 68.4344 379.604C68.1786 378.634 67.8657 377.679 67.6099 376.709C67.0412 374.784 66.4724 372.859 66.0178 370.904C65.6385 369.234 63.0407 369.797 63.405 371.41Z" fill="#2B2B2B"/>
<path d="M68.8028 392.568C69.1308 393.58 69.4738 394.649 69.8588 395.646C70.2438 396.643 70.6858 397.625 71.1849 398.592C72.1079 400.241 73.0459 401.946 73.7557 403.712C74.4053 405.249 76.7956 404.131 76.2181 402.635C75.4933 400.812 74.5973 399.035 73.7012 397.257C73.2893 396.389 72.8052 395.479 72.4503 394.597C72.0804 393.657 71.6684 392.789 71.3555 391.834C70.862 390.194 68.3244 390.985 68.8028 392.568Z" fill="#2B2B2B"/>
<path d="M77.65 412.693C78.1491 413.66 78.6483 414.627 79.1323 415.537C79.6314 416.504 80.2296 417.383 80.8278 418.263C81.3959 419.029 81.964 419.794 82.5321 420.56C83.1002 421.326 83.6263 422.163 84.1373 422.944C85.0001 424.364 87.228 422.861 86.3802 421.498C85.8541 420.66 85.328 419.823 84.802 418.985C84.2759 418.147 83.6928 417.325 83.1667 416.487C82.0574 414.826 81.0053 413.151 80.0522 411.388C79.6854 410.692 78.9254 410.587 78.2858 410.939C77.6462 411.291 77.2681 411.94 77.65 412.693Z" fill="#2B2B2B"/>
<path d="M689.39 227.61C689.347 217.926 681.444 210.094 671.761 210.137C662.077 210.18 654.245 218.082 654.288 227.766C654.288 227.766 654.09 228.674 654.553 230.791C654.76 232 655.118 233.108 655.527 234.216C657.366 239.453 661.692 248.361 671.993 262.387C682.118 248.27 686.416 239.324 688.208 234.071C688.657 232.959 688.955 231.798 689.151 230.637C689.545 228.517 689.39 227.61 689.39 227.61ZM671.886 238.329C665.985 238.356 661.223 233.636 661.197 227.735C661.171 221.834 665.891 217.072 671.792 217.046C677.692 217.02 682.454 221.74 682.48 227.64C682.507 233.541 677.737 238.303 671.886 238.329Z" fill="#2B2B2B"/>
<path d="M664.669 264.883C662.985 268.167 664.282 272.194 667.566 273.878C670.849 275.562 674.876 274.265 676.56 270.981C678.244 267.697 676.947 263.67 673.663 261.986C670.379 260.303 666.352 261.6 664.669 264.883Z" fill="#2B2B2B"/>
</g>
<g filter="url(#filter0_d_331_1174)">
<path d="M115.879 394.15L120.012 402.201L98.1416 438.858L109.507 460.997C111.222 464.338 109.909 468.42 106.568 470.135C103.227 471.85 99.146 470.537 97.4309 467.196L86.0657 445.057L43.5313 441.462L39.3985 433.411L76.7669 426.944L65.4017 404.804L54.2515 402.899L51.1519 396.861L67.3069 393.654L79.329 382.397L82.4286 388.434L77.4776 398.605L88.8428 420.744L115.879 394.15Z" fill="#D2EAFE"/>
</g>
<defs>
<filter id="filter0_d_331_1174" x="25.3984" y="375.398" width="108.613" height="116.488" filterUnits="userSpaceOnUse" color-interpolation-filters="sRGB">
<feFlood flood-opacity="0" result="BackgroundImageFix"/>
<feColorMatrix in="SourceAlpha" type="matrix" values="0 0 0 0 0 0 0 0 0 0 0 0 0 0 0 0 0 0 127 0" result="hardAlpha"/>
<feOffset dy="7"/>
<feGaussianBlur stdDeviation="7"/>
<feComposite in2="hardAlpha" operator="out"/>
<feColorMatrix type="matrix" values="0 0 0 0 0 0 0 0 0 0 0 0 0 0 0 0 0 0 0.1 0"/>
<feBlend mode="normal" in2="BackgroundImageFix" result="effect1_dropShadow_331_1174"/>
<feBlend mode="normal" in="SourceGraphic" in2="effect1_dropShadow_331_1174" result="shape"/>
</filter>
</defs>
</svg>
