<svg width="16" height="16" viewBox="0 0 16 16" fill="none" xmlns="http://www.w3.org/2000/svg">
<path d="M7.981 0C3.57245 0 0 3.59145 0 8.019C0 12.4466 3.59145 16 8 16C12.4276 16 16 12.4276 16 8C15.981 3.57245 12.4086 0 7.981 0ZM8.019 14.7268C4.29454 14.7268 1.29216 11.7435 1.27316 8.019C1.27316 4.31354 4.27553 1.29216 7.981 1.27316C11.6865 1.27316 14.7078 4.27553 14.7078 8C14.7268 11.7055 11.7245 14.7078 8.019 14.7268Z" fill="#1E96FC"/>
<path d="M9.06411 8.15204C8.9501 8.03803 8.91209 7.96202 9.06411 7.829C9.7482 7.14492 10.4323 6.46083 11.1164 5.77675C11.1924 5.70074 11.2684 5.60573 11.3254 5.51071C11.4394 5.22568 11.3444 4.90264 11.0974 4.75062C10.8313 4.5796 10.5083 4.5986 10.2803 4.84563C9.57718 5.54872 8.85509 6.25181 8.152 6.9739C8.05699 7.06891 7.99998 7.06891 7.90497 6.9739C7.20188 6.27081 6.49879 5.56772 5.81471 4.86463C5.64369 4.69361 5.45366 4.5986 5.20663 4.65561C4.9596 4.71261 4.78858 4.84563 4.71257 5.09266C4.63656 5.35869 4.71257 5.56772 4.88359 5.75774C5.58668 6.46083 6.28977 7.16392 6.99285 7.84801C7.12587 7.96202 7.08787 8.01903 6.99285 8.13304C6.28977 8.81713 5.60568 9.52022 4.9216 10.2043C4.75057 10.3753 4.65556 10.5843 4.71257 10.8314C4.82658 11.3444 5.43466 11.4965 5.81471 11.1164C6.5368 10.4133 7.23989 9.71024 7.94297 8.98815C8.03798 8.89314 8.07599 8.89314 8.171 8.98815C8.87409 9.69124 9.57718 10.3943 10.2613 11.0974C10.3943 11.2304 10.5463 11.3254 10.7933 11.3254C10.8123 11.3254 10.8693 11.3254 10.9453 11.3064C11.4204 11.1544 11.5534 10.6034 11.1924 10.2233C10.4513 9.53922 9.7482 8.85513 9.06411 8.15204Z" fill="#1E96FC"/>
</svg>
