<svg width="384" height="409" viewBox="0 0 384 409" fill="none" xmlns="http://www.w3.org/2000/svg">
<path d="M383.233 120.8C383.233 114.7 383.233 108.6 383.233 102.4C383.233 96.9 380.833 92.7 375.833 90.2C359.233 81.9 342.733 73.5 326.033 65.3C319.133 61.9 311.933 64.3 308.633 70.6C305.333 77 307.833 84.3 314.833 88.1C318.833 90.2 322.833 92.3 326.933 94.2C330.733 96 334.933 97.2 332.633 102.9C332.533 103.2 332.733 103.7 332.733 104.1C334.033 118.9 342.033 129.2 354.533 136.3C356.933 137.7 357.833 139 357.833 141.7C357.733 191.6 357.733 241.5 357.733 291.3C357.733 292.4 357.733 293.4 357.633 294.5C357.233 299.9 353.533 304.3 348.433 305.8C339.833 308.2 332.233 302.1 332.233 292.4C332.233 259.7 331.833 227 332.333 194.2C332.833 162.5 309.133 137 284.433 129.8C281.733 129 281.133 127.8 281.133 125.2C281.233 100.6 281.333 76 281.133 51.4C280.933 22 258.933 0.1 229.533 0C179.233 0 128.933 0 78.6332 0C74.5332 0 70.3332 0.3 66.3332 1.2C41.4332 7.2 25.7332 27.1 25.7332 52.8C25.7332 91.6 25.7332 130.5 25.7332 169.3C25.7332 223.8 25.7332 278.4 25.8332 332.9C25.8332 335.9 24.9332 337.4 22.2332 338.5C17.6332 340.5 13.2332 343 8.73318 345.2C2.83318 348 0.133181 352.7 0.233181 359.2C0.233181 370 0.533181 380.8 0.0331806 391.5C-0.366819 399.9 2.83318 405.5 10.5332 408.6C106.033 408.6 201.533 408.6 297.033 408.6C304.033 405.9 306.833 400.8 306.633 393.4C306.433 382 306.433 370.5 306.633 359.1C306.733 352.5 303.933 348 298.033 345.1C293.533 342.9 289.133 340.4 284.433 338.4C281.733 337.2 280.933 335.6 280.933 332.7C281.033 275 281.033 217.3 281.033 159.5C281.033 158.2 281.033 157 281.033 155.6C296.333 161.7 306.533 176.6 306.533 192.6C306.633 225.3 306.533 258 306.533 290.8C306.533 296.1 307.233 301.3 308.933 306.5C315.633 327.1 342.033 337.9 361.233 327.9C376.033 320.2 383.133 307.9 383.133 291.5C383.233 234.7 383.233 177.7 383.233 120.8ZM281.133 367.3C280.933 371.8 281.033 376.3 281.133 380.9C281.133 382.6 280.733 383.4 278.933 383.2C278.233 383.1 277.633 383.2 276.933 383.2C194.633 383.2 112.333 383.2 30.0332 383.3C26.2332 383.3 25.3332 382.1 25.7332 378.7C26.1332 374.2 24.1332 368.8 26.5332 365.5C28.8332 362.3 33.9332 361.3 37.9332 359.3C39.1332 358.7 40.2332 358.1 41.5332 357.6C48.6332 354.6 51.5332 349.4 51.5332 341.7C51.4332 246.1 51.6332 150.5 51.2332 54.9C51.0332 36.4 63.8332 25.3 80.3332 25.4C129.433 25.8 178.433 25.5 227.533 25.5C245.533 25.5 255.533 35.5 255.533 53.7C255.533 101.6 255.533 149.4 255.533 197.3C255.533 245.3 255.633 293.3 255.433 341.3C255.433 349.2 258.433 354.4 265.633 357.5C270.133 359.4 274.433 361.8 278.833 364C280.233 364.8 281.233 365.4 281.133 367.3Z" fill="#1E96FC"/>
<path d="M215.333 63.8999C174.133 63.8999 132.833 63.8999 91.6334 63.8999C81.6334 63.8999 76.7334 68.7999 76.7334 78.8999C76.7334 111.5 76.7334 144.1 76.7334 176.7C76.7334 186.8 81.6334 191.7 91.6334 191.7C112.233 191.7 132.833 191.7 153.433 191.7C174.033 191.7 194.633 191.7 215.233 191.7C224.933 191.7 229.933 186.7 229.933 176.9C229.933 144.2 229.933 111.5 229.933 78.6999C230.033 68.7999 225.133 63.8999 215.333 63.8999ZM204.533 162.8C204.533 165.4 203.833 166.1 201.233 166.1C169.333 166 137.433 166 105.433 166.1C102.833 166.1 102.133 165.5 102.133 162.8C102.233 139.4 102.233 116 102.133 92.5999C102.133 89.9999 102.833 89.2999 105.433 89.2999C121.433 89.3999 137.333 89.3999 153.333 89.3999C169.333 89.3999 185.233 89.4999 201.233 89.2999C203.833 89.2999 204.533 89.9999 204.533 92.5999C204.433 116 204.433 139.4 204.533 162.8Z" fill="#1E96FC"/>
</svg>
