<svg width="11" height="16" viewBox="0 0 11 16" fill="none" xmlns="http://www.w3.org/2000/svg">
<g clip-path="url(#clip0_2910_1244)">
<path d="M5.45249 13.1397C5.49718 13.0503 5.58657 13.0056 5.67595 13.0056C6.83796 13.0056 8.04467 13.0056 9.20668 13.0056C10.0558 13.0056 10.5922 12.4693 10.5922 11.6201C10.5922 11.2626 10.5922 10.8603 10.5922 10.5028C10.5922 10.2793 10.5922 10.0559 10.5475 9.83241C10.3687 8.80447 9.51953 8.13408 8.4469 8.13408C7.46366 8.13408 6.52511 8.13408 5.54187 8.13408C5.31841 8.13408 5.27372 8.08939 5.22902 7.86593C5.13964 7.37431 5.05025 6.88269 4.96087 6.39107C4.91617 6.25699 4.96087 6.25699 5.09495 6.25699C5.67595 6.25699 6.21226 6.25699 6.79327 6.25699C7.50835 6.25699 8.17874 6.25699 8.89383 6.25699C9.20668 6.25699 9.47483 6.03352 9.47483 5.72067C9.47483 5.40782 9.20668 5.13967 8.89383 5.13967C7.55305 5.13967 6.25696 5.13967 4.91617 5.13967C4.7821 5.13967 4.7374 5.09498 4.7374 5.00559C4.55863 3.88827 4.33517 2.77095 4.1564 1.69833C4.02232 0.893859 3.39662 0.223467 2.59215 0.0446965C2.14522 -0.044689 1.74299 3.75044e-06 1.29606 3.75044e-06C0.446901 0.0446965 -0.134105 0.75978 0.0446659 1.56425C0.178744 2.18995 0.26813 2.86034 0.402208 3.48604C0.849135 6.03352 1.34076 8.6257 1.83238 11.1732C2.01115 12.0223 2.45807 12.648 3.30724 12.9162C3.62009 13.0056 3.93293 13.0056 4.24578 13.0056C4.02232 13.3631 3.84355 13.676 3.62009 13.9888C3.44131 14.3017 3.35193 14.6145 3.44131 14.9721C3.57539 15.5978 4.11171 16 4.7821 16C6.39104 16 7.99997 16 9.60891 16C9.65361 16 9.6983 16 9.74299 16C10.1005 15.9553 10.324 15.6425 10.2346 15.3296C10.1452 15.0615 9.96645 14.9274 9.60891 14.9274C7.99997 14.9274 6.39104 14.9274 4.7821 14.9274C4.69271 14.9274 4.60333 14.9274 4.55863 14.838C4.51394 14.7486 4.55863 14.6592 4.60333 14.5698C4.87148 14.0335 5.18433 13.5866 5.45249 13.1397ZM3.93293 11.8883C3.35193 11.8883 3.03908 11.6201 2.905 11.0391C2.41338 8.35755 1.87707 5.63129 1.38545 2.94972C1.34076 2.4581 1.20668 1.96648 1.11729 1.43017C1.0726 1.16201 1.11729 1.11732 1.38545 1.11732C1.6536 1.11732 1.87707 1.11732 2.14522 1.11732C2.59215 1.11732 2.94969 1.43017 3.03908 1.8771C3.39662 3.79889 3.75416 5.67598 4.06701 7.59777C4.11171 7.82123 4.1564 8 4.20109 8.22347C4.33517 8.84916 4.82679 9.29609 5.49718 9.29609C6.48042 9.29609 7.46366 9.29609 8.4469 9.29609C9.16198 9.29609 9.51953 9.65364 9.51953 10.3687C9.51953 10.771 9.51953 11.2179 9.51953 11.6201C9.51953 11.8436 9.47483 11.8883 9.25137 11.8883C8.35752 11.8883 7.46366 11.8883 6.56981 11.8883C5.67595 11.8883 4.82679 11.8883 3.93293 11.8883Z" fill="#1E96FC"/>
</g>
<defs>
<clipPath id="clip0_2910_1244">
<rect width="10.6369" height="16" fill="white"/>
</clipPath>
</defs>
</svg>
