<svg width="16" height="13" viewBox="0 0 16 13" fill="none" xmlns="http://www.w3.org/2000/svg">
<path d="M15.8313 6.38808C14.9455 2.04361 10.6714 -0.74022 6.34095 0.173664C3.09315 0.862592 0.56239 3.54801 0.0843585 6.82393C0.056239 6.99264 0.0702988 7.17542 0 7.33008C0 7.76593 0 8.20178 0 8.63764C0.056239 8.6517 0.0281195 8.69387 0.0281195 8.73605C0.140598 9.87489 0.478032 10.9434 1.04042 11.9417C1.20914 12.2369 1.46221 12.3072 1.75747 12.1385C2.1652 11.9136 2.55888 11.6745 2.95255 11.4496C3.23374 11.2949 3.3181 11.0278 3.1775 10.7747C3.03691 10.5357 2.75571 10.4795 2.48858 10.6341C2.20738 10.7888 1.94025 10.9434 1.65905 11.1122C1.26538 10.2967 1.02636 9.4531 0.956063 8.55328C0.942004 8.45486 0.998242 8.45486 1.06854 8.45486C1.34974 8.45486 1.64499 8.45486 1.92619 8.45486C2.2355 8.45486 2.43234 8.25802 2.43234 7.97683C2.43234 7.70969 2.22144 7.51286 1.91213 7.51286C1.63093 7.51286 1.3638 7.51286 1.0826 7.51286C0.984183 7.51286 0.942004 7.4988 0.956063 7.38632C1.02636 6.54273 1.25132 5.72727 1.61687 4.96804C1.65905 4.89774 1.67311 4.88368 1.75747 4.92586C2.01054 5.08052 2.26362 5.22112 2.5167 5.36171C2.78383 5.51637 3.06503 5.44607 3.19156 5.20706C3.33216 4.96804 3.2478 4.7009 2.98067 4.54625C2.72759 4.40565 2.47452 4.25099 2.22144 4.1104C2.1652 4.08228 2.13708 4.05416 2.17926 3.98386C2.67135 3.26681 3.27592 2.66224 3.99297 2.17015C4.06327 2.12797 4.09139 2.14203 4.11951 2.19827C4.26011 2.45134 4.4007 2.69036 4.5413 2.94344C4.69596 3.22463 4.96309 3.30899 5.21617 3.16839C5.45518 3.02779 5.51142 2.7466 5.35677 2.47946C5.21617 2.22639 5.07557 1.98737 4.93497 1.7343C4.90685 1.67806 4.87873 1.63588 4.96309 1.60776C5.75044 1.24221 6.56591 1.01725 7.43761 0.946951C7.52197 0.932891 7.53603 0.961011 7.53603 1.04537C7.53603 1.34062 7.53603 1.62182 7.53603 1.91707C7.53603 2.21233 7.73286 2.42322 8.01406 2.42322C8.28119 2.42322 8.47803 2.21233 8.47803 1.91707C8.47803 1.63588 8.49209 1.36874 8.47803 1.08755C8.47803 0.946951 8.52021 0.932891 8.64675 0.946951C9.47627 1.03131 10.2636 1.24221 11.0228 1.5937C11.1072 1.63588 11.1353 1.664 11.0791 1.74836C10.9244 1.98737 10.7838 2.24045 10.6432 2.49352C10.4886 2.76066 10.5589 3.02779 10.7838 3.16839C11.0228 3.30899 11.29 3.22463 11.4446 2.9575C11.5852 2.70442 11.7399 2.4654 11.8664 2.21233C11.9086 2.12797 11.9508 2.12797 12.0211 2.18421C12.7241 2.6763 13.3146 3.26681 13.7926 3.9698C13.8489 4.0401 13.8348 4.08228 13.7504 4.12445C13.4974 4.26505 13.2583 4.40565 13.0053 4.54625C12.7381 4.7009 12.6538 4.96804 12.7944 5.20706C12.935 5.44607 13.2021 5.51637 13.4692 5.36171C13.7223 5.22112 13.9754 5.06646 14.2285 4.92586C14.2988 4.88368 14.3269 4.88368 14.3691 4.96804C14.7346 5.74133 14.9596 6.55679 15.0299 7.40038C15.0439 7.4988 15.0158 7.52692 14.9174 7.51286C14.6362 7.51286 14.3409 7.51286 14.0598 7.51286C13.7645 7.51286 13.5536 7.70969 13.5536 7.99089C13.5536 8.25802 13.7645 8.4408 14.0598 8.45486C14.355 8.45486 14.6362 8.45486 14.9315 8.45486C15.0158 8.45486 15.0439 8.48298 15.0299 8.56734C15.0018 8.75011 14.9877 8.93289 14.9596 9.12973C14.8471 9.81866 14.6362 10.4795 14.3269 11.1122C14.0457 10.9434 13.7645 10.7747 13.4692 10.6201C13.2162 10.4795 12.935 10.5357 12.8084 10.7747C12.6678 11.0137 12.7522 11.2809 13.0053 11.4355C13.413 11.6745 13.8067 11.8995 14.2144 12.1385C14.5237 12.3213 14.7768 12.251 14.9455 11.9276C15.9156 10.1842 16.225 8.32832 15.8313 6.38808Z" fill="#1E96FC"/>
<path d="M6.63624 7.45663C6.25663 8.42675 6.94556 9.45312 8.04222 9.46718C8.18281 9.46718 8.37965 9.43906 8.54837 9.3547C8.63273 9.31252 8.67491 9.32658 8.73114 9.39688C8.87174 9.53747 9.01234 9.67807 9.15294 9.81867C9.36383 10.0155 9.64503 10.0296 9.84187 9.83273C10.0246 9.64995 10.0246 9.36876 9.82781 9.15786C9.68721 9.01726 9.54661 8.87667 9.40601 8.73607C9.33571 8.67983 9.33571 8.62359 9.36383 8.53923C9.57473 7.94872 9.49037 7.41445 9.05452 6.96454C8.61867 6.52869 8.09846 6.40215 7.50795 6.61304C7.38141 6.65522 7.31111 6.64116 7.22675 6.54275C6.55188 5.86788 5.87701 5.19301 5.20215 4.50408C5.06155 4.36348 4.90689 4.27913 4.71006 4.33536C4.3445 4.43378 4.23202 4.86964 4.51322 5.15083C5.20215 5.85382 5.90513 6.54275 6.59406 7.23167C6.6503 7.31603 6.66436 7.35821 6.63624 7.45663ZM7.98598 7.45663C8.28123 7.45663 8.52025 7.69565 8.52025 7.9909C8.52025 8.28616 8.29529 8.52517 7.98598 8.52517C7.69072 8.52517 7.45171 8.30022 7.45171 7.9909C7.46577 7.70971 7.70478 7.47069 7.98598 7.45663Z" fill="#1E96FC"/>
<path d="M9.47651 11.548C8.49233 11.548 7.50815 11.548 6.52396 11.548C6.46773 11.548 6.41149 11.548 6.35525 11.5761C6.13029 11.6464 5.98969 11.8714 6.03187 12.0963C6.05999 12.3213 6.25683 12.49 6.5099 12.49C7.002 12.49 7.49409 12.49 7.98618 12.49C8.47827 12.49 8.97036 12.49 9.44839 12.49C9.64523 12.49 9.79989 12.4197 9.89831 12.2369C10.0811 11.9136 9.85613 11.548 9.47651 11.548Z" fill="#1E96FC"/>
</svg>
