<svg width="32" height="24" viewBox="0 0 32 24" fill="none" xmlns="http://www.w3.org/2000/svg">
<path d="M31.9917 3.62245C31.6948 4.66189 30.8616 5.18986 29.9789 5.61884C27.7102 6.70778 25.4251 7.76372 23.1482 8.82791C19.3452 10.6016 15.5339 12.3752 11.7309 14.1571C10.3202 14.8171 8.83527 15.1966 7.2926 15.3533C6.35215 15.4523 5.40345 15.4605 4.46301 15.4193C4.00103 15.3946 3.52256 15.2213 3.11008 14.9986C2.41712 14.6191 2.27688 13.9261 2.72235 13.2744C2.87909 13.0517 2.83784 12.9279 2.68935 12.7464C1.8644 11.74 1.05594 10.7253 0.239237 9.71061C0.164991 9.61987 0.0989946 9.52912 0 9.41363C0.214488 9.31463 0.404228 9.21564 0.602217 9.12489C1.37767 8.76191 2.15313 8.41543 2.92034 8.0442C3.12658 7.94521 3.29982 7.93696 3.50606 8.01945C4.92498 8.56392 6.3439 9.1084 7.76283 9.63637C7.88657 9.68586 8.05981 9.71061 8.16705 9.65287C9.61897 8.9764 11.0626 8.28344 12.5063 7.59873C12.5311 7.58223 12.5558 7.55748 12.6053 7.52448C10.2129 5.09911 7.82882 2.682 5.39521 0.215381C5.89843 0.190633 6.3274 0.165884 6.76463 0.149385C7.93607 0.0916381 9.124 0.0338913 10.3037 0.000893113C10.4934 -0.00735644 10.6997 0.0421409 10.8647 0.124636C13.6118 1.49406 16.3506 2.87174 19.0895 4.25766C19.2874 4.35665 19.4359 4.35665 19.6339 4.26591C21.4158 3.43271 23.1895 2.59125 24.9879 1.79929C26.1346 1.28782 27.3473 1.04859 28.6012 1.13108C29.5251 1.18883 30.3748 1.48581 31.1338 2.00553C31.5463 2.28602 31.8185 2.6655 31.9753 3.12747C31.9918 3.28421 31.9917 3.45745 31.9917 3.62245ZM8.39804 1.39507C10.5759 3.60595 12.6961 5.75083 14.8409 7.92871C14.7007 8.00296 14.6099 8.0607 14.5027 8.10195C12.4733 9.06715 10.4439 10.0241 8.42279 10.9975C8.16705 11.1213 7.96082 11.1378 7.68858 11.0305C6.29441 10.4861 4.89198 9.9581 3.48956 9.43013C3.38232 9.38888 3.23382 9.35588 3.13483 9.38888C2.7801 9.52912 2.44187 9.71061 2.06239 9.88385C2.93684 10.9728 3.80304 12.0452 4.66924 13.1177C4.38876 13.3817 4.12477 13.6374 3.81129 13.9261C4.00928 13.9839 4.13302 14.0251 4.26502 14.0499C5.22196 14.2396 6.17066 14.1571 7.12761 14.0416C8.53828 13.8684 9.90771 13.5302 11.2029 12.9279C14.7254 11.278 18.248 9.63637 21.7706 7.99471C24.3114 6.80677 26.8605 5.62709 29.3931 4.4144C29.7974 4.22466 30.1521 3.91118 30.5068 3.63069C30.7296 3.45745 30.6718 3.27596 30.4573 3.12747C30.0036 2.79749 29.5004 2.59125 28.9477 2.49226C27.768 2.27777 26.6378 2.49226 25.5654 2.97073C23.5855 3.86993 21.6056 4.80213 19.6339 5.72608C19.4277 5.82507 19.2627 5.82507 19.0565 5.71783C16.2351 4.29066 13.4138 2.87174 10.5842 1.45281C10.4604 1.38682 10.3119 1.32082 10.1799 1.32082C9.61897 1.32907 9.058 1.36207 8.39804 1.39507Z" fill="#1E96FC"/>
<path d="M1.04785 23.8586C1.04785 23.4378 1.04785 23.0254 1.04785 22.5881C11.1288 22.5881 21.2015 22.5881 31.3072 22.5881C31.3072 23.0089 31.3072 23.4131 31.3072 23.8586C21.2262 23.8586 11.1453 23.8586 1.04785 23.8586Z" fill="#1E96FC"/>
</svg>
