<svg width="32" height="28" viewBox="0 0 32 28" fill="none" xmlns="http://www.w3.org/2000/svg">
<path d="M4.77328 7.53029C6.17648 8.69988 7.51421 9.82269 8.86128 10.9174C9.07644 11.0952 9.13257 11.1888 8.91741 11.4227C8.53387 11.8344 8.18775 12.2742 7.84162 12.7139C7.72936 12.8543 7.66388 12.8636 7.51421 12.742C5.05392 10.6835 2.58428 8.62503 0.114639 6.56655C-0.0631006 6.41684 -0.0163271 6.35134 0.133348 6.22971C2.59363 4.18994 5.05392 2.14082 7.50485 0.0916959C7.66388 -0.0392982 7.72936 -0.0299415 7.85098 0.119766C8.21581 0.578246 8.58064 1.02737 8.97354 1.46713C9.13257 1.64491 9.06709 1.71977 8.91741 1.8414C7.64517 2.89871 6.37293 3.96538 5.10069 5.02269C5.0165 5.09754 4.93231 5.16304 4.79199 5.28468C4.99779 5.28468 5.1194 5.28468 5.24101 5.28468C10.4048 5.28468 15.5686 5.22854 20.7418 5.30339C25.2975 5.35953 28.7026 7.4648 30.7887 11.5163C34.1096 17.963 30.2835 25.9256 23.1927 27.4695C22.3788 27.6473 21.5556 27.7408 20.723 27.7408C14.4835 27.7408 8.24387 27.7408 2.00429 27.7502C1.74236 27.7502 1.66752 27.694 1.67687 27.4227C1.69558 26.8894 1.69558 26.3467 1.67687 25.8133C1.66752 25.5513 1.74236 25.4952 2.00429 25.4952C6.82196 25.5046 11.6303 25.5046 16.4479 25.5046C17.8512 25.5046 19.2544 25.5046 20.6576 25.5046C25.0543 25.4952 28.6371 22.5946 29.5632 18.2999C30.611 13.4344 27.2058 8.46596 22.2853 7.68C21.7801 7.59579 21.2656 7.54901 20.7511 7.54901C15.5312 7.54901 10.3019 7.54901 5.08198 7.54901C5.00715 7.53029 4.94166 7.53029 4.77328 7.53029Z" fill="#1E96FC"/>
</svg>
