<svg width="32" height="24" viewBox="0 0 32 24" fill="none" xmlns="http://www.w3.org/2000/svg">
<path d="M22.793 13.2798C24.7857 14.6326 26.1821 16.4653 26.1821 18.9089V23.2726H32.0002V18.9089C32.0002 15.738 26.8075 13.8617 22.793 13.2798Z" fill="#1E96FC"/>
<path d="M20.3633 11.6364C23.5778 11.6364 26.1814 9.03273 26.1814 5.81818C26.1814 2.60364 23.5778 0 20.3633 0C19.6796 0 19.0396 0.145454 18.4287 0.349091C19.636 1.84727 20.3633 3.75273 20.3633 5.81818C20.3633 7.88364 19.636 9.78909 18.4287 11.2873C19.0396 11.4909 19.6796 11.6364 20.3633 11.6364Z" fill="#1E96FC"/>
<path d="M11.6365 11.6364C14.8511 11.6364 17.4547 9.03273 17.4547 5.81818C17.4547 2.60364 14.8511 0 11.6365 0C8.422 0 5.81836 2.60364 5.81836 5.81818C5.81836 9.03273 8.422 11.6364 11.6365 11.6364ZM11.6365 2.90909C13.2365 2.90909 14.5456 4.21818 14.5456 5.81818C14.5456 7.41818 13.2365 8.72727 11.6365 8.72727C10.0365 8.72727 8.72745 7.41818 8.72745 5.81818C8.72745 4.21818 10.0365 2.90909 11.6365 2.90909Z" fill="#1E96FC"/>
<path d="M11.6364 13.0909C7.75273 13.0909 0 15.04 0 18.9091V23.2727H23.2727V18.9091C23.2727 15.04 15.52 13.0909 11.6364 13.0909ZM20.3636 20.3636H2.90909V18.9236C3.2 17.8763 7.70909 16 11.6364 16C15.5636 16 20.0727 17.8763 20.3636 18.9091V20.3636Z" fill="#1E96FC"/>
</svg>
