<svg width="22" height="20" viewBox="0 0 22 20" fill="none" xmlns="http://www.w3.org/2000/svg">
<g clip-path="url(#clip0_65_600)">
<path d="M21.5309 11.9955C21.3395 11.2637 21.013 10.5939 20.4951 10.0366C20.3319 9.86209 20.27 9.68196 20.27 9.45117C20.2756 7.31776 20.27 5.18998 20.2756 3.05657C20.2756 2.65691 20.2024 2.27413 20.0673 1.90262C19.6677 0.810583 18.5137 0 17.3485 0C12.9522 0 8.55592 0 4.15964 0C4.04142 0 3.92321 0 3.79938 0.0168871C2.30768 0.253307 1.22127 1.60428 1.23816 3.02843C1.26068 5.21813 1.24379 7.4022 1.24379 9.59189C1.24379 9.77765 1.20439 9.92964 1.07492 10.0704C0.838498 10.3293 0.64711 10.6276 0.478239 10.9372C0.196786 11.4607 0.0279149 12.0068 -0.00585938 12.5978C-0.00585938 14.6074 -0.00585938 16.6226 -0.00585938 18.6321C0.0673182 18.6715 0.0560601 18.7504 0.0785763 18.8123C0.343141 19.6116 1.12558 20.0957 1.97556 19.9775C2.77489 19.8705 3.39408 19.1556 3.4166 18.3282C3.4166 18.2775 3.4166 18.2325 3.4166 18.1818C3.4166 17.754 3.4166 17.754 3.8613 17.754C8.54466 17.754 13.228 17.754 17.9114 17.7484C18.1422 17.7484 18.1928 17.8159 18.176 18.0242C18.1366 18.5533 18.2435 19.0487 18.6263 19.4427C19.0935 19.9325 19.6677 20.1013 20.315 19.9381C20.968 19.7692 21.3676 19.3301 21.5478 18.6828C21.559 18.6378 21.5421 18.5815 21.5928 18.5477C21.5928 16.5775 21.5928 14.6074 21.5928 12.6372C21.559 12.4289 21.5872 12.2038 21.5309 11.9955ZM2.13881 3.1016C2.14444 1.99268 2.83118 1.1427 3.88381 0.928793C4.04705 0.895018 4.22155 0.889389 4.3848 0.889389C8.63473 0.889389 12.879 0.889389 17.129 0.889389C18.2829 0.889389 19.1498 1.58739 19.3468 2.67943C19.3693 2.81452 19.3749 2.96088 19.3749 3.1016C19.3749 5.06614 19.3749 7.02505 19.3749 8.98959C19.3749 9.03462 19.3693 9.08528 19.3693 9.14157C19.116 9.02336 18.8796 8.90515 18.6375 8.80383C18.5418 8.76442 18.5644 8.69688 18.5644 8.62933C18.5644 8.2353 18.5644 7.84126 18.5644 7.44723C18.5587 6.10752 17.6243 5.13932 16.2846 5.1168C15.0687 5.09992 13.8529 5.11117 12.637 5.1168C11.9333 5.1168 11.3536 5.39826 10.9089 5.93301C10.8075 6.05122 10.7794 6.01745 10.7006 5.92176C10.2615 5.40951 9.70425 5.12243 9.02876 5.1168C7.75097 5.11117 6.46754 5.09429 5.18975 5.12806C4.01891 5.15621 3.09575 6.11877 3.05634 7.29524C3.03945 7.72868 3.04508 8.16775 3.05634 8.60118C3.06197 8.73628 3.01131 8.7982 2.88747 8.84323C2.63416 8.9333 2.409 9.07402 2.17821 9.19786C2.12755 9.15283 2.14444 9.09654 2.14444 9.05151C2.13881 7.07008 2.13318 5.08303 2.13881 3.1016ZM17.6356 8.53363C16.8081 8.42668 15.9806 8.49986 15.1475 8.47734C14.8942 8.47171 14.6409 8.47734 14.3876 8.47734C13.3969 8.47734 12.4062 8.47171 11.4155 8.48297C11.2579 8.48297 11.2128 8.44357 11.2241 8.28596C11.2522 7.88066 11.1847 7.46974 11.2635 7.06445C11.3873 6.44526 11.9052 5.97242 12.53 5.96116C13.8191 5.93864 15.1025 5.93864 16.3916 5.96116C17.129 5.97242 17.6919 6.57473 17.72 7.31213C17.7313 7.67802 17.7256 8.04391 17.72 8.40979C17.72 8.47171 17.7538 8.55052 17.6356 8.53363ZM3.91759 7.11511C4.0358 6.46777 4.55367 5.98368 5.21227 5.96679C6.11291 5.94427 7.01356 5.95553 7.91421 5.95553C8.29136 5.95553 8.67413 5.94427 9.05128 5.96679C9.80557 6.00619 10.3685 6.60287 10.3797 7.35716C10.3854 7.67802 10.3741 8.0045 10.3854 8.32536C10.391 8.46609 10.3347 8.48297 10.2165 8.48297C9.20889 8.47734 8.20692 8.48297 7.01356 8.48297C6.21987 8.49986 5.23478 8.45483 4.2497 8.50549C3.88944 8.52238 3.88381 8.52801 3.88944 8.15086C3.89507 7.80186 3.85567 7.45849 3.91759 7.11511ZM2.5835 17.9173C2.57224 18.058 2.5835 18.1987 2.57787 18.3394C2.55536 18.7954 2.18384 19.15 1.72789 19.1556C1.26068 19.1613 0.877901 18.8066 0.844127 18.3451C0.804723 17.754 0.804723 17.754 1.39014 17.754C1.50273 17.754 1.61531 17.754 1.72789 17.754C1.95868 17.754 2.18947 17.7653 2.42026 17.7484C2.56099 17.7428 2.59476 17.7934 2.5835 17.9173ZM20.7653 17.8835C20.7484 18.0974 20.7878 18.3169 20.7259 18.5308C20.6021 18.9474 20.2137 19.195 19.769 19.1388C19.3637 19.0881 19.0485 18.7447 19.0259 18.3225C18.9978 17.7428 18.9978 17.7428 19.5663 17.7428C19.6789 17.7428 19.7915 17.7428 19.9041 17.7428C20.1405 17.7428 20.3825 17.7484 20.619 17.7428C20.7259 17.7484 20.7766 17.7653 20.7653 17.8835ZM16.4591 15.2209C16.5435 15.2322 16.628 15.2322 16.7124 15.2322C17.9846 15.2322 19.2567 15.2378 20.5289 15.2266C20.7315 15.2266 20.771 15.2885 20.7653 15.4686C20.7541 15.8739 20.7541 16.2848 20.7653 16.6901C20.771 16.8646 20.7259 16.9097 20.5514 16.9097C17.416 16.904 14.275 16.904 11.1397 16.904C11.0271 16.904 10.9145 16.904 10.8019 16.904C7.55958 16.904 4.31725 16.904 1.07492 16.9097C0.88353 16.9097 0.832869 16.8646 0.838498 16.6732C0.855385 16.2792 0.855385 15.8852 0.838498 15.4911C0.827239 15.2885 0.872272 15.2266 1.09743 15.2266C4.76194 15.2378 8.42645 15.2322 12.091 15.2322C12.1867 15.2322 12.288 15.2322 12.3837 15.2209C12.5863 15.1872 12.7383 15.0127 12.7327 14.81C12.7327 14.6186 12.5919 14.4441 12.3949 14.4104C12.3049 14.3935 12.2148 14.3935 12.1247 14.3935C8.43771 14.3935 4.75068 14.3935 1.06929 14.3991C0.88353 14.3991 0.832869 14.3541 0.844127 14.1739C0.872272 13.5941 0.799094 13.0087 0.917304 12.4289C1.28882 10.6108 2.79741 9.34422 4.66062 9.33859C8.75857 9.32733 12.8621 9.32733 16.9601 9.33859C19.1048 9.34422 20.7597 11.0442 20.7653 13.1889C20.7653 13.5041 20.7541 13.8249 20.771 14.1402C20.7822 14.3428 20.7428 14.4104 20.5176 14.4047C19.223 14.3935 17.9283 14.3991 16.6336 14.3991C16.3015 14.3991 16.1157 14.5511 16.1157 14.8213C16.1157 15.0183 16.2508 15.1872 16.4591 15.2209Z" fill="#757578"/>
<path d="M14.4272 14.3878C14.1908 14.3878 13.9994 14.5736 14.005 14.81C14.005 15.0408 14.1851 15.2209 14.4159 15.2209C14.6523 15.2265 14.8494 15.0295 14.8437 14.7987C14.8437 14.5792 14.6523 14.3934 14.4272 14.3878Z" fill="#757578"/>
</g>
<defs>
<clipPath id="clip0_65_600">
<rect width="21.6099" height="20" fill="white"/>
</clipPath>
</defs>
</svg>
