<svg width="15383" height="8582" viewBox="0 0 15383 8582" fill="none" xmlns="http://www.w3.org/2000/svg">
<path d="M15186.8 2972.1C15065.1 2366.64 14997.3 1750.76 14884.7 1143.13C14762.6 482.044 14180.1 -4.3175 13431.3 0.0289009C11340.6 12.6335 9250.45 4.37424 7160.26 4.37424H807.562C289.905 4.37424 0 293.845 0 808.459C0 1932.44 0 3056.27 0 4179.96C0 5113.57 0 6047.32 0 6981.22C0 7308.07 183.853 7569.72 473.758 7668.82C704.986 7747.93 722.806 7730.97 709.332 7489.75C670.215 6774.33 957.947 6216.69 1571.22 5855.94C2184.5 5495.18 2811.25 5513.87 3400.19 5903.31C3989.13 6292.75 4249.91 6856.48 4174.28 7563.2C4162.55 7674.47 4177.33 7709.24 4299.9 7709.24C6325.32 7705.48 8350.6 7705.48 10375.7 7709.24C10480 7709.24 10516.6 7705.77 10503.5 7573.63C10431.8 6850.83 10696.5 6269.71 11313.7 5884.19C11930.9 5498.66 12576.3 5504.31 13182.6 5903.31C13782 6297.53 14042.4 6875.6 13956.7 7594.06C13944.1 7697.07 13971.9 7711.42 14061 7709.24C14272.7 7704.03 14484.8 7709.24 14696.1 7705.76C15070.3 7695.33 15376.7 7404.99 15374.5 7031.64C15366.3 5675.56 15456.2 4316.44 15186.8 2972.1ZM3354.12 3515.83C2930.78 3508.44 2507.44 3513.22 2084.1 3513.22C1671.63 3513.22 1258.28 3509.75 846.679 3515.4C738.454 3515.4 696.293 3495.84 697.163 3375.88C702.813 2626.99 697.163 1877.67 701.075 1128.79C701.075 846.273 827.555 722.4 1109.2 721.531C1858.52 721.531 2607.41 724.139 3356.29 718.054C3474.95 718.054 3496.25 754.565 3495.38 864.094C3491.03 1700.05 3491.03 2535.86 3495.38 3371.53C3496.25 3483.23 3471.04 3518.01 3354.12 3515.83ZM6994.23 3378.92C6994.23 3484.97 6966.85 3517.14 6858.19 3516.27C6011.51 3511.92 5164.83 3511.92 4318.15 3516.27C4212.97 3516.27 4194.71 3482.8 4195.15 3385.88C4199.2 2539.2 4199.2 1692.52 4195.15 845.838C4195.15 729.355 4238.61 717.62 4335.1 718.489C4758.44 722.836 5181.78 718.489 5605.12 718.489C6028.46 718.489 6440.93 722.401 6859.06 715.881C6966.41 715.881 6995.53 744.567 6995.1 851.923C6990.17 1694.55 6989.88 2536.88 6994.23 3378.92ZM10350.5 3515.83C9503.84 3512.65 8657.31 3512.65 7810.92 3515.83C7708.34 3515.83 7687.05 3486.71 7687.48 3388.92C7691.54 2542.24 7691.54 1695.7 7687.48 849.315C7687.48 738.482 7721.82 718.923 7823.96 718.923C8246.86 724.139 8670.2 721.097 9093.54 721.097C9516.88 721.097 9940.22 724.139 10363.1 718.923C10461.4 718.923 10493.5 741.959 10491.3 844.535C10487 1691.21 10487 2537.6 10491.3 3383.7C10491.8 3499.32 10449.6 3515.4 10350.5 3514.96V3515.83ZM14383.1 4565.92C13715.5 4565.92 13047.9 4565.92 12380.7 4568.1C12335.7 4571.11 12290.5 4563.97 12248.6 4547.19C12206.7 4530.42 12169.1 4504.44 12138.6 4471.17C11851.3 4175.18 11558 3885.28 11264.1 3595.81C11236.5 3571.02 11214.7 3540.44 11200.3 3506.25C11185.9 3472.07 11179.2 3435.12 11180.7 3398.05C11184.2 2551.37 11185.5 1702.95 11180.7 858.443C11180.7 738.483 11220.7 717.184 11328.5 718.923C11697.5 725.008 12067.3 721.097 12435.5 721.097C12783.2 721.097 13130.9 718.489 13478.6 721.097C13872.8 724.574 14139.7 941.894 14198.8 1331.77C14347 2306.66 14539.1 3274.61 14650 4255.16C14682.6 4566.36 14683.4 4565.92 14383.1 4565.92Z" fill="#ED1C24"/>
<path d="M2450.96 6137.15C2126.81 6137.15 1815.93 6265.92 1586.72 6495.13C1357.52 6724.33 1228.75 7035.21 1228.75 7359.36C1228.75 7683.51 1357.52 7994.38 1586.72 8223.59C1815.93 8452.8 2126.81 8581.57 2450.96 8581.57C2775.11 8581.57 3085.98 8452.8 3315.19 8223.59C3544.4 7994.38 3673.16 7683.51 3673.16 7359.36C3673.16 7035.21 3544.4 6724.33 3315.19 6495.13C3085.98 6265.92 2775.11 6137.15 2450.96 6137.15V6137.15Z" fill="#ED1C24"/>
<path d="M12233.8 6137.58C11991.9 6137.67 11755.4 6209.56 11554.4 6344.14C11353.3 6478.72 11196.7 6669.95 11104.5 6893.59C11012.2 7117.23 10988.3 7363.23 11036 7600.42C11083.6 7837.62 11200.6 8055.35 11372 8226.02C11543.5 8396.7 11761.8 8512.65 11999.2 8559.18C12236.6 8605.71 12482.5 8580.74 12705.7 8487.42C12928.9 8394.1 13119.4 8236.63 13253.1 8034.97C13386.7 7833.3 13457.5 7596.51 13456.5 7354.58C13456.5 7194.28 13424.8 7035.57 13363.3 6887.54C13301.8 6739.52 13211.6 6605.11 13098 6492.03C12984.4 6378.95 12849.6 6289.42 12701.3 6228.59C12553 6167.77 12394.1 6136.84 12233.8 6137.58V6137.58Z" fill="#ED1C24"/>
</svg>
