<svg width="609" height="340" viewBox="0 0 609 340" fill="none" xmlns="http://www.w3.org/2000/svg">
<path d="M601.249 117.666C596.43 93.6962 593.746 69.3131 589.289 45.257C584.454 19.0843 561.396 -0.170931 531.747 0.0011442C448.979 0.500163 366.228 0.173178 283.477 0.173178H31.9716C11.4774 0.173178 0 11.6334 0 32.0071C0 76.5058 0 120.999 0 165.486C0 202.448 0 239.415 0 276.389C0 289.329 7.27878 299.688 18.7562 303.611C27.9106 306.743 28.6161 306.072 28.0827 296.521C26.534 268.198 37.9254 246.121 62.2052 231.838C86.4851 217.556 111.298 218.296 134.615 233.714C157.931 249.132 168.255 271.45 165.261 299.43C164.797 303.835 165.382 305.211 170.234 305.211C250.421 305.062 330.603 305.062 410.778 305.211C414.908 305.211 416.354 305.074 415.837 299.843C412.998 271.226 423.478 248.22 447.912 232.957C472.347 217.694 497.9 217.917 521.905 233.714C545.634 249.321 555.941 272.207 552.551 300.651C552.052 304.729 553.154 305.297 556.681 305.211C565.061 305.005 573.458 305.211 581.821 305.074C596.637 304.661 608.768 293.166 608.682 278.385C608.355 224.697 611.917 170.889 601.249 117.666ZM132.791 139.193C116.03 138.9 99.2703 139.09 82.5101 139.09C66.1802 139.09 49.8158 138.952 33.5203 139.176C29.2356 139.176 27.5665 138.401 27.6009 133.652C27.8246 104.003 27.6009 74.3377 27.7558 44.6891C27.7558 33.5042 32.7632 28.6 43.9136 28.5656C73.5794 28.5656 103.228 28.6689 132.877 28.428C137.574 28.428 138.417 29.8734 138.383 34.2097C138.211 67.3056 138.211 100.396 138.383 133.48C138.417 137.902 137.419 139.279 132.791 139.193ZM276.904 133.773C276.904 137.971 275.82 139.245 271.518 139.21C237.997 139.038 204.477 139.038 170.957 139.21C166.793 139.21 166.07 137.885 166.087 134.048C166.248 100.528 166.248 67.0073 166.087 33.487C166.087 28.8754 167.808 28.4108 171.628 28.4452C188.388 28.6173 205.148 28.4452 221.908 28.4452C238.669 28.4452 254.999 28.6001 271.552 28.342C275.802 28.342 276.955 29.4776 276.938 33.7279C276.743 67.0876 276.732 100.436 276.904 133.773ZM409.78 139.193C376.26 139.067 342.746 139.067 309.237 139.193C305.176 139.193 304.333 138.04 304.35 134.168C304.51 100.648 304.51 67.1335 304.35 33.6246C304.35 29.2367 305.709 28.4624 309.753 28.4624C326.496 28.6689 343.256 28.5484 360.016 28.5484C376.776 28.5484 393.536 28.6689 410.279 28.4624C414.168 28.4624 415.442 29.3744 415.356 33.4354C415.183 66.9557 415.183 100.464 415.356 133.962C415.373 138.539 413.704 139.176 409.78 139.159V139.193ZM569.432 180.766C543.001 180.766 516.57 180.766 490.157 180.852C488.374 180.972 486.587 180.689 484.928 180.025C483.269 179.361 481.78 178.332 480.572 177.015C469.198 165.297 457.583 153.819 445.951 142.359C444.858 141.378 443.995 140.167 443.424 138.814C442.853 137.46 442.587 135.997 442.647 134.53C442.784 101.009 442.836 67.4203 442.647 33.986C442.647 29.2368 444.23 28.3935 448.497 28.4624C463.107 28.7033 477.75 28.5484 492.325 28.5484C506.091 28.5484 519.857 28.4452 533.623 28.5484C549.23 28.6861 559.796 37.2899 562.136 52.725C568.004 91.3215 575.609 129.643 579.997 168.463C581.288 180.784 581.322 180.766 569.432 180.766Z" fill="#FEFEFE"/>
<path d="M97.0341 242.972C84.2009 242.972 71.8933 248.07 62.8189 257.144C53.7444 266.218 48.6465 278.526 48.6465 291.359C48.6465 304.192 53.7444 316.5 62.8189 325.574C71.8933 334.649 84.2009 339.747 97.0341 339.747C109.867 339.747 122.175 334.649 131.249 325.574C140.324 316.5 145.422 304.192 145.422 291.359C145.422 278.526 140.324 266.218 131.249 257.144C122.175 248.07 109.867 242.972 97.0341 242.972V242.972Z" fill="#FEFEFE"/>
<path d="M484.341 242.989C474.762 242.992 465.401 245.838 457.441 251.167C449.482 256.495 443.283 264.065 439.629 272.919C435.976 281.773 435.032 291.512 436.918 300.903C438.804 310.294 443.434 318.914 450.222 325.671C457.011 332.428 465.652 337.018 475.051 338.861C484.451 340.703 494.185 339.714 503.022 336.02C511.859 332.325 519.401 326.091 524.692 318.107C529.984 310.123 532.786 300.748 532.745 291.17C532.746 284.824 531.492 278.54 529.057 272.68C526.621 266.82 523.052 261.498 518.555 257.021C514.057 252.544 508.719 249 502.847 246.592C496.976 244.184 490.687 242.959 484.341 242.989V242.989Z" fill="#FEFEFE"/>
</svg>
