<svg width="4673" height="3764" viewBox="0 0 4673 3764" fill="none" xmlns="http://www.w3.org/2000/svg">
<path d="M4673 1197.86C4673 1003.08 4585.29 861.873 4434.23 749.878C4322.16 671.969 4195.47 647.622 4063.9 647.622C3937.21 647.622 3815.39 647.622 3688.7 647.622C3644.84 647.622 3620.48 633.014 3596.11 598.929C3527.9 491.803 3459.68 384.678 3386.58 277.552C3347.6 223.99 3308.62 170.427 3259.89 131.472C3147.82 43.8241 3016.25 0 2874.94 0C2524.1 0 2173.26 0 1822.42 0C1593.4 0 1413.11 87.6481 1286.41 287.291C1218.2 389.547 1149.98 496.673 1081.76 598.929C1057.39 633.014 1028.16 647.622 989.175 647.622C867.356 647.622 740.663 642.753 618.844 647.622C521.388 647.622 428.805 657.361 341.095 701.185C146.184 788.833 24.3639 925.175 0 1134.56C0 1850.35 0 2561.27 0 3277.07C9.74557 3330.63 14.6184 3379.32 38.9823 3428.02C151.056 3647.14 331.349 3759.13 574.989 3764C1744.46 3764 2918.8 3764 4088.27 3764C4132.12 3764 4171.1 3759.13 4214.96 3749.39C4453.72 3710.44 4673 3476.71 4673 3199.16C4668.13 2532.06 4673 1864.96 4673 1197.86ZM2329.19 3291.67C1632.38 3291.67 1067.14 2721.96 1072.01 2030.51C1081.76 1339.07 1647 779.094 2334.06 779.094C3030.87 783.964 3596.11 1348.81 3591.24 2040.25C3586.37 2731.7 3030.87 3286.8 2329.19 3291.67ZM4034.67 1451.06C3961.57 1455.93 3893.35 1455.93 3820.26 1451.06C3722.81 1446.19 3654.59 1373.15 3659.46 1280.64C3664.33 1188.12 3732.55 1124.82 3830.01 1119.95C3864.12 1119.95 3898.23 1119.95 3932.34 1119.95C3966.45 1119.95 4000.56 1119.95 4034.67 1119.95C4127.25 1124.82 4195.47 1192.99 4200.34 1280.64C4195.47 1373.15 4127.25 1446.19 4034.67 1451.06Z" fill="#ED1C24"/>
<path d="M2334.06 1339.07C1953.99 1339.07 1637.26 1650.71 1632.38 2035.38C1627.51 2415.19 1939.37 2726.83 2329.19 2731.7C2709.27 2736.57 3026 2424.93 3030.87 2040.25C3040.62 1660.44 2723.89 1339.07 2334.06 1339.07Z" fill="#ED1C24"/>
</svg>
