<svg width="4608" height="3261" viewBox="0 0 4608 3261" fill="none" xmlns="http://www.w3.org/2000/svg">
<path d="M4450.87 962.025C4326.2 967.012 4196.53 962.025 4071.86 962.025C4046.92 962.025 4031.96 957.039 4021.99 932.108C4002.04 877.259 3977.11 822.411 3952.17 767.562C3892.33 632.934 3822.51 498.305 3727.75 383.622C3628.01 258.966 3488.38 199.131 3338.77 149.268C3054.51 49.5437 2755.29 14.64 2456.07 4.66753C2241.62 -5.30494 2027.18 -0.318703 1812.74 29.5987C1573.36 59.5162 1338.98 109.379 1114.56 209.103C1004.85 258.966 910.092 323.787 840.274 423.512C730.56 578.085 650.768 747.617 580.949 927.122C570.975 957.039 556.014 971.998 521.105 967.012C391.443 962.025 256.794 967.012 127.131 967.012C42.352 967.012 -12.5051 1026.85 2.45593 1106.63C22.404 1211.34 42.352 1316.05 67.2871 1420.76C82.2481 1490.57 127.131 1520.48 201.936 1520.48C236.846 1520.48 276.742 1520.48 316.638 1520.48C311.651 1530.46 311.651 1535.44 306.664 1535.44C42.352 1849.58 72.2741 2343.21 356.534 2617.46C371.495 2632.42 376.482 2647.37 376.482 2667.32C376.482 2806.93 376.482 2941.56 376.482 3081.18C376.482 3180.9 451.287 3255.7 551.027 3260.68C690.664 3260.68 825.313 3260.68 964.949 3260.68C1069.68 3260.68 1139.49 3185.89 1139.49 3086.16C1139.49 3041.29 1144.48 3001.4 1139.49 2956.52C1134.51 2916.63 1149.47 2906.66 1189.37 2906.66C1927.44 2906.66 2670.51 2906.66 3408.59 2906.66C3418.56 2906.66 3423.55 2906.66 3433.52 2906.66C3453.47 2906.66 3463.44 2911.64 3463.44 2936.58C3463.44 2981.45 3463.44 3031.31 3463.44 3076.19C3463.44 3195.86 3533.26 3265.67 3652.95 3265.67C3782.61 3265.67 3907.29 3265.67 4036.95 3265.67C4161.62 3265.67 4231.44 3195.86 4231.44 3071.2C4231.44 2941.56 4231.44 2811.92 4231.44 2682.28C4231.44 2657.35 4236.43 2642.39 4256.38 2622.44C4470.82 2393.08 4530.66 2123.82 4450.87 1824.64C4420.95 1714.95 4366.09 1620.21 4286.3 1525.47C4326.2 1525.47 4361.11 1525.47 4396.01 1525.47C4495.75 1525.47 4530.66 1495.55 4550.61 1400.81C4570.56 1306.08 4585.52 1211.34 4610.46 1121.58C4610.46 1101.64 4610.46 1081.7 4610.46 1056.76C4575.55 986.957 4525.68 962.025 4450.87 962.025ZM1014.82 2432.97C845.261 2447.92 660.742 2318.28 650.768 2103.87C640.794 1934.34 765.469 1754.84 984.897 1744.86C1169.42 1734.89 1319.03 1869.52 1338.98 2044.04C1368.9 2253.46 1204.33 2427.98 1014.82 2432.97ZM2301.47 1151.5C1842.66 1151.5 1378.87 1151.5 920.066 1151.5C880.17 1151.5 875.183 1141.53 890.144 1106.63C949.988 962.025 1004.85 817.424 1084.64 682.796C1134.51 598.03 1209.31 553.154 1294.09 513.264C1493.57 428.498 1703.03 393.594 1912.48 368.663C2216.69 338.746 2525.88 343.732 2825.11 383.622C3019.6 413.539 3209.11 453.429 3383.65 548.168C3453.47 588.057 3498.35 647.892 3533.26 712.713C3603.08 842.356 3657.94 976.984 3712.79 1111.61C3727.75 1151.5 3702.82 1141.53 3682.87 1141.53C3313.83 1141.53 2944.79 1141.53 2575.75 1141.53C2485.99 1151.5 2396.22 1151.5 2301.47 1151.5ZM3613.05 2437.95C3423.55 2437.95 3263.96 2278.39 3263.96 2088.92C3263.96 1899.44 3423.55 1744.86 3613.05 1744.86C3802.56 1744.86 3962.14 1904.42 3962.14 2093.9C3957.16 2278.39 3802.56 2432.97 3613.05 2437.95Z" fill="#ED1C24"/>
</svg>
