<svg width="15939" height="22024" viewBox="0 0 15939 22024" fill="none" xmlns="http://www.w3.org/2000/svg">
<path d="M13529.3 21295.7C9168.99 21295.7 4832.12 21295.7 495.251 21295.7C424.924 21295.7 354.596 21295.7 307.711 21295.7C96.7282 21319.2 -20.4845 21506.9 2.95803 21718C26.4006 21858.8 143.613 21952.6 237.383 22023C4738.35 22023 9262.76 22023 13763.7 22023C13927.8 21905.7 14068.5 21788.4 13998.2 21553.8C13927.8 21319.2 13740.3 21272.3 13529.3 21295.7Z" fill="#ED1C24"/>
<path d="M15920.4 21530.3C15873.6 21366.1 15732.9 21295.7 15568.8 21272.3C15357.8 21272.3 15193.7 21319.2 15123.4 21530.3C15053.1 21718 15123.4 21858.8 15357.8 22023C15475 22023 15592.2 22023 15709.5 22023C15732.9 21999.5 15756.3 21976.1 15779.8 21952.6C15920.4 21858.8 15967.3 21718 15920.4 21530.3Z" fill="#ED1C24"/>
<path d="M1995.57 7313.63C2112.79 7313.63 2230 7337.09 2370.65 7313.63C2581.64 7290.17 2628.52 7360.55 2628.52 7571.69C2628.52 11747.6 2628.52 15900 2628.52 20075.8C2628.52 20451.2 2745.73 20568.5 3120.81 20568.5C3472.45 20568.5 3824.09 20568.5 4175.73 20568.5C4597.69 20568.5 4691.46 20451.2 4691.46 20052.4C4691.46 17518.7 4691.46 14961.6 4691.46 12427.9C4691.46 9870.76 4691.46 7313.63 4691.46 4756.5C4691.46 4310.76 4949.33 4170 5347.85 4357.68C6074.57 4733.04 6777.85 5178.78 7410.8 5694.9C9544.07 7454.39 10810 9753.46 11396 12427.9C11794.6 14187.4 11841.4 15970.3 11607 17753.3C11513.2 18504 11372.6 19254.7 11185 19982C11091.3 20357.3 11231.9 20545 11630.5 20545C12005.5 20545 12380.6 20545 12779.1 20545C13060.4 20545 13177.7 20451.2 13248 20169.7C13552.7 19090.5 13740.3 17987.9 13857.5 16861.8C14068.5 14727 13927.8 12639 13318.3 10574.6C12568.2 7970.51 11185 5741.82 9051.78 4052.7C7434.24 2762.41 5558.84 1964.77 3542.78 1519.03C3402.12 1495.57 3378.68 1425.19 3378.68 1307.89C3378.68 1002.91 3378.68 674.473 3378.68 369.494C3378.68 181.814 3284.91 64.5148 3120.81 17.5949C2980.16 -29.3249 2839.5 17.5949 2745.73 158.354C2675.41 252.194 2651.96 392.954 2651.96 510.253C2651.96 1612.87 2651.96 2692.03 2651.96 3794.64C2651.96 4662.66 2651.96 5530.68 2651.96 6398.69C2651.96 6539.45 2605.08 6586.37 2464.42 6586.37C2323.77 6586.37 2183.11 6586.37 2042.46 6586.37C1784.59 6586.37 1643.93 6727.13 1643.93 6938.27C1597.05 7149.41 1761.15 7290.17 1995.57 7313.63Z" fill="#ED1C24"/>
<path d="M5394.74 12944C5394.74 13460.1 5394.74 13952.8 5394.74 14468.9C5394.74 14844.3 5511.95 14961.6 5887.03 14961.6C6637.19 14961.6 7410.8 14961.6 8160.96 14961.6C8958 14961.6 9731.61 14961.6 10528.7 14961.6C10833.4 14961.6 10997.5 14797.3 10974.1 14539.3C10927.2 13976.2 10856.8 13436.7 10739.6 12873.6C10669.3 12568.6 10575.5 12474.8 10247.3 12474.8C8793.91 12474.8 7317.03 12474.8 5863.59 12474.8C5535.39 12474.8 5394.74 12615.6 5394.74 12944Z" fill="#ED1C24"/>
<path d="M10856.8 17800.2C10927.2 17260.6 10974.1 16721 10997.5 16181.5C10997.5 15829.6 10880.3 15712.3 10552.1 15712.3C9778.49 15712.3 9004.89 15712.3 8207.84 15712.3C7410.8 15712.3 6637.19 15712.3 5840.15 15712.3C5535.39 15712.3 5394.74 15853 5394.74 16134.6C5394.74 16674.1 5394.74 17213.7 5394.74 17776.7C5394.74 18058.3 5535.39 18199 5793.26 18199C7340.47 18199 8887.68 18199 10434.9 18199C10692.8 18175.6 10810 18058.3 10856.8 17800.2Z" fill="#ED1C24"/>
<path d="M9590.95 9542.32C9497.18 9354.64 9356.53 9260.8 9145.54 9260.8C8043.74 9260.8 6965.39 9260.8 5863.59 9260.8C5535.39 9260.8 5394.74 9401.56 5394.74 9706.54C5394.74 10222.7 5394.74 10762.2 5394.74 11278.4C5394.74 11606.8 5535.39 11724.1 5863.59 11724.1C6519.98 11724.1 7199.81 11724.1 7856.2 11724.1C8536.04 11724.1 9215.87 11724.1 9895.7 11724.1C10247.3 11724.1 10411.4 11513 10294.2 11184.5C10106.7 10621.5 9848.82 10081.9 9590.95 9542.32Z" fill="#ED1C24"/>
<path d="M5394.74 19958.5C5394.74 20028.9 5394.74 20075.8 5394.74 20146.2C5418.18 20404.3 5535.39 20545 5793.26 20545C7176.37 20545 8559.48 20545 9942.59 20545C10153.6 20545 10270.8 20451.2 10341.1 20240C10411.4 19982 10481.8 19723.9 10552.1 19442.4C10645.9 19043.6 10505.2 18879.4 10106.7 18879.4C9403.41 18879.4 8723.58 18879.4 8020.3 18879.4C7504.57 18879.4 6965.39 18879.4 6449.65 18879.4C5347.85 18902.8 5394.74 18832.5 5394.74 19958.5Z" fill="#ED1C24"/>
<path d="M6027.69 5601.06C5887.03 5507.22 5746.38 5483.76 5605.72 5554.14C5465.07 5624.52 5394.74 5765.28 5394.74 5929.5C5394.74 6656.76 5394.74 7384.01 5394.74 8111.27C5394.74 8416.25 5535.39 8533.55 5840.15 8533.55C6238.67 8533.55 6637.19 8533.55 7012.27 8533.55C7410.8 8533.55 7809.32 8533.55 8207.84 8533.55C8371.94 8533.55 8512.6 8486.63 8582.92 8322.41C8653.25 8158.19 8606.37 8017.43 8512.6 7876.67C7809.32 7008.65 6988.83 6234.48 6027.69 5601.06Z" fill="#ED1C24"/>
</svg>
