<svg width="16710" height="20157" viewBox="0 0 16710 20157" fill="none" xmlns="http://www.w3.org/2000/svg">
<g clip-path="url(#clip0_126_33)">
<path d="M16674 5372.8C16674 4976.15 16529.9 4687.67 16169.8 4507.38C15989.7 4399.2 15809.7 4291.02 15629.6 4218.91C13432.8 2848.66 11200 1514.48 8967.22 180.295C8823.17 108.177 8679.12 0 8499.05 0C8391.01 0 8282.97 0 8174.94 0C8066.9 36.059 7922.84 72.1181 7814.81 108.177C6842.46 685.122 5870.11 1262.07 4897.76 1839.01C3457.24 2704.43 2052.74 3569.84 576.207 4399.2C180.065 4687.67 0 5012.21 0 5517.03C36.0129 6382.45 0 7247.87 36.0129 8113.28C72.0259 8654.17 72.0259 9231.11 180.065 9772C432.155 11538.9 972.349 13197.6 1872.67 14712.1C2556.92 15902 3385.22 16947.7 4429.59 17885.3C5509.98 18822.8 6662.39 19580.1 7994.87 20120.9C8246.96 20229.1 8499.05 20229.1 8751.14 20120.9C9003.23 20012.8 9291.34 19904.6 9543.43 19760.3C11020 19039.2 12316.4 18029.5 13432.8 16767.5C14801.3 15144.8 15737.7 13305.8 16277.8 11250.4C16602 10060.5 16710 8834.46 16710 7608.46C16710 6851.22 16674 6130.04 16674 5372.8ZM11668.2 8545.99C11632.2 8582.05 11596.2 8618.11 11560.2 8654.17C10227.7 9988.35 8859.18 11358.6 7526.7 12692.8C7130.56 13089.4 6770.43 13089.4 6410.3 12692.8C5942.13 12224 5509.98 11791.3 5041.81 11322.5C4825.73 11106.2 4789.72 10853.8 4897.76 10565.3C5005.8 10312.9 5221.87 10168.6 5473.97 10168.6C5726.06 10168.6 5870.11 10240.8 6014.16 10385C6302.26 10673.5 6590.37 10961.9 6878.47 11250.4C6986.51 11358.6 7022.52 11322.5 7094.55 11250.4C8282.97 10060.5 9471.4 8870.52 10659.8 7680.57C10767.9 7572.4 10875.9 7464.22 11020 7428.16C11308.1 7356.04 11596.2 7464.22 11740.2 7716.63C11920.3 7969.05 11884.3 8293.58 11668.2 8545.99Z" fill="#ED1C24"/>
</g>
<defs>
<clipPath id="clip0_126_33">
<rect width="16710" height="20157" fill="white"/>
</clipPath>
</defs>
</svg>
