<svg width="1897" height="443" viewBox="0 0 1897 443" fill="none" xmlns="http://www.w3.org/2000/svg">
<path d="M249.638 33.5445C239.026 36.3239 232.33 43.0198 229.93 53.3793C223.234 82.3104 265.809 96.7127 279.454 70.0557C283.244 62.6019 282.739 51.9896 278.19 44.7885C272.632 36.0713 259.619 30.8915 249.638 33.5445Z" fill="white"/>
<path d="M73.4014 39.8613C31.2051 49.0839 5.93781 76.7515 6.06414 113.894C6.06414 132.845 11.7493 147.374 23.7512 158.996C37.2692 172.009 51.5452 178.073 87.9301 186.032C124.441 194.118 133.537 197.276 141.37 204.73C147.434 210.289 149.203 214.458 149.203 222.67C149.203 241.241 133.411 253.622 107.133 255.517C80.9816 257.412 56.725 245.031 51.4189 227.092L49.7765 221.28L24.8883 220.901L0 220.649L0.884354 227.85C3.03207 245.663 10.4859 260.318 23.1195 271.815C40.4276 287.607 65.5686 295.187 100.437 295.187C139.475 295.061 167.901 284.827 184.451 264.866C195.821 251.222 201.001 236.441 201.001 217.869C201.001 196.897 196.327 184.137 184.072 172.009C170.807 158.87 154.13 152.048 114.587 143.457C87.1721 137.519 77.8232 134.614 69.9903 129.307C61.2731 123.37 58.241 118.316 58.241 109.22C58.241 96.5863 65.9476 86.3531 79.2129 81.1733C92.3519 76.2462 116.103 77.1306 127.979 83.0684C138.338 88.3745 147.94 100.755 147.94 109.094V111.999H172.702H197.337L196.579 105.935C192.284 73.2141 170.933 50.4736 135.938 41.1247C121.283 37.2083 88.4354 36.5766 73.4014 39.8613Z" fill="white"/>
<path d="M315.966 166.956V292.661H341.865H367.764V166.956V41.2514H341.865H315.966V166.956Z" fill="white"/>
<path d="M742.222 103.661C719.481 107.957 703.563 116.927 693.077 131.076C687.392 138.783 682.338 151.922 682.338 158.87V162.534H704.952H727.567L728.451 158.87C729.714 153.185 737.042 145.479 744.496 142.32C753.213 138.53 767.489 138.151 776.08 141.436C787.829 145.984 794.272 158.112 793.261 173.273L792.882 179.59L777.722 180.474C744.243 182.495 729.209 184.011 719.986 186.412C691.561 193.739 675.769 210.037 674 233.914C671.347 267.899 694.34 291.903 731.23 293.671C745.127 294.303 750.812 293.292 764.836 288.112C773.427 284.828 784.165 275.984 790.735 266.762L793.388 262.972L793.514 277.121V291.397H817.518H841.648L841.269 219.638L840.89 148.006L836.847 139.415C829.015 122.865 812.086 110.231 790.987 105.051C779.617 102.272 753.466 101.514 742.222 103.661ZM792.756 220.649C792.63 233.409 789.977 240.357 782.902 247.306C773.3 256.528 757.761 261.329 745.506 258.676C730.346 255.391 723.397 248.19 723.397 235.683C723.397 219.133 734.768 212.942 769.51 210.668C795.283 209.026 792.882 208.015 792.756 220.649Z" fill="white"/>
<path d="M972.923 103.154C953.215 106.186 938.181 116.041 929.211 131.833C927.19 135.496 925.168 138.529 924.663 138.529C924.031 138.529 923.652 131.075 923.652 122.105V105.681H899.648H875.645V198.538V291.396H900.154H924.789L925.168 232.902C925.547 175.04 925.547 174.534 928.579 167.081C931.864 158.995 938.813 151.289 947.025 146.993C951.067 144.845 954.226 144.34 963.448 144.34C975.956 144.34 981.893 146.488 988.21 153.31C997.559 163.29 998.191 168.723 998.191 235.429V291.396H1022.83H1047.46V225.322C1047.46 152.552 1047.08 149.014 1039.76 134.107C1032.68 119.704 1019.92 109.219 1004.38 105.302C995.032 102.775 981.262 101.891 972.923 103.154Z" fill="white"/>
<path d="M1144.74 103.156C1132.99 105.051 1117.7 110.483 1109.87 115.537C1094.08 125.896 1085.87 138.656 1082.33 158.365L1081.7 162.534H1104.19H1126.8L1130.34 155.333C1134.89 146.489 1141.46 141.941 1152.95 139.793C1169 136.761 1183.91 142.32 1189.84 153.564C1192.24 158.112 1192.75 161.144 1192.75 169.482V179.842L1174.81 180.726C1133.24 182.748 1118.97 185.022 1103.43 192.475C1092.44 197.655 1083.22 206.372 1078.41 216.227C1075.63 221.912 1074.75 225.576 1074.25 235.051C1073.23 254.254 1078.16 266.635 1091.55 279.142C1103.18 289.754 1118.46 294.555 1138.68 293.671C1159.77 292.66 1176.2 285.206 1186.68 271.941C1189.46 268.404 1192.24 265.245 1192.87 265.119C1193.51 264.866 1194.01 270.678 1194.01 278.005V291.397H1218.02H1242.15L1241.77 220.269L1241.39 149.268L1236.71 139.414C1228.63 122.485 1212.96 110.609 1191.49 105.051C1181.88 102.65 1154.85 101.513 1144.74 103.156ZM1192.75 220.269C1192.75 233.535 1189.72 241.494 1181.76 248.569C1167.99 261.076 1141.46 262.718 1129.71 251.853C1121.24 244.021 1121.24 228.86 1129.71 220.648C1137.03 213.7 1146.51 211.931 1189.97 209.404C1192.62 209.278 1192.75 209.657 1192.75 220.269Z" fill="white"/>
<path d="M231.325 198.538V291.396H255.96H280.596V198.538V105.681H255.96H231.325V198.538Z" fill="white"/>
<path d="M389.241 106.945C389.241 107.576 397.074 137.897 406.802 174.155C416.404 210.54 427.268 251.726 430.932 265.749L437.754 291.396H464.032C485.636 291.396 490.563 291.016 491.068 289.627C491.447 288.616 499.027 259.18 507.871 224.185C516.715 189.189 524.421 160.637 525.053 160.637C526.442 160.637 525.179 156.342 542.74 225.701C550.825 257.285 557.9 285.079 558.658 287.353L560.048 291.396L586.705 291.143L613.488 290.764L619.931 266.128C623.595 252.61 634.334 211.93 643.809 175.798C653.41 139.666 661.496 109.092 661.875 107.829C662.38 105.807 660.612 105.681 637.618 105.681C623.974 105.681 612.857 106.06 612.857 106.565C612.857 106.945 606.666 138.023 598.96 175.419C591.379 212.814 585.063 243.767 585.063 244.272C585.063 244.777 584.557 244.651 583.925 243.893C583.167 243.261 575.461 212.941 566.744 176.429C558.027 139.918 550.573 109.092 550.194 107.829C549.562 105.934 547.288 105.681 525.684 105.681H501.933L498.522 119.831C496.627 127.664 492.963 143.203 490.31 154.321C481.846 189.695 472.876 227.343 471.233 234.797C469.717 241.872 468.201 245.788 467.191 244.651C466.938 244.272 460.874 214.962 453.799 179.588C446.724 144.087 440.281 113.009 439.649 110.356L438.386 105.681H413.877C398.716 105.681 389.241 106.186 389.241 106.945Z" fill="white"/>
<path d="M9.8492 345.342C9.34385 345.721 8.96484 362.524 8.96484 382.611V418.996H12.1233H15.2817V400.677V382.358H32.3371H49.3925V379.2V376.042H32.3371H15.2817V363.408V350.774H33.6004H51.9192V347.616V344.457H31.3264C19.9561 344.457 10.2282 344.836 9.8492 345.342Z" fill="white"/>
<path d="M262.899 362.775V378.568L257.088 374.398C239.022 361.765 214.134 379.578 219.945 401.182C224.619 418.869 246.223 425.691 259.867 413.689C268.079 406.488 268.458 404.845 268.963 374.398L269.469 346.983H266.184H262.899V362.775ZM253.298 378.441C259.741 381.979 262.268 386.779 262.268 394.991C262.268 403.329 259.741 407.878 253.045 411.794C241.043 418.869 224.998 409.394 224.998 395.37C224.998 379.831 239.906 370.861 253.298 378.441Z" fill="white"/>
<path d="M587.596 382.99C587.596 418.111 587.596 418.996 590.122 418.996C592.523 418.996 592.649 418.111 592.649 402.698C592.649 387.917 592.902 386.148 595.555 382.232C597.324 379.579 600.356 377.305 603.514 376.168C608.062 374.652 609.073 374.652 613.242 376.673C620.696 380.211 622.212 384.253 622.717 402.825C623.223 417.985 623.349 418.996 625.749 418.996C628.15 418.996 628.276 418.238 627.771 401.688C627.518 386.906 627.013 383.622 624.865 379.832C619.432 370.735 605.788 367.324 597.829 373.136C595.808 374.778 593.66 376.042 593.281 376.042C592.902 376.042 592.649 369.472 592.649 361.513C592.649 347.869 592.523 346.984 590.122 346.984C587.596 346.984 587.596 347.869 587.596 382.99Z" fill="white"/>
<path d="M91.3407 353.175C88.814 354.691 90.0773 358.986 93.1094 359.365C96.2678 359.871 98.1629 356.333 96.0151 353.807C94.3728 351.785 93.6148 351.659 91.3407 353.175Z" fill="white"/>
<path d="M312.425 353.176C309.772 354.818 311.162 358.987 314.446 359.366C317.857 359.871 319.5 356.587 317.226 353.934C315.457 351.786 314.699 351.66 312.425 353.176Z" fill="white"/>
<path d="M936.278 353.934C934.004 356.587 935.646 359.871 939.057 359.366C942.342 358.987 943.732 354.818 941.079 353.176C938.805 351.66 938.047 351.786 936.278 353.934Z" fill="white"/>
<path d="M151.352 372.757C145.793 375.536 145.414 375.536 145.414 373.388C145.414 371.62 144.53 370.988 142.256 370.988H139.097V394.992V418.996H142.256H145.414V402.572C145.414 383.622 146.551 380.084 153.752 376.673C159.437 374.02 166.007 375.41 170.808 380.59C173.713 383.622 173.84 384.759 174.219 401.435L174.724 418.996H177.756C180.788 418.996 180.788 418.87 180.788 406.489C180.788 389.054 179.146 381.474 174.219 376.421C170.429 372.504 164.112 369.725 159.185 369.725C158.174 369.725 154.51 371.114 151.352 372.757Z" fill="white"/>
<path d="M372.564 372.63C366.878 375.536 366.499 375.536 366.499 373.388C366.499 371.62 365.615 370.988 363.341 370.988H360.183V394.992V418.996H363.341H366.499V402.572C366.499 383.622 367.636 380.084 374.838 376.673C380.523 374.02 387.092 375.41 391.893 380.59C394.799 383.622 394.925 384.759 395.304 401.435L395.809 418.996H398.968H402.126L401.621 402.193C400.989 383.369 399.473 378.442 392.651 373.894C386.082 369.472 379.512 368.967 372.564 372.63Z" fill="white"/>
<path d="M456.963 371.493C451.151 373.641 445.719 378.694 442.939 384.253C440.539 389.433 440.413 400.045 442.813 405.478C445.845 412.931 456.836 420.259 465.048 420.259C469.344 420.259 476.545 417.48 480.335 414.321L484.378 410.91L483.746 419.375C483.367 426.576 482.735 428.345 479.703 431.503C474.271 437.188 465.175 438.957 455.573 436.177C449.635 434.409 448.119 434.282 447.235 435.672C445.466 438.451 445.845 438.83 453.931 441.104C471.239 445.905 485.894 439.083 489.179 424.807C489.937 421.017 490.442 411.794 490.189 403.204C489.81 390.949 489.179 387.033 487.031 382.99C481.851 373.136 467.449 367.577 456.963 371.493ZM475.155 378.442C490.947 389.433 483.872 414.448 465.048 414.195C443.571 413.816 438.897 383.748 459.363 376.673C465.175 374.778 470.607 375.283 475.155 378.442Z" fill="white"/>
<path d="M683.23 371.62C665.543 377.81 661.5 402.193 676.029 414.321C679.692 417.48 686.894 420.259 691.189 420.259C695.358 420.259 702.686 417.48 706.223 414.574C710.897 410.531 711.403 410.657 711.403 415.206C711.403 418.238 711.908 418.996 714.056 418.996C716.583 418.996 716.709 418.49 716.33 402.825C715.825 387.538 715.572 386.275 712.287 381.221C709.76 377.557 706.728 374.904 702.18 372.757C694.726 369.346 690.178 369.093 683.23 371.62ZM696.495 376.041C705.97 378.694 712.287 389.686 710.139 399.666C708.75 405.478 701.675 412.679 696.116 413.816C687.146 415.711 678.808 411.795 674.765 403.835C671.607 397.771 671.607 393.349 674.639 386.78C677.292 380.842 679.44 378.821 685.757 376.547C691.694 374.525 690.936 374.525 696.495 376.041Z" fill="white"/>
<path d="M775.193 371.24C768.876 373.388 763.064 378.568 760.538 384.127C758.516 388.675 758.137 392.717 758.137 416.09C758.137 442.115 758.264 442.999 760.664 442.999C763.064 442.999 763.191 442.115 763.191 427.207C763.191 418.49 763.57 411.415 763.949 411.415C764.328 411.415 766.349 412.805 768.497 414.574C783.657 427.334 807.408 415.458 807.408 394.991C807.408 378.189 790.732 365.808 775.193 371.24ZM793.132 378.694C797.428 381.347 802.355 390.064 802.355 395.118C802.355 400.171 797.049 409.267 792.627 411.794C784.036 416.721 772.034 413.816 766.981 405.73C762.938 399.287 762.559 393.223 765.591 386.906C771.15 375.662 782.52 372.251 793.132 378.694Z" fill="white"/>
<path d="M863.894 370.988C858.083 372.756 851.513 378.568 848.986 384.127C846.965 388.675 846.586 392.717 846.586 416.09C846.586 442.115 846.712 442.999 849.113 442.999C851.513 442.999 851.639 442.115 851.639 427.207C851.639 418.49 852.018 411.415 852.397 411.415C852.776 411.415 854.798 412.805 856.946 414.574C872.106 427.334 895.857 415.458 895.857 394.991C895.857 378.315 879.686 366.313 863.894 370.988ZM881.328 378.568C893.078 385.769 893.204 404.088 881.455 411.289C865.157 421.396 845.828 404.088 854.04 386.906C859.472 375.788 870.969 372.251 881.328 378.568Z" fill="white"/>
<path d="M998.689 371.493C996.415 372.504 994.267 373.894 993.888 374.652C992.498 376.926 990.603 376.294 990.603 373.515C990.603 371.872 989.719 370.988 988.077 370.988C985.676 370.988 985.55 371.872 985.55 394.992C985.55 418.111 985.676 418.996 988.077 418.996C990.477 418.996 990.603 418.111 990.603 402.698C990.603 387.917 990.856 386.148 993.509 382.232C995.278 379.579 998.31 377.305 1001.47 376.168C1006.02 374.652 1007.03 374.652 1011.2 376.673C1018.65 380.211 1020.17 384.253 1020.67 402.825C1021.18 417.985 1021.3 418.996 1023.7 418.996C1026.1 418.996 1026.23 418.238 1025.72 401.561C1025.47 386.906 1024.97 383.622 1022.82 379.832C1018.14 371.872 1006.52 367.956 998.689 371.493Z" fill="white"/>
<path d="M1082.82 371.115C1072.34 374.273 1065.14 383.875 1065.14 394.993C1065.14 415.459 1087.88 426.956 1104.55 414.954C1109.36 411.416 1109.61 410.911 1107.59 409.395C1105.57 408.005 1104.55 408.258 1100.51 410.911C1091.54 416.849 1079.41 414.575 1074.11 405.984C1068.93 397.519 1068.93 397.519 1093.06 397.519H1114.79L1114.16 391.96C1112.39 376.926 1097.23 366.82 1082.82 371.115ZM1099.88 378.569C1103.92 381.096 1108.09 387.16 1108.09 390.444C1108.09 392.213 1105.69 392.466 1089.77 392.466C1073.1 392.466 1071.45 392.213 1071.45 390.192C1071.45 388.423 1077.01 378.569 1078.15 378.569C1078.28 378.569 1080.68 377.684 1083.46 376.674C1089.14 374.652 1094.32 375.284 1099.88 378.569Z" fill="white"/>
<path d="M1161.42 371.115C1156.74 372.505 1152.32 378.569 1152.32 383.622C1152.32 388.423 1155.48 392.087 1162.81 395.75C1171.4 400.046 1173.8 402.32 1173.8 405.984C1173.8 413.311 1163.69 417.48 1155.86 413.438C1152.95 411.921 1152.45 411.921 1151.69 413.69C1150.68 416.343 1153.71 418.617 1160.03 419.628C1171.02 421.523 1178.85 415.712 1178.85 405.984C1178.72 399.161 1176.96 397.014 1167.23 391.96C1159.52 387.918 1159.27 387.539 1159.27 382.864C1159.27 378.948 1159.9 377.684 1162.43 376.295C1165.21 374.905 1170.64 374.779 1176.2 376.168C1177.21 376.421 1178.22 375.663 1178.6 374.526C1178.85 373.01 1177.71 371.999 1174.18 371.115C1168.62 369.472 1167.1 369.472 1161.42 371.115Z" fill="white"/>
<path d="M1227.23 371.114C1219.27 373.388 1215.48 383.242 1220.02 389.686C1221.04 391.202 1224.95 393.981 1228.49 395.75C1232.15 397.645 1236.07 399.919 1237.33 401.056C1240.49 403.835 1239.99 408.51 1236.2 412.3C1232.91 415.585 1232.91 415.585 1219.9 413.69C1218.51 413.437 1217.25 414.195 1216.99 415.332C1216.61 417.48 1223.82 420.259 1229.88 420.259C1237.84 420.259 1244.53 413.942 1244.53 406.236C1244.53 400.045 1240.74 395.623 1232.15 391.454C1228.11 389.433 1224.7 386.906 1224.19 385.39C1221.79 378.694 1230.26 373.136 1238.85 375.662C1242.26 376.799 1243.27 376.673 1243.78 375.157C1244.91 372.378 1244.91 372.504 1239.86 371.114C1234.3 369.472 1232.66 369.472 1227.23 371.114Z" fill="white"/>
<path d="M89.8271 394.992V418.996H92.9856H96.144V394.992V370.988H92.9856H89.8271V394.992Z" fill="white"/>
<path d="M312.172 394.992C312.172 418.111 312.299 418.996 314.699 418.996C317.099 418.996 317.226 418.111 317.226 394.992C317.226 371.872 317.099 370.988 314.699 370.988C312.299 370.988 312.172 371.872 312.172 394.992Z" fill="white"/>
<path d="M936.28 394.992C936.28 418.111 936.406 418.996 938.807 418.996C941.207 418.996 941.333 418.111 941.333 394.992C941.333 371.872 941.207 370.988 938.807 370.988C936.406 370.988 936.28 371.872 936.28 394.992Z" fill="white"/>
<path d="M1687.14 0.662928C1687.14 0.331464 1687.14 0 1687.14 0C1694.77 0 1702.72 0 1710.34 0C1710.34 0.331464 1710.34 0.662928 1710.34 0.662928C1709.35 1.98878 1708.02 2.32025 1706.37 2.32025C1701.06 2.65171 1695.76 2.65171 1690.79 2.32025C1689.46 1.98878 1688.14 1.98878 1687.14 0.662928Z" fill="#89C8FA"/>
<path d="M1687.14 0.663086C1695.1 0.663086 1702.72 0.663086 1710.68 0.663086C1734.21 1.65748 1756.75 7.29236 1778.3 16.5734C1793.21 23.2026 1807.46 31.1578 1820.39 41.1017C1837.63 54.0288 1852.54 69.2761 1863.81 87.5066C1881.38 115.681 1892.98 145.844 1895.97 178.991C1899.61 222.744 1890 262.851 1867.79 300.638C1857.52 317.874 1844.92 333.121 1829.67 346.049C1798.18 372.897 1762.05 389.139 1720.95 393.779C1700.07 396.1 1679.52 395.105 1658.97 391.128C1657.64 390.796 1656.32 390.796 1655.32 390.796C1652.67 391.791 1650.35 390.465 1647.7 389.802C1630.46 385.493 1614.22 378.532 1598.64 369.582C1596.99 368.588 1595.33 367.594 1594.33 365.936C1588.37 361.959 1582.4 357.981 1576.77 353.672C1575.11 353.672 1574.11 353.009 1572.79 352.015C1558.54 340.745 1546.6 327.155 1535.66 312.571C1535 311.576 1533.68 310.25 1534.34 308.593C1528.7 298.649 1522.41 289.037 1517.77 278.43C1510.8 262.52 1506.16 245.946 1503.18 229.042C1502.85 227.716 1503.18 226.722 1503.84 226.059C1505.17 224.401 1506.83 224.401 1508.48 224.401C1527.38 224.401 1546.6 224.07 1565.5 224.401C1566.16 224.401 1567.15 224.401 1567.82 224.733C1570.14 225.396 1570.47 227.384 1571.13 229.042C1573.78 238.654 1577.43 247.935 1581.41 256.885C1582.73 260.862 1585.05 264.508 1587.37 267.823C1603.95 293.677 1627.48 310.582 1655.99 321.189C1691.78 333.121 1726.59 330.47 1760.07 313.234C1769.02 308.593 1777.96 303.29 1785.26 296.329C1799.84 282.407 1813.43 267.16 1821.06 247.935C1830.67 222.744 1834.31 196.558 1828.02 170.041C1822.71 146.507 1812.11 125.956 1795.2 108.389C1778.96 91.4842 1760.07 78.8886 1737.53 72.2593C1707.36 62.9783 1677.53 63.9727 1648.36 76.5683C1608.92 93.473 1583.4 122.973 1571.46 163.743C1570.8 165.732 1570.47 168.384 1568.15 169.378C1565.83 170.041 1563.51 170.041 1560.86 170.041C1543.95 170.041 1527.05 170.041 1510.14 170.041C1507.49 170.041 1504.84 170.373 1502.85 168.384C1511.14 117.338 1535 75.5739 1575.44 43.4219C1607.92 17.2363 1645.38 2.98333 1687.14 0.663086Z" fill="#2198F7"/>
<path d="M1534.66 308.925C1546.6 326.161 1560.85 341.077 1577.09 354.004C1554.55 370.577 1529.03 380.853 1501.52 385.824C1457.76 393.78 1416.33 387.15 1376.89 366.268C1349.04 351.352 1326.17 330.47 1308.6 303.953C1284.08 267.492 1274.13 226.722 1278.11 183.3C1282.42 132.255 1304.63 89.8272 1343.08 56.0178C1371.58 31.158 1404.73 16.5736 1442.18 11.6017C1480.3 6.29824 1520.74 12.9275 1556.21 32.1524C1553.89 34.1412 1551.57 36.13 1549.25 37.7873C1535.99 48.7256 1525.05 61.6527 1517.1 76.9001C1515.77 79.8832 1514.11 80.2147 1511.13 79.2203C1464.72 63.6415 1421.97 70.9337 1384.18 102.091C1358.99 122.642 1344.4 149.822 1340.42 182.306C1335.78 217.772 1344.4 249.924 1366.28 278.43C1386.17 303.953 1412.68 319.2 1444.17 324.835C1475.33 330.47 1504.5 325.167 1532.01 309.588C1533.01 309.588 1533.67 309.256 1534.66 308.925Z" fill="#ED1C24"/>
<path d="M1569.14 226.388C1547.26 226.388 1525.72 226.388 1503.84 226.388C1492.9 226.388 1481.96 226.057 1471.03 226.057C1469.04 226.057 1467.38 226.388 1466.39 223.737C1459.76 206.169 1452.8 188.602 1445.84 171.034C1445.5 170.371 1445.5 169.708 1445.5 168.714C1461.75 168.714 1477.32 168.714 1493.23 168.714C1496.55 168.714 1499.53 169.377 1502.85 168.051C1525.06 168.051 1546.93 168.051 1569.14 168.051C1572.45 167.056 1576.1 168.051 1579.75 166.725C1586.71 166.062 1594 166.393 1600.96 166.393C1605.6 166.393 1610.24 166.062 1614.88 166.725C1623.83 167.719 1632.12 170.702 1639.41 176.006C1651.01 186.281 1656.98 198.877 1656.65 214.456C1656.65 217.77 1656.65 221.085 1656.65 224.4C1656.65 238.653 1656.65 252.574 1656.65 266.827C1656.98 282.737 1656.65 298.648 1656.65 314.226C1656.65 316.878 1657.31 319.53 1654.99 321.519C1623.17 310.249 1598.64 290.361 1582.07 260.861C1581.4 259.866 1581.07 258.54 1580.74 257.215C1580.41 253.568 1582.73 250.585 1584.06 247.271C1586.38 241.967 1588.03 236.332 1589.69 231.029C1590.69 228.046 1589.69 226.388 1586.38 226.72C1582.4 227.051 1578.75 226.72 1574.77 226.72C1572.79 227.383 1570.8 227.383 1569.14 226.388Z" fill="#ED1C24"/>
<path d="M1594.66 366.268C1613.22 377.206 1632.78 385.493 1653.66 390.464C1654.32 390.464 1654.98 391.127 1655.32 391.127C1655.65 393.779 1654.65 395.105 1651.67 395.105C1633.77 395.105 1615.87 395.105 1597.97 395.105C1595.98 395.105 1594 395.768 1594 392.453C1594.66 383.504 1593.66 374.886 1594.66 366.268Z" fill="#ED1C24"/>
<path d="M1601.28 117.337C1602.94 114.685 1605.26 112.697 1607.58 111.039C1608.58 110.045 1610.56 107.725 1612.22 111.039C1612.55 111.702 1614.87 111.371 1615.87 110.376C1617.53 108.719 1615.21 108.719 1614.87 107.725C1614.54 107.062 1615.54 106.399 1615.87 105.736C1616.53 104.41 1617.53 103.416 1619.18 103.416C1620.18 104.078 1620.18 104.741 1619.51 105.736C1623.16 108.719 1631.45 106.399 1632.44 101.758C1632.77 100.432 1633.77 99.7695 1634.1 98.4436C1634.43 97.4492 1635.09 96.4548 1636.09 96.4548C1636.75 96.4548 1637.08 96.7863 1636.75 97.4492C1636.09 99.438 1636.09 99.438 1637.74 100.764C1639.07 102.09 1636.09 102.421 1637.08 103.747C1641.39 101.758 1641.72 101.427 1640.07 97.4492C1640.07 97.1178 1640.07 96.7863 1640.07 96.4548C1641.39 94.1346 1643.71 93.1402 1645.7 91.4829C1647.69 89.8255 1649.68 88.4997 1652 91.4829C1652 91.4829 1652.66 91.4829 1652.99 91.4829C1653.66 93.4716 1653.99 95.129 1652.99 97.1177C1649.01 94.7975 1647.03 95.4604 1645.04 99.7695C1643.71 102.421 1642.39 105.073 1639.07 105.404C1637.74 105.404 1636.75 106.067 1636.75 107.725L1636.42 108.056C1635.09 108.388 1634.1 109.05 1634.1 110.376C1629.13 112.034 1625.81 116.011 1622.17 119.326C1618.19 122.64 1619.18 125.955 1624.49 127.944C1621.83 131.259 1622.17 135.236 1622.17 139.214C1622.17 146.837 1622.17 154.461 1622.17 162.085C1622.17 167.388 1621.17 167.72 1615.54 167.057C1610.9 167.057 1605.92 167.057 1601.28 167.057C1599.63 165.399 1599.63 163.411 1599.63 161.09C1599.63 148.163 1599.63 135.236 1599.63 122.309C1599.63 121.315 1599.96 119.326 1601.28 117.337Z" fill="#228FC3"/>
<path d="M1669.9 278.431C1667.58 272.133 1660.62 271.47 1655.98 267.824C1655.98 253.24 1655.98 238.655 1655.98 224.071C1660.95 223.739 1665.59 224.402 1670.23 225.728C1671.89 226.06 1673.22 227.385 1673.88 229.043C1673.22 241.97 1673.88 254.897 1673.55 267.824C1673.55 270.144 1673.55 272.465 1673.22 274.453C1672.22 276.111 1672.22 278.431 1669.9 278.431Z" fill="#125E96"/>
<path d="M1615.54 168.385C1619.19 168.716 1620.84 167.39 1620.51 163.413C1620.18 153.8 1620.51 144.188 1620.18 134.907C1620.18 131.592 1621.18 129.935 1624.16 129.272C1627.14 128.609 1629.46 131.924 1632.45 131.261C1633.44 131.261 1632.78 133.25 1633.11 134.244C1633.77 137.227 1635.43 138.884 1638.74 137.559C1641.4 138.884 1641.06 141.205 1641.06 143.525C1641.06 148.497 1641.06 153.469 1641.06 158.441C1641.06 160.761 1640.73 163.081 1642.39 164.739C1639.74 168.716 1639.07 173.025 1638.74 177.666C1632.11 172.694 1624.16 169.711 1615.54 168.385Z" fill="#1C7CB2"/>
<path d="M1601.29 117.339C1601.29 134.244 1601.29 151.48 1601.29 168.384C1594 168.384 1586.71 168.384 1579.41 168.384C1580.08 164.738 1581.4 161.424 1582.07 158.109C1583.06 154.794 1582.73 150.817 1583.06 147.171C1585.38 134.906 1593.34 125.957 1601.29 117.339Z" fill="#1E96FC"/>
<path d="M1798.17 270.473C1796.85 274.451 1794.2 277.766 1790.55 279.754C1788.89 280.749 1787.57 281.743 1786.57 283.069C1783.59 283.732 1783.59 281.412 1783.59 280.086C1783.26 273.457 1782.93 266.827 1783.92 260.198C1785.25 258.209 1785.91 255.557 1785.58 253.237C1784.58 248.928 1785.58 244.951 1787.57 240.973C1788.89 238.321 1787.9 236.664 1784.91 236.333C1782.59 236.001 1781.93 234.675 1781.93 232.686C1780.61 230.698 1780.61 228.046 1780.61 225.726C1780.61 210.147 1780.61 194.237 1780.61 178.658C1780.61 176.338 1780.27 173.686 1782.26 171.697C1785.58 169.708 1789.22 170.703 1792.87 170.703C1795.19 170.703 1795.19 173.023 1794.86 174.349C1793.86 177.995 1795.52 180.647 1797.84 182.967C1798.5 185.95 1798.17 188.933 1798.17 191.916C1798.17 217.771 1798.5 243.625 1797.84 269.479C1797.51 269.81 1797.84 270.142 1798.17 270.473Z" fill="#15679F"/>
<path d="M1669.91 278.431C1671.9 276.442 1671.9 273.459 1671.9 270.808C1671.9 258.543 1671.9 246.279 1671.9 234.015C1671.9 232.358 1670.9 230.037 1673.55 229.375C1675.54 232.026 1678.86 231.695 1681.51 232.689C1683.5 233.352 1685.82 233.021 1687.14 235.009C1688.47 237.993 1688.47 240.976 1688.47 243.959C1688.47 263.184 1688.14 282.74 1688.8 301.965C1687.81 309.589 1689.47 316.218 1696.43 321.19C1690.13 320.196 1685.82 316.218 1682.5 311.578C1675.54 301.302 1672.23 290.032 1669.91 278.431Z" fill="#0D4F8A"/>
<path d="M1689.12 301.302C1686.8 300.97 1687.47 298.981 1687.47 297.324C1687.47 276.442 1687.47 255.228 1687.47 234.346C1690.12 236.998 1694.1 238.986 1695.75 242.633C1696.08 243.295 1697.74 243.958 1698.74 243.958C1705.37 244.29 1710.67 247.936 1716.64 249.925C1718.96 250.588 1717.3 253.239 1717.96 254.565C1718.29 254.897 1717.63 256.223 1716.97 256.554C1712.33 260.532 1710.67 265.172 1710.67 271.47C1710.67 274.122 1706.36 276.773 1704.04 279.094C1702.71 280.419 1700.73 281.082 1700.39 282.74C1699.4 288.706 1696.08 293.678 1692.77 298.65C1691.78 300.639 1689.79 299.976 1689.12 301.302Z" fill="#08427E"/>
<path d="M1642.72 164.407C1639.74 166.064 1640.07 163.744 1640.07 162.087C1640.07 155.789 1640.07 149.16 1640.07 142.862C1640.07 140.873 1640.07 138.884 1639.07 137.227C1639.4 133.581 1638.74 129.935 1642.72 127.615C1644.71 126.62 1644.04 123.968 1643.71 121.98C1643.38 118.996 1643.38 115.35 1645.7 114.025C1648.02 112.699 1651.34 112.699 1653.66 115.019C1653.99 115.35 1654.98 116.013 1654.98 116.013C1654.32 118.334 1655.31 119.659 1657.63 119.991C1659.95 119.991 1661.28 118.665 1662.27 116.676C1662.61 116.345 1662.94 116.013 1663.27 115.35C1664.93 117.339 1666.58 119.328 1666.58 121.98C1666.58 123.968 1667.91 124.963 1669.57 125.626C1670.89 125.957 1673.54 125.294 1670.89 127.946C1670.56 128.277 1670.56 128.609 1670.89 128.609C1671.22 128.609 1671.89 128.609 1672.22 128.609C1673.54 128.277 1675.2 128.277 1675.53 129.603C1675.86 130.929 1675.53 132.918 1673.88 133.581C1671.56 134.575 1668.9 136.233 1666.25 136.564C1659.95 137.227 1654.98 139.547 1651 145.514C1654.32 144.188 1656.97 142.862 1660.29 141.205C1657.3 144.851 1658.3 145.845 1666.25 148.828C1664.59 151.148 1662.27 152.474 1659.29 153.469C1659.29 151.48 1661.94 151.48 1661.28 149.16C1657.3 149.823 1652.66 151.48 1651.34 154.463C1649.68 159.104 1645.7 161.424 1642.72 164.407Z" fill="#176BA2"/>
<path d="M1781.94 171.369C1781.94 191.588 1781.94 212.139 1781.94 232.359C1777.63 231.364 1773.32 233.021 1769.01 233.021C1765.37 233.684 1764.7 231.033 1764.37 228.381C1764.04 224.072 1764.04 219.431 1764.37 214.791C1764.37 203.521 1764.04 192.583 1764.7 181.313C1763.71 177.998 1767.02 177.004 1768.02 175.015C1769.67 171.701 1771.33 171.701 1773.98 172.364C1776.63 173.026 1779.29 171.701 1781.94 171.369Z" fill="#1F85BA"/>
<path d="M1798.18 270.474C1795.86 270.143 1796.53 268.154 1796.53 266.497C1796.53 239.98 1796.53 213.463 1796.53 186.945C1796.53 185.288 1796.86 183.631 1797.52 182.305C1800.51 183.962 1802.16 187.94 1806.14 188.603C1807.8 190.923 1807.47 193.575 1807.47 195.895C1807.47 213.794 1807.47 231.693 1807.47 249.592C1807.47 251.581 1806.8 253.57 1806.8 255.89C1803.82 260.862 1801.17 265.834 1798.18 270.474Z" fill="#0F568F"/>
<path d="M1819.39 169.378C1819.73 167.389 1819.06 165.732 1818.4 164.406C1815.75 160.097 1812.77 156.119 1809.78 151.81C1807.79 155.456 1811.11 157.445 1811.11 160.428C1811.44 162.417 1812.77 164.074 1811.11 165.732C1809.45 167.389 1808.46 164.074 1806.8 164.737C1806.14 167.72 1808.12 170.704 1807.46 173.687C1804.48 164.737 1800.17 156.782 1793.54 150.153C1790.56 149.49 1790.23 147.501 1790.23 145.181C1790.23 140.54 1790.23 135.568 1789.89 130.928C1788.57 126.619 1789.89 121.315 1786.58 117.669C1786.25 116.012 1786.25 114.355 1788.57 114.023C1800.5 125.956 1810.45 139.546 1817.07 155.125C1819.06 160.097 1820.72 165.4 1821.71 170.704C1820.39 170.704 1819.73 170.041 1819.39 169.378Z" fill="#105891"/>
<path d="M1806.79 255.889C1806.46 255.226 1806.13 254.563 1806.13 253.9C1806.13 232.024 1806.13 210.479 1806.13 188.602C1806.46 187.276 1805.47 185.287 1807.13 184.956C1808.78 184.293 1810.44 185.619 1811.43 186.945C1812.76 189.265 1814.75 190.591 1817.07 191.254C1817.4 204.844 1817.4 218.434 1817.07 232.024C1817.07 235.67 1817.07 238.984 1817.73 242.299C1816.07 248.597 1811.43 252.243 1806.79 255.889Z" fill="#0A4782"/>
<path d="M1764.37 181.642C1765.37 184.294 1765.37 186.945 1765.37 189.597C1765.37 202.193 1765.37 214.788 1765.37 227.715C1765.37 230.036 1765.04 232.687 1768.68 233.019C1763.71 234.345 1760.07 232.687 1756.42 226.721C1754.43 223.406 1751.78 220.092 1751.78 216.446C1751.45 211.142 1751.12 205.176 1752.44 200.204C1753.77 194.9 1756.42 188.934 1762.39 185.951C1764.04 185.288 1763.38 182.968 1764.37 181.642Z" fill="#1E96FC"/>
<path d="M1817.4 242.63C1815.74 241.635 1815.74 239.978 1815.74 238.321C1815.74 224.068 1815.74 209.483 1815.74 195.23C1815.74 193.904 1815.41 192.247 1817.07 191.253C1817.73 191.253 1819.06 191.584 1819.06 190.59C1819.39 187.938 1819.06 185.618 1819.39 182.966C1819.72 179.652 1817.4 178.989 1815.41 177.663C1812.43 176.005 1810.11 169.045 1811.77 167.056C1814.09 164.736 1816.08 163.41 1817.73 167.387C1818.06 168.05 1818.4 168.713 1819.39 169.045C1820.05 169.376 1820.72 169.708 1821.38 170.039C1823.7 180.314 1825.69 190.921 1824.69 201.86C1824.36 207.494 1824.69 213.461 1824.03 219.096C1823.7 222.41 1823.7 226.056 1821.38 229.04C1820.05 230.365 1819.06 230.697 1818.73 228.045C1818.4 224.731 1819.39 221.747 1819.06 218.764C1819.06 213.129 1819.06 207.826 1819.06 202.191C1819.39 204.843 1819.06 207.163 1819.06 209.815C1819.06 216.775 1819.39 224.068 1818.06 231.028C1818.06 233.017 1815.41 235.337 1818.73 237.326C1820.72 238.321 1817.4 240.641 1817.4 242.63Z" fill="#043773"/>
<path d="M1790.55 129.271C1792.21 134.243 1791.21 139.546 1791.54 144.85C1791.54 146.838 1791.54 148.827 1793.53 150.153C1790.88 151.147 1793.2 152.473 1793.53 153.468C1794.86 158.108 1799.83 160.097 1801.16 164.737C1800.83 165.4 1800.49 166.395 1799.5 165.732C1797.18 162.749 1794.53 160.097 1792.87 156.782C1790.55 151.479 1786.24 153.799 1782.59 153.468C1782.26 153.468 1781.27 154.462 1781.27 154.794C1781.6 157.445 1779.28 158.44 1777.95 160.097C1775.63 161.091 1774.97 159.103 1774.97 157.777C1774.97 150.153 1773.98 142.198 1775.3 134.574C1774.97 130.928 1778.29 129.934 1780.27 127.613C1783.59 127.613 1787.24 127.282 1790.55 129.271Z" fill="#1A76AC"/>
<path d="M1698.75 101.759C1698.75 102.754 1699.08 104.079 1698.75 105.074C1697.75 107.394 1699.08 111.703 1695.43 112.035C1691.79 112.366 1688.14 112.035 1686.15 107.726C1685.49 106.731 1685.16 105.405 1685.16 104.079C1686.15 95.4614 1685.49 86.5119 1685.49 77.8938C1685.49 76.8994 1685.49 75.905 1686.15 75.2421C1690.79 74.2477 1695.76 74.5792 1700.4 75.2421C1698.41 80.2141 1699.08 85.186 1699.08 90.158C1699.41 94.1355 1699.41 98.1131 1698.75 101.759Z" fill="#186FA5"/>
<path d="M1698.73 101.759C1696.75 93.8043 1698.4 85.5177 1698.07 77.2311C1698.07 75.5738 1700.06 75.9053 1700.72 74.9109C1705.69 74.9109 1714.31 81.2087 1715.31 85.5177C1715.64 86.1807 1715.64 87.1751 1716.3 87.5065C1721.27 91.8155 1716.96 92.4785 1713.98 93.4729C1711 94.4673 1708.02 94.7987 1706.36 98.1134C1705.03 101.097 1701.05 100.102 1698.73 101.759Z" fill="#0F548D"/>
<path d="M1783.92 259.868C1785.58 266.166 1784.58 272.464 1784.91 278.762C1784.91 280.419 1783.92 282.408 1786.57 283.071C1780.27 291.026 1772.65 297.655 1761.38 300.97C1770.99 287.38 1775.3 272.464 1783.92 259.868Z" fill="#1F7EB3"/>
<path d="M1775.31 133.911C1776.63 138.22 1775.97 142.529 1775.97 147.169C1775.64 151.478 1774.64 156.119 1777.96 159.765C1777.29 163.411 1778.62 167.72 1772.65 168.715C1770 169.378 1768.68 167.389 1766.69 167.389C1762.71 167.72 1764.04 164.737 1763.7 163.08C1763.37 162.085 1763.04 161.091 1763.04 160.428C1761.38 151.478 1761.72 151.147 1770.33 152.804C1773.98 153.467 1774.64 152.141 1773.98 149.158C1773.32 145.512 1771.99 143.855 1766.36 140.209C1770.67 139.214 1772.65 136.231 1775.31 133.911Z" fill="#238CC0"/>
<path d="M1788.24 113.694C1787.24 114.688 1786.91 115.683 1786.58 117.009C1783.26 118.003 1782.27 115.02 1780.28 113.031C1778.96 111.705 1778.96 110.048 1777.96 108.059C1777.96 107.728 1777.3 108.722 1777.96 108.391C1777.96 108.391 1778.29 108.391 1778.29 108.722C1778.96 113.031 1783.26 115.683 1784.59 119.66C1785.25 121.649 1786.91 124.301 1784.59 125.627C1782.6 126.621 1781.28 123.969 1779.62 122.644C1779.29 122.312 1778.96 121.649 1778.62 120.986C1777.96 119.992 1777.63 118.997 1777.3 118.003C1776.3 116.677 1775.31 113.694 1773.32 117.672C1772.99 118.666 1771.33 118.003 1770.67 117.34C1768.35 114.688 1764.37 112.368 1767.69 107.728C1769.01 105.739 1767.69 104.082 1766.69 102.424C1765.7 100.435 1764.7 98.1152 1762.71 94.8005C1773.98 99.441 1781.28 106.07 1788.24 113.694Z" fill="#2286BA"/>
<path d="M1686.48 75.2424C1688.13 84.5234 1687.47 94.1359 1686.81 103.748C1686.81 105.074 1686.48 106.4 1686.14 108.057C1683.82 106.732 1683.16 104.08 1681.5 102.091C1679.85 99.7708 1680.18 97.782 1682.5 95.7932C1683.49 95.1303 1684.49 93.473 1683.49 93.1415C1677.86 92.4786 1680.18 87.1751 1678.52 84.5234C1677.86 83.1976 1676.86 81.8717 1674.87 81.8717C1673.55 81.8717 1671.56 82.5346 1671.56 80.5459C1671.23 78.8885 1672.55 78.2256 1673.88 77.5627C1674.54 77.2312 1674.87 76.8998 1675.54 76.8998C1679.18 76.2368 1682.83 75.9054 1686.48 75.2424Z" fill="#2188BD"/>
<path d="M1653.32 98.1131C1652.99 96.1243 1651.67 94.467 1653.32 92.4782C1653.99 92.1467 1652.33 90.1579 1654.65 90.8209C1656.64 91.4838 1658.3 92.8096 1660.62 93.4726C1663.27 94.1355 1665.59 96.1243 1661.28 98.776C1663.27 99.1075 1664.93 99.7704 1666.25 100.102C1667.25 100.433 1668.57 100.102 1668.57 101.096C1668.57 102.091 1667.58 103.416 1666.91 104.411C1665.92 105.405 1665.26 104.411 1664.59 103.748C1663.27 102.422 1662.27 101.096 1660.62 103.085C1659.29 105.074 1660.62 106.068 1662.27 106.731C1663.27 107.394 1664.59 107.726 1663.6 109.051C1663.27 110.046 1661.61 109.714 1661.61 109.714C1657.96 113.692 1655.31 109.714 1652.66 108.388C1652 107.394 1652.99 107.063 1653.32 106.4C1657.3 103.748 1656.64 100.765 1653.32 98.1131Z" fill="#176199"/>
<path d="M1675.54 76.9001C1675.21 78.8889 1672.56 78.5575 1671.89 80.8777C1673.55 82.8665 1678.19 80.2148 1678.19 84.8553C1676.53 82.8665 1674.54 82.8665 1672.22 82.535C1670.57 82.2036 1667.25 84.8553 1666.92 80.5463C1666.92 79.8833 1666.26 80.2148 1665.93 80.5463C1662.28 82.2036 1658.97 83.8609 1655.98 86.8441C1655.65 87.1755 1655.32 87.1755 1654.99 86.8441C1655.98 85.5182 1651.34 87.1755 1653.99 84.8553C1660.62 78.8889 1667.92 77.2316 1675.54 76.9001Z" fill="#489EC9"/>
<path d="M1763.7 123.966C1766.69 124.629 1767.68 127.612 1770 128.938C1770.99 129.601 1770.99 131.59 1771.33 133.247C1770.33 133.579 1769.34 133.579 1768.01 133.91C1766.02 134.241 1764.36 134.241 1762.38 134.573C1762.04 132.916 1763.7 132.584 1764.36 131.258C1759.72 130.927 1761.05 128.607 1762.71 126.286C1762.04 124.96 1761.71 123.966 1763.7 123.966Z" fill="#21689D"/>
<path d="M1681.17 143.855C1677.85 141.866 1674.21 142.529 1670.56 141.203C1672.22 138.883 1673.54 136.894 1675.2 134.574C1675.86 138.883 1683.16 137.557 1681.17 143.855Z" fill="#357FAF"/>
<path d="M1723.27 102.424C1726.58 100.103 1729.57 97.1203 1734.21 98.7776C1735.2 99.1091 1736.2 99.1091 1736.2 100.435C1736.53 101.761 1735.53 102.424 1734.54 102.755C1730.89 104.744 1727.25 104.081 1723.27 102.424Z" fill="#1C6399"/>
<path d="M1619.85 106.069C1619.85 105.074 1619.52 104.412 1618.86 103.749C1616.21 101.76 1619.52 101.76 1619.85 100.765C1620.85 99.4396 1622.17 98.4452 1623.83 98.7766C1625.16 99.1081 1626.81 99.1081 1626.81 101.428C1626.81 103.749 1624.82 104.412 1623.5 105.406C1622.5 106.4 1621.18 106.069 1619.85 106.069Z" fill="#2776A9"/>
<path d="M1757.08 127.612C1755.76 129.601 1753.77 130.596 1752.44 130.264C1749.79 129.933 1752.77 126.618 1750.79 125.292C1751.78 124.298 1751.45 121.646 1753.77 121.977C1757.08 122.309 1754.76 125.955 1757.08 127.612Z" fill="#287AAE"/>
<path d="M1763.7 123.967C1762.71 124.299 1762.71 125.293 1762.71 125.956C1761.38 122.973 1757.74 121.647 1755.75 118.995C1754.42 117.338 1754.42 116.344 1754.09 114.686C1759.39 115.681 1760.06 121.316 1763.7 123.967Z" fill="#49A0CB"/>
<path d="M1818.73 231.03C1818.73 223.406 1818.73 216.114 1818.73 208.49C1821.05 209.485 1819.72 211.473 1820.05 212.799C1820.38 214.457 1819.72 216.114 1820.38 218.103C1821.05 220.754 1820.05 223.406 1819.72 226.058C1819.72 227.052 1818.4 229.704 1821.71 229.041C1821.71 231.361 1819.72 230.698 1818.73 231.03Z" fill="#0A4782"/>
<path d="M1637.08 98.112C1635.42 96.7861 1635.42 99.1063 1634.1 99.1063C1633.77 98.1119 1630.78 97.449 1633.43 95.7917C1634.76 94.7973 1636.09 92.8085 1637.74 94.1344C1639.73 95.1288 1637.41 96.7861 1637.08 98.112Z" fill="#72ACCD"/>
<path d="M1655.31 86.1816C1655.64 86.1816 1655.98 86.1816 1656.31 86.1816C1654.65 88.5018 1652 88.8333 1649.35 89.1648C1648.68 89.1648 1647.36 89.8277 1647.69 87.8389C1648.02 86.8445 1648.68 85.8501 1649.68 86.5131C1651.67 88.1704 1653.32 85.8501 1655.31 86.1816Z" fill="#3C8BB9"/>
<path d="M1637.09 108.72C1639.08 108.72 1640.4 109.715 1641.4 111.372C1639.08 110.709 1637.42 115.018 1635.1 111.703C1635.1 110.046 1636.1 109.383 1637.09 108.72Z" fill="#3B8DBC"/>
<path d="M1799.51 165.401C1800.17 165.069 1800.84 164.738 1801.17 164.406C1802.16 167.39 1799.51 169.71 1799.18 172.693C1798.85 171.367 1794.21 171.036 1798.85 169.047C1800.84 168.053 1799.51 166.727 1799.51 165.401Z" fill="#6795BA"/>
<path d="M1778.95 120.322C1776.96 122.311 1778.95 124.3 1778.95 125.957C1777.62 123.637 1772.65 121.98 1776.96 118.333C1777.62 118.996 1778.28 119.659 1778.95 120.322Z" fill="#6FADCF"/>
<path d="M1791.88 163.079C1791.88 164.074 1791.88 165.4 1790.55 165.068C1789.23 164.737 1789.23 163.411 1788.89 162.417C1788.56 161.422 1789.23 160.428 1790.22 160.428C1792.54 160.428 1791.22 162.417 1791.88 163.079Z" fill="#3C91C0"/>
<path d="M1619.52 100.765C1619.52 101.759 1617.86 102.422 1618.52 103.748C1618.52 105.405 1617.2 105.737 1615.87 105.737C1614.54 102.091 1617.53 102.091 1619.52 100.765Z" fill="#A5D0E6"/>
<path d="M1653.32 106.399C1652.99 107.062 1652.66 107.725 1652.66 108.388C1651 108.72 1649.01 109.051 1646.36 109.383C1648.68 107.062 1651.33 107.062 1653.32 106.399Z" fill="#66A9CD"/>
<path d="M1637.09 108.72C1636.76 110.045 1636.43 111.04 1635.1 111.703C1634.77 111.703 1634.44 111.703 1634.11 111.703C1633.78 111.04 1632.45 109.714 1632.78 109.714C1633.78 108.057 1635.77 108.72 1637.09 108.72Z" fill="#A5CBE0"/>
<path d="M1792.88 283.733C1791.56 285.39 1789.9 287.047 1787.58 289.368C1788.24 285.721 1790.23 284.727 1792.88 283.733Z" fill="#85B7D4"/>
</svg>
