<svg width="21" height="21" viewBox="0 0 21 21" fill="none" xmlns="http://www.w3.org/2000/svg">
<path d="M20.7998 4.21494C20.7998 3.7682 20.6309 3.5993 20.1896 3.5993C14.8668 3.5993 9.53853 3.5993 4.21573 3.5993C3.76354 3.5993 3.60555 3.7573 3.60555 4.20949C3.60555 9.59767 3.60555 14.9858 3.6001 20.3795C3.6001 20.6737 3.69272 20.8807 3.96512 20.9951C8.22554 20.9951 12.4805 20.9951 16.7409 20.9951C17.0351 20.8916 17.1332 20.6682 17.1332 20.3686C17.1277 19.0992 17.1386 17.8298 17.1223 16.5604C17.1223 16.3479 17.1877 16.3097 17.3784 16.3152C18.31 16.3261 19.2416 16.3206 20.1732 16.3206C20.6309 16.3206 20.7998 16.1517 20.7998 15.6995C20.7998 11.8695 20.7998 8.04496 20.7998 4.21494ZM19.8572 15.1547C19.8572 15.3291 19.8191 15.3836 19.6393 15.3781C18.6968 15.3672 17.7488 15.3727 16.8063 15.3727C16.3541 15.3727 16.1852 15.5416 16.1852 15.9992C16.1852 17.2795 16.1798 18.5653 16.1907 19.8456C16.1907 20.0253 16.1416 20.058 15.9727 20.058C12.2408 20.0526 8.51429 20.0526 4.78234 20.058C4.60255 20.058 4.54807 20.0253 4.54807 19.8292C4.55352 17.3176 4.55352 14.8061 4.55352 12.289C4.55352 9.77201 4.55352 7.26588 4.54807 4.74885C4.54807 4.57996 4.58076 4.53638 4.7551 4.53638C9.71287 4.54183 14.6761 4.54183 19.6339 4.53638C19.8137 4.53638 19.8518 4.58541 19.8518 4.75975C19.8518 8.22475 19.8518 11.6897 19.8572 15.1547Z" fill="#757578"/>
<path d="M1.49956 4.44375C1.72838 4.4274 1.85368 4.25851 1.84824 4.05148C1.83734 3.83901 1.68479 3.69191 1.44508 3.68101C1.27618 3.67556 1.10729 3.68101 0.938401 3.68101C0.76951 3.68101 0.600619 3.67556 0.431728 3.68101C0.186563 3.69191 0.0176714 3.83356 0.0013271 4.04603C-0.0150172 4.25306 0.142978 4.43285 0.388143 4.44919C0.524345 4.46009 0.54069 4.50912 0.54069 4.62353C0.54069 9.73386 0.54069 14.8442 0.54069 19.9545C0.54069 20.0798 0.524345 20.1343 0.377246 20.1343C0.16477 20.1397 0.0176714 20.2923 0.0013271 20.4884C-0.0150172 20.6737 0.121185 20.8698 0.322765 20.8861C0.725925 20.9243 1.12909 20.9297 1.53225 20.8861C1.73383 20.8643 1.85368 20.6954 1.84824 20.5048C1.84279 20.3141 1.70658 20.1397 1.51045 20.1397C1.30342 20.1452 1.30887 20.0417 1.30887 19.8946C1.31432 14.8224 1.31432 9.75565 1.30887 4.68346C1.30887 4.54181 1.31977 4.46009 1.49956 4.44375Z" fill="#757578"/>
<path d="M3.69303 1.42254C3.69848 1.66771 3.82923 1.82025 4.04171 1.84205C4.26508 1.86384 4.43942 1.72764 4.46121 1.48247C4.47211 1.33537 4.5157 1.30813 4.65735 1.30813C9.66961 1.31358 14.6819 1.31358 19.6941 1.30813C19.814 1.30813 19.8739 1.31903 19.8794 1.46613C19.8903 1.71129 20.0646 1.85839 20.288 1.84205C20.5004 1.83115 20.6475 1.67316 20.653 1.43889C20.6584 1.09566 20.6584 0.746978 20.653 0.403747C20.6475 0.174927 20.4895 0.0114835 20.2825 0.000587248C20.0864 -0.010309 19.8957 0.13679 19.8903 0.354714C19.8848 0.534502 19.8031 0.53995 19.6669 0.53995C14.671 0.534502 9.6805 0.534502 4.68459 0.53995C4.53204 0.53995 4.47211 0.512709 4.46121 0.349266C4.44487 0.131342 4.25963 -0.010309 4.0635 0.000587248C3.85647 0.0114835 3.70938 0.180375 3.69848 0.409195C3.69303 0.578087 3.69848 0.746978 3.69848 0.915869C3.68758 1.07931 3.68758 1.2482 3.69303 1.42254Z" fill="#757578"/>
<path d="M13.4664 11.4173C13.3738 10.4911 12.562 9.97901 11.6794 10.2678C11.3743 10.3658 11.1564 10.5729 10.9385 10.7908C10.5189 10.0825 9.45657 10.0008 8.781 10.5674C8.75376 10.2841 8.75376 10.2841 8.48681 10.2841C8.29067 10.2841 8.09454 10.2896 7.89841 10.2841C7.80579 10.2841 7.76221 10.3005 7.76221 10.4094C7.76766 11.7605 7.76766 13.1171 7.76221 14.4683C7.76221 14.5609 7.78945 14.5936 7.88751 14.5881C8.12178 14.5827 8.35605 14.5772 8.59032 14.5881C8.73197 14.5936 8.77555 14.5609 8.77555 14.4083C8.76466 13.5257 8.77011 12.6377 8.77011 11.7551C8.77011 11.6952 8.74831 11.6243 8.79735 11.5699C8.97169 11.3683 9.15692 11.1667 9.42388 11.0904C9.85973 10.9706 10.0668 11.1122 10.1103 11.499C10.1267 11.6407 10.1321 11.7823 10.1321 11.9294C10.1321 12.763 10.1376 13.5966 10.1321 14.4301C10.1321 14.55 10.1539 14.599 10.2901 14.5936C10.5081 14.5827 10.7314 14.5772 10.9548 14.5936C11.1128 14.6045 11.1291 14.5445 11.1291 14.4083C11.1237 13.5312 11.1237 12.6486 11.1291 11.7714C11.1291 11.7061 11.1128 11.6407 11.1564 11.5808C11.3362 11.3628 11.5377 11.1667 11.8156 11.085C12.2133 10.9651 12.4476 11.134 12.4803 11.5481C12.4912 11.6952 12.4966 11.8477 12.4966 11.9948C12.4966 12.8011 12.5021 13.6075 12.4966 14.4138C12.4966 14.55 12.5293 14.5936 12.6655 14.5881C12.8998 14.5772 13.134 14.5772 13.3683 14.5881C13.4718 14.5936 13.4991 14.5554 13.4991 14.4574C13.4936 14.0324 13.4991 13.6129 13.4936 13.188C13.4882 12.5996 13.5263 12.0057 13.4664 11.4173Z" fill="#757578"/>
<path d="M15.0193 9.00929C14.7306 9.02019 14.4364 9.00929 14.104 9.00929C14.3982 8.72055 14.6924 8.50807 14.9321 8.22477C15.1828 7.92512 15.2372 7.48927 15.052 7.16783C14.8668 6.84095 14.4745 6.6884 14.0114 6.77012C13.6573 6.83005 13.374 7.11335 13.3086 7.46748C13.2541 7.75078 13.2541 7.74533 13.5374 7.75078C13.739 7.75623 13.9242 7.78347 13.9406 7.48382C13.946 7.33128 14.164 7.24956 14.3329 7.29314C14.5017 7.33673 14.5617 7.45658 14.5453 7.61458C14.5344 7.76168 14.4691 7.88698 14.3655 7.99595C14.1476 8.22477 13.897 8.40455 13.6682 8.62248C13.4394 8.8404 13.2378 9.07467 13.2214 9.41245C13.216 9.54321 13.2378 9.59224 13.3849 9.58679C13.8425 9.5759 14.2947 9.58135 14.7524 9.58135C15.1828 9.58135 15.1773 9.58135 15.1719 9.15639C15.1719 9.04198 15.1446 9.00385 15.0193 9.00929Z" fill="#757578"/>
</svg>
