<svg width="17" height="18" viewBox="0 0 17 18" fill="none" xmlns="http://www.w3.org/2000/svg">
<path d="M15.2478 9.21105C15.1305 9.20167 15.1212 9.15477 15.1212 9.06097C15.1305 8.40907 15.1446 7.75717 15.0039 7.11933C14.4317 4.50704 12.8981 2.72955 10.389 1.79156C9.9716 1.63679 9.53544 1.55237 9.09927 1.47264C9.25873 0.905159 9.11803 0.454924 8.70063 0.173528C8.57869 0.0891089 8.4333 0.0562793 8.29729 0C8.15659 0 8.0159 0 7.8752 0C7.86582 0.0468994 7.82361 0.0422095 7.79547 0.0515894C7.21861 0.276707 6.95128 0.78322 7.12012 1.37415C7.15764 1.51485 7.07322 1.4914 7.01225 1.50078C5.92887 1.66962 4.94398 2.07295 4.05758 2.71548C2.51928 3.83637 1.57191 5.33715 1.22486 7.21313C1.1123 7.82282 1.12168 8.43721 1.12637 9.05159C1.12637 9.15946 1.10761 9.20636 0.985672 9.20636C0.741795 9.20636 0.530747 9.30485 0.352529 9.46899C0.0242335 9.75977 -0.0836352 10.21 0.066443 10.6227C0.221211 11.0401 0.605786 11.3121 1.07009 11.3168C2.02684 11.3215 2.9789 11.3168 3.93565 11.3168C4.142 11.3168 4.34367 11.3168 4.55003 11.3168C4.43747 11.8702 4.3296 12.4143 4.22173 12.9583C4.20766 13.0193 4.18421 13.0615 4.12793 13.0943C3.48072 13.4977 3.19932 14.1073 3.13836 14.839C3.12898 14.9562 3.08677 15.0266 2.98828 15.0875C2.69281 15.2751 2.40203 15.4721 2.10657 15.6644C1.84862 15.8332 1.81579 16.0255 1.9987 16.2694C2.3739 16.7712 2.75378 17.2684 3.12429 17.7702C3.19463 17.864 3.27436 17.9484 3.38223 18C3.45258 18 3.52293 18 3.59328 18C4.39526 17.4466 5.19724 16.8979 6.00391 16.3445C6.04143 16.3163 6.08364 16.2976 6.13054 16.2835C7.06384 15.9317 7.74857 15.2939 8.20818 14.4169C8.25977 14.3137 8.33012 14.2387 8.42861 14.173C9.45571 13.4836 10.4875 12.7895 11.5474 12.1516C11.8054 11.9969 11.9789 11.7811 11.9836 11.4763C11.9883 11.3121 12.0492 11.3121 12.1759 11.3121C13.1795 11.3168 14.1785 11.3168 15.1821 11.3121C15.7731 11.3075 16.2374 10.8619 16.2561 10.2991C16.2655 9.70818 15.8528 9.25326 15.2478 9.21105ZM8.13784 0.703491C8.32543 0.712871 8.4802 0.872329 8.47551 1.05993C8.47082 1.2569 8.30667 1.41167 8.1097 1.40698C7.9221 1.40229 7.76733 1.24283 7.77202 1.05055C7.77671 0.858259 7.94555 0.698801 8.13784 0.703491ZM2.09719 6.59406C2.90855 4.18812 4.55003 2.68734 7.04977 2.21834C10.4078 1.59458 13.6626 3.85513 14.3051 7.19906C14.3333 7.33507 14.3473 7.47577 14.3708 7.61647C14.3942 7.7431 14.3755 7.79937 14.2207 7.79937C13.5125 7.78999 12.8043 7.79468 12.0961 7.79468C11.7772 7.79468 11.6084 7.91662 11.6084 8.14643C11.6084 8.37624 11.7819 8.50287 12.0961 8.50287C12.8231 8.50287 13.55 8.50756 14.277 8.49818C14.3895 8.49818 14.4317 8.52632 14.4224 8.64356C14.413 8.78426 14.413 8.92496 14.4224 9.06566C14.4317 9.1876 14.3848 9.21105 14.2723 9.21105C13.6579 9.20636 13.0435 9.20636 12.4244 9.20636C10.9893 9.20636 9.5542 9.20636 8.11908 9.20636C6.07895 9.20636 4.03882 9.20636 2.00339 9.21105C1.858 9.21105 1.82517 9.17353 1.82048 9.02814C1.8111 8.20271 1.82986 7.38197 2.09719 6.59406ZM11.1582 11.5607C10.1686 12.1563 9.21183 12.7942 8.25508 13.4367C8.23632 13.4508 8.21756 13.4648 8.1988 13.4742C7.88927 13.6477 7.67353 13.8869 7.50469 14.2058C7.13888 14.8953 6.57139 15.3783 5.82569 15.6456C5.66624 15.7019 5.53492 15.8192 5.39422 15.913C4.81736 16.3022 4.24049 16.6915 3.66832 17.0902C3.57921 17.1511 3.53231 17.1605 3.46196 17.062C3.25091 16.7665 3.03049 16.4758 2.81006 16.1897C2.74909 16.11 2.74909 16.0771 2.8382 16.0208C3.09615 15.8614 3.34471 15.6832 3.60266 15.5237C3.75743 15.4252 3.82778 15.2986 3.82309 15.1157C3.81371 14.7827 3.87937 14.4638 4.04351 14.1683C4.17483 13.9338 4.35774 13.7462 4.60631 13.6337C4.75639 13.5633 4.83612 13.4554 4.86894 13.2913C4.96743 12.7754 5.0753 12.2595 5.17848 11.7436C5.23476 11.4716 5.39422 11.3168 5.63341 11.3215C5.90073 11.3215 6.10709 11.5513 6.07426 11.8233C6.03205 12.1845 5.97577 12.5409 5.92887 12.902C5.91949 12.9911 5.90542 13.0756 5.91011 13.1647C5.92887 13.432 6.20558 13.5586 6.46353 13.4132C7.01225 13.1131 7.55628 12.8082 8.10501 12.5034C8.7616 12.1376 9.42288 11.7718 10.0795 11.4013C10.1733 11.3497 10.2671 11.3215 10.3749 11.3215C10.6141 11.3262 10.8533 11.3215 11.0972 11.3215C11.1722 11.3215 11.2613 11.3075 11.2801 11.4106C11.2942 11.495 11.2191 11.5232 11.1582 11.5607ZM6.69333 11.3215C7.37337 11.3215 8.03466 11.3215 8.75222 11.3215C8.04873 11.7155 7.38744 12.0813 6.69802 12.4706C6.73085 12.0672 6.85748 11.6967 6.69333 11.3215ZM15.3088 10.5899C15.2337 10.618 15.1587 10.6133 15.0836 10.6133C10.4453 10.6133 5.80224 10.6133 1.16389 10.6133C1.08885 10.6133 1.01381 10.6133 0.938772 10.5852C0.779314 10.5242 0.690205 10.3835 0.704275 10.2147C0.723035 10.0505 0.844974 9.92392 1.01381 9.90985C1.07947 9.90516 1.14044 9.90516 1.2061 9.90516C3.51355 9.90516 5.821 9.90516 8.12846 9.90516C10.4312 9.90516 12.734 9.90516 15.0367 9.90516C15.1024 9.90516 15.1681 9.90047 15.229 9.90985C15.3979 9.92861 15.5245 10.0552 15.5386 10.2147C15.5573 10.3882 15.4682 10.5289 15.3088 10.5899Z" fill="#1E96FC"/>
<path d="M3.52744 6.64557C3.72442 6.7253 3.90732 6.6315 4.00112 6.41107C4.0574 6.28444 4.1043 6.14843 4.16527 6.02649C4.55453 5.25734 5.1314 4.6711 5.90524 4.28653C6.06001 4.21149 6.19133 4.12238 6.19133 3.9254C6.19602 3.65338 5.92869 3.49392 5.67074 3.62055C4.55922 4.1599 3.78538 5.01347 3.33984 6.16719C3.26011 6.37355 3.33984 6.57053 3.52744 6.64557Z" fill="#1E96FC"/>
</svg>
