<svg width="16" height="16" viewBox="0 0 16 16" fill="none" xmlns="http://www.w3.org/2000/svg">
<g clip-path="url(#clip0_280_270)">
<path d="M15.9638 10.0513C15.9638 10.0271 15.9638 10.003 16 9.99095C16 9.62896 16 9.26697 16 8.89291C15.9638 8.73605 15.9758 8.56712 15.9517 8.39819C15.8673 7.83107 15.7104 7.28808 15.4811 6.76923C14.8778 5.39367 13.9125 4.34389 12.6093 3.60784C12.5128 3.55958 12.4404 3.48718 12.3921 3.40272C11.994 2.70287 11.5113 2.07541 10.8959 1.55656C9.94267 0.748115 8.8567 0.241327 7.62593 0.0482655C7.457 0.0241327 7.276 0.0361991 7.10707 0C6.74508 0 6.38309 0 6.00903 0C5.79184 0.0482655 5.56258 0.0241327 5.34538 0.0723982C4.18701 0.301659 3.14931 0.808446 2.25639 1.58069C1.49621 2.24434 0.917028 3.02866 0.518838 3.9457C0.229246 4.63348 0.0361837 5.33333 0.012051 6.08145C-1.53616e-05 6.58824 -0.0120817 7.09502 0.0603165 7.57768C0.229246 8.73605 0.687767 9.77376 1.42382 10.6908C1.56861 10.8597 1.55655 10.8597 1.41175 11.0287C1.02563 11.4389 0.603303 11.813 0.205113 12.1991C-1.53679e-05 12.3922 -0.0362145 12.6214 0.0482501 12.8627C0.144781 13.1041 0.361976 13.1523 0.603303 13.1523C1.55655 13.1523 2.50979 13.1523 3.46303 13.1523C3.5837 13.1523 3.70436 13.1644 3.82502 13.1765C3.96982 13.1765 4.05428 13.2489 4.13875 13.3695C4.89893 14.371 5.85217 15.1192 7.02261 15.5777C7.74659 15.8673 8.49471 16.0121 9.27902 16.0121C11.3544 16.0121 13.4178 15.9879 15.4932 15.9879C15.819 15.9879 15.9155 15.9155 16.012 15.6139C16.012 15.5294 16.012 15.4449 16.012 15.3605C15.9397 15.2278 15.8431 15.1192 15.7345 15.0106C15.3243 14.6124 14.914 14.2021 14.5038 13.7919C14.4314 13.7195 14.4314 13.6833 14.4917 13.6109C15.3363 12.5732 15.8311 11.3906 15.9638 10.0513ZM1.76167 12.175C1.72547 12.175 1.68928 12.187 1.66514 12.175C1.9306 11.8974 2.19606 11.6078 2.47359 11.3424C2.82351 10.9925 2.82351 10.7994 2.48566 10.4374C1.39968 9.2549 0.868763 7.86727 0.97736 6.27451C1.11009 4.21116 2.09953 2.64253 3.89742 1.62896C6.52789 0.144796 9.9306 1.09804 11.451 3.72851C13.2609 6.86576 11.7647 10.7994 8.31371 11.9216C7.57766 12.1629 6.81748 12.2112 6.0573 12.2112C4.6214 12.187 3.19757 12.187 1.76167 12.175ZM13.4419 14.0694C13.7315 14.359 14.0332 14.6486 14.3348 14.9502C14.3469 14.9623 14.359 14.9744 14.371 14.9864C14.371 14.9985 14.359 15.0226 14.359 15.0347C13.1161 15.0347 11.8733 15.0347 10.6305 15.0347C10.0633 15.0347 9.48415 15.0709 8.91703 15.0106C7.44493 14.8658 6.22623 14.2383 5.22472 13.1523C5.28505 13.1041 5.34538 13.1282 5.40572 13.1282C5.9849 13.1161 6.56409 13.1644 7.13121 13.1041C8.96529 12.9351 10.4857 12.1388 11.6561 10.727C12.73 9.4359 13.2247 7.9276 13.1523 6.25038C13.1403 5.85219 13.0799 5.454 12.9834 5.03167C13.3333 5.3092 13.6108 5.59879 13.8522 5.91252C14.7089 7.01056 15.1191 8.26546 15.0588 9.65309C14.9985 11.0166 14.4917 12.1991 13.5746 13.2127C13.5264 13.2609 13.4781 13.3213 13.4298 13.3695C13.2247 13.5988 13.2368 13.8643 13.4419 14.0694Z" fill="#1E96FC"/>
<path d="M3.8251 5.17555C4.75421 5.17555 5.67125 5.17555 6.60036 5.17555C7.52947 5.17555 8.44652 5.17555 9.37563 5.17555C9.67729 5.17555 9.88241 4.98249 9.88241 4.70496C9.88241 4.42744 9.66522 4.23438 9.36356 4.23438C7.52947 4.23438 5.68332 4.23438 3.84923 4.23438C3.80097 4.23438 3.74064 4.23438 3.69237 4.24644C3.45104 4.30677 3.29418 4.52397 3.33038 4.75323C3.36658 5.00662 3.55964 5.17555 3.8251 5.17555Z" fill="#1E96FC"/>
<path d="M3.83721 7.0463C5.67129 7.0463 7.50538 7.0463 9.33947 7.0463C9.66526 7.0463 9.88245 6.85324 9.88245 6.57571C9.88245 6.29818 9.66526 6.11719 9.35153 6.11719C8.43449 6.11719 7.51745 6.11719 6.61247 6.11719C5.69543 6.11719 4.77838 6.11719 3.84927 6.11719C3.63208 6.11719 3.46315 6.20165 3.37868 6.40678C3.22182 6.72051 3.46315 7.0463 3.83721 7.0463Z" fill="#1E96FC"/>
<path d="M9.37547 8.92946C9.59267 8.92946 9.74953 8.84499 9.84606 8.65193C9.99086 8.33821 9.7616 7.98828 9.38754 7.98828C8.4705 7.98828 7.55345 7.98828 6.62434 7.98828C5.7073 7.98828 4.79025 7.98828 3.88528 7.98828C3.82494 7.98828 3.76461 7.98828 3.70428 8.00035C3.47502 8.06068 3.31816 8.26581 3.34229 8.49507C3.36642 8.7364 3.55948 8.91739 3.81288 8.91739C4.58513 8.91739 5.35737 8.91739 6.14169 8.91739C7.21559 8.92946 8.2895 8.92946 9.37547 8.92946Z" fill="#1E96FC"/>
</g>
<defs>
<clipPath id="clip0_280_270">
<rect width="16" height="16" fill="white"/>
</clipPath>
</defs>
</svg>
