<svg width="16" height="16" viewBox="0 0 16 16" fill="none" xmlns="http://www.w3.org/2000/svg">
<path d="M15.9614 6.84423C15.8322 5.87571 15.5094 4.97175 15.0445 4.10654C14.6054 3.29298 14.0243 2.59564 13.3399 1.97579C12.6555 1.36885 11.8806 0.891041 11.0283 0.542373C10.2535 0.232445 9.43997 0 8.58767 0.0129136C8.49728 0.0129136 8.39397 0.0387409 8.30357 0C8.12278 0 7.92908 0 7.74828 0C7.64498 0.0387409 7.54167 0.0129136 7.45127 0.0129136C6.8185 0 6.21156 0.129136 5.63045 0.322841C4.33908 0.736077 3.2156 1.4205 2.2729 2.40194C1.57556 3.09927 1.04611 3.91283 0.645783 4.80387C0.0646688 6.09524 -0.0773812 7.45117 0.0388415 8.83293C0.155064 10.1889 0.632869 11.4286 1.4206 12.5391C2.04046 13.4431 2.81527 14.1792 3.74506 14.7732C4.6361 15.3285 5.59171 15.703 6.6248 15.8967C7.28339 16.0129 7.94199 16 8.60058 15.9871C9.23335 15.9742 9.84029 15.845 10.4343 15.6513C11.9194 15.1735 13.172 14.3471 14.1664 13.159C15.0961 12.0613 15.6902 10.7958 15.9355 9.3753C15.9743 9.12994 15.9743 8.87167 16.013 8.62631C16.013 8.22599 16.013 7.81275 16.013 7.41243C15.9743 7.20581 15.9872 7.02502 15.9614 6.84423ZM8.00656 14.9153C4.18412 14.8894 1.08485 11.7772 1.09776 7.98063C1.09776 4.15819 4.22286 1.05892 8.01947 1.05892C11.8419 1.07183 14.9412 4.17111 14.9412 7.98063C14.9412 11.816 11.8032 14.9282 8.00656 14.9153Z" fill="#1E96FC"/>
<path d="M10.9898 9.68514C10.215 9.06529 9.44019 8.43252 8.65246 7.81266C8.57498 7.7481 8.54915 7.68353 8.54915 7.59313C8.54915 6.34051 8.54915 5.07497 8.54915 3.82235C8.54915 3.74487 8.54915 3.6803 8.53624 3.60282C8.47167 3.34455 8.22631 3.16375 7.96804 3.2025C7.68394 3.22832 7.49023 3.44785 7.49023 3.71904C7.49023 4.42929 7.49023 5.13954 7.49023 5.84979C7.49023 6.53421 7.49023 7.21864 7.49023 7.90306C7.49023 8.13551 7.56772 8.30338 7.74851 8.43252C8.18757 8.78119 8.62663 9.12986 9.0657 9.47852C9.49185 9.81428 9.90509 10.15 10.3312 10.4858C10.5895 10.6924 10.9253 10.6537 11.119 10.4083C11.2868 10.1888 11.2352 9.87885 10.9898 9.68514Z" fill="#1E96FC"/>
</svg>
