<svg width="172" height="230" viewBox="0 0 172 230" fill="none" xmlns="http://www.w3.org/2000/svg">
<g clip-path="url(#clip0_915_2217)">
<path d="M86.0552 230.001C133.582 230.001 172.11 226.242 172.11 221.605C172.11 216.968 133.582 213.209 86.0552 213.209C38.5282 213.209 0 216.968 0 221.605C0 226.242 38.5282 230.001 86.0552 230.001Z" fill="#EBEBEB"/>
<path d="M121.295 103.843L90.6953 111.576C90.6953 111.576 98.5386 145.822 101.632 158.415C104.725 171.23 103.068 212.546 103.068 212.546H111.795L116.545 158.194L121.295 103.843Z" fill="black"/>
<path d="M114.555 48.2754C114.555 48.2754 117.648 58.991 122.73 77.2187C122.73 77.2187 129.248 79.5386 146.702 80.8642L146.149 86.7192C146.149 86.7192 126.817 90.2542 116.102 85.8354C105.497 81.3061 96.5489 42.3099 114.555 48.2754Z" fill="#FFA689"/>
<path d="M131.459 85.8363L140.628 96.4414L155.431 77.2195L149.465 65.6201L131.459 85.8363Z" fill="#BE070E"/>
<path d="M129.912 90.2548L145.378 69.4863L155.43 77.2193L140.628 96.4412L129.912 90.2548Z" fill="#ED1C24"/>
<path d="M152.889 81.4169C152.778 81.0855 152.447 80.9751 152.116 81.196C151.563 81.5274 150.9 82.3007 149.464 82.4112C147.918 82.4112 146.04 81.4169 145.377 82.0798C145.377 82.0798 142.173 86.2777 145.377 90.3651C145.377 90.2546 155.319 92.9059 152.889 81.4169Z" fill="#FFA689"/>
<path d="M108.481 79.3184C108.481 79.3184 116.214 78.2137 122.621 72.6902C122.621 72.6902 120.412 60.5384 117.208 53.2474C114.115 45.9563 109.144 39.549 101.08 44.2992C93.0154 49.0495 95.3352 59.9861 108.481 79.3184Z" fill="#BE070E"/>
<path d="M82.5195 74.4575C82.5195 74.4575 89.1477 78.6554 97.5433 78.6554C97.5433 78.6554 103.73 68.0502 106.16 60.4277C108.59 52.8052 109.032 44.7409 99.7527 43.0838C90.5838 41.4268 85.1708 51.2587 82.5195 74.4575Z" fill="#ED1C24"/>
<path d="M116.987 107.157C116.987 107.157 98.097 100.749 86.3873 111.354C86.3873 111.354 88.4862 121.297 95.0038 133.117C105.94 153.112 111.464 159.63 111.464 159.63C111.464 159.63 99.5331 170.235 76.666 196.638C76.666 196.638 78.1021 202.051 82.7418 203.818C82.7418 203.818 116.324 172.113 126.487 163.718C129.802 160.956 129.139 158.857 127.813 152.781C125.604 142.397 118.313 111.907 116.987 107.157Z" fill="#010211"/>
<path d="M100.968 28.6121L100.526 36.8974C100.526 36.8974 107.044 42.2 112.346 41.979L114.777 30.932L99.6426 20.6582L100.968 28.6121Z" fill="#FFA689"/>
<path d="M104.061 27.1758C104.061 27.1758 107.485 33.5831 113.782 35.5716L114.886 30.9318L104.061 27.1758Z" fill="#ED8A6D"/>
<path d="M90.8052 141.403L75.3395 129.693C74.4558 129.03 74.3453 127.815 75.0081 126.931C75.6709 126.048 76.8861 125.937 77.7698 126.6L93.2355 138.31C94.1192 138.973 94.2297 140.188 93.5669 141.072C92.9041 141.845 91.5785 142.066 90.8052 141.403Z" fill="#060412"/>
<path d="M77.8796 131.019L44.0762 175.649" stroke="#060412" stroke-width="0.9422" stroke-miterlimit="10"/>
<path d="M88.8163 139.304L54.9023 183.934" stroke="#060412" stroke-width="0.9422" stroke-miterlimit="10"/>
<path d="M87.4911 49.7119C87.4911 49.7119 71.0312 50.5957 68.38 59.8752C65.7287 69.1548 66.0601 105.831 66.0601 105.831C66.0601 105.831 69.5951 114.116 80.7525 115.221C80.7525 115.221 86.6073 116.547 86.2759 104.395C85.8341 92.0222 87.4911 49.7119 87.4911 49.7119Z" fill="black"/>
<path d="M78.1006 51.4795C78.1006 51.4795 76.4436 52.9156 75.5599 54.7936C72.3563 61.7533 73.3505 80.5333 71.9144 82.0799C70.8097 83.2951 68.8213 83.6265 66.9433 84.0684C66.17 84.2893 65.1758 83.7369 65.1758 82.9636C65.9491 66.9454 64.7339 53.5784 78.1006 51.4795Z" fill="#242427"/>
<path d="M66.1698 86.3882C66.1698 86.3882 70.5885 85.3939 71.3618 86.3882C72.4665 87.9348 72.0246 105.168 70.8095 105.61C69.5943 106.052 65.286 105.721 64.9546 105.389C64.0709 103.953 63.5185 86.9405 66.1698 86.3882Z" fill="#242427"/>
<path d="M121.958 7.84321C121.958 7.84321 126.487 30.0478 119.749 32.8096C113.01 35.5714 103.068 28.6117 100.638 21.5416C98.5388 15.5762 98.7598 1.32544 121.958 7.84321Z" fill="#FFA689"/>
<path d="M115.219 11.3786C115.219 11.3786 117.097 16.1288 113.452 17.2335C110.469 18.1173 109.585 20.3267 109.585 20.3267C109.585 20.3267 109.033 15.5764 105.719 15.3555C102.184 15.1346 102.405 20.2162 105.498 22.6466C105.498 22.6466 105.498 28.612 100.969 28.612C100.969 28.612 90.6949 16.7916 95.1137 9.61103C94.4509 7.40162 97.544 1.65714 105.387 0.883844C113.341 0.110549 115.55 1.98855 121.626 0.110549C127.371 -1.65698 131.237 12.1519 115.219 11.3786Z" fill="#171032"/>
<path opacity="0.22" d="M102.184 105.389L122.621 158.194L79.4277 199.731" stroke="white" stroke-width="0.25" stroke-miterlimit="10"/>
<path d="M44.9598 221.604C44.9598 224.366 42.7504 226.575 39.9887 226.575C37.227 226.575 35.0176 224.366 35.0176 221.604C35.0176 218.842 37.227 216.633 39.9887 216.633C42.7504 216.633 44.9598 218.842 44.9598 221.604Z" fill="#060412"/>
<path d="M26.5125 212.877C26.5125 215.639 24.3031 217.849 21.5414 217.849C18.7797 217.849 16.5703 215.639 16.5703 212.877C16.5703 210.116 18.7797 207.906 21.5414 207.906C24.3031 207.906 26.5125 210.116 26.5125 212.877Z" fill="#060412"/>
<path d="M66.6134 174.654C66.6134 174.654 68.1599 196.748 60.2062 208.9C52.2524 221.052 40.7637 219.174 40.7637 219.174L43.194 215.418C43.194 215.418 51.4791 218.843 56.4502 205.807C61.4213 192.771 60.4271 179.294 60.4271 179.294L66.6134 174.654Z" fill="#060412"/>
<path d="M57.4435 168.468C57.4435 168.468 62.4146 168.91 66.281 173.66C69.2636 177.305 46.6175 212.325 41.536 220.058C40.8731 220.941 39.7685 221.383 38.7742 221.162C35.1288 220.168 26.7331 217.627 20.5469 212.987C20.6573 212.877 43.9663 171.892 57.4435 168.468Z" fill="#06060A"/>
<path d="M59.2112 168.799C59.2112 168.799 40.6524 157.642 30.5997 166.921C23.9716 173.108 11.1572 190.452 6.29658 197.301C5.08142 198.958 5.30236 201.278 6.73845 202.714C9.94205 205.807 16.5702 210.778 21.3203 213.319C21.9832 213.65 22.8669 213.43 23.3088 212.767C27.3961 206.691 46.7282 177.858 59.2112 168.799Z" fill="black"/>
<path d="M18.007 182.829C17.2337 182.276 16.2395 182.608 15.5767 183.271C13.2569 186.364 7.29155 194.097 6.4078 195.643C4.6403 198.516 11.7103 204.591 20.2164 209.121C22.8677 210.557 26.1817 204.37 29.6063 199.731C31.9261 196.638 33.8041 193.876 33.5831 192.882C33.2517 191.777 28.833 190.451 24.7456 187.91C22.2048 186.253 19.9955 184.375 18.007 182.829Z" fill="#242427"/>
<path d="M59.2105 168.799C59.2105 168.799 50.8149 162.834 38.8842 162.613C28.8316 162.502 17.6742 180.067 17.6742 180.067C16.2381 181.945 33.5817 192.44 35.5702 190.01C43.1925 180.62 50.7044 173.439 54.5708 169.904C54.7918 169.683 56.7802 168.026 59.2105 168.799Z" fill="#242427"/>
<path d="M27.7274 211.11L38.1115 195.533C38.4429 194.981 39.2162 194.76 39.879 195.091L50.0421 199.952C50.705 200.283 50.9259 201.057 50.484 201.609L40.4314 216.854C39.879 217.738 38.7743 218.069 37.7801 217.627L28.6112 213.761C27.5065 213.208 27.0646 211.993 27.7274 211.11Z" fill="#242427"/>
<path d="M98.207 38.002C98.207 38.002 88.0439 39.88 86.3868 55.0144C84.7298 70.1489 86.3868 113.122 86.3868 113.122C86.3868 113.122 95.8872 116.768 106.603 111.575C113.562 108.151 117.981 108.04 119.859 107.598C120.632 107.378 121.185 106.715 121.185 105.941C121.185 104.284 121.185 101.081 121.185 96.3305C121.185 82.9635 119.748 60.0961 113.894 44.5197C114.004 44.4093 104.283 38.4438 98.207 38.002Z" fill="#ED1C24"/>
<path d="M105.056 65.7297C96.5503 65.2878 90.3641 68.7124 85.7244 73.9045C85.6139 91.8008 86.4977 113.122 86.4977 113.122C86.4977 113.122 92.1316 115.331 99.6435 113.895C94.2305 105.72 94.2305 98.0976 98.8702 88.8181C102.516 81.4165 105.056 65.7297 105.056 65.7297Z" fill="#BE070E"/>
<path d="M86.4979 55.0149C86.4979 55.0149 94.5621 41.8689 100.417 44.1887C107.597 46.9505 109.144 60.8698 98.3181 75.5624L92.5737 81.6383L91.1376 87.0514C91.1376 87.0514 105.83 74.0158 109.365 61.4222C112.789 48.8285 108.26 43.7469 101.964 41.6479C94.1202 38.9966 90.4748 43.7469 85.7246 50.2646L86.4979 55.0149Z" fill="#171032"/>
<path d="M85.1713 68.4922C85.1713 68.4922 82.741 79.2078 81.8572 92.6853C81.1944 104.064 81.0839 118.094 81.0839 122.181C81.0839 122.844 80.7525 123.617 80.3107 124.059C78.985 125.385 76.3338 128.699 76.7757 133.891C76.8861 135.769 77.7699 138.31 82.2991 139.746C82.9619 139.967 84.6189 140.63 84.6189 137.426C84.6189 134.222 85.9446 132.013 87.2702 131.019C88.5958 129.914 89.9214 132.786 89.9214 135.106C89.9214 137.426 91.468 135.99 91.7994 134.333C92.1308 132.676 91.9099 128.257 88.3749 123.728C88.3749 123.728 88.2644 122.954 88.7063 117.431C89.1482 111.907 90.0319 93.3481 92.0204 88.4874C94.0088 83.7371 99.6427 70.1492 99.6427 70.1492L85.1713 68.4922Z" fill="#FFA689"/>
<path d="M82.5195 75.4523C82.5195 75.4523 89.1477 78.5454 97.5433 78.5454C97.5433 78.5454 103.73 67.9402 106.16 60.3178C108.59 52.6953 109.032 44.6309 99.7527 42.9739C90.5838 41.4273 85.1708 52.3639 82.5195 75.4523Z" fill="#ED1C24"/>
<path d="M103.178 211.662C103.178 211.662 100.748 215.197 101.963 220.279C102.184 221.052 102.737 221.604 103.51 221.604H129.801C130.354 221.604 130.796 221.052 130.685 220.5C130.464 218.953 129.249 216.412 123.063 215.639C121.406 215.418 119.749 214.755 118.313 213.761C116.103 211.993 112.679 209.563 111.464 210.226C111.464 210.226 107.708 212.546 103.178 211.662Z" fill="#070510"/>
<path d="M100.637 35.1299C99.7536 35.1299 98.207 38.0021 98.207 38.0021C98.207 38.0021 100.969 40.1011 107.707 42.6419C110.8 43.7466 112.458 45.4037 113.12 46.3979C113.341 46.7293 113.783 46.6188 113.894 46.177C114.115 44.6304 114.225 42.0895 112.678 40.5429C112.789 40.5429 103.399 38.0021 100.637 35.1299Z" fill="#271F50"/>
<path d="M76.887 196.748C76.887 196.748 72.5788 197.3 69.5961 201.609C69.1542 202.272 69.1542 203.045 69.7066 203.597L87.1606 223.261C87.4921 223.703 88.1549 223.703 88.5967 223.261C89.591 222.156 90.6956 219.505 87.1606 214.313C86.1664 212.877 85.6141 211.22 85.5036 209.563C85.2827 206.69 84.8408 202.603 83.5152 202.161C83.4047 202.051 79.2069 200.725 76.887 196.748Z" fill="#070510"/>
<path d="M87.713 134.111L91.8003 137.205L91.4689 139.083L86.7188 136.652L87.713 134.111Z" fill="#060412"/>
</g>
<defs>
<clipPath id="clip0_915_2217">
<rect width="172" height="230" fill="white"/>
</clipPath>
</defs>
</svg>
