<svg width="30" height="25" viewBox="0 0 30 25" fill="none" xmlns="http://www.w3.org/2000/svg">
<path d="M30 7.6891C30 6.43884 29.4369 5.5324 28.4672 4.8135C27.7477 4.3134 26.9343 4.15712 26.0897 4.15712C25.2763 4.15712 24.4943 4.15712 23.6809 4.15712C23.3994 4.15712 23.243 4.06335 23.0865 3.84455C22.6486 3.15691 22.2106 2.46926 21.7414 1.78162C21.4911 1.4378 21.2409 1.09398 20.9281 0.843926C20.2086 0.281309 19.3639 0 18.4567 0C16.2044 0 13.952 0 11.6997 0C10.2294 0 9.07195 0.562617 8.2586 1.84413C7.82065 2.50052 7.38269 3.18817 6.94473 3.84455C6.78832 4.06335 6.60063 4.15712 6.35036 4.15712C5.5683 4.15712 4.75495 4.12586 3.97289 4.15712C3.34724 4.15712 2.75287 4.21963 2.18978 4.50094C0.938478 5.06356 0.156413 5.93874 0 7.28277C0 11.8775 0 16.4409 0 21.0356C0.0625652 21.3795 0.0938478 21.692 0.250261 22.0046C0.96976 23.4111 2.12722 24.13 3.69135 24.1613C11.1992 24.1613 18.7383 24.1613 26.2461 24.1613C26.5276 24.1613 26.7779 24.13 27.0594 24.0675C28.5923 23.8175 30 22.3172 30 20.5355C29.9687 16.2534 30 11.9712 30 7.6891ZM14.9531 21.1294C10.4797 21.1294 6.85089 17.4724 6.88217 13.034C6.94473 8.59554 10.5735 5.00104 14.9844 5.00104C19.4578 5.0323 23.0865 8.65806 23.0553 13.0965C23.024 17.5349 19.4578 21.0982 14.9531 21.1294ZM25.902 9.31444C25.4327 9.3457 24.9948 9.3457 24.5255 9.31444C23.8999 9.28319 23.4619 8.81434 23.4932 8.22046C23.5245 7.62659 23.9625 7.22026 24.5881 7.189C24.8071 7.189 25.0261 7.189 25.245 7.189C25.464 7.189 25.683 7.189 25.902 7.189C26.4964 7.22026 26.9343 7.65785 26.9656 8.22046C26.9343 8.81434 26.4964 9.28319 25.902 9.31444Z" fill="#1E96FC"/>
<path d="M14.9843 8.59375C12.5443 8.59375 10.5109 10.5942 10.4796 13.0634C10.4483 15.5014 12.4504 17.5019 14.953 17.5331C17.3931 17.5644 19.4264 15.564 19.4577 13.0947C19.5203 10.6567 17.4869 8.59375 14.9843 8.59375Z" fill="#1E96FC"/>
</svg>
