<svg width="40" height="40" viewBox="0 0 40 40" fill="none" xmlns="http://www.w3.org/2000/svg">
<path d="M29.5561 2.14554C29.9699 1.66637 29.9481 0.947617 29.5125 0.512007C29.0551 0.0763979 28.3582 0.0763979 27.879 0.512007C27.7265 0.64269 27.5959 0.773373 27.4652 0.925836C27.2256 1.23076 26.986 1.27432 26.594 1.14364C24.7208 0.446666 22.7824 0.0981784 20.8003 0.0110565C16.5532 -0.119626 12.5891 0.904056 9.03889 3.29991C4.11651 6.58876 1.17615 11.1844 0.217805 17.0434C0.152463 17.479 0.174244 17.9364 0 18.3502C0 19.4175 0 20.4847 0 21.5519C0.0871219 21.5737 0.0653414 21.6391 0.0871219 21.7044C0.217805 23.1637 0.435609 24.623 0.958341 25.9952C1.26327 26.7793 1.24149 27.3238 0.522731 27.8683C0.0217805 28.2603 0.0871219 29.0226 0.522731 29.48C0.958341 29.9156 1.65532 29.9592 2.13449 29.5236C2.30873 29.3711 2.46119 29.2187 2.61366 29.0662C11.5001 20.2015 20.3865 11.3151 29.2729 2.42869C29.3818 2.34157 29.469 2.25444 29.5561 2.14554ZM21.432 6.98081C20.9092 7.63422 20.2994 7.83024 19.4717 7.85203C13.9613 7.96093 9.01711 12.2735 8.03699 17.6968C7.88453 18.568 7.79741 19.4175 7.81919 20.2887C7.81919 20.4194 7.84097 20.5718 7.73207 20.6807C7.07865 21.3341 6.42524 21.9876 5.77182 22.6627C3.81158 13.1447 12.1971 3.8662 22.6735 5.73932C22.2379 6.17493 21.7805 6.5452 21.432 6.98081Z" fill="#ED1C24"/>
<path d="M39.0306 14.0158C38.791 13.2099 38.6821 12.6001 39.4662 12.1209L39.488 12.0991C39.8147 11.7289 39.8583 11.2061 39.6622 10.7923C39.4444 10.3567 39.0088 10.1389 38.5079 10.1607C38.1158 10.1824 37.8545 10.4438 37.5931 10.7052C28.6195 19.657 19.646 28.6305 10.6724 37.6041C10.6071 37.6694 10.52 37.7565 10.4546 37.8219C10.019 38.301 10.019 38.998 10.4546 39.4554C10.8902 39.9128 11.609 39.9346 12.11 39.4772C12.306 39.3029 12.4802 39.1069 12.6545 38.9327C12.8069 38.7584 12.9594 38.7149 13.199 38.802C14.4622 39.2594 15.7691 39.5861 17.1195 39.7821C17.5551 39.8474 18.0125 39.8039 18.4481 39.9999C18.5788 39.9999 18.7094 39.9999 18.8401 39.9999C19.1233 39.8474 19.4064 39.891 19.6896 39.9999C20.2558 39.9999 20.8439 39.9999 21.4102 39.9999C21.9112 39.8474 22.4121 39.8692 22.9348 39.7821C28.0533 38.998 32.3004 36.6239 35.524 32.5946C39.9018 27.0405 41.0562 20.7895 39.0306 14.0158ZM17.3155 34.2499C17.9907 33.5747 18.6441 32.943 19.2975 32.2896C19.4282 32.1589 19.5807 32.2025 19.7331 32.2025C24.5684 32.1589 28.2057 30.0462 30.6451 25.9079C31.7342 24.0348 32.1915 21.9875 32.1698 19.8312C32.1698 19.5698 32.2351 19.3738 32.4311 19.1996C33.041 18.6115 33.6291 18.0016 34.2607 17.37C36.112 27.7593 26.8771 36.1665 17.3155 34.2499Z" fill="#ED1C24"/>
<path d="M18.8184 40.0002C19.1015 40.0002 19.3847 40.0002 19.6678 40.0002C19.3847 39.9348 19.1015 39.9348 18.8184 40.0002Z" fill="#ED1C24"/>
<path d="M14.092 25.6248C15.1375 25.8208 16.183 25.9951 17.2284 26.1911C17.5987 26.2564 17.9036 26.2564 18.0996 25.9079C18.3175 25.5159 18.0996 25.2545 17.8383 24.9932C17.0977 24.2744 16.3572 23.5339 15.6167 22.8151C15.3117 22.532 15.0286 22.227 14.7237 21.9439C14.4623 21.7261 14.1356 21.7479 13.9178 21.9657C13.7 22.2053 13.7 22.5102 13.9178 22.7715C14.0049 22.8804 14.1138 22.9676 14.2227 23.0765C14.7672 23.6428 15.29 24.2091 15.8345 24.7536C14.6801 24.5358 13.504 24.3397 12.306 24.1002C11.9793 24.0348 11.6962 24.0784 11.5437 24.3833C11.3913 24.6882 11.5002 24.9278 11.718 25.1456C12.7634 26.1911 13.8089 27.2365 14.8761 28.282C15.1811 28.5869 15.5078 28.6087 15.7691 28.3691C16.0305 28.1078 16.0087 27.7811 15.682 27.4543C15.1593 26.9098 14.6148 26.3871 14.092 25.8426C14.0267 25.7772 13.896 25.7337 13.9396 25.603C13.9831 25.603 14.0267 25.603 14.092 25.6248Z" fill="#ED1C24"/>
<path d="M33.6945 9.59415C33.9777 9.8773 34.2826 9.85552 34.5657 9.57237C34.8924 9.26745 35.1974 8.94074 35.5023 8.63581C35.8072 8.3091 36.0032 7.93884 36.0904 7.52501C36.4171 5.82613 34.7618 3.86589 32.954 3.84411C32.6273 3.82233 32.2788 3.90945 31.9521 4.08369C31.2987 4.45396 30.8195 5.04204 30.3185 5.58655C30.1225 5.80435 30.1661 6.0875 30.3839 6.3053C31.4729 7.39433 32.5837 8.48335 33.6945 9.59415ZM31.6907 5.82613C31.8214 5.49943 32.6055 4.99847 32.9975 4.99847C33.8905 4.99847 35.0013 6.13106 35.0013 7.02406C35.0013 7.61213 34.5657 7.91706 34.2172 8.26554C34.1301 8.37445 34.0648 8.26554 33.9994 8.2002C33.2589 7.45967 32.5184 6.74091 31.7996 6.00038C31.7125 5.95681 31.6472 5.93503 31.6907 5.82613Z" fill="#ED1C24"/>
<path d="M12.1539 30.352C12.1974 30.3085 12.2628 30.2649 12.2846 30.2213C12.633 29.7204 13.0469 29.5462 13.6349 29.9164C13.9181 30.1124 14.2884 29.9382 14.419 29.6551C14.5497 29.3719 14.4408 29.0234 14.1141 28.871C12.6113 28.174 11.1302 27.4988 9.62734 26.8454C9.36597 26.7147 9.08283 26.78 8.86502 26.9978C8.64722 27.2156 8.58188 27.4552 8.71256 27.7384C9.38775 29.2412 10.0629 30.7441 10.7381 32.2469C10.847 32.4865 11.0213 32.5954 11.2827 32.5954C11.6965 32.5954 12.0232 32.1598 11.7836 31.8113C11.3698 31.1579 11.6311 30.7441 12.1539 30.352ZM10.9559 29.8293C10.847 29.6115 10.7381 29.3937 10.651 29.1541C10.5639 28.9363 10.455 28.7185 10.3461 28.4136C10.8688 28.6531 11.3044 28.8492 11.7618 29.067C11.4787 29.3501 11.2173 29.5679 10.9559 29.8293Z" fill="#ED1C24"/>
<path d="M21.9553 21.0515C21.9335 20.6595 21.7157 20.3981 21.3672 20.3981C21.0405 20.3981 20.8009 20.6595 20.7791 21.0297C20.7138 22.1188 19.6901 22.8375 18.6446 22.5108C17.8823 22.293 17.3814 21.6178 17.4032 20.8119C17.4032 20.006 17.9041 19.3526 18.71 19.113C19.1892 18.9606 19.3852 18.6992 19.2763 18.3507C19.1674 17.9805 18.8624 17.8716 18.3833 18.0022C16.9458 18.3943 16.0745 19.7447 16.2706 21.2475C16.4448 22.6415 17.7299 23.7305 19.1674 23.7305C20.7356 23.7741 22.0206 22.5326 21.9553 21.0515Z" fill="#ED1C24"/>
<path d="M9.45371 32.3332C9.12701 32.3332 8.93098 32.551 8.88742 32.8995C8.88742 33.0519 8.88742 33.1826 8.84386 33.3133C8.69139 33.9885 7.99442 34.4895 7.25388 34.5112C6.46979 34.5112 5.75103 33.9667 5.55501 33.2262C5.29364 32.2461 5.81637 31.3749 6.81827 31.0481C7.27566 30.9175 7.44991 30.6561 7.36279 30.2858C7.27566 29.9156 6.92718 29.7849 6.44801 29.9156C5.09762 30.2858 4.16106 31.7016 4.3353 33.0302C4.55311 34.5548 5.75103 35.6438 7.38457 35.6656C8.38647 35.622 9.25769 35.1429 9.82398 34.1192C10.0418 33.7271 10.1289 33.2915 10.0853 32.8341C10.02 32.5292 9.78042 32.3114 9.45371 32.3332Z" fill="#ED1C24"/>
<path d="M23.6533 20.463C24.1107 20.0274 24.5463 19.5918 24.9819 19.1344C25.265 18.8512 25.265 18.5027 25.0037 18.2632C24.7641 18.0236 24.4156 18.0453 24.1324 18.3067C23.8711 18.5463 23.6315 18.7859 23.3919 19.0472C23.2394 19.2215 23.1523 19.1997 22.9999 19.0472C22.3682 18.4156 22.3682 18.4374 22.9781 17.8058C23.0652 17.7186 23.1523 17.6315 23.2394 17.5226C23.3483 17.4137 23.3919 17.283 23.3919 17.2177C23.3919 16.891 23.283 16.695 23.0652 16.5861C22.8256 16.4772 22.6078 16.4989 22.4118 16.6732C22.1504 16.9128 21.9108 17.1523 21.6712 17.4137C21.4317 17.6751 21.3228 17.4137 21.2574 17.3048C21.1267 17.0434 20.5604 17.0217 20.8436 16.6078C21.0396 16.3029 21.3663 16.0633 21.6277 15.802C21.889 15.5188 21.889 15.1703 21.6495 14.9307C21.4099 14.7129 21.0832 14.7129 20.8218 14.9743C20.3644 15.4099 19.907 15.8673 19.4714 16.3247C19.21 16.6078 19.21 16.9128 19.4714 17.1959C20.5604 18.2849 21.6277 19.374 22.7167 20.4412C23.0652 20.7461 23.3701 20.7461 23.6533 20.463Z" fill="#ED1C24"/>
<path d="M29.7088 7.78649C29.883 7.61224 29.9484 7.39444 29.8395 7.13307C29.7306 6.91527 29.5563 6.80637 29.2514 6.78459C29.1425 6.76281 28.99 6.84993 28.8593 6.98061C28.402 7.438 27.9446 7.87361 27.509 8.331C27.2476 8.61414 27.2258 8.91907 27.509 9.20222C28.598 10.2912 29.687 11.402 30.7978 12.4911C31.0374 12.7307 31.3423 12.7524 31.6037 12.5128C32.1046 12.0337 32.5838 11.5545 33.063 11.0536C33.2808 10.814 33.259 10.509 33.0194 10.2912C32.7798 10.0517 32.5185 10.0517 32.2571 10.2477C32.1046 10.3566 31.9957 10.4873 31.8651 10.6179C31.1899 11.2931 31.1899 11.2931 30.5364 10.5744C30.4275 10.4437 30.4275 10.3784 30.5364 10.2695C30.776 10.0299 31.0156 9.81207 31.2552 9.5507C31.4948 9.28934 31.4948 8.94085 31.2552 8.72305C31.0156 8.48346 30.6889 8.50524 30.4275 8.74483C30.3404 8.81017 30.2751 8.89729 30.2097 8.96263C29.5345 9.63783 29.5345 9.63783 28.8811 8.91907C28.7722 8.78839 28.7722 8.72305 28.8811 8.61414C29.1643 8.35278 29.4474 8.06963 29.7088 7.78649Z" fill="#ED1C24"/>
<path d="M29.0991 15.0396C29.4693 14.6911 29.8178 14.3209 30.1663 13.9724C30.297 13.8417 30.3841 13.711 30.3841 13.4497C30.3623 13.2754 30.2752 13.1012 30.0574 12.9923C29.8396 12.8834 29.6218 12.9051 29.4476 13.0794C29.2515 13.2536 29.0555 13.4497 28.8595 13.6457C28.707 13.8199 28.6199 13.8199 28.4457 13.6457C27.5744 12.7527 26.7032 11.9032 25.832 11.032C25.5271 10.7271 25.2004 10.7053 24.939 10.9449C24.6776 11.1845 24.6994 11.533 24.9826 11.8379C26.0498 12.9051 27.1171 13.9724 28.1843 15.0396C28.4892 15.3446 28.7724 15.3446 29.0991 15.0396Z" fill="#ED1C24"/>
<path d="M26.1589 17.806C26.2243 17.7842 26.355 17.7624 26.4421 17.6753C26.8777 17.2615 27.3351 16.8259 27.7271 16.3902C27.9231 16.1724 27.8796 15.8675 27.6618 15.6497C27.4222 15.4101 27.139 15.4101 26.8995 15.6062C26.7034 15.7586 26.5074 15.9546 26.355 16.1507C26.1807 16.3685 26.0718 16.3467 25.8758 16.1507C25.0263 15.2794 24.1551 14.4082 23.2839 13.5588C22.979 13.2539 22.6523 13.2321 22.3909 13.4934C22.1295 13.7548 22.1513 14.0815 22.4562 14.3864C23.5235 15.4537 24.5907 16.5209 25.658 17.5882C25.7669 17.6971 25.9193 17.7842 26.1589 17.806Z" fill="#ED1C24"/>
</svg>
