<svg width="30" height="21" viewBox="0 0 30 21" fill="none" xmlns="http://www.w3.org/2000/svg">
<path d="M27.7809 0.0587321C26.7075 -0.11297 25.7199 0.101658 24.7323 0.573838C22.199 1.77575 19.7086 2.93474 17.1752 4.09373C16.9605 4.17958 16.7888 4.17958 16.5741 4.13666C13.869 3.06352 11.121 1.99038 8.41586 0.960168C7.98647 0.788466 7.51416 0.659689 7.04184 0.616764C5.96839 0.530913 5.06669 1.30357 4.98081 2.37671C4.93787 2.76304 5.06669 2.97767 5.36725 3.1923C7.04184 4.35128 8.71642 5.51027 10.391 6.62634C10.5628 6.75511 10.7345 6.88389 10.9492 7.01267C10.9063 7.05559 10.8633 7.05559 10.8204 7.09852C9.83281 7.5707 8.8023 8.04288 7.81472 8.51506C7.68591 8.60091 7.55709 8.55799 7.38534 8.55799C5.66782 8.12873 3.9503 7.69948 2.18984 7.27022C1.8034 7.18437 1.58871 7.2273 1.41696 7.5707C0.944637 8.42921 0.472318 9.28772 0 10.1033C0 10.1892 0 10.3179 0 10.4038C0.128814 10.6184 0.343504 10.7472 0.601133 10.833C1.28814 11.0906 1.97515 11.3911 2.66216 11.6916C3.22035 11.9491 3.82149 12.1637 4.42262 12.4213C4.12205 12.5501 3.90736 12.6788 3.69267 12.7647C3.30623 12.9793 3.17741 13.1939 3.3921 13.6232C3.73561 14.3959 4.07911 15.1256 4.42262 15.8553C4.63731 16.3704 4.89494 16.4563 5.41019 16.1987C8.20117 14.868 11.0351 13.5803 13.826 12.2496C14.1696 12.0779 14.2554 11.9062 14.2984 11.5628C14.3413 10.7901 14.4272 10.0175 14.5131 9.24479C14.5131 9.03017 14.6419 8.90139 14.8566 8.90139C15.0712 8.90139 15.2001 8.98724 15.243 9.15894C15.2859 9.24479 15.243 9.37357 15.243 9.45942C15.1142 10.9618 14.9424 12.5071 14.8136 14.0095C14.6419 15.9841 14.4272 18.0016 14.2554 19.9762C14.2125 20.4484 14.4272 20.6201 14.8995 20.5771C15.0712 20.5771 15.243 20.4913 15.3718 20.3625C15.7583 20.0191 15.93 19.5469 16.1018 19.0747C17.0893 16.1129 18.1199 13.151 19.1074 10.1892C19.5368 8.98724 19.9232 7.7424 20.3526 6.54049C20.4814 6.19708 20.6532 6.06831 20.9108 6.15416C21.1684 6.24001 21.2114 6.45464 21.1255 6.79804C21.0396 7.09852 20.9108 7.399 20.8249 7.69948C20.6532 8.17166 20.4814 8.68676 20.3097 9.24479C22.8001 8.08581 25.2476 6.92682 27.6521 5.76783C28.4679 5.3815 29.112 4.78054 29.5414 4.00788C30.6148 2.24793 29.7131 0.359211 27.7809 0.0587321Z" fill="#1E96FC"/>
</svg>
