<svg width="22" height="24" viewBox="0 0 22 24" fill="none" xmlns="http://www.w3.org/2000/svg">
<path d="M14.3002 22.1709V20.5081H20.2309V8.59122H3.60277V14.6882H1.93995V3.32564C1.93995 2.88222 2.10624 2.49423 2.4388 2.16166C2.77136 1.8291 3.15935 1.66282 3.60277 1.66282H5.40416V0H7.20554V1.66282H16.6282V0H18.4296V1.66282H20.2309C20.6744 1.66282 21.0624 1.8291 21.3949 2.16166C21.7275 2.49423 21.8938 2.88222 21.8938 3.32564V20.5081C21.8938 20.9515 21.7275 21.3395 21.3949 21.6721C21.0624 22.0046 20.6744 22.1709 20.2309 22.1709H14.3002ZM7.48268 24L6.31871 22.836L9.45035 19.6767H0V18.0139H9.45035L6.31871 14.8545L7.48268 13.6905L12.6374 18.8453L7.48268 24ZM3.60277 6.92841H20.2309V3.32564H3.60277V6.92841ZM3.60277 6.92841V3.32564V6.92841Z" fill="white"/>
</svg>
