<svg width="22" height="24" viewBox="0 0 22 24" fill="none" xmlns="http://www.w3.org/2000/svg">
<path d="M9.39 19.56L5.25 15.45L6.51 14.19L9.39 17.01L14.91 11.49L16.17 12.78L9.39 19.56ZM1.8 24C1.32 24 0.9 23.82 0.54 23.46C0.18 23.1 0 22.68 0 22.2V3.6C0 3.12 0.18 2.7 0.54 2.34C0.9 1.98 1.32 1.8 1.8 1.8H3.75V0H5.7V1.8H15.9V0H17.85V1.8H19.8C20.28 1.8 20.7 1.98 21.06 2.34C21.42 2.7 21.6 3.12 21.6 3.6V22.2C21.6 22.68 21.42 23.1 21.06 23.46C20.7 23.82 20.28 24 19.8 24H1.8ZM1.8 22.2H19.8V9.3H1.8V22.2ZM1.8 7.5H19.8V3.6H1.8V7.5ZM1.8 7.5V3.6V7.5Z" fill="white"/>
</svg>
