<svg width="24" height="30" viewBox="0 0 24 30" fill="none" xmlns="http://www.w3.org/2000/svg">
<path d="M23.2357 9.73913C22.46 5.0323 18.7065 1.12663 14.0021 0.225327C13.5267 0.125182 13.0513 0.075109 12.5758 0C11.9502 0 11.3247 0 10.6991 0C10.674 0.0500727 10.624 0.0500727 10.574 0.0500727C8.87238 0.225327 7.27089 0.75109 5.7695 1.62736C1.54058 4.08092 -0.736537 9.16329 0.214345 13.9703C0.63974 16.1735 1.49053 18.2014 2.6416 20.1292C4.81862 23.7845 7.69629 26.864 10.9493 29.618C11.5749 30.1437 11.9252 30.1187 12.5508 29.5929C14.4025 28.0407 16.1291 26.3633 17.6805 24.5106C19.5323 22.3324 21.1338 19.979 22.2348 17.3251C23.2107 14.8716 23.6861 12.3679 23.2357 9.73913ZM11.7 19.6786C7.32094 19.6786 3.74262 16.0984 3.74262 11.717C3.74262 7.33564 7.32094 3.75545 11.7 3.75545C16.0791 3.75545 19.6574 7.33564 19.6574 11.717C19.6574 16.0984 16.1041 19.6786 11.7 19.6786Z" fill="#1E96FC"/>
<path d="M11.725 5.60938C8.37194 5.60938 5.61938 8.33834 5.61938 11.6932C5.61938 15.0481 8.34692 17.777 11.675 17.777C15.0281 17.777 17.7807 15.0481 17.7807 11.6932C17.7807 8.36337 15.0782 5.63441 11.725 5.60938ZM14.9781 14.3971C14.9781 15.023 14.6027 15.4487 14.0522 15.4487C13.5017 15.4487 13.1013 15.023 13.1013 14.3721C13.1013 13.9214 13.1013 13.4708 13.1013 13.0201C13.1013 12.7447 13.0012 12.6195 12.726 12.6195C12.0504 12.6195 11.3497 12.6195 10.6741 12.6195C10.3988 12.6195 10.2987 12.7447 10.2987 13.0201C10.2987 13.4958 10.2987 13.9465 10.2987 14.4222C10.2987 14.998 9.89836 15.4487 9.34784 15.4236C8.79733 15.4236 8.42199 14.998 8.42199 14.3971C8.42199 12.5945 8.42199 10.7919 8.42199 8.98928C8.42199 8.36337 8.82236 7.93775 9.34784 7.93775C9.89836 7.93775 10.2737 8.36337 10.2987 8.98928C10.2987 9.43993 10.2987 9.91562 10.2987 10.3663C10.2987 10.6417 10.3988 10.7669 10.6741 10.7669C11.3497 10.7669 12.0504 10.7669 12.726 10.7669C13.0012 10.7669 13.1013 10.6417 13.1013 10.3663C13.1013 9.89059 13.1013 9.43993 13.1013 8.96424C13.1013 8.38841 13.5017 7.93775 14.0522 7.96279C14.6027 7.96279 14.9781 8.38841 14.9781 8.98928C14.9781 9.89059 14.9781 10.7919 14.9781 11.7182C14.9781 12.5945 14.9781 13.4958 14.9781 14.3971Z" fill="#1E96FC"/>
</svg>
