<svg width="20" height="15" viewBox="0 0 20 15" fill="none" xmlns="http://www.w3.org/2000/svg">
<g clip-path="url(#clip0_137_513)">
<path d="M0.355323 4.43457C0.533418 4.57705 0.747131 4.59486 0.978654 4.59486C6.26806 4.59486 11.5397 4.59486 16.8291 4.59486C16.9181 4.59486 17.0071 4.59486 17.1674 4.59486C16.651 5.11133 16.1879 5.55657 15.7427 6.01961C15.3509 6.41142 15.3331 6.91009 15.6714 7.26627C16.0276 7.62246 16.5263 7.58684 16.9181 7.19504C17.8442 6.26895 18.7703 5.34286 19.6964 4.41676C20.1238 3.98934 20.1238 3.52629 19.6964 3.09887C18.8949 2.27963 18.0757 1.47821 17.2743 0.676782C17.1496 0.552116 17.025 0.409641 16.8825 0.284975C16.5085 -0.0712142 16.0098 -0.0712142 15.6714 0.267165C15.3331 0.605544 15.3509 1.10421 15.7071 1.47821C16.1167 1.90563 16.5441 2.31525 16.9537 2.72487C17.0071 2.7783 17.0784 2.83172 17.1496 2.88515C17.1318 2.90296 17.1318 2.92077 17.114 2.93858C17.025 2.93858 16.9359 2.93858 16.8291 2.93858C11.5753 2.93858 6.32149 2.93858 1.0677 2.93858C0.978654 2.93858 0.889607 2.93858 0.800559 2.93858C0.444371 2.95639 0.14161 3.20572 0.052563 3.56191C-0.0542937 3.86467 0.0703724 4.22086 0.355323 4.43457Z" fill="#1E96FC"/>
<path d="M19.4119 9.6171C19.2694 9.56367 19.1447 9.58148 19.0022 9.58148C13.7306 9.58148 8.45905 9.58148 3.18746 9.58148C3.09841 9.58148 3.00936 9.58148 2.84908 9.58148C3.36555 9.065 3.8286 8.60196 4.29164 8.13891C4.66564 7.76491 4.70126 7.26625 4.36288 6.91006C4.0245 6.55387 3.50803 6.57168 3.11622 6.96349C2.17232 7.90739 1.24623 8.83348 0.30233 9.75957C-0.107287 10.1692 -0.107287 10.6322 0.30233 11.0597C1.24623 11.9858 2.17232 12.9118 3.09841 13.8379C3.49022 14.2297 3.98888 14.2654 4.34507 13.9092C4.70126 13.553 4.66564 13.0543 4.27383 12.6625C3.81079 12.1995 3.34774 11.7364 2.83127 11.2378C2.99156 11.2378 3.0806 11.2378 3.16965 11.2378C8.42343 11.2378 13.6772 11.2378 18.9488 11.2378C19.0379 11.2378 19.1269 11.2378 19.216 11.2378C19.6256 11.2021 19.9461 10.8816 19.9996 10.4898C20.0352 10.098 19.7859 9.74176 19.4119 9.6171Z" fill="#1E96FC"/>
</g>
<defs>
<clipPath id="clip0_137_513">
<rect width="20" height="14.1585" fill="white"/>
</clipPath>
</defs>
</svg>
