<svg width="18" height="13" viewBox="0 0 18 13" fill="none" xmlns="http://www.w3.org/2000/svg">
<path d="M17.9672 1.5801C17.7937 0.632977 17.0529 0 16.1058 0C11.3655 0 6.62516 0 1.88955 0C1.00807 0 0.295389 0.562647 0.0609534 1.4113C0.0468872 1.45819 0.0609534 1.51915 0 1.54728C0 3.4931 0 5.43892 0 7.38474C0.00937744 7.39411 0.0234436 7.3988 0.0234436 7.40818C0.262568 8.45845 0.947122 9.00234 2.02084 9.00234C6.67674 9.00234 11.3326 9.00234 15.9885 9.00234C16.0542 9.00234 16.1151 9.00234 16.1808 9.00234C17.006 8.9789 17.7187 8.41156 17.9344 7.60979C17.9484 7.55822 17.9344 7.49258 18 7.45975C18 5.51394 18 3.56812 18 1.6223C17.9859 1.60354 17.9719 1.59417 17.9672 1.5801ZM14.4553 8.25684C12.9409 8.25215 11.4217 8.25215 9.90727 8.25215C9.6025 8.25215 9.29773 8.25215 8.99297 8.25215C7.17843 8.25215 5.3639 8.25215 3.54936 8.25684C3.41808 8.25684 3.3665 8.23808 3.37119 8.08804C3.38526 7.78328 3.37588 7.47851 3.37588 7.17374C3.37588 6.89711 3.52123 6.75176 3.79786 6.75176C7.26283 6.75176 10.7278 6.75176 14.1974 6.75176C14.4835 6.75176 14.6241 6.89711 14.6241 7.18781C14.6241 7.48789 14.6147 7.78328 14.6288 8.08335C14.6335 8.21933 14.596 8.25684 14.4553 8.25684ZM17.2498 7.03777C17.2498 7.77859 16.7762 8.25215 16.026 8.25215C15.8666 8.25215 15.7072 8.24277 15.5525 8.25684C15.4118 8.26622 15.3603 8.22871 15.3649 8.07867C15.379 7.7739 15.3696 7.46913 15.3696 7.16437C15.3602 6.47512 14.9008 6.00625 14.2115 6.00625C10.7372 6.00156 7.26283 6.00156 3.79318 6.00625C3.09924 6.00625 2.63506 6.47981 2.63037 7.17843C2.63037 7.48789 2.62568 7.79734 2.63037 8.11149C2.63506 8.22871 2.59755 8.26153 2.48033 8.25684C2.2459 8.24746 2.01146 8.26622 1.77703 8.24277C1.17687 8.18182 0.754884 7.7317 0.750195 7.12686C0.740818 5.37796 0.740818 3.62438 0.750195 1.8708C0.754884 1.20031 1.25658 0.745507 1.95051 0.745507C4.08856 0.745507 6.22662 0.745507 8.36468 0.745507C8.57567 0.745507 8.78666 0.745507 8.99766 0.745507C11.3467 0.745507 13.6958 0.745507 16.0448 0.745507C16.6262 0.745507 17.0623 1.05965 17.2076 1.57541C17.2404 1.70201 17.2545 1.8286 17.2545 1.95989C17.2498 3.65251 17.2498 5.34514 17.2498 7.03777Z" fill="#1E96FC"/>
<path d="M5.62197 10.1793C5.62197 9.92607 5.47662 9.75727 5.25625 9.7479C5.03588 9.74321 4.87646 9.91669 4.87646 10.1746C4.87646 10.8873 4.87646 11.6046 4.87646 12.3173C4.87646 12.5799 5.03588 12.7534 5.25625 12.7487C5.47193 12.744 5.62197 12.5705 5.62197 12.3173C5.62197 11.9563 5.62197 11.5906 5.62197 11.2295C5.62666 10.8826 5.62666 10.5309 5.62197 10.1793Z" fill="#1E96FC"/>
<path d="M12.7393 9.7479C12.5189 9.75258 12.3735 9.92607 12.3735 10.1793C12.3735 10.5356 12.3735 10.8919 12.3735 11.2483C12.3735 11.6046 12.3735 11.961 12.3735 12.3173C12.3735 12.5705 12.5236 12.7393 12.7393 12.7487C12.9596 12.7534 13.119 12.5799 13.119 12.3173C13.119 11.6046 13.119 10.8873 13.119 10.1746C13.119 9.91669 12.9596 9.74321 12.7393 9.7479Z" fill="#1E96FC"/>
<path d="M11.628 10.1792C11.6233 9.91667 11.4639 9.74318 11.2436 9.75256C11.0279 9.75725 10.8778 9.92604 10.8731 10.1792C10.8685 10.6481 10.8685 11.1123 10.8731 11.5812C10.8731 11.8344 11.0279 11.9938 11.2482 11.9985C11.4733 11.9985 11.6187 11.839 11.628 11.5858C11.6327 11.3514 11.628 11.117 11.628 10.8825C11.628 10.6434 11.628 10.4137 11.628 10.1792Z" fill="#1E96FC"/>
<path d="M4.12158 10.1885C4.12158 10.1791 4.12158 10.165 4.12158 10.1557C4.1122 9.91655 3.96217 9.75244 3.75117 9.75244C3.54018 9.75244 3.37608 9.91655 3.37608 10.151C3.37139 10.6339 3.37139 11.1215 3.37608 11.6045C3.37608 11.8436 3.53549 11.9983 3.75586 11.9937C3.97154 11.989 4.11689 11.8436 4.12158 11.6092C4.12627 11.3701 4.12158 11.1309 4.12158 10.8918C4.12158 10.6574 4.12158 10.4229 4.12158 10.1885Z" fill="#1E96FC"/>
<path d="M6.75668 9.7479C6.541 9.74321 6.38158 9.912 6.3722 10.1605C6.36751 10.3293 6.3722 10.4981 6.3722 10.6716C6.3722 10.8544 6.36751 11.0326 6.3722 11.2155C6.38158 11.4546 6.53162 11.6187 6.74261 11.6234C6.95829 11.6281 7.1224 11.4593 7.12709 11.2108C7.13177 10.8591 7.13177 10.5075 7.12709 10.1558C7.1224 9.91669 6.96767 9.75259 6.75668 9.7479Z" fill="#1E96FC"/>
<path d="M14.624 10.1418C14.6193 9.9167 14.4646 9.75259 14.2583 9.7479C14.0473 9.74321 13.8832 9.90732 13.8785 10.1418C13.8738 10.5028 13.8738 10.8685 13.8785 11.2295C13.8832 11.4593 14.0332 11.6187 14.2395 11.6234C14.4505 11.6281 14.6146 11.464 14.624 11.2295C14.6287 11.0561 14.624 10.8779 14.624 10.7044C14.624 10.5169 14.624 10.3293 14.624 10.1418Z" fill="#1E96FC"/>
<path d="M3.69012 1.87559C3.23062 1.8709 2.76644 1.8709 2.30694 1.87559C2.04438 1.87559 1.87089 2.035 1.87558 2.25537C1.88027 2.48043 2.04906 2.62578 2.31632 2.63047C2.54607 2.63516 2.77113 2.63047 3.00087 2.63047C3.23062 2.63047 3.45568 2.63047 3.68543 2.63047C3.95737 2.62578 4.12148 2.48512 4.12148 2.25537C4.12148 2.02563 3.95737 1.87559 3.69012 1.87559Z" fill="#1E96FC"/>
<path d="M15.7589 1.87536C15.5573 1.86599 15.3744 2.03947 15.3697 2.24577C15.365 2.4427 15.5338 2.61618 15.7308 2.62556C15.9324 2.63494 16.1152 2.46145 16.1199 2.25515C16.1246 2.05822 15.9605 1.88474 15.7589 1.87536Z" fill="#1E96FC"/>
<path d="M14.2489 1.87549C14.0473 1.87549 13.8832 2.03959 13.8785 2.24121C13.8738 2.4522 14.0426 2.62568 14.2489 2.62568C14.4552 2.62568 14.6287 2.44751 14.624 2.24121C14.6193 2.03959 14.4458 1.87549 14.2489 1.87549Z" fill="#1E96FC"/>
</svg>
