<svg width="16" height="21" viewBox="0 0 16 21" fill="none" xmlns="http://www.w3.org/2000/svg">
<path d="M8 21C8.16405 20.999 8.32295 20.9409 8.45091 20.835C8.72727 20.58 16 14.535 16 8.25C16 6.06196 15.1571 3.96354 13.6569 2.41637C12.1566 0.869194 10.1217 0 8 0C5.87827 0 3.84344 0.869194 2.34315 2.41637C0.842855 3.96354 0 6.06196 0 8.25C0 14.535 7.27273 20.58 7.54909 20.835C7.67705 20.9409 7.83595 20.999 8 21ZM1.45455 8.25C1.45455 6.45979 2.14415 4.7429 3.37166 3.47703C4.59918 2.21116 6.26404 1.5 8 1.5C9.73596 1.5 11.4008 2.21116 12.6283 3.47703C13.8558 4.7429 14.5455 6.45979 14.5455 8.25C14.5455 12.975 9.54909 17.8575 8 19.2675C6.45091 17.8575 1.45455 12.975 1.45455 8.25Z" fill="#2199F8"/>
<path d="M12.5282 10.7274L12.527 10.1412L8.58089 7.15852C8.47124 3.86491 7.9333 3.663 7.9333 3.663C7.9333 3.663 7.39045 3.86425 7.31712 7.16395L3.40615 10.1884L3.40734 10.7745L7.3317 8.70218C7.42558 9.87142 7.74693 11.8208 7.74693 11.8208C7.74693 11.8208 6.31356 12.7844 6.0293 13.5998L6.04148 13.9658L7.87192 12.8241L7.98777 13.553L8.10918 12.7979L9.94135 13.9092L9.92917 13.5433C9.6645 12.7461 8.20437 11.8055 8.20437 11.8055C8.20437 11.8055 8.52344 9.83487 8.59546 8.69675L12.5282 10.7274Z" fill="#2199F8"/>
</svg>
