<svg width="19" height="19" viewBox="0 0 19 19" fill="none" xmlns="http://www.w3.org/2000/svg">
<path fill-rule="evenodd" clip-rule="evenodd" d="M18.6579 16.4613C18.0714 18.2435 15.7738 19.1323 14.1322 18.9841C11.8903 18.7814 9.45072 17.5923 7.59891 16.2826C4.87691 14.3573 2.32718 11.3792 0.841421 8.21892C-0.208618 5.98585 -0.444213 3.2403 1.11754 1.20482C1.69513 0.452441 2.32084 0.0506113 3.25815 0.00374585C4.56025 -0.0595858 4.74265 0.685323 5.18977 1.84556C5.52289 2.7132 5.96748 3.59826 6.21574 4.49757C6.6806 6.17586 5.0555 6.246 4.85031 7.61777C4.72365 8.48288 5.77115 9.64303 6.24487 10.2599C7.15797 11.4613 8.27631 12.4915 9.54825 13.3034C10.2702 13.7581 11.433 14.5775 12.2588 14.1253C13.5305 13.4287 13.4115 11.2844 15.1886 12.0102C16.1094 12.3851 17.0011 12.9262 17.8802 13.3999C19.2393 14.1307 19.1759 14.8882 18.6579 16.4613C19.0455 15.2859 18.2703 17.6367 18.6579 16.4613Z" fill="#1E96FC"/>
</svg>
