<svg width="30" height="16" viewBox="0 0 30 16" fill="none" xmlns="http://www.w3.org/2000/svg">
<path d="M5.80251 10.1131C5.31422 10.1131 4.83688 10.2579 4.43088 10.5292C4.02488 10.8004 3.70844 11.186 3.52157 11.6372C3.33471 12.0883 3.28582 12.5847 3.38108 13.0636C3.47634 13.5425 3.71148 13.9824 4.05676 14.3277C4.40203 14.673 4.84195 14.9081 5.32086 15.0034C5.79977 15.0986 6.29618 15.0498 6.74731 14.8629C7.19843 14.676 7.58402 14.3596 7.8553 13.9536C8.12659 13.5476 8.27138 13.0703 8.27138 12.582C8.27083 11.9273 8.01055 11.2997 7.54766 10.8368C7.08478 10.3739 6.45713 10.1136 5.80251 10.1131ZM6.35 13.1294C6.31456 13.1649 6.27658 13.1977 6.23637 13.2276C6.18989 13.2534 6.14857 13.2792 6.10208 13.2999C6.0556 13.3205 6.00395 13.3309 5.95746 13.3412C5.832 13.3667 5.70217 13.3607 5.57959 13.3237C5.45701 13.2868 5.34549 13.22 5.25502 13.1294C5.21848 13.0945 5.18717 13.0545 5.16205 13.0106C5.13102 12.97 5.10661 12.9247 5.08974 12.8764C5.06886 12.8301 5.05327 12.7815 5.04326 12.7317C5.0226 12.633 5.0226 12.531 5.04326 12.4322C5.05327 12.3824 5.06886 12.3339 5.08974 12.2875C5.10661 12.2393 5.13102 12.1939 5.16205 12.1533C5.18848 12.1103 5.21967 12.0704 5.25502 12.0345C5.29225 11.999 5.33195 11.9662 5.37382 11.9363C5.41585 11.9089 5.46091 11.8863 5.50811 11.8692C5.55441 11.8483 5.60293 11.8327 5.65273 11.8227C5.75325 11.802 5.85693 11.802 5.95746 11.8227C6.00706 11.8335 6.05549 11.849 6.10208 11.8692C6.14882 11.8874 6.19377 11.9099 6.23637 11.9363C6.27658 11.9662 6.31456 11.999 6.35 12.0345C6.38548 12.0717 6.41827 12.1114 6.44814 12.1533C6.47529 12.1963 6.49945 12.2412 6.52045 12.2875C6.53728 12.3348 6.55108 12.3831 6.56177 12.4322C6.57229 12.4814 6.57749 12.5316 6.57726 12.582C6.57708 12.7874 6.49534 12.9843 6.35 13.1294ZM23.9678 10.1131C23.4795 10.1131 23.0022 10.2579 22.5962 10.5292C22.1902 10.8004 21.8737 11.186 21.6869 11.6372C21.5 12.0883 21.4511 12.5847 21.5464 13.0636C21.6416 13.5425 21.8768 13.9824 22.2221 14.3277C22.5673 14.673 23.0073 14.9081 23.4862 15.0034C23.9651 15.0986 24.4615 15.0498 24.9126 14.8629C25.3637 14.676 25.7493 14.3596 26.0206 13.9536C26.2919 13.5476 26.4367 13.0703 26.4367 12.582C26.4361 11.9273 26.1759 11.2997 25.713 10.8368C25.2501 10.3739 24.6224 10.1136 23.9678 10.1131ZM24.7271 12.7317C24.7212 12.7819 24.7073 12.8307 24.6858 12.8764C24.6679 12.9242 24.6436 12.9694 24.6134 13.0106C24.5865 13.0547 24.5535 13.0947 24.5153 13.1294C24.4799 13.1649 24.4419 13.1977 24.4017 13.2276C24.3586 13.2547 24.3138 13.2789 24.2674 13.2999C24.2209 13.3154 24.1693 13.3309 24.1228 13.3412C23.9973 13.3667 23.8675 13.3607 23.7449 13.3237C23.6223 13.2868 23.5108 13.22 23.4203 13.1294C23.3838 13.0945 23.3525 13.0545 23.3274 13.0106C23.2972 12.9694 23.2729 12.9242 23.255 12.8764C23.2342 12.8301 23.2186 12.7815 23.2086 12.7317C23.1879 12.633 23.1879 12.531 23.2086 12.4322C23.2431 12.2833 23.3161 12.1462 23.4203 12.0345C23.5281 11.9242 23.6668 11.8494 23.8181 11.8199C23.9694 11.7904 24.1261 11.8076 24.2674 11.8692C24.3146 11.8863 24.3596 11.9089 24.4017 11.9363C24.4419 11.9662 24.4799 11.999 24.5153 12.0345C24.5523 12.0704 24.5852 12.1102 24.6134 12.1533C24.6426 12.1951 24.6668 12.2402 24.6858 12.2875C24.7073 12.3332 24.7212 12.382 24.7271 12.4322C24.7477 12.531 24.7477 12.633 24.7271 12.7317ZM29.9024 8.61007H28.0017C27.9212 8.61142 27.8416 8.59372 27.7693 8.55842L27.2992 8.32083C27.2364 8.29196 27.18 8.25076 27.1333 8.19967C27.0867 8.14858 27.0508 8.08865 27.0278 8.02343C27.0048 7.95821 26.9951 7.88902 26.9993 7.81998C27.0035 7.75095 27.0216 7.68346 27.0523 7.62152C27.0831 7.55959 27.1261 7.50447 27.1786 7.45944C27.2311 7.4144 27.2921 7.38038 27.358 7.35937C27.4239 7.33836 27.4933 7.33081 27.5622 7.33715C27.6311 7.34349 27.698 7.36361 27.7589 7.39629L28.1256 7.57707H29.4737C29.4582 7.55641 29.4479 7.53058 29.4324 7.50476C29.2854 7.25523 29.0867 7.03998 28.8498 6.87341C28.6128 6.70684 28.3431 6.5928 28.0585 6.5389L23.3842 5.61953C23.2902 5.60179 23.2027 5.55896 23.1311 5.49557L19.4071 2.05568C17.977 0.730905 16.0986 -0.00351596 14.1492 1.26565e-05H8.49864C6.47913 1.26565e-05 4.64039 0.934877 2.34196 3.11451C1.96492 3.47089 1.64469 3.76013 1.37094 4.00289C0.461901 4.80863 0.162331 5.08237 0.0590308 6.1257C0.115894 6.04186 0.196156 5.9766 0.28983 5.93803C0.383503 5.89946 0.48645 5.88928 0.585861 5.90877L1.64985 6.11537C1.76747 6.13813 1.87351 6.20107 1.94983 6.29341C2.02615 6.38575 2.068 6.50175 2.06822 6.62154V6.93661C2.06822 7.07359 2.0138 7.20497 1.91694 7.30183C1.82007 7.39869 1.6887 7.45311 1.55172 7.45311C1.43444 7.45448 1.32034 7.41504 1.22895 7.34155C1.13755 7.26805 1.07454 7.16507 1.05071 7.05024L0.389591 6.92111C0.308343 6.90522 0.232254 6.86958 0.168032 6.81734C0.103809 6.7651 0.0534268 6.69785 0.0213264 6.62154C0.00583135 6.9676 0.000666371 7.3808 0.000666371 7.89213C-0.00444382 8.12325 0.0198543 8.35409 0.0729763 8.57908L0.0988014 8.7082C0.336391 10.0046 0.739261 11.3785 2.44888 11.5903C2.66224 10.8631 3.10622 10.225 3.71389 9.77221C4.32156 9.31941 5.05997 9.07643 5.81778 9.07993C6.5756 9.08343 7.31173 9.33321 7.9152 9.7916C8.51866 10.25 8.95674 10.8922 9.16338 11.6213H20.6039C20.8112 10.8917 21.25 10.2493 21.8543 9.791C22.4586 9.33267 23.1955 9.08324 23.954 9.08033C24.7124 9.07741 25.4512 9.32117 26.059 9.77484C26.6668 10.2285 27.1106 10.8675 27.3235 11.5954C28.1654 11.5025 29.3224 11.1151 29.8285 10.0769C30.0282 9.61263 30.0544 9.09207 29.9024 8.61007ZM20.8998 5.63503H3.12033C3.01205 5.63531 2.90642 5.60155 2.81837 5.53852C2.73032 5.4755 2.6643 5.3864 2.62965 5.28381C2.59659 5.18223 2.59519 5.07301 2.62563 4.97062C2.65607 4.86823 2.71691 4.77751 2.8001 4.71049L6.26581 1.9937C6.37349 1.90983 6.50998 1.87198 6.64548 1.88843C6.78097 1.90489 6.90444 1.9743 6.98891 2.08151C7.03104 2.13458 7.0622 2.19549 7.0806 2.26071C7.099 2.32592 7.10427 2.39414 7.0961 2.46141C7.08794 2.52867 7.06649 2.59365 7.03302 2.65256C6.99955 2.71147 6.95471 2.76316 6.90111 2.80461L4.61818 4.60203H9.40613V1.73545C9.40613 1.59847 9.46055 1.46709 9.55741 1.37023C9.65427 1.27337 9.78565 1.21895 9.92263 1.21895C10.0596 1.21895 10.191 1.27337 10.2879 1.37023C10.3847 1.46709 10.4391 1.59847 10.4391 1.73545V4.60203H14.4833V1.73545C14.4833 1.59847 14.5377 1.46709 14.6346 1.37023C14.7315 1.27337 14.8628 1.21895 14.9998 1.21895C15.1368 1.21895 15.2682 1.27337 15.365 1.37023C15.4619 1.46709 15.5163 1.59847 15.5163 1.73545V4.60203H20.8983C21.0352 4.60203 21.1666 4.65644 21.2635 4.75331C21.3603 4.85017 21.4148 4.98154 21.4148 5.11853C21.4148 5.25551 21.3603 5.38689 21.2635 5.48375C21.1666 5.58061 21.0352 5.63503 20.8983 5.63503H20.8998Z" fill="#1E96FC"/>
</svg>
