<svg width="32" height="32" viewBox="0 0 32 32" fill="none" xmlns="http://www.w3.org/2000/svg">
<path d="M21.0952 23.4266L23.4266 21.1704L17.6357 15.342V8.15981H14.5523V16.6204L21.0952 23.4266ZM15.9812 32C13.7752 32 11.7007 31.5801 9.75793 30.7403C7.81512 29.9005 6.12299 28.7599 4.68155 27.3185C3.24011 25.877 2.09949 24.1849 1.25969 22.2421C0.419898 20.2993 0 18.2248 0 16.0188C0 13.8128 0.419898 11.7383 1.25969 9.79554C2.09949 7.85272 3.24011 6.1606 4.68155 4.71915C6.12299 3.27771 7.81512 2.13083 9.75793 1.2785C11.7007 0.426165 13.7752 0 15.9812 0C18.1872 0 20.2617 0.426165 22.2045 1.2785C24.1473 2.13083 25.8394 3.27771 27.2808 4.71915C28.7223 6.1606 29.8692 7.85272 30.7215 9.79554C31.5738 11.7383 32 13.8128 32 16.0188C32 18.2248 31.5738 20.2993 30.7215 22.2421C29.8692 24.1849 28.7223 25.877 27.2808 27.3185C25.8394 28.7599 24.1473 29.9005 22.2045 30.7403C20.2617 31.5801 18.1872 32 15.9812 32ZM15.9436 28.4653C19.378 28.4653 22.3173 27.2558 24.7615 24.8367C27.2056 22.4175 28.4277 19.4783 28.4277 16.0188C28.4277 12.5844 27.2056 9.65139 24.7615 7.21974C22.3173 4.78809 19.3905 3.57227 15.9812 3.57227C12.5468 3.57227 9.61379 4.78809 7.18214 7.21974C4.75049 9.65139 3.53467 12.5844 3.53467 16.0188C3.53467 19.4783 4.75049 22.4175 7.18214 24.8367C9.61379 27.2558 12.5343 28.4653 15.9436 28.4653Z" fill="#1E96FC"/>
</svg>
