<svg width="16" height="16" viewBox="0 0 16 16" fill="none" xmlns="http://www.w3.org/2000/svg">
<circle cx="8" cy="8" r="8" fill="#2199F8"/>
<path d="M8.31654 5.68631C8.1077 5.68631 7.93254 5.61557 7.79107 5.4741C7.64959 5.33262 7.57886 5.15746 7.57886 4.94862C7.57886 4.73978 7.64959 4.56462 7.79107 4.42315C7.93254 4.28167 8.1077 4.21094 8.31654 4.21094C8.51865 4.21094 8.69044 4.28167 8.83191 4.42315C8.97338 4.56462 9.04412 4.73978 9.04412 4.94862C9.04412 5.15746 8.97338 5.33262 8.83191 5.4741C8.69044 5.61557 8.51865 5.68631 8.31654 5.68631ZM8.88244 6.42399V11.992H7.73044V6.42399H8.88244Z" fill="white"/>
</svg>
