<svg width="18" height="13" viewBox="0 0 18 13" fill="none" xmlns="http://www.w3.org/2000/svg">
<path d="M8.99989 5.66357L17.2156 0.385714C16.8853 0.137966 16.4842 0.00276496 16.0713 0H1.92847C1.51558 0.00276496 1.11448 0.137966 0.78418 0.385714L8.99989 5.66357Z" fill="white"/>
<path d="M9.34714 6.96884L9.23786 7.02027H9.18643C9.12724 7.04671 9.06438 7.06405 9 7.0717C8.94664 7.07842 8.89265 7.07842 8.83929 7.0717H8.78786L8.67857 7.02027L0.0642857 1.45312C0.0231288 1.6084 0.00153302 1.76821 0 1.92884V10.9288C0 11.4403 0.203188 11.9309 0.564866 12.2925C0.926543 12.6542 1.41708 12.8574 1.92857 12.8574H16.0714C16.5829 12.8574 17.0735 12.6542 17.4351 12.2925C17.7968 11.9309 18 11.4403 18 10.9288V1.92884C17.9985 1.76821 17.9769 1.6084 17.9357 1.45312L9.34714 6.96884Z" fill="white"/>
</svg>
