<svg width="16" height="11" viewBox="0 0 16 11" fill="none" xmlns="http://www.w3.org/2000/svg">
<path d="M7.99935 8.49984C8.78824 8.49984 9.45768 8.22484 10.0077 7.67484C10.5577 7.12484 10.8327 6.45539 10.8327 5.6665C10.8327 4.87761 10.5577 4.20817 10.0077 3.65817C9.45768 3.10817 8.78824 2.83317 7.99935 2.83317C7.21046 2.83317 6.54102 3.10817 5.99102 3.65817C5.44102 4.20817 5.16602 4.87761 5.16602 5.6665C5.16602 6.45539 5.44102 7.12484 5.99102 7.67484C6.54102 8.22484 7.21046 8.49984 7.99935 8.49984ZM7.99935 7.53317C7.47713 7.53317 7.03546 7.35262 6.67435 6.9915C6.31324 6.63039 6.13268 6.18873 6.13268 5.6665C6.13268 5.14428 6.31324 4.70262 6.67435 4.3415C7.03546 3.98039 7.47713 3.79984 7.99935 3.79984C8.52157 3.79984 8.96324 3.98039 9.32435 4.3415C9.68546 4.70262 9.86602 5.14428 9.86602 5.6665C9.86602 6.18873 9.68546 6.63039 9.32435 6.9915C8.96324 7.35262 8.52157 7.53317 7.99935 7.53317ZM7.99935 10.6665C6.37713 10.6665 4.91046 10.2054 3.59935 9.28317C2.28824 8.36095 1.31046 7.15539 0.666016 5.6665C1.31046 4.17762 2.28824 2.97206 3.59935 2.04984C4.91046 1.12761 6.37713 0.666504 7.99935 0.666504C9.62157 0.666504 11.0882 1.12761 12.3993 2.04984C13.7105 2.97206 14.6882 4.17762 15.3327 5.6665C14.6882 7.15539 13.7105 8.36095 12.3993 9.28317C11.0882 10.2054 9.62157 10.6665 7.99935 10.6665ZM7.99935 9.6665C9.34379 9.6665 10.5799 9.30262 11.7077 8.57484C12.8355 7.84706 13.6938 6.87762 14.2827 5.6665C13.6938 4.45539 12.8355 3.48595 11.7077 2.75817C10.5799 2.03039 9.34379 1.6665 7.99935 1.6665C6.6549 1.6665 5.41879 2.03039 4.29102 2.75817C3.16324 3.48595 2.29935 4.45539 1.69935 5.6665C2.29935 6.87762 3.16324 7.84706 4.29102 8.57484C5.41879 9.30262 6.6549 9.6665 7.99935 9.6665Z" fill="black"/>
</svg>
