<svg width="256" height="256" viewBox="0 0 256 256" fill="none" xmlns="http://www.w3.org/2000/svg">
<path d="M48 40.001L208 216.001" stroke="black" stroke-width="16" stroke-linecap="round" stroke-linejoin="round"/>
<path d="M154.907 157.599C147.057 164.734 136.694 168.459 126.098 167.954C115.502 167.449 105.541 162.755 98.4048 154.906C91.2691 147.056 87.5435 136.694 88.0476 126.098C88.5517 115.502 93.2442 105.54 101.093 98.4033M73.9945 68.5947C33.2252 89.2403 16 128.001 16 128.001C16 128.001 48 199.993 128 199.993C146.744 200.143 165.254 195.825 181.998 187.399M208.61 169.101C230.411 149.573 240 128.001 240 128.001C240 128.001 208 55.9933 128 55.9933C121.071 55.982 114.153 56.5453 107.318 57.6775M135.527 88.7089C144.029 90.3414 151.772 94.6865 157.596 101.092C163.419 107.498 167.008 115.619 167.825 124.238" stroke="black" stroke-width="16" stroke-linecap="round" stroke-linejoin="round"/>
</svg>
