<svg width="30" height="28" viewBox="0 0 30 28" fill="none" xmlns="http://www.w3.org/2000/svg">
<path d="M1 4.99906H1.142C1.36027 5.85665 1.85806 6.61706 2.55672 7.16017C3.25537 7.70328 4.11507 7.99813 5 7.99813C5.88493 7.99813 6.74463 7.70328 7.44328 7.16017C8.14194 6.61706 8.63973 5.85665 8.858 4.99906H29C29.2652 4.99906 29.5196 4.89371 29.7071 4.70617C29.8946 4.51863 30 4.26428 30 3.99906C30 3.73385 29.8946 3.47949 29.7071 3.29196C29.5196 3.10442 29.2652 2.99906 29 2.99906H8.858C8.63973 2.14148 8.14194 1.38107 7.44328 0.837956C6.74463 0.294846 5.88493 0 5 0C4.11507 0 3.25537 0.294846 2.55672 0.837956C1.85806 1.38107 1.36027 2.14148 1.142 2.99906H1C0.734784 2.99906 0.48043 3.10442 0.292893 3.29196C0.105357 3.47949 0 3.73385 0 3.99906C0 4.26428 0.105357 4.51863 0.292893 4.70617C0.48043 4.89371 0.734784 4.99906 1 4.99906V4.99906ZM5 1.99906C5.39556 1.99906 5.78224 2.11636 6.11114 2.33613C6.44004 2.55589 6.69638 2.86825 6.84776 3.2337C6.99913 3.59915 7.03874 4.00128 6.96157 4.38925C6.8844 4.77721 6.69392 5.13357 6.41421 5.41328C6.13451 5.69298 5.77814 5.88346 5.39018 5.96064C5.00222 6.03781 4.60009 5.9982 4.23463 5.84682C3.86918 5.69545 3.55682 5.4391 3.33706 5.1102C3.1173 4.78131 3 4.39463 3 3.99906C3 3.46863 3.21071 2.95992 3.58579 2.58485C3.96086 2.20978 4.46957 1.99906 5 1.99906V1.99906ZM29 12.9991H28.858C28.6397 12.1415 28.1419 11.3811 27.4433 10.838C26.7446 10.2948 25.8849 10 25 10C24.1151 10 23.2554 10.2948 22.5567 10.838C21.8581 11.3811 21.3603 12.1415 21.142 12.9991H1C0.734784 12.9991 0.48043 13.1044 0.292893 13.292C0.105357 13.4795 0 13.7338 0 13.9991C0 14.2643 0.105357 14.5186 0.292893 14.7062C0.48043 14.8937 0.734784 14.9991 1 14.9991H21.142C21.3603 15.8566 21.8581 16.6171 22.5567 17.1602C23.2554 17.7033 24.1151 17.9981 25 17.9981C25.8849 17.9981 26.7446 17.7033 27.4433 17.1602C28.1419 16.6171 28.6397 15.8566 28.858 14.9991H29C29.2652 14.9991 29.5196 14.8937 29.7071 14.7062C29.8946 14.5186 30 14.2643 30 13.9991C30 13.7338 29.8946 13.4795 29.7071 13.292C29.5196 13.1044 29.2652 12.9991 29 12.9991ZM25 15.9991C24.6044 15.9991 24.2178 15.8818 23.8889 15.662C23.56 15.4422 23.3036 15.1299 23.1522 14.7644C23.0009 14.399 22.9613 13.9968 23.0384 13.6089C23.1156 13.2209 23.3061 12.8646 23.5858 12.5849C23.8655 12.3051 24.2219 12.1147 24.6098 12.0375C24.9978 11.9603 25.3999 11.9999 25.7654 12.1513C26.1308 12.3027 26.4432 12.559 26.6629 12.8879C26.8827 13.2168 27 13.6035 27 13.9991C27 14.5295 26.7893 15.0382 26.4142 15.4133C26.0391 15.7884 25.5304 15.9991 25 15.9991ZM29 22.9991H18.858C18.6397 22.1415 18.1419 21.3811 17.4433 20.838C16.7446 20.2948 15.8849 20 15 20C14.1151 20 13.2554 20.2948 12.5567 20.838C11.8581 21.3811 11.3603 22.1415 11.142 22.9991H1C0.734784 22.9991 0.48043 23.1044 0.292893 23.292C0.105357 23.4795 0 23.7338 0 23.9991C0 24.2643 0.105357 24.5186 0.292893 24.7062C0.48043 24.8937 0.734784 24.9991 1 24.9991H11.142C11.3603 25.8566 11.8581 26.6171 12.5567 27.1602C13.2554 27.7033 14.1151 27.9981 15 27.9981C15.8849 27.9981 16.7446 27.7033 17.4433 27.1602C18.1419 26.6171 18.6397 25.8566 18.858 24.9991H29C29.2652 24.9991 29.5196 24.8937 29.7071 24.7062C29.8946 24.5186 30 24.2643 30 23.9991C30 23.7338 29.8946 23.4795 29.7071 23.292C29.5196 23.1044 29.2652 22.9991 29 22.9991ZM15 25.9991C14.6044 25.9991 14.2178 25.8818 13.8889 25.662C13.56 25.4422 13.3036 25.1299 13.1522 24.7644C13.0009 24.399 12.9613 23.9968 13.0384 23.6089C13.1156 23.2209 13.3061 22.8646 13.5858 22.5849C13.8655 22.3051 14.2219 22.1147 14.6098 22.0375C14.9978 21.9603 15.3999 21.9999 15.7654 22.1513C16.1308 22.3027 16.4432 22.559 16.6629 22.8879C16.8827 23.2168 17 23.6035 17 23.9991C17 24.5295 16.7893 25.0382 16.4142 25.4133C16.0391 25.7884 15.5304 25.9991 15 25.9991V25.9991Z" fill="black"/>
</svg>
