<svg width="5184" height="3558" viewBox="0 0 5184 3558" fill="none" xmlns="http://www.w3.org/2000/svg">
<path d="M4799.65 7.42785C4613.91 -22.2841 4443.02 14.8558 4272.13 96.5635C3833.78 304.547 3402.85 505.102 2964.49 705.657C2927.34 720.513 2897.62 720.513 2860.47 713.085C2392.4 527.386 1916.89 341.687 1448.81 163.415C1374.51 133.703 1292.79 111.419 1211.06 103.992C1025.31 89.1356 869.287 222.839 854.427 408.538C846.997 475.39 869.287 512.53 921.295 549.67C1211.06 750.225 1500.82 950.781 1790.58 1143.91C1820.3 1166.19 1850.02 1188.48 1887.17 1210.76C1879.74 1218.19 1872.31 1218.19 1864.88 1225.62C1693.99 1307.32 1515.68 1389.03 1344.79 1470.74C1322.5 1485.59 1300.22 1478.17 1270.5 1478.17C973.304 1403.89 676.112 1329.61 371.49 1255.33C304.622 1240.47 267.473 1247.9 237.754 1307.32C156.026 1455.88 74.2981 1604.44 -7.42969 1745.57C-7.42969 1760.43 -7.42969 1782.71 -7.42969 1797.57C14.8597 1834.71 52.0087 1856.99 96.5875 1871.85C215.464 1916.42 334.341 1968.41 453.218 2020.41C549.805 2064.98 653.822 2102.12 757.84 2146.68C705.831 2168.97 668.682 2191.25 631.533 2206.11C564.665 2243.25 542.375 2280.39 579.524 2354.67C638.963 2488.37 698.401 2614.65 757.84 2740.92C794.989 2830.06 839.567 2844.91 928.725 2800.35C1411.66 2570.08 1902.03 2347.24 2384.97 2116.97C2444.4 2087.26 2459.26 2057.55 2466.69 1998.13C2474.12 1864.42 2488.98 1730.72 2503.84 1597.01C2503.84 1559.87 2526.13 1537.59 2563.28 1537.59C2600.43 1537.59 2622.72 1552.45 2630.15 1582.16C2637.58 1597.01 2630.15 1619.3 2630.15 1634.15C2607.86 1894.13 2578.14 2161.54 2555.85 2421.52C2526.13 2763.21 2488.98 3112.32 2459.26 3454.01C2451.83 3535.72 2488.98 3565.43 2570.71 3558C2600.43 3558 2630.15 3543.14 2652.44 3520.86C2719.31 3461.44 2749.03 3379.73 2778.75 3298.02C2949.63 2785.49 3127.95 2272.96 3298.83 1760.43C3373.13 1552.45 3440 1337.04 3514.3 1129.05C3536.58 1069.63 3566.3 1047.34 3610.88 1062.2C3655.46 1077.06 3662.89 1114.2 3648.03 1173.62C3633.17 1225.62 3610.88 1277.61 3596.02 1329.61C3566.3 1411.32 3536.58 1500.45 3506.87 1597.01C3937.79 1396.46 4361.29 1195.9 4777.36 995.348C4918.53 928.497 5029.97 824.505 5104.27 690.802C5290.02 386.255 5133.99 59.4237 4799.65 7.42785Z" fill="#ED1C24"/>
</svg>
