<svg width="32" height="24" viewBox="0 0 32 24" fill="none" xmlns="http://www.w3.org/2000/svg">
<path d="M22.7928 13.2798C24.7855 14.6326 26.1819 16.4653 26.1819 18.9089V23.2726H32.0001V18.9089C32.0001 15.738 26.8073 13.8617 22.7928 13.2798Z" fill="#1E96FC"/>
<path d="M20.3637 11.6364C23.5782 11.6364 26.1819 9.03273 26.1819 5.81818C26.1819 2.60364 23.5782 0 20.3637 0C19.6801 0 19.0401 0.145454 18.4292 0.349091C19.6364 1.84727 20.3637 3.75273 20.3637 5.81818C20.3637 7.88364 19.6364 9.78909 18.4292 11.2873C19.0401 11.4909 19.6801 11.6364 20.3637 11.6364Z" fill="#1E96FC"/>
<path d="M11.6364 11.6364C14.8509 11.6364 17.4545 9.03273 17.4545 5.81818C17.4545 2.60364 14.8509 0 11.6364 0C8.42181 0 5.81818 2.60364 5.81818 5.81818C5.81818 9.03273 8.42181 11.6364 11.6364 11.6364ZM11.6364 2.90909C13.2364 2.90909 14.5454 4.21818 14.5454 5.81818C14.5454 7.41818 13.2364 8.72727 11.6364 8.72727C10.0364 8.72727 8.72727 7.41818 8.72727 5.81818C8.72727 4.21818 10.0364 2.90909 11.6364 2.90909Z" fill="#1E96FC"/>
<path d="M11.6364 13.0909C7.75273 13.0909 0 15.04 0 18.9091V23.2727H23.2727V18.9091C23.2727 15.04 15.52 13.0909 11.6364 13.0909ZM20.3636 20.3636H2.90909V18.9236C3.2 17.8763 7.70909 16 11.6364 16C15.5636 16 20.0727 17.8763 20.3636 18.9091V20.3636Z" fill="#1E96FC"/>
</svg>
