<svg width="3777" height="4839" viewBox="0 0 3777 4839" fill="none" xmlns="http://www.w3.org/2000/svg">
<path d="M3748.75 1571.26C3623.62 811.886 3018.17 181.765 2259.34 36.3531C2182.65 20.1962 2105.96 12.1177 2029.27 0C1928.36 0 1827.45 0 1726.55 0C1722.51 8.07846 1714.44 8.07846 1706.36 8.07846C1431.89 36.3531 1173.57 121.177 931.391 262.55C249.252 658.395 -118.054 1478.36 35.3266 2253.89C103.944 2609.34 241.179 2936.52 426.85 3247.54C778.01 3837.27 1242.19 4334.1 1766.91 4778.41C1867.82 4863.24 1924.33 4859.2 2025.23 4774.37C2323.92 4523.94 2602.43 4253.31 2852.68 3954.41C3151.37 3602.99 3409.69 3223.31 3587.29 2795.15C3744.71 2399.3 3821.4 1995.38 3748.75 1571.26ZM1888 3174.84C1181.64 3174.84 604.448 2597.23 604.448 1890.36C604.448 1183.49 1181.64 605.885 1888 605.885C2594.36 605.885 3171.55 1183.49 3171.55 1890.36C3171.55 2597.23 2598.39 3174.84 1888 3174.84Z" fill="#ED1C24"/>
<path d="M1892.04 904.788C1351.17 904.788 907.173 1345.06 907.173 1886.32C907.173 2427.58 1347.13 2867.85 1883.96 2867.85C2424.83 2867.85 2868.83 2427.58 2868.83 1886.32C2868.83 1349.1 2432.9 908.827 1892.04 904.788ZM2416.76 2322.56C2416.76 2423.54 2356.21 2492.21 2267.41 2492.21C2178.62 2492.21 2114.03 2423.54 2114.03 2318.52C2114.03 2245.81 2114.03 2173.11 2114.03 2100.4C2114.03 2055.97 2097.89 2035.77 2053.49 2035.77C1944.51 2035.77 1831.49 2035.77 1722.51 2035.77C1678.11 2035.77 1661.97 2055.97 1661.97 2100.4C1661.97 2177.15 1661.97 2249.85 1661.97 2326.6C1661.97 2419.5 1597.38 2492.21 1508.59 2488.17C1419.79 2488.17 1359.24 2419.5 1359.24 2322.56C1359.24 2031.73 1359.24 1740.91 1359.24 1450.08C1359.24 1349.1 1423.82 1280.44 1508.59 1280.44C1597.38 1280.44 1657.93 1349.1 1661.97 1450.08C1661.97 1522.79 1661.97 1599.54 1661.97 1672.24C1661.97 1716.67 1678.11 1736.87 1722.51 1736.87C1831.49 1736.87 1944.51 1736.87 2053.49 1736.87C2097.89 1736.87 2114.03 1716.67 2114.03 1672.24C2114.03 1595.5 2114.03 1522.79 2114.03 1446.05C2114.03 1353.14 2178.62 1280.44 2267.41 1284.48C2356.21 1284.48 2416.76 1353.14 2416.76 1450.08C2416.76 1595.5 2416.76 1740.91 2416.76 1890.36C2416.76 2031.73 2416.76 2177.15 2416.76 2322.56Z" fill="#ED1C24"/>
</svg>
