<svg width="16" height="21" viewBox="0 0 16 21" fill="none" xmlns="http://www.w3.org/2000/svg">
<path d="M10.7 5.98V13H8.99V10.11H6.33V13H4.62V5.98H6.33V8.73H8.99V5.98H10.7Z" fill="#2199F8"/>
<path d="M7.66913 19.0585L8 19.3505L8.33087 19.0585C9.11706 18.3646 10.7819 16.8133 12.2539 14.8469C13.7149 12.8952 15.0455 10.4568 15.0455 8C15.0455 6.13143 14.3032 4.33939 12.9819 3.01811C11.6606 1.69683 9.86857 0.954546 8 0.954546C6.13143 0.954546 4.33939 1.69683 3.01811 3.01811C1.69683 4.33939 0.954545 6.13143 0.954545 8C0.954545 10.4568 2.2851 12.8952 3.74609 14.8469C5.2181 16.8133 6.88294 18.3646 7.66913 19.0585ZM8.2044 19.7568C8.17287 19.7835 8.14864 19.804 8.13228 19.8181C8.0941 19.8468 8.04781 19.8627 7.99999 19.8636C7.95218 19.8627 7.90591 19.8468 7.86773 19.8181C7.85137 19.804 7.82714 19.7835 7.79561 19.7568C7.38149 19.4061 5.70787 17.989 4.05746 15.9774C2.22166 13.7399 0.5 10.8662 0.5 8C0.5 6.01088 1.29018 4.10322 2.6967 2.6967C4.10322 1.29018 6.01088 0.5 8 0.5C9.98912 0.5 11.8968 1.29018 13.3033 2.6967C14.7098 4.10322 15.5 6.01088 15.5 8C15.5 10.8662 13.7783 13.7399 11.9425 15.9774C10.2921 17.989 8.61852 19.4061 8.2044 19.7568Z" stroke="#2199F8"/>
</svg>
