<svg width="20" height="20" viewBox="0 0 20 20" fill="none" xmlns="http://www.w3.org/2000/svg">
<path d="M18.947 6.30502C18.9369 5.54764 18.7951 4.79779 18.528 4.08902C18.2964 3.49117 17.9425 2.94822 17.4892 2.49485C17.0358 2.04148 16.4929 1.68767 15.895 1.45602C15.1953 1.19338 14.4562 1.05136 13.709 1.03602C12.747 0.993018 12.442 0.981018 10 0.981018C7.55801 0.981018 7.24501 0.981018 6.29001 1.03602C5.54317 1.05147 4.80436 1.19349 4.10501 1.45602C3.50707 1.68751 2.96403 2.04126 2.51064 2.49465C2.05725 2.94804 1.7035 3.49108 1.47201 4.08902C1.20884 4.78815 1.06713 5.52713 1.05301 6.27402C1.01001 7.23702 0.997009 7.54202 0.997009 9.98402C0.997009 12.426 0.997009 12.738 1.05301 13.694C1.06801 14.442 1.20901 15.18 1.47201 15.881C1.70389 16.4788 2.05791 17.0216 2.51145 17.4748C2.96499 17.928 3.50807 18.2816 4.10601 18.513C4.80344 18.7862 5.54238 18.9384 6.29101 18.963C7.25401 19.006 7.55901 19.019 10.001 19.019C12.443 19.019 12.756 19.019 13.711 18.963C14.4582 18.9483 15.1974 18.8066 15.897 18.544C16.4947 18.3121 17.0375 17.9582 17.4909 17.5049C17.9442 17.0515 18.2981 16.5087 18.53 15.911C18.793 15.211 18.934 14.473 18.949 13.724C18.992 12.762 19.005 12.457 19.005 10.014C19.003 7.57202 19.003 7.26202 18.947 6.30502ZM9.99401 14.602C7.44001 14.602 5.37101 12.533 5.37101 9.97902C5.37101 7.42502 7.44001 5.35602 9.99401 5.35602C11.2201 5.35602 12.396 5.84308 13.263 6.71006C14.1299 7.57704 14.617 8.75292 14.617 9.97902C14.617 11.2051 14.1299 12.381 13.263 13.248C12.396 14.115 11.2201 14.602 9.99401 14.602ZM14.801 6.26302C14.204 6.26302 13.723 5.78102 13.723 5.18502C13.723 5.04352 13.7509 4.90341 13.805 4.77268C13.8592 4.64195 13.9385 4.52317 14.0386 4.42311C14.1387 4.32306 14.2574 4.24369 14.3882 4.18954C14.5189 4.13539 14.659 4.10752 14.8005 4.10752C14.942 4.10752 15.0821 4.13539 15.2129 4.18954C15.3436 4.24369 15.4624 4.32306 15.5624 4.42311C15.6625 4.52317 15.7418 4.64195 15.796 4.77268C15.8501 4.90341 15.878 5.04352 15.878 5.18502C15.878 5.78102 15.396 6.26302 14.801 6.26302Z" fill="white"/>
<path d="M9.99403 12.982C11.6525 12.982 12.997 11.6375 12.997 9.97901C12.997 8.3205 11.6525 6.97601 9.99403 6.97601C8.33552 6.97601 6.99103 8.3205 6.99103 9.97901C6.99103 11.6375 8.33552 12.982 9.99403 12.982Z" fill="white"/>
</svg>
