<svg width="19" height="19" viewBox="0 0 19 19" fill="none" xmlns="http://www.w3.org/2000/svg">
<path fill-rule="evenodd" clip-rule="evenodd" d="M18.9995 10.2422V8.75781C18.9871 8.74345 18.9807 8.72712 18.9807 8.70782C18.9832 8.13465 18.8688 7.57931 18.7194 7.02991C18.1838 5.06046 17.1147 3.43254 15.5541 2.12783C14.7226 1.43291 13.7901 0.900331 12.7699 0.531091C11.9428 0.231486 11.0962 0.0122981 10.2069 0.0191046C10.2078 0.0232093 10.2088 0.0272352 10.21 0.0311824C10.0828 0.0430615 9.95507 0.0534556 9.83331 0H8.75781C8.65159 0.0194563 8.54411 0.0235494 8.43679 0.0276368C8.34207 0.031244 8.24747 0.0348467 8.15396 0.049001C5.72717 0.413786 3.72358 1.54675 2.15109 3.42066C1.04337 4.74022 0.354886 6.26569 0.073254 7.97033C0.0537538 8.0885 0.0468553 8.20768 0.0399601 8.32681C0.0323289 8.45865 0.0247016 8.59042 0 8.72069V10.2793C0.0150632 10.4007 0.0261897 10.5225 0.03732 10.6443C0.0580081 10.8708 0.0787096 11.0974 0.12473 11.3217C0.580587 13.5401 1.67346 15.3848 3.40581 16.8375C4.74121 17.9566 6.28252 18.652 8.00696 18.9322C8.11801 18.9503 8.22993 18.9562 8.34176 18.9621H8.34178C8.46868 18.9688 8.59545 18.9755 8.72069 19H10.2051C10.2249 18.9807 10.2491 18.9807 10.2739 18.9807C10.9866 18.9847 11.6731 18.8292 12.3448 18.6134C14.239 18.0041 15.8075 16.9197 17.0315 15.3472C18.067 14.0163 18.71 12.516 18.9505 10.846C18.964 10.7535 18.9677 10.66 18.9713 10.5666V10.5665C18.9756 10.458 18.9798 10.3494 18.9995 10.2422ZM4.927 5.56635C4.7701 6.2588 4.65131 6.94431 4.58697 7.63825C4.55084 8.0258 4.52559 8.41385 4.5053 8.80239C4.49985 8.9093 4.47907 8.94692 4.36127 8.94643C3.32928 8.94098 2.29729 8.94148 1.26579 8.94544C1.15739 8.94544 1.13512 8.91722 1.14354 8.8113C1.23263 7.69616 1.54 6.64486 2.0508 5.65148C2.07703 5.6005 2.10178 5.56387 2.17256 5.56437C2.90356 5.56674 3.63424 5.56659 4.37144 5.56643L4.927 5.56635ZM14.7648 5.57135L14.7647 5.57134C14.5346 5.56885 14.3037 5.56634 14.0718 5.56634C14.3247 6.65178 14.4558 7.7402 14.4964 8.8395C14.5003 8.94726 14.5523 8.94554 14.6135 8.94352L14.6136 8.94351C14.6221 8.94323 14.6307 8.94295 14.6395 8.94295L15.372 8.94267C16.1534 8.94222 16.9348 8.94177 17.7161 8.94592C17.8424 8.94641 17.8651 8.91127 17.8552 8.79198C17.7745 7.82384 17.5142 6.90619 17.1346 6.01328C16.9881 5.66879 16.8118 5.53268 16.4184 5.55396C15.8701 5.58335 15.3199 5.57737 14.7648 5.57135H14.7648ZM8.94257 7.66334V7.66339V7.66358C8.942 8.04268 8.94143 8.42191 8.94545 8.80088C8.94644 8.90977 8.92664 8.94689 8.80637 8.94639C7.78675 8.94095 6.76664 8.94243 5.74702 8.94491C5.651 8.94491 5.60596 8.93452 5.6119 8.81721C5.66585 7.76691 5.78761 6.7265 6.03905 5.70293C6.06479 5.59899 6.09746 5.56335 6.20635 5.56384C7.07154 5.5683 7.93672 5.56879 8.80191 5.56384C8.91427 5.56335 8.94694 5.5876 8.94545 5.70491C8.94005 6.08252 8.94094 6.46012 8.94182 6.83773C8.94215 6.97934 8.94248 7.12094 8.94248 7.26254L8.94298 7.26205C8.94298 7.39569 8.94277 7.52936 8.94257 7.66305V7.6631V7.66314V7.66319V7.66324V7.66329V7.66334ZM10.0569 6.85672V6.85677V6.85681V6.85686V6.85691V6.85696V6.857V6.85705V6.8571V6.85714V6.85719V6.85724C10.0567 6.99004 10.0565 7.12283 10.0565 7.25558L10.0569 7.25509C10.0569 7.39053 10.0571 7.52598 10.0574 7.66143V7.66166C10.0579 8.04535 10.0585 8.42904 10.0545 8.81272C10.0535 8.91716 10.0817 8.94537 10.1866 8.94537C11.2122 8.94141 12.2382 8.94191 13.2643 8.94438C13.3549 8.94488 13.3925 8.92953 13.387 8.82361C13.3336 7.77281 13.2123 6.73241 12.9619 5.70883C12.9337 5.5945 12.895 5.56282 12.7807 5.56331C11.9215 5.56876 11.0627 5.56925 10.2035 5.56331C10.0792 5.56282 10.052 5.59846 10.0535 5.71675C10.0582 6.0966 10.0576 6.47673 10.0569 6.85672ZM4.90653 13.3961H4.90645C4.90526 13.3821 4.90461 13.37 4.90402 13.3592L4.90402 13.3592C4.90295 13.3393 4.9021 13.3237 4.89861 13.3084C4.66697 12.276 4.54274 11.2296 4.50363 10.1729C4.49941 10.0555 4.44528 10.0557 4.36703 10.056L4.35416 10.0561L4.16307 10.0563C3.20765 10.0578 2.25222 10.0592 1.29679 10.0541C1.17008 10.0531 1.13247 10.0774 1.14385 10.2125C1.23542 11.2945 1.53338 12.3161 2.01646 13.2872C2.06398 13.3827 2.12536 13.3985 2.21989 13.398C2.66912 13.3951 3.11863 13.3954 3.56799 13.3958L4.01709 13.3961H4.90645L4.90653 13.397V13.3961ZM14.1621 13.0074C14.1388 13.1358 14.1154 13.2652 14.0919 13.3961L14.6447 13.396C15.3794 13.3959 16.1097 13.3957 16.8404 13.3981C16.9196 13.3986 16.9454 13.356 16.9746 13.2981C17.4685 12.3181 17.769 11.2841 17.8561 10.1888C17.8645 10.0834 17.8432 10.0542 17.7343 10.0542C16.7028 10.0586 15.6713 10.0591 14.6398 10.0537C14.524 10.0527 14.4993 10.0873 14.4948 10.1962C14.4656 10.8931 14.4107 11.5885 14.2924 12.277C14.2504 12.5195 14.2066 12.7615 14.1621 13.0072L14.1621 13.0074ZM8.94293 11.7424C8.94293 11.8729 8.94273 12.0035 8.94253 12.134V12.1343V12.1343V12.1343V12.1344V12.1344V12.1344V12.1344V12.1345V12.1345C8.94196 12.5042 8.94139 12.8738 8.94541 13.2431C8.94689 13.356 8.92809 13.4005 8.7989 13.3995C7.93421 13.3931 7.06951 13.3936 6.20482 13.3995C6.08752 13.4005 6.05237 13.3589 6.02664 13.2525C5.78559 12.2403 5.66333 11.2128 5.61186 10.1754C5.60641 10.0675 5.6475 10.0556 5.73609 10.0556C6.76165 10.0576 7.78671 10.0585 8.81227 10.0546C8.91571 10.0546 8.9464 10.0808 8.94541 10.1862C8.94139 10.5694 8.94196 10.9525 8.94253 11.3359V11.336V11.336V11.3361V11.3362V11.3363V11.3363V11.3364V11.3365V11.3366C8.94273 11.472 8.94293 11.6074 8.94293 11.7429V11.7424ZM10.0573 11.3096V11.3097V11.3097V11.3098V11.3098V11.3099V11.3099V11.31V11.31C10.057 11.4449 10.0568 11.5798 10.0568 11.7147L10.0563 11.7142C10.0563 11.8519 10.0567 11.9896 10.0572 12.1274V12.1274V12.1275V12.1275V12.1276V12.1276V12.1277V12.1278V12.1278V12.128V12.1281C10.0584 12.4843 10.0596 12.8406 10.0528 13.1966C10.0498 13.3491 10.0741 13.4035 10.2468 13.4011C11.0808 13.3897 11.9148 13.3902 12.7484 13.4011C12.9082 13.4035 12.9533 13.3486 12.9854 13.2075C13.2131 12.2117 13.3369 11.2029 13.3869 10.1838C13.3923 10.069 13.3517 10.0546 13.2537 10.0546C12.2346 10.0576 11.2155 10.0586 10.1963 10.0536C10.083 10.0531 10.0523 10.0794 10.0538 10.1952C10.0589 10.5665 10.0581 10.9381 10.0573 11.3095V11.3096ZM8.92612 17.78C8.50491 17.6414 8.16685 17.38 7.86839 17.0657C7.1799 16.3416 6.75869 15.4631 6.41469 14.5474C6.43824 14.5026 6.46956 14.5061 6.49757 14.5092C6.50488 14.5101 6.51197 14.5109 6.51864 14.5107C7.02474 14.5098 7.53106 14.5097 8.03731 14.5095H8.03734H8.03737H8.03739H8.03742H8.03745H8.03748H8.03751L8.79693 14.5093C8.80594 14.5093 8.81483 14.509 8.82352 14.5088C8.8917 14.5069 8.94729 14.5054 8.94641 14.6231C8.9422 15.3578 8.94222 16.0923 8.94223 16.8269V16.8274C8.94224 17.1299 8.94224 17.4324 8.94196 17.7349C8.94196 17.7417 8.93907 17.7485 8.93486 17.7584C8.93231 17.7644 8.92929 17.7715 8.92612 17.7805V17.78ZM10.0561 17.8131C11.4905 17.1369 12.0528 15.8441 12.6086 14.5092C12.3995 14.5092 12.1926 14.5094 11.9873 14.5096H11.9861H11.9849H11.9837H11.9824H11.9812H11.9812H11.9811H11.981H11.981H11.9809H11.9809C11.366 14.5101 10.7661 14.5107 10.1665 14.5062C10.0551 14.5053 10.0553 14.5562 10.0556 14.6287L10.0556 14.6404C10.0563 15.0386 10.0562 15.4365 10.0562 15.8346V15.8346V15.8347V15.8347V15.8348V15.8348V15.8349L10.0561 16.2332V17.8131ZM8.94315 1.18449V2.09719V4.30372C8.94315 4.31456 8.94371 4.32547 8.94427 4.3362C8.94757 4.39996 8.95055 4.45744 8.83277 4.45617C8.2368 4.45098 7.64055 4.45161 7.02911 4.45226H7.029H7.02878H7.02856H7.02834H7.02812H7.02791C6.82218 4.45248 6.61473 4.4527 6.405 4.4527C6.95687 3.13215 7.52261 1.85614 8.94364 1.18399L8.94315 1.18449ZM10.9478 1.7556C10.6924 1.52099 10.4098 1.32894 10.0762 1.21857C10.0726 1.22691 10.0691 1.23358 10.0663 1.23921C10.0613 1.24895 10.0579 1.25554 10.0579 1.26212C10.0576 1.55515 10.0576 1.84821 10.0575 2.1413V2.14131V2.14132V2.14134V2.14135C10.0574 2.87404 10.0573 3.60691 10.0534 4.33978C10.0529 4.45214 10.1024 4.45362 10.1851 4.45362C10.5745 4.45214 10.9639 4.45232 11.3533 4.45251L11.7427 4.45263H12.5847C12.5646 4.40103 12.546 4.35191 12.5281 4.30455C12.4948 4.21655 12.4638 4.13464 12.4297 4.05419C12.0699 3.20187 11.6403 2.3936 10.9478 1.7556ZM16.2214 14.5092L16.221 14.5097C16.018 14.5097 15.8174 14.5099 15.6187 14.5102C15.0295 14.5108 14.4567 14.5114 13.8842 14.5062C13.7724 14.5049 13.7536 14.5629 13.7304 14.6344L13.7224 14.6587C13.3991 15.6085 12.9814 16.5108 12.3795 17.3201L12.3767 17.3237C12.368 17.3345 12.3557 17.3498 12.3934 17.3711C13.9286 16.795 15.198 15.8503 16.221 14.5097H16.2214V14.5092ZM2.77765 14.5092C3.8032 15.8515 5.07426 16.7984 6.67298 17.3943C6.02161 16.5192 5.58407 15.5941 5.26482 14.6107C5.23611 14.5221 5.18513 14.5072 5.10247 14.5077C4.70861 14.5099 4.31474 14.5097 3.92088 14.5094L3.52702 14.5092H2.77765ZM12.3715 1.63931C13.9113 2.19564 15.171 3.13012 16.1688 4.41999C16.1526 4.46219 16.1224 4.45805 16.0946 4.45425C16.0869 4.45319 16.0793 4.45216 16.0723 4.45216C15.7909 4.45274 15.5095 4.45279 15.2281 4.45284C14.7859 4.45293 14.3436 4.45301 13.9014 4.45513C13.8024 4.45562 13.7515 4.43682 13.7158 4.3304C13.3946 3.37265 12.9694 2.46539 12.371 1.63931H12.3715ZM6.66171 1.6081C5.08625 2.1976 3.82708 3.13109 2.80548 4.45313C3.00519 4.45313 3.20242 4.4528 3.39781 4.45247C3.95734 4.45153 4.50175 4.45061 5.04616 4.45758C5.19514 4.45956 5.2585 4.4165 5.30502 4.27494C5.57329 3.45727 5.93511 2.68216 6.4167 1.96645C6.43957 1.93259 6.46298 1.89927 6.48638 1.86594C6.50198 1.84373 6.51758 1.82152 6.53302 1.79916C6.55049 1.77345 6.56783 1.74762 6.58841 1.71696C6.60865 1.68683 6.63202 1.65203 6.66171 1.6081Z" fill="#1E96FC"/>
</svg>
