<svg width="26" height="32" viewBox="0 0 26 32" fill="none" xmlns="http://www.w3.org/2000/svg">
<path d="M12.8 16C11.04 16 9.6 14.56 9.6 12.8C9.6 11.04 11.04 9.6 12.8 9.6C14.56 9.6 16 11.04 16 12.8C16 14.56 14.56 16 12.8 16ZM22.4 13.12C22.4 7.312 18.16 3.2 12.8 3.2C7.44 3.2 3.2 7.312 3.2 13.12C3.2 16.864 6.32 21.824 12.8 27.744C19.28 21.824 22.4 16.864 22.4 13.12ZM12.8 0C19.52 0 25.6 5.152 25.6 13.12C25.6 18.432 21.328 24.72 12.8 32C4.272 24.72 0 18.432 0 13.12C0 5.152 6.08 0 12.8 0Z" fill="#1E96FC"/>
</svg>
