<svg width="18" height="18" viewBox="0 0 18 18" fill="none" xmlns="http://www.w3.org/2000/svg">
<path d="M3.195 14.0625C4.14 13.4025 5.0775 12.8962 6.0075 12.5437C6.9375 12.1912 7.935 12.015 9 12.015C10.065 12.015 11.0662 12.1912 12.0037 12.5437C12.9412 12.8962 13.8825 13.4025 14.8275 14.0625C15.4875 13.2525 15.9563 12.435 16.2337 11.61C16.5112 10.785 16.65 9.915 16.65 9C16.65 6.825 15.9187 5.00625 14.4562 3.54375C12.9937 2.08125 11.175 1.35 9 1.35C6.825 1.35 5.00625 2.08125 3.54375 3.54375C2.08125 5.00625 1.35 6.825 1.35 9C1.35 9.915 1.4925 10.785 1.7775 11.61C2.0625 12.435 2.535 13.2525 3.195 14.0625ZM9 9.675C8.13 9.675 7.39875 9.37875 6.80625 8.78625C6.21375 8.19375 5.9175 7.4625 5.9175 6.5925C5.9175 5.7225 6.21375 4.99125 6.80625 4.39875C7.39875 3.80625 8.13 3.51 9 3.51C9.87 3.51 10.6012 3.80625 11.1937 4.39875C11.7863 4.99125 12.0825 5.7225 12.0825 6.5925C12.0825 7.4625 11.7863 8.19375 11.1937 8.78625C10.6012 9.37875 9.87 9.675 9 9.675ZM9 18C7.77 18 6.6075 17.7638 5.5125 17.2912C4.4175 16.8187 3.46125 16.1737 2.64375 15.3562C1.82625 14.5387 1.18125 13.5825 0.70875 12.4875C0.23625 11.3925 0 10.23 0 9C0 7.755 0.23625 6.58875 0.70875 5.50125C1.18125 4.41375 1.82625 3.46125 2.64375 2.64375C3.46125 1.82625 4.4175 1.18125 5.5125 0.70875C6.6075 0.23625 7.77 0 9 0C10.245 0 11.4112 0.23625 12.4987 0.70875C13.5862 1.18125 14.5387 1.82625 15.3562 2.64375C16.1737 3.46125 16.8187 4.41375 17.2912 5.50125C17.7638 6.58875 18 7.755 18 9C18 10.23 17.7638 11.3925 17.2912 12.4875C16.8187 13.5825 16.1737 14.5387 15.3562 15.3562C14.5387 16.1737 13.5862 16.8187 12.4987 17.2912C11.4112 17.7638 10.245 18 9 18ZM9 16.65C9.825 16.65 10.6312 16.53 11.4187 16.29C12.2062 16.05 12.9825 15.63 13.7475 15.03C12.9825 14.49 12.2025 14.0775 11.4075 13.7925C10.6125 13.5075 9.81 13.365 9 13.365C8.19 13.365 7.3875 13.5075 6.5925 13.7925C5.7975 14.0775 5.0175 14.49 4.2525 15.03C5.0175 15.63 5.79375 16.05 6.58125 16.29C7.36875 16.53 8.175 16.65 9 16.65ZM9 8.325C9.51 8.325 9.92625 8.16375 10.2487 7.84125C10.5712 7.51875 10.7325 7.1025 10.7325 6.5925C10.7325 6.0825 10.5712 5.66625 10.2487 5.34375C9.92625 5.02125 9.51 4.86 9 4.86C8.49 4.86 8.07375 5.02125 7.75125 5.34375C7.42875 5.66625 7.2675 6.0825 7.2675 6.5925C7.2675 7.1025 7.42875 7.51875 7.75125 7.84125C8.07375 8.16375 8.49 8.325 9 8.325Z" fill="#ED1C24"/>
</svg>
