<svg width="1900" height="444" viewBox="0 0 1900 444" fill="none" xmlns="http://www.w3.org/2000/svg">
<path d="M249.982 33.5905C239.355 36.3737 232.65 43.0787 230.246 53.4526C223.541 82.4234 266.175 96.8456 279.838 70.1519C283.634 62.6878 283.128 52.061 278.573 44.8499C273.007 36.1207 259.976 30.9338 249.982 33.5905Z" fill="#231F20"/>
<path d="M73.5024 39.9161C31.248 49.1514 5.94598 76.8571 6.07249 114.051C6.07249 133.028 11.7654 147.576 23.7839 159.215C37.3205 172.246 51.6161 178.318 88.0511 186.288C124.612 194.385 133.721 197.548 141.565 205.012C147.637 210.578 149.408 214.753 149.408 222.976C149.408 241.573 133.595 253.971 107.281 255.869C81.093 257.767 56.8031 245.369 51.4896 227.404L49.845 221.585L24.9225 221.205L0 220.952L0.885571 228.163C3.03624 246.001 10.5003 260.676 23.1514 272.189C40.4832 288.003 65.6588 295.593 100.576 295.593C139.667 295.467 168.132 285.219 184.705 265.231C196.091 251.568 201.278 236.766 201.278 218.169C201.278 197.168 196.597 184.391 184.325 172.246C171.042 159.089 154.342 152.257 114.745 143.654C87.292 137.708 77.9302 134.799 70.0866 129.485C61.3574 123.539 58.3212 118.479 58.3212 109.37C58.3212 96.7192 66.0383 86.4719 79.3219 81.285C92.4789 76.3511 116.263 77.2366 128.155 83.1826C138.529 88.496 148.143 100.894 148.143 109.244V112.153H172.939H197.609L196.85 106.081C192.548 73.3148 171.168 50.543 136.125 41.1812C121.45 37.2594 88.5571 36.6269 73.5024 39.9161Z" fill="#231F20"/>
<path d="M316.4 167.186V293.063H342.335H368.27V167.186V41.308H342.335H316.4V167.186Z" fill="#231F20"/>
<path d="M743.243 103.804C720.471 108.105 704.531 117.088 694.031 131.257C688.338 138.974 683.277 152.131 683.277 159.089V162.758H705.922H728.568L729.453 159.089C730.718 153.396 738.056 145.679 745.52 142.516C754.249 138.721 768.545 138.341 777.148 141.631C788.913 146.185 795.365 158.33 794.353 173.511L793.974 179.837L778.792 180.722C745.267 182.746 730.212 184.264 720.977 186.668C692.512 194.006 676.699 210.326 674.928 234.236C672.271 268.267 695.296 292.304 732.237 294.075C746.153 294.708 751.846 293.696 765.888 288.509C774.491 285.22 785.244 276.364 791.823 267.129L794.48 263.333L794.606 277.502V291.798H818.643H842.806L842.427 219.94L842.047 148.209L837.999 139.606C830.155 123.034 813.203 110.382 792.076 105.196C780.69 102.412 754.502 101.653 743.243 103.804ZM793.847 220.952C793.721 233.73 791.064 240.688 783.979 247.646C774.364 256.881 758.804 261.689 746.532 259.032C731.351 255.743 724.393 248.532 724.393 236.007C724.393 219.434 735.779 213.235 770.569 210.958C796.377 209.313 793.974 208.301 793.847 220.952Z" fill="#231F20"/>
<path d="M974.262 103.296C954.526 106.333 939.472 116.2 930.489 132.014C928.465 135.683 926.441 138.719 925.935 138.719C925.303 138.719 924.923 131.255 924.923 122.273V105.826H900.886H876.849V198.811V291.796H901.392H926.062L926.441 233.222C926.821 175.281 926.821 174.775 929.857 167.31C933.146 159.214 940.104 151.497 948.327 147.195C952.376 145.045 955.538 144.539 964.774 144.539C977.298 144.539 983.244 146.689 989.57 153.521C998.931 163.515 999.564 168.955 999.564 235.752V291.796H1024.23H1048.9V225.632C1048.9 152.762 1048.52 149.219 1041.19 134.291C1034.1 119.869 1021.32 109.369 1005.76 105.447C996.401 102.917 982.612 102.031 974.262 103.296Z" fill="#231F20"/>
<path d="M1146.32 103.297C1134.55 105.195 1119.24 110.635 1111.4 115.695C1095.59 126.069 1087.36 138.847 1083.82 158.582L1083.19 162.757H1105.71H1128.35L1131.89 155.546C1136.45 146.69 1143.03 142.136 1154.54 139.985C1170.61 136.949 1185.53 142.516 1191.48 153.775C1193.88 158.329 1194.39 161.366 1194.39 169.715V180.089L1176.43 180.975C1134.8 182.999 1120.51 185.276 1104.95 192.74C1093.94 197.927 1084.71 206.656 1079.9 216.524C1077.11 222.217 1076.23 225.886 1075.72 235.374C1074.71 254.604 1079.65 267.001 1093.06 279.526C1104.69 290.153 1120 294.96 1140.24 294.075C1161.37 293.063 1177.82 285.598 1188.32 272.315C1191.1 268.773 1193.88 265.61 1194.52 265.483C1195.15 265.23 1195.65 271.05 1195.65 278.387V291.797H1219.69H1243.86L1243.48 220.572L1243.1 149.474L1238.42 139.606C1230.32 122.653 1214.63 110.761 1193.12 105.195C1183.51 102.791 1156.44 101.653 1146.32 103.297ZM1194.39 220.572C1194.39 233.856 1191.35 241.826 1183.38 248.911C1169.59 261.435 1143.03 263.08 1131.26 252.2C1122.79 244.356 1122.79 229.175 1131.26 220.952C1138.6 213.994 1148.09 212.223 1191.61 209.692C1194.26 209.566 1194.39 209.945 1194.39 220.572Z" fill="#231F20"/>
<path d="M231.643 198.811V291.796H256.313H280.982V198.811V105.826H256.313H231.643V198.811Z" fill="#231F20"/>
<path d="M389.777 107.092C389.777 107.724 397.62 138.087 407.362 174.395C416.977 210.83 427.856 252.072 431.525 266.115L438.357 291.796H464.671C486.304 291.796 491.238 291.417 491.744 290.025C492.124 289.013 499.714 259.536 508.57 224.493C517.426 189.45 525.143 160.858 525.775 160.858C527.167 160.858 525.902 156.557 543.487 226.011C551.583 257.639 558.668 285.471 559.427 287.748L560.819 291.796L587.512 291.543L614.332 291.164L620.784 266.494C624.453 252.958 635.207 212.222 644.695 176.04C654.31 139.858 662.406 109.242 662.786 107.977C663.292 105.953 661.521 105.826 638.496 105.826C624.833 105.826 613.7 106.206 613.7 106.712C613.7 107.092 607.501 138.213 599.784 175.66C592.193 213.107 585.868 244.102 585.868 244.608C585.868 245.114 585.362 244.988 584.729 244.229C583.97 243.596 576.253 213.234 567.524 176.672C558.794 140.111 551.33 109.242 550.951 107.977C550.318 106.08 548.041 105.826 526.408 105.826H502.624L499.208 119.996C497.31 127.839 493.642 143.4 490.985 154.533C482.509 189.956 473.527 227.656 471.882 235.12C470.364 242.204 468.846 246.126 467.834 244.988C467.581 244.608 461.508 215.258 454.424 179.835C447.339 144.286 440.887 113.164 440.254 110.507L438.989 105.826H414.446C399.265 105.826 389.777 106.333 389.777 107.092Z" fill="#231F20"/>
<path d="M9.86262 345.817C9.35658 346.196 8.97705 363.022 8.97705 383.137V419.572H12.1398H15.3026V401.228V382.884H32.3814H49.4603V379.721V376.559H32.3814H15.3026V363.908V351.257H33.6465H51.9905V348.094V344.931H31.3693C19.9834 344.931 10.2422 345.311 9.86262 345.817Z" fill="#00296B"/>
<path d="M263.261 363.275V379.088L257.442 374.913C239.351 362.262 214.428 380.1 220.248 401.734C224.929 419.445 246.562 426.277 260.225 414.258C268.448 407.047 268.828 405.402 269.334 374.913L269.84 347.461H266.551H263.261V363.275ZM253.647 378.962C260.099 382.504 262.629 387.311 262.629 395.535C262.629 403.884 260.099 408.439 253.394 412.36C241.375 419.445 225.308 409.957 225.308 395.914C225.308 380.353 240.237 371.371 253.647 378.962Z" fill="#00296B"/>
<path d="M588.404 383.517C588.404 418.687 588.404 419.572 590.934 419.572C593.338 419.572 593.465 418.687 593.465 403.252C593.465 388.451 593.718 386.68 596.374 382.758C598.146 380.101 601.182 377.824 604.345 376.685C608.899 375.167 609.911 375.167 614.086 377.191C621.55 380.734 623.068 384.782 623.574 403.379C624.08 418.56 624.207 419.572 626.61 419.572C629.014 419.572 629.141 418.813 628.635 402.24C628.382 387.439 627.875 384.149 625.725 380.354C620.285 371.245 606.622 367.829 598.652 373.649C596.627 375.294 594.477 376.559 594.097 376.559C593.718 376.559 593.465 369.98 593.465 362.01C593.465 348.347 593.338 347.461 590.934 347.461C588.404 347.461 588.404 348.347 588.404 383.517Z" fill="#00296B"/>
<path d="M91.4661 353.661C88.9359 355.179 90.201 359.48 93.2372 359.86C96.4 360.366 98.2976 356.824 96.147 354.293C94.5023 352.269 93.7433 352.143 91.4661 353.661Z" fill="#00296B"/>
<path d="M312.855 353.661C310.198 355.306 311.59 359.481 314.879 359.86C318.295 360.366 319.94 357.077 317.663 354.42C315.891 352.27 315.132 352.143 312.855 353.661Z" fill="#00296B"/>
<path d="M937.566 354.42C935.289 357.077 936.934 360.366 940.35 359.86C943.639 359.481 945.031 355.306 942.374 353.661C940.097 352.143 939.338 352.27 937.566 354.42Z" fill="#00296B"/>
<path d="M151.56 373.269C145.994 376.053 145.614 376.053 145.614 373.902C145.614 372.131 144.729 371.498 142.451 371.498H139.289V395.535V419.572H142.451H145.614V403.126C145.614 384.149 146.753 380.607 153.964 377.191C159.657 374.535 166.235 375.926 171.043 381.113C173.952 384.149 174.079 385.288 174.458 401.987L174.964 419.572H178.001C181.037 419.572 181.037 419.446 181.037 407.048C181.037 389.589 179.392 381.999 174.458 376.938C170.663 373.016 164.338 370.233 159.404 370.233C158.392 370.233 154.723 371.625 151.56 373.269Z" fill="#00296B"/>
<path d="M373.076 373.143C367.383 376.053 367.004 376.053 367.004 373.902C367.004 372.131 366.118 371.498 363.841 371.498H360.678V395.535V419.572H363.841H367.004V403.126C367.004 384.149 368.142 380.607 375.353 377.191C381.046 374.535 387.625 375.926 392.432 381.113C395.342 384.149 395.469 385.288 395.848 401.987L396.354 419.572H399.517H402.68L402.174 402.746C401.541 383.896 400.023 378.962 393.191 374.408C386.613 369.98 380.034 369.474 373.076 373.143Z" fill="#00296B"/>
<path d="M457.592 372.004C451.772 374.155 446.332 379.215 443.549 384.782C441.145 389.969 441.019 400.595 443.422 406.035C446.459 413.5 457.465 420.837 465.688 420.837C469.99 420.837 477.201 418.054 480.996 414.891L485.044 411.475L484.412 419.952C484.032 427.163 483.4 428.934 480.363 432.097C474.923 437.789 465.815 439.561 456.2 436.777C450.254 435.006 448.736 434.88 447.85 436.271C446.079 439.055 446.459 439.434 454.555 441.711C471.887 446.519 486.562 439.687 489.852 425.391C490.611 421.596 491.117 412.361 490.864 403.758C490.484 391.487 489.852 387.565 487.701 383.517C482.514 373.649 468.092 368.082 457.592 372.004ZM475.809 378.962C491.623 389.969 484.538 415.018 465.688 414.765C444.181 414.385 439.501 384.276 459.995 377.191C465.815 375.293 471.255 375.799 475.809 378.962Z" fill="#00296B"/>
<path d="M684.17 372.131C666.458 378.33 662.41 402.746 676.959 414.891C680.628 418.054 687.839 420.837 692.14 420.837C696.315 420.837 703.652 418.054 707.195 415.144C711.876 411.096 712.382 411.222 712.382 415.777C712.382 418.813 712.888 419.572 715.038 419.572C717.569 419.572 717.695 419.066 717.315 403.379C716.809 388.071 716.556 386.806 713.267 381.746C710.737 378.077 707.701 375.42 703.146 373.269C695.682 369.854 691.128 369.601 684.17 372.131ZM697.453 376.559C706.942 379.215 713.267 390.222 711.116 400.216C709.725 406.035 702.64 413.247 697.074 414.385C688.092 416.283 679.742 412.361 675.694 404.391C672.531 398.318 672.531 393.891 675.567 387.312C678.224 381.366 680.375 379.342 686.7 377.065C692.646 375.04 691.887 375.04 697.453 376.559Z" fill="#00296B"/>
<path d="M776.259 371.751C769.934 373.902 764.114 379.088 761.584 384.655C759.56 389.209 759.18 393.258 759.18 416.662C759.18 442.723 759.307 443.609 761.71 443.609C764.114 443.609 764.241 442.723 764.241 427.795C764.241 419.066 764.62 411.981 765 411.981C765.379 411.981 767.403 413.373 769.554 415.144C784.735 427.921 808.519 416.029 808.519 395.535C808.519 378.709 791.82 366.311 776.259 371.751ZM794.223 379.215C798.525 381.872 803.459 390.601 803.459 395.661C803.459 400.722 798.145 409.83 793.717 412.361C785.115 417.295 773.096 414.385 768.036 406.288C763.988 399.836 763.608 393.764 766.644 387.438C772.211 376.179 783.597 372.763 794.223 379.215Z" fill="#00296B"/>
<path d="M865.083 371.498C859.263 373.269 852.685 379.088 850.155 384.655C848.131 389.209 847.751 393.258 847.751 416.662C847.751 442.723 847.877 443.609 850.281 443.609C852.685 443.609 852.811 442.723 852.811 427.795C852.811 419.066 853.191 411.981 853.57 411.981C853.95 411.981 855.974 413.373 858.125 415.144C873.306 427.921 897.09 416.029 897.09 395.535C897.09 378.835 880.897 366.817 865.083 371.498ZM882.541 379.088C894.307 386.3 894.433 404.644 882.668 411.855C866.348 421.975 846.992 404.644 855.215 387.438C860.655 376.305 872.167 372.763 882.541 379.088Z" fill="#00296B"/>
<path d="M1000.06 372.004C997.786 373.016 995.635 374.408 995.255 375.167C993.864 377.444 991.966 376.812 991.966 374.028C991.966 372.384 991.081 371.498 989.436 371.498C987.032 371.498 986.906 372.384 986.906 395.535C986.906 418.687 987.032 419.572 989.436 419.572C991.84 419.572 991.966 418.687 991.966 403.252C991.966 388.451 992.219 386.68 994.876 382.758C996.647 380.101 999.683 377.824 1002.85 376.685C1007.4 375.167 1008.41 375.167 1012.59 377.191C1020.05 380.734 1021.57 384.782 1022.08 403.379C1022.58 418.56 1022.71 419.572 1025.11 419.572C1027.52 419.572 1027.64 418.813 1027.14 402.114C1026.88 387.439 1026.38 384.149 1024.23 380.354C1019.55 372.384 1007.91 368.462 1000.06 372.004Z" fill="#00296B"/>
<path d="M1084.31 371.626C1073.81 374.788 1066.6 384.403 1066.6 395.536C1066.6 416.031 1089.38 427.543 1106.07 415.525C1110.88 411.982 1111.14 411.476 1109.11 409.958C1107.09 408.566 1106.07 408.82 1102.03 411.476C1093.04 417.422 1080.9 415.145 1075.59 406.542C1070.4 398.066 1070.4 398.066 1094.56 398.066H1116.32L1115.69 392.5C1113.92 377.445 1098.74 367.324 1084.31 371.626ZM1101.39 379.09C1105.44 381.62 1109.62 387.692 1109.62 390.982C1109.62 392.753 1107.21 393.006 1091.27 393.006C1074.57 393.006 1072.93 392.753 1072.93 390.729C1072.93 388.957 1078.5 379.09 1079.63 379.09C1079.76 379.09 1082.16 378.204 1084.95 377.192C1090.64 375.168 1095.83 375.8 1101.39 379.09Z" fill="#00296B"/>
<path d="M1163.01 371.625C1158.33 373.017 1153.91 379.089 1153.91 384.15C1153.91 388.957 1157.07 392.626 1164.41 396.295C1173.01 400.596 1175.41 402.873 1175.41 406.542C1175.41 413.88 1165.29 418.055 1157.45 414.006C1154.54 412.488 1154.03 412.488 1153.27 414.259C1152.26 416.916 1155.3 419.193 1161.62 420.205C1172.63 422.103 1180.47 416.283 1180.47 406.542C1180.35 399.711 1178.58 397.56 1168.83 392.5C1161.12 388.451 1160.86 388.072 1160.86 383.391C1160.86 379.469 1161.5 378.204 1164.03 376.812C1166.81 375.421 1172.25 375.294 1177.82 376.686C1178.83 376.939 1179.84 376.18 1180.22 375.041C1180.47 373.523 1179.33 372.511 1175.79 371.625C1170.23 369.981 1168.71 369.981 1163.01 371.625Z" fill="#00296B"/>
<path d="M1228.92 371.625C1220.94 373.902 1217.15 383.77 1221.7 390.222C1222.72 391.74 1226.64 394.523 1230.18 396.294C1233.85 398.192 1237.77 400.469 1239.04 401.608C1242.2 404.391 1241.69 409.072 1237.9 412.867C1234.61 416.156 1234.61 416.156 1221.58 414.259C1220.19 414.006 1218.92 414.765 1218.67 415.903C1218.29 418.054 1225.5 420.837 1231.57 420.837C1239.54 420.837 1246.25 414.512 1246.25 406.795C1246.25 400.596 1242.45 396.168 1233.85 391.993C1229.8 389.969 1226.38 387.438 1225.88 385.92C1223.48 379.215 1231.95 373.649 1240.55 376.179C1243.97 377.318 1244.98 377.191 1245.49 375.673C1246.63 372.89 1246.63 373.016 1241.57 371.625C1236 369.98 1234.35 369.98 1228.92 371.625Z" fill="#00296B"/>
<path d="M89.9507 395.535V419.572H93.1134H96.2762V395.535V371.498H93.1134H89.9507V395.535Z" fill="#00296B"/>
<path d="M312.602 395.535C312.602 418.687 312.729 419.572 315.132 419.572C317.536 419.572 317.662 418.687 317.662 395.535C317.662 372.384 317.536 371.498 315.132 371.498C312.729 371.498 312.602 372.384 312.602 395.535Z" fill="#00296B"/>
<path d="M937.568 395.535C937.568 418.687 937.694 419.572 940.098 419.572C942.502 419.572 942.628 418.687 942.628 395.535C942.628 372.384 942.502 371.498 940.098 371.498C937.694 371.498 937.568 372.384 937.568 395.535Z" fill="#00296B"/>
<path d="M1689.46 0.66384C1689.46 0.33192 1689.46 0 1689.46 0C1697.1 0 1705.06 0 1712.7 0C1712.7 0.33192 1712.7 0.66384 1712.7 0.66384C1711.7 1.99152 1710.37 2.32344 1708.71 2.32344C1703.4 2.65536 1698.09 2.65536 1693.11 2.32344C1691.79 1.99152 1690.46 1.99152 1689.46 0.66384Z" fill="#89C8FA"/>
<path d="M1689.47 0.664001C1697.43 0.664001 1705.07 0.664001 1713.03 0.664001C1736.6 1.65976 1759.17 7.3024 1780.74 16.5962C1795.68 23.2346 1809.95 31.2006 1822.9 41.1582C1840.16 54.1031 1855.09 69.3714 1866.38 87.627C1883.97 115.84 1895.59 146.045 1898.57 179.237C1902.23 223.05 1892.6 263.213 1870.36 301.052C1860.07 318.311 1847.46 333.58 1832.19 346.525C1800.66 373.41 1764.48 389.674 1723.32 394.321C1702.41 396.645 1681.83 395.649 1661.25 391.666C1659.92 391.334 1658.6 391.334 1657.6 391.334C1654.95 392.33 1652.62 391.002 1649.97 390.338C1632.71 386.023 1616.44 379.053 1600.84 370.091C1599.18 369.095 1597.52 368.099 1596.53 366.44C1590.55 362.457 1584.58 358.474 1578.94 354.159C1577.28 354.159 1576.28 353.495 1574.95 352.499C1560.68 341.214 1548.73 327.605 1537.78 313.001C1537.11 312.005 1535.79 310.677 1536.45 309.018C1530.81 299.06 1524.5 289.434 1519.85 278.813C1512.88 262.881 1508.24 246.285 1505.25 229.357C1504.92 228.029 1505.25 227.033 1505.91 226.37C1507.24 224.71 1508.9 224.71 1510.56 224.71C1529.48 224.71 1548.73 224.378 1567.65 224.71C1568.31 224.71 1569.31 224.71 1569.97 225.042C1572.3 225.706 1572.63 227.697 1573.29 229.357C1575.95 238.983 1579.6 248.276 1583.58 257.238C1584.91 261.221 1587.23 264.872 1589.56 268.192C1606.15 294.081 1629.72 311.009 1658.26 321.631C1694.11 333.58 1728.96 330.924 1762.49 313.665C1771.45 309.018 1780.41 303.707 1787.71 296.737C1802.32 282.796 1815.93 267.528 1823.56 248.276C1833.19 223.05 1836.84 196.829 1830.53 170.275C1825.22 146.709 1814.6 126.13 1797.67 108.538C1781.41 91.6101 1762.49 78.9971 1739.92 72.3587C1709.71 63.065 1679.84 64.0607 1650.63 76.6737C1611.13 93.6016 1585.57 123.142 1573.62 163.969C1572.96 165.96 1572.63 168.616 1570.31 169.611C1567.98 170.275 1565.66 170.275 1563 170.275C1546.08 170.275 1529.15 170.275 1512.22 170.275C1509.56 170.275 1506.91 170.607 1504.92 168.616C1513.22 117.5 1537.11 75.6779 1577.61 43.4817C1610.14 17.26 1647.64 2.98744 1689.47 0.664001Z" fill="#2198F7"/>
<path d="M1536.77 309.35C1548.72 326.61 1563 341.546 1579.26 354.491C1556.69 371.087 1531.13 381.377 1503.58 386.355C1459.77 394.321 1418.28 387.683 1378.78 366.772C1350.9 351.836 1328 330.925 1310.4 304.371C1285.84 267.86 1275.89 227.034 1279.87 183.552C1284.18 132.437 1306.42 89.9508 1344.92 56.0949C1373.47 31.2009 1406.66 16.5964 1444.17 11.6176C1482.34 6.30692 1522.83 12.9453 1558.35 32.1967C1556.03 34.1882 1553.7 36.1797 1551.38 37.8393C1538.1 48.7927 1527.15 61.7376 1519.18 77.0059C1517.85 79.9932 1516.2 80.3251 1513.21 79.3293C1466.74 63.7291 1423.92 71.0313 1386.08 102.232C1360.86 122.811 1346.25 150.028 1342.27 182.556C1337.62 218.072 1346.25 250.268 1368.16 278.813C1388.07 304.371 1414.63 319.639 1446.16 325.282C1477.36 330.925 1506.57 325.614 1534.12 310.014C1535.11 310.014 1535.78 309.682 1536.77 309.35Z" fill="#ED1C24"/>
<path d="M1571.3 226.7C1549.39 226.7 1527.82 226.7 1505.91 226.7C1494.96 226.7 1484 226.368 1473.05 226.368C1471.06 226.368 1469.4 226.7 1468.4 224.045C1461.77 206.453 1454.79 188.861 1447.82 171.269C1447.49 170.605 1447.49 169.942 1447.49 168.946C1463.76 168.946 1479.36 168.946 1495.29 168.946C1498.61 168.946 1501.6 169.61 1504.91 168.282C1527.15 168.282 1549.06 168.282 1571.3 168.282C1574.62 167.286 1578.27 168.282 1581.92 166.954C1588.89 166.29 1596.19 166.622 1603.16 166.622C1607.81 166.622 1612.46 166.29 1617.1 166.954C1626.07 167.95 1634.36 170.937 1641.67 176.248C1653.28 186.538 1659.26 199.151 1658.93 214.751C1658.93 218.07 1658.93 221.389 1658.93 224.708C1658.93 238.981 1658.93 252.922 1658.93 267.194C1659.26 283.126 1658.93 299.059 1658.93 314.659C1658.93 317.314 1659.59 319.969 1657.27 321.961C1625.4 310.676 1600.84 290.761 1584.24 261.22C1583.58 260.224 1583.25 258.896 1582.92 257.569C1582.58 253.917 1584.91 250.93 1586.24 247.611C1588.56 242.3 1590.22 236.658 1591.88 231.347C1592.87 228.36 1591.88 226.7 1588.56 227.032C1584.58 227.364 1580.92 227.032 1576.94 227.032C1574.95 227.696 1572.96 227.696 1571.3 226.7Z" fill="#ED1C24"/>
<path d="M1596.85 366.771C1615.44 377.725 1635.02 386.023 1655.93 391.002C1656.6 391.002 1657.26 391.665 1657.59 391.665C1657.93 394.321 1656.93 395.649 1653.94 395.649C1636.02 395.649 1618.1 395.649 1600.17 395.649C1598.18 395.649 1596.19 396.312 1596.19 392.993C1596.85 384.031 1595.86 375.401 1596.85 366.771Z" fill="#ED1C24"/>
<path d="M1603.49 117.499C1605.15 114.843 1607.47 112.852 1609.79 111.192C1610.79 110.196 1612.78 107.873 1614.44 111.192C1614.77 111.856 1617.1 111.524 1618.09 110.528C1619.75 108.869 1617.43 108.869 1617.1 107.873C1616.76 107.209 1617.76 106.545 1618.09 105.881C1618.76 104.554 1619.75 103.558 1621.41 103.558C1622.41 104.222 1622.41 104.886 1621.74 105.881C1625.39 108.869 1633.69 106.545 1634.69 101.898C1635.02 100.571 1636.01 99.9068 1636.35 98.5792C1636.68 97.5834 1637.34 96.5876 1638.34 96.5876C1639 96.5876 1639.33 96.9196 1639 97.5834C1638.34 99.5749 1638.34 99.5749 1640 100.903C1641.33 102.23 1638.34 102.562 1639.33 103.89C1643.65 101.898 1643.98 101.566 1642.32 97.5834C1642.32 97.2515 1642.32 96.9196 1642.32 96.5876C1643.65 94.2642 1645.97 93.2684 1647.96 91.6088C1649.96 89.9492 1651.95 88.6216 1654.27 91.6088C1654.27 91.6088 1654.93 91.6088 1655.27 91.6088C1655.93 93.6004 1656.26 95.26 1655.27 97.2515C1651.28 94.928 1649.29 95.5919 1647.3 99.9068C1645.97 102.562 1644.64 105.218 1641.33 105.549C1640 105.549 1639 106.213 1639 107.873L1638.67 108.205C1637.34 108.537 1636.35 109.201 1636.35 110.528C1631.37 112.188 1628.05 116.171 1624.4 119.49C1620.41 122.809 1621.41 126.129 1626.72 128.12C1624.07 131.439 1624.4 135.422 1624.4 139.405C1624.4 147.039 1624.4 154.674 1624.4 162.308C1624.4 167.619 1623.4 167.95 1617.76 167.287C1613.11 167.287 1608.13 167.287 1603.49 167.287C1601.83 165.627 1601.83 163.635 1601.83 161.312C1601.83 148.367 1601.83 135.422 1601.83 122.477C1601.83 121.482 1602.16 119.49 1603.49 117.499Z" fill="#228FC3"/>
<path d="M1672.2 278.814C1669.88 272.507 1662.9 271.844 1658.26 268.192C1658.26 253.588 1658.26 238.984 1658.26 224.379C1663.24 224.047 1667.88 224.711 1672.53 226.039C1674.19 226.371 1675.52 227.698 1676.18 229.358C1675.52 242.303 1676.18 255.248 1675.85 268.192C1675.85 270.516 1675.85 272.839 1675.52 274.831C1674.52 276.49 1674.52 278.814 1672.2 278.814Z" fill="#125E96"/>
<path d="M1617.76 168.617C1621.41 168.948 1623.07 167.621 1622.74 163.638C1622.41 154.012 1622.74 144.386 1622.41 135.093C1622.41 131.773 1623.41 130.114 1626.39 129.45C1629.38 128.786 1631.7 132.105 1634.69 131.442C1635.69 131.442 1635.02 133.433 1635.36 134.429C1636.02 137.416 1637.68 139.076 1641 137.748C1643.65 139.076 1643.32 141.399 1643.32 143.723C1643.32 148.701 1643.32 153.68 1643.32 158.659C1643.32 160.982 1642.99 163.306 1644.65 164.965C1641.99 168.948 1641.33 173.263 1641 177.91C1634.36 172.932 1626.39 169.944 1617.76 168.617Z" fill="#1C7CB2"/>
<path d="M1603.49 117.5C1603.49 134.428 1603.49 151.688 1603.49 168.616C1596.19 168.616 1588.89 168.616 1581.59 168.616C1582.25 164.965 1583.58 161.646 1584.24 158.326C1585.24 155.007 1584.91 151.024 1585.24 147.373C1587.56 135.092 1595.53 126.13 1603.49 117.5Z" fill="#1E96FC"/>
<path d="M1800.65 270.846C1799.32 274.829 1796.66 278.148 1793.01 280.139C1791.35 281.135 1790.03 282.131 1789.03 283.458C1786.04 284.122 1786.04 281.799 1786.04 280.471C1785.71 273.833 1785.38 267.194 1786.37 260.556C1787.7 258.564 1788.37 255.909 1788.03 253.586C1787.04 249.271 1788.03 245.288 1790.03 241.305C1791.35 238.649 1790.36 236.99 1787.37 236.658C1785.05 236.326 1784.38 234.998 1784.38 233.007C1783.06 231.015 1783.06 228.36 1783.06 226.036C1783.06 210.436 1783.06 194.504 1783.06 178.904C1783.06 176.58 1782.72 173.925 1784.72 171.933C1788.03 169.942 1791.69 170.938 1795.34 170.938C1797.66 170.938 1797.66 173.261 1797.33 174.589C1796.33 178.24 1797.99 180.895 1800.32 183.219C1800.98 186.206 1800.65 189.193 1800.65 192.18C1800.65 218.07 1800.98 243.96 1800.32 269.85C1799.98 270.182 1800.32 270.514 1800.65 270.846Z" fill="#15679F"/>
<path d="M1672.21 278.814C1674.2 276.823 1674.2 273.835 1674.2 271.18C1674.2 258.899 1674.2 246.618 1674.2 234.337C1674.2 232.677 1673.2 230.354 1675.86 229.69C1677.85 232.345 1681.17 232.014 1683.82 233.009C1685.81 233.673 1688.14 233.341 1689.47 235.333C1690.79 238.32 1690.79 241.307 1690.79 244.295C1690.79 263.546 1690.46 283.129 1691.13 302.381C1690.13 310.015 1691.79 316.653 1698.76 321.632C1692.45 320.636 1688.14 316.653 1684.82 312.006C1677.85 301.717 1674.53 290.431 1672.21 278.814Z" fill="#0D4F8A"/>
<path d="M1691.45 301.716C1689.12 301.384 1689.79 299.393 1689.79 297.733C1689.79 276.822 1689.79 255.579 1689.79 234.668C1692.44 237.324 1696.43 239.315 1698.09 242.966C1698.42 243.63 1700.08 244.294 1701.07 244.294C1707.71 244.626 1713.02 248.277 1719 250.269C1721.32 250.932 1719.66 253.588 1720.33 254.916C1720.66 255.247 1719.99 256.575 1719.33 256.907C1714.68 260.89 1713.02 265.537 1713.02 271.843C1713.02 274.499 1708.71 277.154 1706.38 279.478C1705.06 280.805 1703.07 281.469 1702.73 283.129C1701.74 289.103 1698.42 294.082 1695.1 299.061C1694.1 301.052 1692.11 300.389 1691.45 301.716Z" fill="#08427E"/>
<path d="M1644.98 164.633C1641.99 166.293 1642.32 163.969 1642.32 162.31C1642.32 156.003 1642.32 149.365 1642.32 143.058C1642.32 141.067 1642.32 139.075 1641.33 137.416C1641.66 133.765 1641 130.113 1644.98 127.79C1646.97 126.794 1646.31 124.139 1645.97 122.147C1645.64 119.16 1645.64 115.509 1647.97 114.181C1650.29 112.854 1653.61 112.854 1655.93 115.177C1656.26 115.509 1657.26 116.173 1657.26 116.173C1656.6 118.496 1657.59 119.824 1659.91 120.156C1662.24 120.156 1663.57 118.828 1664.56 116.837C1664.89 116.505 1665.23 116.173 1665.56 115.509C1667.22 117.501 1668.88 119.492 1668.88 122.147C1668.88 124.139 1670.2 125.135 1671.86 125.799C1673.19 126.13 1675.85 125.467 1673.19 128.122C1672.86 128.454 1672.86 128.786 1673.19 128.786C1673.52 128.786 1674.19 128.786 1674.52 128.786C1675.85 128.454 1677.51 128.454 1677.84 129.782C1678.17 131.109 1677.84 133.101 1676.18 133.765C1673.86 134.76 1671.2 136.42 1668.54 136.752C1662.24 137.416 1657.26 139.739 1653.28 145.714C1656.6 144.386 1659.25 143.058 1662.57 141.399C1659.58 145.05 1660.58 146.046 1668.54 149.033C1666.88 151.356 1664.56 152.684 1661.57 153.68C1661.57 151.688 1664.23 151.688 1663.57 149.365C1659.58 150.029 1654.94 151.688 1653.61 154.676C1651.95 159.322 1647.97 161.646 1644.98 164.633Z" fill="#176BA2"/>
<path d="M1784.39 171.605C1784.39 191.852 1784.39 212.431 1784.39 232.678C1780.07 231.682 1775.76 233.342 1771.44 233.342C1767.79 234.006 1767.13 231.351 1766.8 228.695C1766.47 224.38 1766.47 219.733 1766.8 215.086C1766.8 203.801 1766.47 192.848 1767.13 181.563C1766.13 178.243 1769.45 177.248 1770.45 175.256C1772.11 171.937 1773.77 171.937 1776.42 172.601C1779.08 173.265 1781.73 171.937 1784.39 171.605Z" fill="#1F85BA"/>
<path d="M1800.66 270.846C1798.34 270.515 1799 268.523 1799 266.863C1799 240.31 1799 213.756 1799 187.203C1799 185.543 1799.33 183.883 1800 182.556C1802.98 184.215 1804.64 188.198 1808.63 188.862C1810.28 191.186 1809.95 193.841 1809.95 196.164C1809.95 214.088 1809.95 232.012 1809.95 249.936C1809.95 251.927 1809.29 253.919 1809.29 256.242C1806.3 261.221 1803.65 266.2 1800.66 270.846Z" fill="#0F568F"/>
<path d="M1821.9 169.611C1822.23 167.619 1821.57 165.96 1820.9 164.632C1818.25 160.317 1815.26 156.334 1812.27 152.019C1810.28 155.67 1813.6 157.662 1813.6 160.649C1813.93 162.64 1815.26 164.3 1813.6 165.96C1811.94 167.619 1810.94 164.3 1809.29 164.964C1808.62 167.951 1810.61 170.938 1809.95 173.926C1806.96 164.964 1802.65 156.998 1796.01 150.359C1793.02 149.696 1792.69 147.704 1792.69 145.381C1792.69 140.734 1792.69 135.755 1792.36 131.108C1791.03 126.793 1792.36 121.482 1789.04 117.831C1788.71 116.172 1788.71 114.512 1791.03 114.18C1802.98 126.129 1812.94 139.738 1819.57 155.338C1821.57 160.317 1823.23 165.628 1824.22 170.938C1822.89 170.938 1822.23 170.275 1821.9 169.611Z" fill="#105891"/>
<path d="M1809.28 256.241C1808.95 255.577 1808.62 254.914 1808.62 254.25C1808.62 232.343 1808.62 210.768 1808.62 188.861C1808.95 187.534 1807.95 185.542 1809.61 185.21C1811.27 184.546 1812.93 185.874 1813.93 187.202C1815.25 189.525 1817.25 190.853 1819.57 191.517C1819.9 205.126 1819.9 218.734 1819.57 232.343C1819.57 235.994 1819.57 239.313 1820.23 242.632C1818.57 248.939 1813.93 252.59 1809.28 256.241Z" fill="#0A4782"/>
<path d="M1766.8 181.892C1767.8 184.547 1767.8 187.202 1767.8 189.858C1767.8 202.471 1767.8 215.084 1767.8 228.029C1767.8 230.352 1767.47 233.007 1771.12 233.339C1766.14 234.667 1762.49 233.007 1758.84 227.033C1756.84 223.714 1754.19 220.394 1754.19 216.743C1753.86 211.433 1753.52 205.458 1754.85 200.479C1756.18 195.169 1758.84 189.194 1764.81 186.207C1766.47 185.543 1765.81 183.219 1766.8 181.892Z" fill="#1E96FC"/>
<path d="M1819.9 242.963C1818.24 241.968 1818.24 240.308 1818.24 238.649C1818.24 224.376 1818.24 209.771 1818.24 195.499C1818.24 194.171 1817.91 192.512 1819.57 191.516C1820.23 191.516 1821.56 191.848 1821.56 190.852C1821.89 188.197 1821.56 185.873 1821.89 183.218C1822.23 179.899 1819.9 179.235 1817.91 177.907C1814.92 176.248 1812.6 169.277 1814.26 167.286C1816.58 164.962 1818.57 163.635 1820.23 167.618C1820.57 168.281 1820.9 168.945 1821.89 169.277C1822.56 169.609 1823.22 169.941 1823.88 170.273C1826.21 180.563 1828.2 191.184 1827.2 202.137C1826.87 207.78 1827.2 213.755 1826.54 219.397C1826.21 222.716 1826.21 226.367 1823.88 229.355C1822.56 230.682 1821.56 231.014 1821.23 228.359C1820.9 225.04 1821.89 222.053 1821.56 219.065C1821.56 213.423 1821.56 208.112 1821.56 202.469C1821.89 205.125 1821.56 207.448 1821.56 210.103C1821.56 217.074 1821.89 224.376 1820.57 231.346C1820.57 233.338 1817.91 235.661 1821.23 237.653C1823.22 238.649 1819.9 240.972 1819.9 242.963Z" fill="#043773"/>
<path d="M1793.01 129.449C1794.67 134.428 1793.68 139.738 1794.01 145.049C1794.01 147.041 1794.01 149.032 1796 150.36C1793.35 151.356 1795.67 152.683 1796 153.679C1797.33 158.326 1802.31 160.317 1803.63 164.964C1803.3 165.628 1802.97 166.624 1801.98 165.96C1799.65 162.973 1797 160.317 1795.34 156.998C1793.01 151.687 1788.7 154.011 1785.05 153.679C1784.72 153.679 1783.72 154.675 1783.72 155.007C1784.05 157.662 1781.73 158.658 1780.4 160.317C1778.08 161.313 1777.41 159.322 1777.41 157.994C1777.41 150.36 1776.42 142.394 1777.75 134.76C1777.41 131.108 1780.73 130.113 1782.72 127.789C1786.04 127.789 1789.69 127.457 1793.01 129.449Z" fill="#1A76AC"/>
<path d="M1701.08 101.899C1701.08 102.895 1701.42 104.223 1701.08 105.218C1700.09 107.542 1701.42 111.857 1697.76 112.189C1694.11 112.521 1690.46 112.189 1688.47 107.874C1687.81 106.878 1687.48 105.55 1687.48 104.223C1688.47 95.5928 1687.81 86.631 1687.81 78.001C1687.81 77.0053 1687.81 76.0095 1688.47 75.3457C1693.12 74.3499 1698.1 74.6818 1702.74 75.3457C1700.75 80.3245 1701.42 85.3033 1701.42 90.2821C1701.75 94.2651 1701.75 98.2482 1701.08 101.899Z" fill="#186FA5"/>
<path d="M1701.07 101.899C1699.08 93.9334 1700.74 85.6354 1700.41 77.3374C1700.41 75.6778 1702.4 76.0097 1703.06 75.014C1708.04 75.014 1716.67 81.3205 1717.67 85.6354C1718 86.2993 1718 87.295 1718.66 87.6269C1723.64 91.9419 1719.33 92.6057 1716.34 93.6015C1713.35 94.5973 1710.37 94.9292 1708.71 98.2484C1707.38 101.236 1703.39 100.24 1701.07 101.899Z" fill="#0F548D"/>
<path d="M1786.37 260.226C1788.03 266.532 1787.04 272.839 1787.37 279.145C1787.37 280.805 1786.37 282.796 1789.03 283.46C1782.72 291.426 1775.09 298.065 1763.8 301.384C1773.43 287.775 1777.74 272.839 1786.37 260.226Z" fill="#1F7EB3"/>
<path d="M1777.75 134.095C1779.08 138.41 1778.41 142.725 1778.41 147.372C1778.08 151.687 1777.08 156.334 1780.4 159.985C1779.74 163.636 1781.07 167.951 1775.09 168.947C1772.44 169.611 1771.11 167.619 1769.12 167.619C1765.14 167.951 1766.46 164.964 1766.13 163.304C1765.8 162.308 1765.47 161.313 1765.47 160.649C1763.81 151.687 1764.14 151.355 1772.77 153.015C1776.42 153.678 1777.08 152.351 1776.42 149.363C1775.76 145.712 1774.43 144.053 1768.79 140.402C1773.1 139.406 1775.09 136.419 1777.75 134.095Z" fill="#238CC0"/>
<path d="M1790.7 113.85C1789.7 114.846 1789.37 115.842 1789.04 117.17C1785.72 118.165 1784.72 115.178 1782.73 113.187C1781.4 111.859 1781.4 110.199 1780.41 108.208C1780.41 107.876 1779.74 108.872 1780.41 108.54C1780.41 108.54 1780.74 108.54 1780.74 108.872C1781.4 113.187 1785.72 115.842 1787.05 119.825C1787.71 121.816 1789.37 124.472 1787.05 125.799C1785.05 126.795 1783.73 124.14 1782.07 122.812C1781.74 122.48 1781.4 121.816 1781.07 121.153C1780.41 120.157 1780.08 119.161 1779.74 118.165C1778.75 116.838 1777.75 113.85 1775.76 117.833C1775.43 118.829 1773.77 118.165 1773.11 117.501C1770.78 114.846 1766.8 112.523 1770.12 107.876C1771.45 105.884 1770.12 104.225 1769.12 102.565C1768.13 100.574 1767.13 98.2501 1765.14 94.9309C1776.42 99.5778 1783.73 106.216 1790.7 113.85Z" fill="#2286BA"/>
<path d="M1688.8 75.346C1690.46 84.6398 1689.79 94.2655 1689.13 103.891C1689.13 105.219 1688.8 106.546 1688.46 108.206C1686.14 106.878 1685.48 104.223 1683.82 102.232C1682.16 99.9081 1682.49 97.9166 1684.81 95.9251C1685.81 95.2612 1686.81 93.6016 1685.81 93.2697C1680.17 92.6059 1682.49 87.2951 1680.83 84.6398C1680.17 83.3121 1679.17 81.9844 1677.18 81.9844C1675.85 81.9844 1673.86 82.6483 1673.86 80.6567C1673.53 78.9971 1674.86 78.3333 1676.18 77.6695C1676.85 77.3375 1677.18 77.0056 1677.84 77.0056C1681.49 76.3418 1685.15 76.0098 1688.8 75.346Z" fill="#2188BD"/>
<path d="M1655.6 98.2482C1655.27 96.2567 1653.94 94.597 1655.6 92.6055C1656.26 92.2736 1654.6 90.2821 1656.93 90.9459C1658.92 91.6098 1660.58 92.9374 1662.9 93.6013C1665.56 94.2651 1667.88 96.2566 1663.56 98.912C1665.56 99.2439 1667.22 99.9078 1668.54 100.24C1669.54 100.572 1670.87 100.24 1670.87 101.235C1670.87 102.231 1669.87 103.559 1669.21 104.555C1668.21 105.55 1667.55 104.555 1666.88 103.891C1665.56 102.563 1664.56 101.235 1662.9 103.227C1661.57 105.218 1662.9 106.214 1664.56 106.878C1665.56 107.542 1666.88 107.874 1665.89 109.202C1665.56 110.197 1663.9 109.865 1663.9 109.865C1660.25 113.848 1657.59 109.865 1654.93 108.538C1654.27 107.542 1655.27 107.21 1655.6 106.546C1659.58 103.891 1658.92 100.904 1655.6 98.2482Z" fill="#176199"/>
<path d="M1677.84 77.006C1677.51 78.9976 1674.86 78.6656 1674.19 80.9891C1675.85 82.9806 1680.5 80.3252 1680.5 84.9721C1678.84 82.9806 1676.85 82.9806 1674.52 82.6487C1672.87 82.3168 1669.55 84.9721 1669.21 80.6572C1669.21 79.9933 1668.55 80.3252 1668.22 80.6572C1664.57 82.3168 1661.25 83.9764 1658.26 86.9636C1657.93 87.2956 1657.6 87.2956 1657.27 86.9636C1658.26 85.636 1653.61 87.2956 1656.27 84.9721C1662.91 78.9976 1670.21 77.338 1677.84 77.006Z" fill="#489EC9"/>
<path d="M1766.13 124.137C1769.12 124.801 1770.11 127.788 1772.44 129.116C1773.43 129.779 1773.43 131.771 1773.76 133.43C1772.77 133.762 1771.77 133.762 1770.44 134.094C1768.45 134.426 1766.79 134.426 1764.8 134.758C1764.47 133.099 1766.13 132.767 1766.79 131.439C1762.15 131.107 1763.47 128.784 1765.13 126.46C1764.47 125.132 1764.14 124.137 1766.13 124.137Z" fill="#21689D"/>
<path d="M1683.48 144.053C1680.16 142.061 1676.51 142.725 1672.86 141.398C1674.52 139.074 1675.85 137.083 1677.51 134.759C1678.17 139.074 1685.47 137.746 1683.48 144.053Z" fill="#357FAF"/>
<path d="M1725.64 102.565C1728.96 100.241 1731.95 97.2538 1736.59 98.9134C1737.59 99.2453 1738.58 99.2453 1738.58 100.573C1738.92 101.901 1737.92 102.565 1736.92 102.896C1733.27 104.888 1729.62 104.224 1725.64 102.565Z" fill="#1C6399"/>
<path d="M1622.08 106.215C1622.08 105.219 1621.75 104.555 1621.09 103.891C1618.43 101.9 1621.75 101.9 1622.08 100.904C1623.08 99.5764 1624.41 98.5807 1626.06 98.9126C1627.39 99.2445 1629.05 99.2445 1629.05 101.568C1629.05 103.891 1627.06 104.555 1625.73 105.551C1624.74 106.547 1623.41 106.215 1622.08 106.215Z" fill="#2776A9"/>
<path d="M1759.5 127.788C1758.17 129.779 1756.18 130.775 1754.85 130.443C1752.2 130.111 1755.19 126.792 1753.19 125.465C1754.19 124.469 1753.86 121.813 1756.18 122.145C1759.5 122.477 1757.18 126.128 1759.5 127.788Z" fill="#287AAE"/>
<path d="M1766.13 124.138C1765.13 124.47 1765.13 125.466 1765.13 126.129C1763.81 123.142 1760.15 121.814 1758.16 119.159C1756.84 117.499 1756.84 116.504 1756.5 114.844C1761.81 115.84 1762.48 121.483 1766.13 124.138Z" fill="#49A0CB"/>
<path d="M1821.23 231.348C1821.23 223.714 1821.23 216.411 1821.23 208.777C1823.55 209.773 1822.22 211.764 1822.56 213.092C1822.89 214.752 1822.22 216.411 1822.89 218.403C1823.55 221.058 1822.56 223.714 1822.22 226.369C1822.22 227.365 1820.9 230.02 1824.22 229.356C1824.22 231.68 1822.22 231.016 1821.23 231.348Z" fill="#0A4782"/>
<path d="M1639.33 98.2469C1637.67 96.9192 1637.67 99.2426 1636.35 99.2426C1636.01 98.2469 1633.03 97.583 1635.68 95.9234C1637.01 94.9277 1638.34 92.9362 1640 94.2638C1641.99 95.2596 1639.66 96.9192 1639.33 98.2469Z" fill="#72ACCD"/>
<path d="M1657.59 86.3001C1657.92 86.3001 1658.25 86.3001 1658.59 86.3001C1656.93 88.6235 1654.27 88.9554 1651.62 89.2873C1650.95 89.2873 1649.62 89.9512 1649.96 87.9597C1650.29 86.9639 1650.95 85.9681 1651.95 86.632C1653.94 88.2916 1655.6 85.9681 1657.59 86.3001Z" fill="#3C8BB9"/>
<path d="M1639.34 108.87C1641.33 108.87 1642.66 109.866 1643.66 111.525C1641.33 110.861 1639.67 115.176 1637.35 111.857C1637.35 110.197 1638.35 109.534 1639.34 108.87Z" fill="#3B8DBC"/>
<path d="M1801.99 165.628C1802.65 165.297 1803.31 164.965 1803.64 164.633C1804.64 167.62 1801.99 169.943 1801.65 172.931C1801.32 171.603 1796.67 171.271 1801.32 169.28C1803.31 168.284 1801.99 166.956 1801.99 165.628Z" fill="#6795BA"/>
<path d="M1781.39 120.488C1779.4 122.479 1781.39 124.471 1781.39 126.13C1780.07 123.807 1775.09 122.147 1779.4 118.496C1780.07 119.16 1780.73 119.824 1781.39 120.488Z" fill="#6FADCF"/>
<path d="M1794.34 163.304C1794.34 164.3 1794.34 165.627 1793.02 165.295C1791.69 164.964 1791.69 163.636 1791.36 162.64C1791.02 161.644 1791.69 160.649 1792.68 160.649C1795.01 160.649 1793.68 162.64 1794.34 163.304Z" fill="#3C91C0"/>
<path d="M1621.74 100.903C1621.74 101.899 1620.08 102.563 1620.75 103.891C1620.75 105.55 1619.42 105.882 1618.09 105.882C1616.77 102.231 1619.75 102.231 1621.74 100.903Z" fill="#A5D0E6"/>
<path d="M1655.6 106.546C1655.27 107.21 1654.93 107.873 1654.93 108.537C1653.27 108.869 1651.28 109.201 1648.63 109.533C1650.95 107.21 1653.61 107.21 1655.6 106.546Z" fill="#66A9CD"/>
<path d="M1639.34 108.869C1639.01 110.197 1638.68 111.193 1637.35 111.857C1637.02 111.857 1636.69 111.857 1636.36 111.857C1636.03 111.193 1634.7 109.865 1635.03 109.865C1636.03 108.205 1638.02 108.869 1639.34 108.869Z" fill="#A5CBE0"/>
<path d="M1795.35 284.123C1794.02 285.783 1792.36 287.442 1790.04 289.766C1790.7 286.115 1792.69 285.119 1795.35 284.123Z" fill="#85B7D4"/>
</svg>
