<svg width="17" height="13" viewBox="0 0 17 13" fill="none" xmlns="http://www.w3.org/2000/svg">
<path d="M15.3 0H1.7C0.765 0 0 0.73125 0 1.625V11.375C0 12.2688 0.765 13 1.7 13H15.3C16.235 13 17 12.2688 17 11.375V1.625C17 0.73125 16.235 0 15.3 0ZM14.96 3.45312L9.401 6.77625C8.8485 7.10938 8.1515 7.10938 7.599 6.77625L2.04 3.45312C1.8275 3.32312 1.7 3.10375 1.7 2.86813C1.7 2.32375 2.3205 1.99875 2.805 2.28312L8.5 5.6875L14.195 2.28312C14.6795 1.99875 15.3 2.32375 15.3 2.86813C15.3 3.10375 15.1725 3.32312 14.96 3.45312Z" fill="#1E96FC"/>
</svg>
