<svg width="19" height="19" viewBox="0 0 19 19" fill="none" xmlns="http://www.w3.org/2000/svg">
<g clip-path="url(#clip0_331_3058)">
<path d="M9.40321 0C7.32572 0.00228147 5.33397 0.828571 3.86496 2.29758C2.39595 3.76658 1.56966 5.75833 1.56738 7.83582C1.56738 11.9747 8.14947 17.6565 8.89701 18.2912L9.40321 18.719L9.9094 18.2912C10.6569 17.6565 17.239 11.9747 17.239 7.83582C17.2367 5.75833 16.4105 3.76658 14.9414 2.29758C13.4724 0.828571 11.4807 0.00228147 9.40321 0V0ZM9.40321 11.7537C8.62832 11.7537 7.87083 11.5239 7.22653 11.0934C6.58223 10.6629 6.08006 10.051 5.78353 9.33514C5.48699 8.61923 5.4094 7.83147 5.56058 7.07147C5.71175 6.31147 6.08489 5.61337 6.63282 5.06544C7.18075 4.51751 7.87886 4.14436 8.63886 3.99319C9.39886 3.84202 10.1866 3.91961 10.9025 4.21614C11.6184 4.51268 12.2303 5.01485 12.6608 5.65915C13.0913 6.30344 13.3211 7.06093 13.3211 7.83582C13.3199 8.87453 12.9067 9.87034 12.1722 10.6048C11.4377 11.3393 10.4419 11.7525 9.40321 11.7537Z" fill="white"/>
<path d="M9.4025 10.1859C10.7008 10.1859 11.7533 9.13341 11.7533 7.83513C11.7533 6.53684 10.7008 5.48438 9.4025 5.48438C8.10422 5.48438 7.05176 6.53684 7.05176 7.83513C7.05176 9.13341 8.10422 10.1859 9.4025 10.1859Z" fill="white"/>
</g>
<defs>
<clipPath id="clip0_331_3058">
<rect width="18.806" height="18.806" fill="white"/>
</clipPath>
</defs>
</svg>
