<svg width="19" height="24" viewBox="0 0 19 24" fill="none" xmlns="http://www.w3.org/2000/svg">
<g clip-path="url(#clip0_2886_6254)">
<path d="M18.0073 4.99405C17.978 4.06577 17.4316 3.34313 16.5621 3.07875C16.1273 2.94362 15.6808 2.99062 15.2343 2.9965C15.0286 3.00237 14.9875 2.93774 14.9993 2.74974C15.0169 2.49123 15.011 2.23273 15.0051 1.97422C14.9699 0.628809 13.7655 -0.275964 12.4729 0.076545C10.0054 0.752188 7.5437 1.43958 5.08201 2.11522C3.89523 2.43836 2.7202 2.79674 1.51579 3.067C0.58164 3.27263 0 4.0834 0 5.08805C0 8.23713 0 11.3862 0 14.5353C0 16.9911 0 19.4411 0 21.8969C0 22.7605 0.381885 23.4068 1.15741 23.8063C1.29841 23.8827 1.48054 23.8592 1.59217 23.9943C6.49792 23.9943 11.4095 23.9943 16.3153 23.9943C16.4974 23.9238 16.6913 23.8768 16.8676 23.7887C17.6548 23.3833 18.0073 22.7194 18.0073 21.844C18.0073 16.3448 18.0073 10.8398 18.0073 5.34068C18.0073 5.22905 18.0132 5.11155 18.0073 4.99405ZM5.82228 2.94949C7.58482 2.46186 9.34737 1.97422 11.1099 1.48658C11.6446 1.3397 12.1733 1.19282 12.708 1.04595C13.4071 0.85794 13.977 1.28095 14.0064 2.00359C14.0181 2.24448 13.9946 2.49123 14.0122 2.73211C14.024 2.93187 13.9829 2.9965 13.7655 2.99062C12.4083 2.97887 11.0453 2.98475 9.68813 2.98475C8.40147 2.98475 7.10894 2.98475 5.82228 2.98475C5.82228 2.973 5.82228 2.96125 5.82228 2.94949ZM17.0086 21.8381C17.0086 22.596 16.6149 23.0014 15.857 23.0014C11.2862 23.0014 6.7153 23.0014 2.14443 23.0014C1.39241 23.0014 0.992901 22.6019 0.992901 21.8381C0.992901 19.0474 0.992901 16.2567 0.992901 13.4719C0.992901 10.6988 0.992901 7.92575 0.992901 5.15268C0.992901 4.77667 1.08103 4.44178 1.39241 4.2009C1.62154 4.02465 1.88592 3.9894 2.16793 3.9894C5.7929 3.9894 9.41787 3.9894 13.0428 3.9894C13.9711 3.9894 14.8994 3.9894 15.8335 3.9894C16.6091 3.9894 17.0086 4.38303 17.0086 5.15268C17.0086 10.7106 17.0086 16.2743 17.0086 21.8381Z" fill="#1E96FC"/>
<path d="M8.98313 5.9865C5.94568 6.01 3.48399 8.48931 3.50749 11.5033C3.53099 14.5466 6.01031 17.0142 9.01251 16.9907C12.0617 16.9672 14.5352 14.4761 14.4999 11.4563C14.4647 8.41881 11.9971 5.96299 8.98313 5.9865ZM4.56502 11.9909C5.18191 11.9909 5.7988 11.9909 6.41569 11.9909C6.54495 11.9909 6.52144 12.0732 6.52732 12.1437C6.57432 12.8075 6.65657 13.4656 6.80345 14.1118C6.92096 14.6288 7.08546 15.1282 7.32047 15.6159C6.21594 15.281 4.77065 13.9297 4.56502 11.9909ZM6.52732 10.8276C6.51557 10.9804 6.45682 10.998 6.32756 10.998C5.7988 10.9921 5.26416 10.9921 4.7354 10.998C4.60027 10.998 4.55327 10.9863 4.58264 10.8217C4.86465 9.1767 5.78118 8.0428 7.34397 7.3084C6.7917 8.45993 6.60957 9.63497 6.52732 10.8276ZM10.4519 12.4609C10.3755 13.3422 10.2169 14.341 9.75278 15.2634C9.6529 15.4572 9.5354 15.6452 9.38264 15.798C9.12414 16.0565 8.88913 16.0565 8.63062 15.798C8.38974 15.5571 8.23699 15.2575 8.10774 14.9461C7.73173 14.0355 7.59072 13.0719 7.53197 12.0967C7.52022 11.9321 7.63772 11.9909 7.70235 11.9909C8.36624 11.985 9.03014 11.9909 9.69403 11.9909C9.84091 11.9909 9.98779 11.9909 10.1405 11.9909C10.4754 11.9909 10.4754 11.9909 10.4519 12.4609ZM10.305 10.9921C9.87028 10.9921 9.42965 10.9921 8.99488 10.9921C8.566 10.9921 8.13711 10.9921 7.70823 10.9921C7.60835 10.9921 7.53197 10.998 7.54372 10.8452C7.61422 9.76422 7.77285 8.70669 8.26049 7.72554C8.36624 7.51404 8.48962 7.31428 8.66 7.15565C8.90088 6.9324 9.11826 6.9324 9.35914 7.15565C9.6294 7.41416 9.79978 7.74317 9.92903 8.08393C10.2757 8.97107 10.4225 9.89935 10.4754 10.8452C10.4813 11.0098 10.399 10.9921 10.305 10.9921ZM10.6693 15.6687C10.9161 15.1459 11.0864 14.6582 11.2039 14.153C11.3508 13.5067 11.4448 12.8487 11.4801 12.1848C11.4859 12.0438 11.5153 11.985 11.674 11.9909C12.2615 12.0027 12.8431 11.9968 13.4541 11.9968C13.1897 13.7182 12.2908 14.9285 10.6693 15.6687ZM13.2896 10.998C12.7491 10.9921 12.2145 10.9921 11.674 10.998C11.533 10.998 11.4918 10.9627 11.4801 10.8217C11.4096 9.79359 11.2627 8.77719 10.8808 7.80779C10.8221 7.66091 10.7574 7.51991 10.6811 7.33778C11.4742 7.66091 12.097 8.15443 12.5846 8.80657C13.0311 9.41171 13.3131 10.0874 13.4247 10.8335C13.4541 10.9804 13.4189 10.998 13.2896 10.998Z" fill="#1E96FC"/>
<path d="M13.9711 18.043C13.8713 18.0313 13.7714 18.0254 13.6656 18.0254C12.0793 18.0254 10.4931 18.0254 8.91264 18.0254C7.29697 18.0254 5.6813 18.0254 4.06564 18.0254C3.63088 18.0254 3.38412 18.2075 3.39 18.5307C3.39587 18.8538 3.63675 19.0242 4.07739 19.0242C7.28522 19.0242 10.4931 19.0242 13.7068 19.0242C13.8243 19.0242 13.9418 19.0242 14.0534 18.9889C14.2649 18.9125 14.4118 18.6952 14.3883 18.4837C14.3648 18.2545 14.2003 18.0724 13.9711 18.043Z" fill="#1E96FC"/>
<path d="M12.0616 20.0646C11.9617 20.0352 11.8442 20.0234 11.7385 20.0234C9.84081 20.0234 7.94313 20.0234 6.04546 20.0234C5.93971 20.0234 5.82808 20.0352 5.72232 20.0646C5.52257 20.1233 5.38157 20.3407 5.39919 20.5522C5.41682 20.7755 5.53432 20.9341 5.7517 20.9928C5.85745 21.0222 5.96908 21.0281 6.07483 21.0281C7.00311 21.0281 7.93138 21.0281 8.86553 21.0281C9.81143 21.0281 10.7573 21.0281 11.7032 21.0281C11.809 21.0281 11.9265 21.0222 12.0264 20.9928C12.2437 20.9341 12.3671 20.7813 12.3847 20.5522C12.3965 20.3348 12.2672 20.1233 12.0616 20.0646Z" fill="#1E96FC"/>
</g>
<defs>
<clipPath id="clip0_2886_6254">
<rect width="18.0073" height="24" fill="white"/>
</clipPath>
</defs>
</svg>
