<svg width="18" height="18" viewBox="0 0 18 18" fill="none" xmlns="http://www.w3.org/2000/svg">
<path d="M16.2364 12.2748L13.6913 11.9842C13.0801 11.914 12.4789 12.1245 12.048 12.5553L10.2043 14.3991C7.36855 12.9561 5.04385 10.6415 3.60094 7.79573L5.45468 5.94199C5.88555 5.51112 6.09598 4.90991 6.02583 4.29868L5.73525 1.77358C5.61501 0.761537 4.76329 0 3.74122 0H2.00773C0.875441 0 -0.0664607 0.941901 0.00368091 2.07419C0.534753 10.6315 7.37857 17.4652 15.9258 17.9963C17.0581 18.0665 18 17.1246 18 15.9923V14.2588C18.01 13.2467 17.2485 12.395 16.2364 12.2748Z" fill="white"/>
</svg>
