<svg width="16" height="16" viewBox="0 0 16 16" fill="none" xmlns="http://www.w3.org/2000/svg">
<path d="M7.46 12H8.66V8.68H12V7.48H8.66V4H7.46V7.48H4V8.68H7.46V12ZM8 16C6.90667 16 5.87333 15.79 4.9 15.37C3.92667 14.95 3.07667 14.3767 2.35 13.65C1.62333 12.9233 1.05 12.0733 0.63 11.1C0.21 10.1267 0 9.08667 0 7.98C0 6.88667 0.21 5.85333 0.63 4.88C1.05 3.90667 1.62333 3.06 2.35 2.34C3.07667 1.62 3.92667 1.05 4.9 0.63C5.87333 0.21 6.91333 0 8.02 0C9.11333 0 10.1467 0.21 11.12 0.63C12.0933 1.05 12.94 1.62 13.66 2.34C14.38 3.06 14.95 3.90667 15.37 4.88C15.79 5.85333 16 6.89333 16 8C16 9.09333 15.79 10.1267 15.37 11.1C14.95 12.0733 14.38 12.9233 13.66 13.65C12.94 14.3767 12.0933 14.95 11.12 15.37C10.1467 15.79 9.10667 16 8 16Z" fill="#1E96FC"/>
</svg>
