<svg width="24" height="24" viewBox="0 0 24 24" fill="none" xmlns="http://www.w3.org/2000/svg">
<path d="M23.975 11.0904C23.9812 10.3527 23.8437 9.63376 23.6562 8.92107C23.156 7.02058 22.237 5.34514 20.9179 3.88851C20.0365 2.91951 19.0237 2.10055 17.8734 1.46288C16.7544 0.84397 15.5666 0.400104 14.3037 0.156291C13.8161 0.0687679 13.3285 0.0562647 12.8408 0C12.8096 0 12.7783 0 12.7471 0C12.5783 0.0937744 12.4032 0.0625163 12.2344 0C12.0969 0 11.9531 0 11.8156 0C11.6468 0.0625163 11.4717 0.0937744 11.3029 0C11.2404 0 11.1779 0 11.1154 0C10.8653 0.0375098 10.6028 0.0187549 10.3527 0.0562647C9.34619 0.187549 8.37718 0.450117 7.43944 0.837718C5.58896 1.60042 4.0198 2.74446 2.73821 4.27611C1.37536 5.91404 0.506382 7.78328 0.125033 9.88382C0.050013 10.2902 0.0562647 10.7028 0 11.1091C0 11.1717 0 11.2342 0 11.2967C0.0937744 11.4655 0.0625163 11.6405 0 11.8093C0 11.9344 0 12.0594 0 12.1844C0.0625163 12.3532 0.0937744 12.5283 0 12.6971C0 12.7596 0 12.8221 0 12.8846C0.0375098 13.1347 0.0187549 13.3972 0.0562647 13.6473C0.187549 14.6538 0.450117 15.6291 0.837718 16.5606C1.60042 18.4048 2.74446 19.974 4.28237 21.2555C5.92029 22.6184 7.78953 23.4874 9.88383 23.875C10.2902 23.95 10.7028 23.9437 11.1091 24C11.1717 24 11.2342 24 11.2967 24C11.4655 23.9062 11.6405 23.9375 11.8093 24C11.9344 24 12.0594 24 12.1844 24C12.3407 23.9375 12.497 23.9125 12.6533 24C12.6971 24 12.7471 24 12.7908 24C13.0847 23.9562 13.3785 23.9812 13.6723 23.9437C14.6601 23.8125 15.6166 23.5561 16.5356 23.1748C18.3798 22.4121 19.9552 21.2743 21.2368 19.7426C22.6121 18.0922 23.4936 16.2105 23.875 14.0974C23.95 13.6973 23.9437 13.291 23.9937 12.8909C23.9937 12.8283 23.9937 12.7658 23.9937 12.7033C23.9 12.5345 23.9312 12.3595 23.9937 12.1907C23.9937 12.0656 23.9937 11.9406 23.9937 11.8156C23.9312 11.6468 23.9 11.4717 23.9937 11.3029C23.9937 11.2592 23.9937 11.2092 23.9937 11.1654C23.9812 11.1341 23.975 11.1154 23.975 11.0904ZM11.9906 23.1998C5.81401 23.1998 0.793957 18.1735 0.800209 11.9969C0.800209 5.81401 5.82652 0.793957 12.0031 0.800208C18.1797 0.800208 23.206 5.83277 23.1998 12.0031C23.1935 18.1735 18.161 23.1998 11.9906 23.1998Z" fill="#1E96FC"/>
<path d="M11.8095 0C11.6407 0 11.4657 0 11.2969 0C11.4657 0.0375098 11.6407 0.0375098 11.8095 0Z" fill="#1E96FC"/>
<path d="M12.747 0C12.5782 0 12.4032 0 12.2344 0C12.4032 0.0375098 12.5782 0.0375098 12.747 0Z" fill="#1E96FC"/>
<path d="M0 11.2966C0 11.4654 0 11.6405 0 11.8093C0.0375098 11.6405 0.0375098 11.4654 0 11.2966Z" fill="#1E96FC"/>
<path d="M24.0001 11.8093C24.0001 11.6405 24.0001 11.4654 24.0001 11.2966C23.9563 11.4654 23.9563 11.6405 24.0001 11.8093Z" fill="#1E96FC"/>
<path d="M0 12.1843C0 12.3531 0 12.5282 0 12.697C0.0375098 12.5282 0.0375098 12.3594 0 12.1843Z" fill="#1E96FC"/>
<path d="M24.0001 12.7033C24.0001 12.5345 24.0001 12.3595 24.0001 12.1907C23.9563 12.3595 23.9563 12.5283 24.0001 12.7033Z" fill="#1E96FC"/>
<path d="M11.2969 24.0001C11.4657 24.0001 11.6407 24.0001 11.8095 24.0001C11.6407 23.9563 11.4657 23.9563 11.2969 24.0001Z" fill="#1E96FC"/>
<path d="M12.1846 24.0001C12.3409 24.0001 12.4972 24.0001 12.6534 24.0001C12.4972 23.9563 12.3409 23.9563 12.1846 24.0001Z" fill="#1E96FC"/>
<path d="M16.1479 11.6718C16.9481 11.1905 17.1794 10.4278 17.1982 9.55878C17.2169 8.73357 16.9981 7.95212 16.7106 7.18942C16.4042 6.38296 15.704 5.95785 14.8601 6.00161C14.0974 6.03912 13.4597 6.58301 13.2222 7.38322C13.1596 7.60202 13.0909 7.81458 13.0284 8.03339C12.822 8.72107 12.7533 9.42125 12.8596 10.1402C12.9471 10.7716 13.2472 11.2717 13.7785 11.6218C13.8973 11.6968 13.9411 11.7719 13.9348 11.9219C13.8848 12.9847 13.8411 14.0412 13.7785 15.4791C13.7535 16.073 13.7035 17.042 13.6598 18.0047C13.6473 18.2548 13.641 18.5049 13.7348 18.7424C13.9723 19.3301 14.6163 19.6927 15.2289 19.5801C15.9229 19.4489 16.3792 18.93 16.3542 18.2423C16.3167 17.0482 16.2479 15.8542 16.1979 14.6601C16.1542 13.7349 16.1167 12.8034 16.0729 11.8781C16.0666 11.7969 16.0604 11.7281 16.1479 11.6718ZM15.8728 10.8966C15.7666 10.9779 15.654 11.0404 15.529 11.0967C15.3102 11.1967 15.2414 11.3655 15.2477 11.5843C15.2977 12.6908 15.3477 13.7974 15.404 14.9039C15.454 15.9855 15.5102 17.0732 15.554 18.1548C15.5728 18.6236 15.2602 18.8675 14.8163 18.7487C14.5663 18.6799 14.4412 18.5049 14.4475 18.1985C14.4537 17.8484 14.4787 17.4983 14.4912 17.1483C14.5788 15.2978 14.66 13.4535 14.7475 11.6031C14.7601 11.3843 14.71 11.1967 14.485 11.1029C13.8286 10.8341 13.6285 10.2965 13.5972 9.64631C13.566 8.8586 13.791 8.12091 14.0661 7.39572C14.2224 6.99562 14.5663 6.80182 14.9914 6.80182C15.429 6.80182 15.7728 7.00812 15.9291 7.42073C16.1979 8.12716 16.423 8.85235 16.3917 9.6213C16.373 10.1089 16.2917 10.5778 15.8728 10.8966Z" fill="#1E96FC"/>
<path d="M10.9655 10.4027C11.1406 10.2402 11.2031 10.0589 11.2031 9.8213C11.1906 9.17113 11.1968 8.52721 11.1968 7.87705C11.1968 7.40192 11.2031 6.9268 11.1968 6.44542C11.1906 6.11409 10.9155 5.92029 10.6467 6.03907C10.4466 6.12659 10.3966 6.29538 10.3966 6.49544C10.4029 7.53321 10.3966 8.57098 10.4029 9.60875C10.4029 9.75879 10.3716 9.87131 10.2591 9.97759C9.97778 10.2464 9.70896 10.534 9.42763 10.8028C9.25259 10.9653 9.19007 11.1529 9.20883 11.3905C9.25884 12.1844 9.2901 12.9784 9.33386 13.7786C9.40263 15.1914 9.47139 16.6043 9.54641 18.0109C9.57142 18.5048 9.37137 18.7986 8.99627 18.7924C8.62742 18.7861 8.43362 18.4923 8.46488 18.0172C8.5274 16.9232 8.57741 15.8354 8.63368 14.7413C8.63368 14.7413 8.63368 14.7413 8.62743 14.7413C8.68369 13.616 8.73995 12.497 8.80247 11.3717C8.81497 11.1529 8.75871 10.9779 8.60242 10.8278C8.31484 10.5527 8.03977 10.2589 7.7522 9.9901C7.63967 9.88382 7.60216 9.77129 7.60216 9.62125C7.60841 8.58348 7.60216 7.54571 7.60841 6.50794C7.60841 6.35165 7.58966 6.20786 7.46462 6.10783C7.33959 6.00781 7.1958 5.97655 7.05202 6.05157C6.86447 6.13909 6.81445 6.30789 6.81445 6.49544C6.81445 7.63323 6.81445 8.77728 6.81445 9.91508C6.81445 10.0901 6.87697 10.2277 6.99575 10.3527C7.29583 10.6465 7.58965 10.9528 7.88973 11.2467C7.9585 11.3154 8.00226 11.3842 7.99601 11.4905C7.93349 12.6971 7.87723 13.9099 7.81471 15.1164C7.7647 16.1292 7.70218 17.142 7.66467 18.161C7.63342 18.9799 8.23982 19.6114 9.02128 19.6051C9.80898 19.5988 10.3966 18.9487 10.3591 18.1172C10.3279 17.4233 10.2841 16.7294 10.2528 16.0354C10.1778 14.5225 10.1028 13.0096 10.0278 11.4967C10.0215 11.3905 10.059 11.3217 10.1341 11.2529C10.4029 10.9653 10.678 10.6715 10.9655 10.4027Z" fill="#1E96FC"/>
<path d="M18.1424 6.88315C17.9736 6.68309 17.7485 6.65184 17.5672 6.78937C17.3984 6.92066 17.3734 7.15197 17.5047 7.35202C17.5547 7.42704 17.6173 7.50206 17.6735 7.57708C18.38 8.47731 18.8426 9.48382 19.0551 10.6091C19.3552 12.1658 19.1677 13.6662 18.4862 15.0978C18.1424 15.8292 17.6673 16.4731 17.1109 17.0608C16.9108 17.2734 16.9171 17.4984 17.0859 17.661C17.2609 17.8235 17.5047 17.7985 17.7048 17.5922C19.2052 16.023 19.9679 14.1475 19.9929 12.247C19.9866 10.334 19.5115 8.83365 18.5988 7.4708C18.4612 7.27075 18.3049 7.07695 18.1424 6.88315Z" fill="#1E96FC"/>
<path d="M6.57048 16.7168C5.55772 15.5603 4.97632 14.2099 4.83253 12.6845C4.66999 10.9466 5.08259 9.34614 6.0766 7.90201C6.12662 7.83324 6.17663 7.75822 6.20789 7.6832C6.32042 7.41438 6.12662 7.12056 5.83904 7.12681C5.70776 7.13306 5.58898 7.19558 5.4952 7.33936C4.5137 8.72722 4.00732 10.2776 4.00106 11.9781C3.99481 13.3534 4.32615 14.6475 4.98882 15.8541C5.33891 16.4917 5.77653 17.0731 6.28291 17.592C6.48296 17.7983 6.70802 17.8171 6.88306 17.6483C7.04561 17.4983 7.05186 17.2669 6.88306 17.0606C6.78304 16.9481 6.67676 16.8356 6.57048 16.7168Z" fill="#1E96FC"/>
<path d="M9.54006 5.23875C10.8904 4.75112 12.2658 4.6886 13.6599 4.99493C13.9224 5.0512 14.1288 4.91991 14.1788 4.6886C14.2225 4.4698 14.0912 4.28225 13.8287 4.21973C13.2348 4.07594 12.6284 4.01968 12.247 4.01343C11.0967 4.01343 10.1902 4.16347 9.315 4.4698C9.16496 4.51981 9.02117 4.57607 8.95241 4.73862C8.89614 4.88866 8.9149 5.03244 9.02117 5.15122C9.16496 5.31377 9.35251 5.30126 9.54006 5.23875Z" fill="#1E96FC"/>
<path d="M8.00195 9.51504C8.00195 9.82137 8.15199 9.99016 8.40206 9.99016C8.64587 9.99016 8.80216 9.81511 8.80216 9.51504C8.80841 8.50852 8.80841 7.50201 8.80216 6.48925C8.80216 6.18917 8.64587 6.00787 8.40831 6.00162C8.15824 5.99537 8.00195 6.17667 8.00195 6.4955C8.00195 6.99563 8.00195 7.49576 8.00195 7.99589C8.00195 8.50227 8.00195 9.00865 8.00195 9.51504Z" fill="#1E96FC"/>
<path d="M9.9964 6.4705C9.9964 6.18292 9.84636 6.00788 9.61505 6.00163C9.38999 5.99538 9.20244 6.17042 9.20244 6.44549C9.19619 7.48326 9.19619 8.52103 9.20244 9.56505C9.20244 9.77761 9.30247 9.9464 9.53378 9.98391C9.79635 10.0339 9.9964 9.85888 10.0027 9.56505C10.0089 9.03992 10.0027 8.52103 10.0027 7.9959C9.9964 7.48951 9.9964 6.97688 9.9964 6.4705Z" fill="#1E96FC"/>
<path d="M12.8097 19.1551C12.5346 19.1676 12.2658 19.1863 11.9907 19.2051C11.9907 19.1988 11.9907 19.1926 11.9907 19.1863C11.8594 19.1863 11.7281 19.1926 11.5969 19.1863C11.4656 19.1801 11.3343 19.1676 11.203 19.1613C10.9154 19.1488 10.7341 19.2864 10.7154 19.5177C10.6966 19.749 10.8529 19.924 11.128 19.9553C11.7094 20.0178 12.297 20.0178 12.8784 19.9553C13.1535 19.924 13.3161 19.7427 13.2973 19.5177C13.2723 19.2801 13.091 19.1426 12.8097 19.1551Z" fill="#1E96FC"/>
</svg>
