<svg width="12" height="16" viewBox="0 0 12 16" fill="none" xmlns="http://www.w3.org/2000/svg">
<path d="M1.2 15.2C0.866667 15.2 0.583333 15.0833 0.35 14.85C0.116667 14.6167 0 14.3333 0 14V4.6C0 4.21333 0.136667 3.88333 0.41 3.61C0.683333 3.33667 1.01333 3.2 1.4 3.2H3.2V0.6C3.2 0.426667 3.25667 0.283333 3.37 0.17C3.48333 0.0566667 3.62667 0 3.8 0H7.4C7.57333 0 7.71667 0.0566667 7.83 0.17C7.94333 0.283333 8 0.426667 8 0.6V3.2H10C10.3333 3.2 10.6167 3.31667 10.85 3.55C11.0833 3.78333 11.2 4.06667 11.2 4.4V14C11.2 14.3333 11.0833 14.6167 10.85 14.85C10.6167 15.0833 10.3333 15.2 10 15.2C10 15.4267 9.92333 15.6167 9.77 15.77C9.61667 15.9233 9.42667 16 9.2 16C8.97333 16 8.78333 15.9233 8.63 15.77C8.47667 15.6167 8.4 15.4267 8.4 15.2H2.8C2.8 15.4267 2.72333 15.6167 2.57 15.77C2.41667 15.9233 2.22667 16 2 16C1.77333 16 1.58333 15.9233 1.43 15.77C1.27667 15.6167 1.2 15.4267 1.2 15.2ZM4 3.2H7.2V0.8H4V3.2ZM1.2 14H10V4.4H1.2V14ZM2.6 12.8H3.4V5.6H2.6V12.8ZM5.2 12.8H6V5.6H5.2V12.8ZM7.8 12.8H8.6V5.6H7.8V12.8ZM1.2 14V4.4V14Z" fill="black"/>
</svg>
