<svg width="18" height="14" viewBox="0 0 18 14" fill="none" xmlns="http://www.w3.org/2000/svg">
<path d="M17.9648 1.6672C17.301 1.94638 16.5923 2.13657 15.8461 2.22341C16.6066 1.7849 17.1915 1.09376 17.4683 0.269134C16.7551 0.667453 15.9646 0.9574 15.1231 1.11888C14.4511 0.430615 13.4934 0 12.43 0C10.3923 0 8.74014 1.58107 8.74014 3.52889C8.74014 3.80879 8.77388 4.07792 8.83538 4.33557C5.76801 4.19706 3.04937 2.78751 1.22995 0.656687C0.909712 1.17486 0.73047 1.777 0.73047 2.43297C0.73047 3.66022 1.38294 4.73891 2.3714 5.37264C1.76618 5.35398 1.19695 5.19465 0.700471 4.93054V4.97432C0.700471 6.68601 1.97017 8.1135 3.65985 8.43861C3.35011 8.51828 3.02312 8.56134 2.68789 8.56134C2.4524 8.56134 2.22666 8.53981 2.00092 8.49962C2.47415 9.90127 3.83459 10.9233 5.45377 10.952C4.19382 11.8986 2.59714 12.4627 0.877463 12.4627C0.584976 12.4627 0.293238 12.4462 0 12.4146C1.64168 13.4151 3.57585 14 5.66751 14C12.4577 14 16.1663 8.62019 16.1663 3.96237C16.1663 3.81238 16.1663 3.66094 16.1551 3.51023C16.8758 3.01574 17.505 2.39063 18 1.68155L17.9648 1.6672Z" fill="white"/>
</svg>
