<svg width="29" height="29" viewBox="0 0 29 29" fill="none" xmlns="http://www.w3.org/2000/svg">
<path d="M23.4697 16.5685C23.1036 16.5685 22.7524 16.714 22.4935 16.973C22.2346 17.2321 22.0891 17.5834 22.0891 17.9498V18.4746L20.0459 16.4303C19.3244 15.7142 18.3493 15.3124 17.3331 15.3124C16.3168 15.3124 15.3417 15.7142 14.6202 16.4303L13.6539 17.3972L10.23 13.9717C9.49849 13.275 8.52719 12.8864 7.51721 12.8864C6.50723 12.8864 5.53593 13.275 4.80439 13.9717L2.76114 16.016V8.28079C2.76114 7.91446 2.9066 7.56312 3.1655 7.30408C3.42441 7.04504 3.77556 6.89951 4.14171 6.89951H13.8057C14.1719 6.89951 14.523 6.75399 14.7819 6.49495C15.0408 6.23591 15.1863 5.88457 15.1863 5.51823C15.1863 5.1519 15.0408 4.80056 14.7819 4.54152C14.523 4.28248 14.1719 4.13695 13.8057 4.13695H4.14171C3.04326 4.13695 1.9898 4.57354 1.21308 5.35066C0.436358 6.12778 0 7.18178 0 8.28079V24.8562C0 25.9552 0.436358 27.0092 1.21308 27.7863C1.9898 28.5634 3.04326 29 4.14171 29H20.7086C21.807 29 22.8605 28.5634 23.6372 27.7863C24.4139 27.0092 24.8503 25.9552 24.8503 24.8562V17.9498C24.8503 17.5834 24.7048 17.2321 24.4459 16.973C24.187 16.714 23.8359 16.5685 23.4697 16.5685ZM4.14171 26.2374C3.77556 26.2374 3.42441 26.0919 3.1655 25.8329C2.9066 25.5738 2.76114 25.2225 2.76114 24.8562V19.925L6.7648 15.9193C6.96762 15.7259 7.23704 15.618 7.51721 15.618C7.79738 15.618 8.0668 15.7259 8.26962 15.9193L12.646 20.2979L18.5825 26.2374H4.14171ZM22.0891 24.8562C22.0872 25.1206 22 25.3773 21.8406 25.5882L15.6143 19.331L16.5807 18.3641C16.6796 18.2631 16.7978 18.1828 16.9282 18.128C17.0585 18.0731 17.1985 18.0449 17.34 18.0449C17.4814 18.0449 17.6214 18.0731 17.7518 18.128C17.8822 18.1828 18.0003 18.2631 18.0993 18.3641L22.0891 22.3837V24.8562ZM28.5916 4.53752L24.4499 0.393683C24.3186 0.267931 24.1638 0.169356 23.9943 0.103615C23.6582 -0.0345382 23.2812 -0.0345382 22.9451 0.103615C22.7756 0.169356 22.6208 0.267931 22.4895 0.393683L18.3478 4.53752C18.2191 4.66631 18.117 4.81921 18.0473 4.98748C17.9776 5.15575 17.9418 5.3361 17.9418 5.51823C17.9418 5.88607 18.0878 6.23884 18.3478 6.49894C18.6078 6.75904 18.9603 6.90517 19.328 6.90517C19.6956 6.90517 20.0482 6.75904 20.3082 6.49894L22.0891 4.70328V12.4246C22.0891 12.791 22.2346 13.1423 22.4935 13.4013C22.7524 13.6604 23.1036 13.8059 23.4697 13.8059C23.8359 13.8059 24.187 13.6604 24.4459 13.4013C24.7048 13.1423 24.8503 12.791 24.8503 12.4246V4.70328L26.6312 6.49894C26.7596 6.62841 26.9123 6.73117 27.0805 6.80129C27.2487 6.87142 27.4292 6.90752 27.6114 6.90752C27.7937 6.90752 27.9741 6.87142 28.1424 6.80129C28.3106 6.73117 28.4633 6.62841 28.5916 6.49894C28.721 6.37053 28.8237 6.21776 28.8938 6.04944C28.9639 5.88112 29 5.70058 29 5.51823C29 5.33589 28.9639 5.15535 28.8938 4.98703C28.8237 4.8187 28.721 4.66593 28.5916 4.53752Z" fill="#ED1C24"/>
</svg>
