<svg width="24" height="24" viewBox="0 0 24 24" fill="none" xmlns="http://www.w3.org/2000/svg">
<path d="M9.41897 8.91897C9.41897 7.49282 10.5739 6.33789 12.0001 6.33789C13.4262 6.33789 14.5811 7.49282 14.5811 8.91897C14.5811 10.3417 13.4258 11.5001 12.0001 11.5001C10.5743 11.5001 9.41897 10.3417 9.41897 8.91897ZM6.33789 16.6217C6.33789 16.292 6.49886 15.9667 6.85113 15.6417C7.20685 15.3135 7.72346 15.0202 8.33491 14.7756C9.55859 14.286 11.036 14.0406 12.0001 14.0406C12.9641 14.0406 14.4415 14.286 15.6652 14.7756C16.2766 15.0202 16.7933 15.3135 17.149 15.6417C17.5012 15.9667 17.6622 16.292 17.6622 16.6217V17.6622H6.33789V16.6217Z" stroke="#1E96FC"/>
<circle cx="12" cy="12" r="11.5" stroke="#1E96FC"/>
</svg>
