<svg width="24" height="18" viewBox="0 0 24 18" fill="none" xmlns="http://www.w3.org/2000/svg">
<path d="M23.1504 4.48995C22.943 4.31307 22.754 4.11789 22.5466 3.94711C18.1795 0.330202 13.2329 -0.792075 7.74351 0.543679C4.92562 1.2329 2.49808 2.67235 0.43041 4.70952C0.0949467 5.03889 -0.0697352 5.43534 0.0278541 5.90499C0.125443 6.38074 0.406013 6.7101 0.869562 6.86868C1.37581 7.03947 1.82106 6.90528 2.19312 6.55152C2.65667 6.10627 3.13241 5.67322 3.65086 5.29506C6.71272 3.0444 10.1344 2.1844 13.8855 2.69674C16.3497 3.03221 18.5576 4.0142 20.5094 5.56343C20.9425 5.90499 21.3206 6.30145 21.7476 6.65521C22.2965 7.11266 23.0711 7.02117 23.5286 6.47223C23.6628 6.30755 23.7116 6.10627 23.8152 5.92939C23.8152 5.7769 23.8152 5.61832 23.8152 5.46584C23.7116 5.05718 23.4615 4.75222 23.1504 4.48995Z" fill="#1E96FC"/>
<path d="M12.0922 4.94141C9.42683 4.9658 7.18837 5.68552 5.19389 7.13107C4.67545 7.50922 4.16921 7.91178 3.75445 8.41193C3.41289 8.82058 3.41289 9.44271 3.71176 9.88796C4.01672 10.3332 4.55956 10.5284 5.07801 10.4064C5.49886 10.3027 5.76113 9.99165 6.0539 9.72938C7.45675 8.48512 9.09747 7.7532 10.9578 7.56412C13.2267 7.33234 15.2944 7.88738 17.1486 9.23533C17.5389 9.522 17.8744 9.86357 18.2465 10.1685C18.5636 10.4186 18.9235 10.5101 19.3138 10.4125C19.7957 10.2966 20.119 9.99165 20.2531 9.5159C20.3934 9.00966 20.2409 8.57051 19.8689 8.20455C17.6487 6.05148 14.9833 4.9902 12.0922 4.94141Z" fill="#1E96FC"/>
<path d="M12.1654 9.82695C10.2197 9.82085 8.56677 10.4918 7.3469 11.6872C6.95045 12.0776 6.83456 12.6509 7.05413 13.1389C7.28591 13.6451 7.75556 13.9257 8.32279 13.8891C8.69485 13.8647 8.96322 13.6634 9.23159 13.4256C10.4027 12.3887 11.7445 12.1264 13.2267 12.6082C13.8183 12.8034 14.294 13.1816 14.7637 13.5841C15.3004 14.0477 16.0628 13.9928 16.5203 13.4865C16.996 12.962 16.9716 12.1935 16.4532 11.6933C15.1845 10.4674 13.6719 9.84524 12.1654 9.82695Z" fill="#1E96FC"/>
<path d="M11.9092 14.6087C10.9821 14.6026 10.2075 15.365 10.2075 16.3043C10.2075 17.2375 10.976 18.006 11.9092 17.9999C12.8485 17.9938 13.6109 17.2253 13.5987 16.2982C13.5865 15.3589 12.8424 14.6148 11.9092 14.6087Z" fill="#1E96FC"/>
</svg>
