<svg width="11" height="14" viewBox="0 0 11 14" fill="none" xmlns="http://www.w3.org/2000/svg">
<path d="M5.5 14C5.61278 13.9993 5.72203 13.9606 5.81 13.89C6 13.72 11 9.69 11 5.5C11 4.04131 10.4205 2.64236 9.38909 1.61091C8.35764 0.579463 6.95869 0 5.5 0C4.04131 0 2.64236 0.579463 1.61091 1.61091C0.579463 2.64236 0 4.04131 0 5.5C0 9.69 5 13.72 5.19 13.89C5.27797 13.9606 5.38722 13.9993 5.5 14ZM1 5.5C1 4.30653 1.47411 3.16193 2.31802 2.31802C3.16193 1.47411 4.30653 1 5.5 1C6.69347 1 7.83807 1.47411 8.68198 2.31802C9.52589 3.16193 10 4.30653 10 5.5C10 8.65 6.565 11.905 5.5 12.845C4.435 11.905 1 8.65 1 5.5Z" fill="#2199F8"/>
<path d="M7.99994 5.49997C7.99994 5.00552 7.85331 4.52217 7.57861 4.11105C7.30391 3.69992 6.91346 3.37949 6.45665 3.19027C5.99983 3.00105 5.49716 2.95154 5.01221 3.04801C4.52726 3.14447 4.0818 3.38257 3.73217 3.7322C3.38254 4.08184 3.14444 4.52729 3.04797 5.01225C2.95151 5.4972 3.00102 5.99986 3.19024 6.45668C3.37946 6.91349 3.69989 7.30394 4.11101 7.57865C4.52213 7.85335 5.00548 7.99997 5.49994 7.99997C6.16298 7.99997 6.79886 7.73658 7.2677 7.26774C7.73654 6.7989 7.99994 6.16301 7.99994 5.49997ZM3.99994 5.49997C3.99994 5.2033 4.08791 4.91329 4.25273 4.66662C4.41755 4.41994 4.65182 4.22768 4.92591 4.11415C5.2 4.00062 5.5016 3.97091 5.79257 4.02879C6.08354 4.08667 6.35082 4.22953 6.5606 4.43931C6.77038 4.64909 6.91324 4.91636 6.97111 5.20734C7.02899 5.49831 6.99929 5.79991 6.88576 6.074C6.77222 6.34809 6.57997 6.58235 6.33329 6.74718C6.08662 6.912 5.79661 6.99997 5.49994 6.99997C5.10211 6.99997 4.72058 6.84194 4.43928 6.56063C4.15797 6.27933 3.99994 5.8978 3.99994 5.49997Z" fill="#2199F8"/>
</svg>
