<svg width="101" height="103" viewBox="0 0 101 103" fill="none" xmlns="http://www.w3.org/2000/svg">
<mask id="path-1-inside-1_451_3" fill="white">
<path d="M101 48.5C101 54.8691 99.6938 61.1759 97.1559 67.0601C94.6181 72.9444 90.8983 78.291 86.2089 82.7947C81.5195 87.2983 75.9525 90.8708 69.8255 93.3082C63.6986 95.7455 57.1318 97 50.5 97C43.8682 97 37.3014 95.7455 31.1745 93.3082C25.0475 90.8708 19.4805 87.2983 14.7911 82.7947C10.1017 78.291 6.38194 72.9444 3.84408 67.0601C1.30622 61.1759 -5.79766e-07 54.8691 0 48.5L50.5 48.5H101Z"/>
</mask>
<path d="M101 48.5C101 54.8691 99.6938 61.1759 97.1559 67.0601C94.6181 72.9444 90.8983 78.291 86.2089 82.7947C81.5195 87.2983 75.9525 90.8708 69.8255 93.3082C63.6986 95.7455 57.1318 97 50.5 97C43.8682 97 37.3014 95.7455 31.1745 93.3082C25.0475 90.8708 19.4805 87.2983 14.7911 82.7947C10.1017 78.291 6.38194 72.9444 3.84408 67.0601C1.30622 61.1759 -5.79766e-07 54.8691 0 48.5L50.5 48.5H101Z" stroke="#1E96FC" stroke-width="4" mask="url(#path-1-inside-1_451_3)"/>
<g filter="url(#filter0_d_451_3)">
<circle cx="50.5" cy="45.5" r="41.5" fill="#ED1C24"/>
</g>
<g filter="url(#filter1_d_451_3)">
<path d="M41 46C44.31 46 47 43.31 47 40C47 36.69 44.31 34 41 34C37.69 34 35 36.69 35 40C35 43.31 37.69 46 41 46ZM65 34H49V48H33V30H29V60H33V54H69V60H73V42C73 37.58 69.42 34 65 34Z" fill="url(#paint0_linear_451_3)" shape-rendering="crispEdges"/>
</g>
<defs>
<filter id="filter0_d_451_3" x="0" y="2" width="101" height="101" filterUnits="userSpaceOnUse" color-interpolation-filters="sRGB">
<feFlood flood-opacity="0" result="BackgroundImageFix"/>
<feColorMatrix in="SourceAlpha" type="matrix" values="0 0 0 0 0 0 0 0 0 0 0 0 0 0 0 0 0 0 127 0" result="hardAlpha"/>
<feOffset dy="7"/>
<feGaussianBlur stdDeviation="4.5"/>
<feComposite in2="hardAlpha" operator="out"/>
<feColorMatrix type="matrix" values="0 0 0 0 0 0 0 0 0 0 0 0 0 0 0 0 0 0 0.25 0"/>
<feBlend mode="normal" in2="BackgroundImageFix" result="effect1_dropShadow_451_3"/>
<feBlend mode="normal" in="SourceGraphic" in2="effect1_dropShadow_451_3" result="shape"/>
</filter>
<filter id="filter1_d_451_3" x="18" y="24" width="66" height="52" filterUnits="userSpaceOnUse" color-interpolation-filters="sRGB">
<feFlood flood-opacity="0" result="BackgroundImageFix"/>
<feColorMatrix in="SourceAlpha" type="matrix" values="0 0 0 0 0 0 0 0 0 0 0 0 0 0 0 0 0 0 127 0" result="hardAlpha"/>
<feOffset dy="5"/>
<feGaussianBlur stdDeviation="5.5"/>
<feComposite in2="hardAlpha" operator="out"/>
<feColorMatrix type="matrix" values="0 0 0 0 0.683333 0 0 0 0 0 0 0 0 0 0.0550553 0 0 0 1 0"/>
<feBlend mode="normal" in2="BackgroundImageFix" result="effect1_dropShadow_451_3"/>
<feBlend mode="normal" in="SourceGraphic" in2="effect1_dropShadow_451_3" result="shape"/>
</filter>
<linearGradient id="paint0_linear_451_3" x1="59" y1="43.5" x2="95.4992" y2="89.0006" gradientUnits="userSpaceOnUse">
<stop stop-color="white"/>
<stop offset="1" stop-color="white" stop-opacity="0"/>
</linearGradient>
</defs>
</svg>
