<svg width="11" height="16" viewBox="0 0 11 16" fill="none" xmlns="http://www.w3.org/2000/svg">
<g clip-path="url(#clip0_241_1105)">
<path d="M5.45243 13.1391C5.49712 13.0497 5.5865 13.005 5.67589 13.005C6.8379 13.005 8.04461 13.005 9.20662 13.005C10.0558 13.005 10.5921 12.4687 10.5921 11.6196C10.5921 11.262 10.5921 10.8598 10.5921 10.5022C10.5921 10.2788 10.5921 10.0553 10.5474 9.83186C10.3686 8.80392 9.51947 8.13353 8.44684 8.13353C7.4636 8.13353 6.52505 8.13353 5.54181 8.13353C5.31835 8.13353 5.27366 8.08884 5.22896 7.86538C5.13958 7.37376 5.05019 6.88214 4.96081 6.39052C4.91611 6.25644 4.96081 6.25644 5.09488 6.25644C5.67589 6.25644 6.2122 6.25644 6.79321 6.25644C7.50829 6.25644 8.17868 6.25644 8.89377 6.25644C9.20662 6.25644 9.47477 6.03297 9.47477 5.72012C9.47477 5.40728 9.20662 5.13912 8.89377 5.13912C7.55299 5.13912 6.2569 5.13912 4.91611 5.13912C4.78204 5.13912 4.73734 5.09443 4.73734 5.00504C4.55857 3.88772 4.33511 2.7704 4.15634 1.69778C4.02226 0.893309 3.39656 0.222918 2.59209 0.0441472C2.14516 -0.0452383 1.74293 -0.000545566 1.296 -0.000545566C0.44684 0.0441472 -0.134166 0.759231 0.0446049 1.5637C0.178683 2.1894 0.268069 2.85979 0.402147 3.48549C0.849074 6.03297 1.34069 8.62515 1.83231 11.1726C2.01109 12.0218 2.45801 12.6475 3.30717 12.9157C3.62002 13.005 3.93287 13.005 4.24572 13.005C4.02226 13.3626 3.84349 13.6754 3.62002 13.9883C3.44125 14.3011 3.35187 14.614 3.44125 14.9715C3.57533 15.5972 4.11164 15.9995 4.78204 15.9995C6.39097 15.9995 7.99991 15.9995 9.60885 15.9995C9.65354 15.9995 9.69824 15.9995 9.74293 15.9995C10.1005 15.9548 10.3239 15.6419 10.2345 15.3291C10.1452 15.0609 9.96639 14.9268 9.60885 14.9268C7.99991 14.9268 6.39097 14.9268 4.78204 14.9268C4.69265 14.9268 4.60326 14.9268 4.55857 14.8374C4.51388 14.7481 4.55857 14.6587 4.60326 14.5693C4.87142 14.033 5.18427 13.586 5.45243 13.1391ZM3.93287 11.8877C3.35187 11.8877 3.03902 11.6196 2.90494 11.0386C2.41332 8.357 1.87701 5.63074 1.38539 2.94918C1.34069 2.45755 1.20662 1.96593 1.11723 1.42962C1.07254 1.16147 1.11723 1.11677 1.38539 1.11677C1.65354 1.11677 1.87701 1.11677 2.14516 1.11677C2.59209 1.11677 2.94963 1.42962 3.03902 1.87655C3.39656 3.79834 3.7541 5.67543 4.06695 7.59722C4.11164 7.82068 4.15634 7.99945 4.20103 8.22292C4.33511 8.84862 4.82673 9.29554 5.49712 9.29554C6.48036 9.29554 7.4636 9.29554 8.44684 9.29554C9.16192 9.29554 9.51947 9.65309 9.51947 10.3682C9.51947 10.7704 9.51947 11.2173 9.51947 11.6196C9.51947 11.843 9.47477 11.8877 9.25131 11.8877C8.35745 11.8877 7.4636 11.8877 6.56974 11.8877C5.67589 11.8877 4.82673 11.8877 3.93287 11.8877Z" fill="#1E96FC"/>
</g>
<defs>
<clipPath id="clip0_241_1105">
<rect width="10.6369" height="16" fill="white"/>
</clipPath>
</defs>
</svg>
