<svg width="14" height="14" viewBox="0 0 14 14" fill="none" xmlns="http://www.w3.org/2000/svg">
<path d="M7 14C5.61553 14 4.26215 13.5895 3.11101 12.8203C1.95987 12.0511 1.06266 10.9579 0.532846 9.67879C0.003033 8.3997 -0.13559 6.99224 0.134506 5.63437C0.404603 4.2765 1.07129 3.02922 2.05026 2.05026C3.02922 1.07129 4.2765 0.404603 5.63437 0.134506C6.99224 -0.13559 8.3997 0.003033 9.67879 0.532846C10.9579 1.06266 12.0511 1.95987 12.8203 3.11101C13.5895 4.26215 14 5.61553 14 7C14 8.85652 13.2625 10.637 11.9497 11.9497C10.637 13.2625 8.85652 14 7 14ZM7 1.16667C5.84628 1.16667 4.71846 1.50879 3.75918 2.14976C2.79989 2.79074 2.05222 3.70178 1.61071 4.76768C1.16919 5.83358 1.05367 7.00647 1.27876 8.13803C1.50384 9.26958 2.05941 10.309 2.87521 11.1248C3.69102 11.9406 4.73042 12.4962 5.86198 12.7212C6.99353 12.9463 8.16642 12.8308 9.23232 12.3893C10.2982 11.9478 11.2093 11.2001 11.8502 10.2408C12.4912 9.28154 12.8333 8.15373 12.8333 7C12.8333 5.45291 12.2188 3.96917 11.1248 2.87521C10.0308 1.78125 8.5471 1.16667 7 1.16667V1.16667Z" fill="#757578"/>
<path d="M9.9165 10.2083C9.77193 10.208 9.63265 10.1539 9.52567 10.0567L6.609 7.43167C6.54857 7.37713 6.50023 7.31055 6.46708 7.2362C6.43392 7.16186 6.4167 7.0814 6.4165 7V4.08333C6.4165 3.92862 6.47796 3.78025 6.58736 3.67085C6.69675 3.56146 6.84513 3.5 6.99984 3.5C7.15455 3.5 7.30292 3.56146 7.41232 3.67085C7.52171 3.78025 7.58317 3.92862 7.58317 4.08333V6.7375L10.3073 9.1875C10.3965 9.26615 10.4596 9.37018 10.488 9.48566C10.5164 9.60113 10.5088 9.72253 10.4663 9.83359C10.4238 9.94465 10.3483 10.0401 10.2501 10.107C10.1518 10.174 10.0354 10.2094 9.9165 10.2083Z" fill="#757578"/>
</svg>
