<svg width="11" height="16" viewBox="0 0 11 16" fill="none" xmlns="http://www.w3.org/2000/svg">
<g clip-path="url(#clip0_280_293)">
<path d="M10.8774 1.40566C10.8774 0.90566 10.6509 0.518868 10.2453 0.235849C10.066 0.113208 9.85849 0.0566038 9.66038 0C6.83019 0 3.99057 0 1.16038 0C1.14151 0.0471698 1.08491 0.0377358 1.0566 0.0471698C0.396226 0.235849 0 0.764151 0 1.4434C0 5.81132 0 10.1887 0 14.5566C0 15.3962 0.613208 16 1.45283 16C4.11321 16 6.77358 16 9.43396 16C9.56604 16 9.69811 15.9906 9.82075 15.9528C10.4623 15.783 10.8774 15.2264 10.8774 14.5283C10.8774 10.8962 10.8774 7.25472 10.8774 3.62264C10.8774 2.88679 10.8774 2.15094 10.8774 1.40566ZM9.9434 13.8679C9.93396 14.0943 9.9434 14.3302 9.9434 14.5566C9.9434 14.8679 9.74528 15.066 9.4434 15.066C6.77358 15.066 4.11321 15.066 1.4434 15.066C1.14151 15.066 0.943396 14.8679 0.943396 14.566C0.943396 14.3302 0.95283 14.0849 0.943396 13.8491C0.943396 13.7358 0.971698 13.717 1.08491 13.717C2.54717 13.717 4 13.717 5.46226 13.717C6.90566 13.717 8.35849 13.717 9.80189 13.717C9.91509 13.717 9.9434 13.7453 9.9434 13.8679ZM9.74528 12.783C6.86792 12.783 3.98113 12.783 1.10377 12.783C0.971698 12.783 0.933962 12.7642 0.933962 12.6226C0.943396 8.91509 0.933962 5.20755 0.933962 1.5C0.933962 1.12264 1.11321 0.943396 1.48113 0.943396C4.11321 0.943396 6.75472 0.943396 9.38679 0.943396C9.74528 0.943396 9.93396 1.12264 9.93396 1.49057C9.93396 3.33962 9.93396 5.18868 9.93396 7.03774C9.93396 8.89623 9.93396 10.7453 9.93396 12.6038C9.9434 12.7547 9.89623 12.783 9.74528 12.783Z" fill="#1E96FC"/>
<path d="M8.42469 4.11258C8.15111 4.11258 7.953 4.32013 7.953 4.62201C7.953 4.81069 7.94356 5.00881 7.953 5.19749C7.953 5.30126 7.92469 5.32013 7.83035 5.32013C7.49073 5.31069 7.14168 5.31069 6.80205 5.32013C6.71715 5.32013 6.68885 5.29183 6.68885 5.20692C6.69828 4.82956 6.68885 4.44277 6.68885 4.06541C6.68885 3.74466 6.50017 3.53711 6.22658 3.53711C5.953 3.53711 5.75488 3.75409 5.75488 4.06541C5.75488 4.61258 5.75488 5.15975 5.75488 5.70692C5.75488 6.26352 5.75488 6.82013 5.75488 7.37673C5.75488 7.65975 5.96243 7.87673 6.22658 7.87673C6.49073 7.87673 6.68885 7.65975 6.68885 7.37673C6.68885 7.04654 6.69828 6.71635 6.68885 6.3956C6.68885 6.28239 6.71715 6.26352 6.83035 6.26352C7.34922 6.27296 7.86809 6.26352 8.39639 6.26352C8.69828 6.26352 8.89639 6.07485 8.89639 5.77296C8.89639 5.3956 8.89639 5.00881 8.89639 4.63145C8.88696 4.32013 8.69828 4.11258 8.42469 4.11258Z" fill="#1E96FC"/>
<path d="M4.30204 7.35771C3.69827 7.34827 3.0945 7.35771 2.49072 7.35771C2.16997 7.35771 1.99072 7.54639 1.99072 7.86714C1.99072 8.16903 1.99072 8.47092 1.99072 8.7728C1.99072 9.07469 1.99072 9.37658 1.99072 9.67846C1.99072 9.98978 2.1794 10.1785 2.48129 10.1785C3.0945 10.1785 3.69827 10.1785 4.31148 10.1785C4.61336 10.1785 4.81148 9.98035 4.81148 9.67846C4.81148 9.07469 4.81148 8.47092 4.81148 7.86714C4.81148 7.55582 4.6228 7.35771 4.30204 7.35771ZM3.76431 9.2445C3.64167 9.2445 3.52846 9.2445 3.40582 9.2445C3.27374 9.2445 3.14167 9.2445 3.01902 9.2445C2.95299 9.2445 2.92468 9.22563 2.92468 9.15016C2.92468 8.89544 2.92468 8.64073 2.92468 8.38601C2.92468 8.31054 2.94355 8.28224 3.01902 8.28224C3.27374 8.28224 3.52846 8.28224 3.78318 8.28224C3.84921 8.28224 3.86808 8.31054 3.86808 8.37658C3.86808 8.63129 3.85865 8.88601 3.86808 9.14073C3.87751 9.23507 3.83978 9.2445 3.76431 9.2445Z" fill="#1E96FC"/>
<path d="M4.30189 3.52734C3.70755 3.52734 3.10377 3.52734 2.50943 3.52734C2.18868 3.52734 2 3.71602 2 4.02734C2 4.64055 2 5.24432 2 5.85753C2 6.16885 2.18868 6.3481 2.5 6.3481C2.80189 6.3481 3.10377 6.3481 3.40566 6.3481C3.70755 6.3481 4.00943 6.3481 4.31132 6.3481C4.63208 6.3481 4.82075 6.15942 4.82075 5.8481C4.82075 5.25376 4.82075 4.64999 4.82075 4.05565C4.81132 3.72546 4.62264 3.53678 4.30189 3.52734ZM3.87736 4.95187C3.87736 5.07451 3.87736 5.19715 3.87736 5.32923C3.87736 5.39527 3.85849 5.42357 3.79245 5.41414C3.53774 5.41414 3.28302 5.41414 3.0283 5.41414C2.95283 5.41414 2.92453 5.39527 2.93396 5.3198C2.93396 5.06508 2.93396 4.81036 2.93396 4.55565C2.93396 4.48961 2.95283 4.47074 3.01887 4.47074C3.27358 4.47074 3.5283 4.47074 3.78302 4.47074C3.85849 4.47074 3.88679 4.48961 3.87736 4.56508C3.86792 4.68772 3.87736 4.8198 3.87736 4.95187Z" fill="#1E96FC"/>
<path d="M8.8866 7.73566C8.8866 7.43378 8.69792 7.22623 8.42433 7.2168C8.15075 7.2168 7.95264 7.42434 7.95264 7.72623C7.95264 8.36774 7.95264 9.01868 7.95264 9.66019C7.95264 9.96208 8.15075 10.1791 8.42433 10.1791C8.69792 10.1791 8.8866 9.97151 8.89603 9.66963C8.89603 9.34887 8.89603 9.02812 8.89603 8.69793C8.89603 8.36774 8.8866 8.05642 8.8866 7.73566Z" fill="#1E96FC"/>
<path d="M6.23577 8.81089C5.99048 8.80145 5.7735 8.99013 5.75463 9.24485C5.7452 9.41466 5.7452 9.57504 5.75463 9.74485C5.7735 9.9807 5.97162 10.1694 6.20746 10.1788C6.42445 10.1882 6.64143 10.0279 6.67916 9.80145C6.69803 9.69768 6.67916 9.5939 6.67916 9.49013H6.6886C6.6886 9.41466 6.6886 9.34862 6.6886 9.27315C6.67916 9.01843 6.49048 8.82032 6.23577 8.81089Z" fill="#1E96FC"/>
</g>
<defs>
<clipPath id="clip0_280_293">
<rect width="10.8774" height="16" fill="white"/>
</clipPath>
</defs>
</svg>
