<svg width="16" height="8" viewBox="0 0 16 8" fill="none" xmlns="http://www.w3.org/2000/svg">
<g clip-path="url(#clip0_280_287)">
<path d="M15.9171 4.15882L15.9172 4.15907C16.0494 4.57321 16.1039 5.00116 15.9699 5.44848C15.8086 6.08339 15.3948 6.48763 14.7696 6.65731M15.9171 4.15882L11.3347 6.79723C11.5582 7.54831 12.2208 8.05036 12.9913 8.05036C13.7536 8.05036 14.4251 7.53033 14.6308 6.77879L14.6311 6.77771C14.6424 6.73262 14.6575 6.71092 14.6749 6.69687C14.6943 6.68119 14.7221 6.67026 14.7696 6.65731M15.9171 4.15882C15.6876 3.45263 15.2692 2.90602 14.5181 2.69142L14.5177 2.69132M15.9171 4.15882L14.5177 2.69132M14.7696 6.65731L14.7565 6.60906L14.7697 6.6573C14.7697 6.6573 14.7696 6.65731 14.7696 6.65731ZM14.5177 2.69132C14.1967 2.60214 13.8591 2.61126 13.5391 2.61991L13.5378 2.61995L13.5376 2.61995M14.5177 2.69132L13.5376 2.61995M13.5376 2.61995C13.2644 2.62823 13.0323 2.53775 12.814 2.36147C12.4052 2.03093 11.9942 1.70259 11.5834 1.37436L11.5834 1.37434L11.5834 1.37433C11.1725 1.04606 10.7617 0.717891 10.3532 0.387568L10.3531 0.387499M13.5376 2.61995L10.3531 0.387499M10.3531 0.387499C9.98801 0.0936558 9.56816 -0.0584545 9.09518 -0.0496373H9.08658H9.07751H9.05938H9.05031H9.04124H9.03217H9.0231H9.01404H9.00497H8.98683H8.95057H8.9415H8.93244H8.92337H8.9143H8.90524H8.89617H8.87805H8.86898H8.85992H8.84179H8.83272H8.82366H8.8146H8.80553H8.79647H8.78741H8.77834H8.76928H8.73303H8.71491H8.70585H8.69678H8.68772H8.67866H8.6696H8.66054H8.6243H8.60618H8.58806H8.579H8.56994H8.56088H8.55182H8.54277H8.53371H8.51559H8.47936H8.44313H8.43407H8.42502H8.41596H8.4069H8.37068H8.33446H8.29824H8.28918H8.28013H8.27107H8.26202H8.24391H8.2258H8.2077H8.18959H8.18054H8.17148H8.16243H8.15338H8.14432H8.13527H8.12622H8.11717H8.08096H8.06285H8.0538H8.04475H8.0357H8.02665H8.0176H8.00855H7.97234H7.96329H7.95424H7.93614H7.89994H7.89089H7.88184H7.87279H7.86374H7.82755H7.79135H7.77325H7.75516H7.71896H7.70992H7.70087H7.69182H7.68277H7.67372H7.66468H7.65563H7.64658H7.63753H7.62849H7.61944H7.61039H7.60135H7.5923H7.58325H7.57421H7.56516H7.55611H7.54706H7.53802H7.52897H7.51993H7.51088H7.50183H7.49279H7.48374H7.47469H7.46565H7.4566H7.44756H7.43851H7.42946H7.42042H7.41137H7.40233H7.39328H7.3571H7.28474H7.27569H7.26665H7.2576H7.24856H7.23951H7.23047H7.22142H7.21238H7.1762H7.14002H7.13098H7.12193H7.10384H7.06767H6.99531H6.97723H6.96818H6.95914H6.95009H6.94105H6.93201H6.92296H6.85061H6.84157H6.83252H6.82348H6.81444H6.80539H6.79635H6.7873H6.77826H6.76922H6.76017H6.75113H6.74209H6.70591H6.68782H6.67878H6.66973H6.63356H6.59738H6.58834H6.5793H6.57025H6.56121H6.55216H6.54312H6.53408H6.52503H6.51599H6.50694H6.4979H6.48885H6.47981H6.47077H6.46172H6.45268H6.44363H6.43459H6.42554H6.4165H6.34414H6.3351H6.32605H6.30796H6.29892H6.28987H6.27178H6.2356H6.22656H6.21751H6.20847H6.19942H6.12706H6.05469H6.0366H6.02755H6.0185H6.00946H6.00041H5.99136H5.98232H5.90994H5.83756H5.82851H5.81946H5.81041H5.80137H5.76517H5.72898H5.69278H5.62038H5.61133H5.60228H5.59323H5.58418H5.54798H5.47556H5.40315H5.36693H5.35788H5.34883H5.33072H5.25829H5.24923H5.24018H5.23112H5.22206H5.21301H5.20395H5.1949H5.18584H5.17679H5.16773H5.15867H5.14962H5.14056H5.13151H5.12245H5.11339H5.10433H5.09528H5.08622H5.07716H5.0681H5.05905H5.04093H5.02281H5.01376H5.0047H4.96846H4.93222H4.92316H4.9141H4.89598H4.87786H4.8688H4.85974H4.84161H4.83255H4.82349H4.78724H4.75099H4.73286H4.71473H4.67848H4.64222H4.63315H4.62409H4.61502H4.60595H4.56969H4.53342H4.52435H4.51528H4.50621H4.49715H4.48808H4.47901H4.46994H4.46087C3.7922 -0.0496373 3.27216 0.228112 2.90629 0.781226C2.82362 0.903062 2.74096 1.02704 2.65844 1.15082L2.6584 1.15089C2.57577 1.27483 2.49327 1.39857 2.4108 1.52011L2.41057 1.52045M10.3531 0.387499L2.41057 1.52045M2.41057 1.52045C2.22799 1.79433 1.98155 1.93385 1.65831 1.95043L1.65827 1.95043M2.41057 1.52045L1.65827 1.95043M1.65827 1.95043C1.23242 1.97261 0.876096 2.09712 0.595768 2.32341C0.315706 2.54949 0.115293 2.87407 -0.00433894 3.29007C-0.00779418 3.3009 -0.00933236 3.31211 -0.0102689 3.31893L-0.0104006 3.31989C-0.0113859 3.32703 -0.0120122 3.33128 -0.0127576 3.33453M1.65827 1.95043L-0.0127576 3.33453M-0.0127576 3.33453L-0.05 3.34198V3.38297V3.38659V3.39021V3.39382V3.39744V3.40106V3.40468V3.4083V3.41192V3.41554V3.41916V3.42278V3.4264V3.43002V3.43364V3.43726V3.44088V3.4445V3.44812V3.45174V3.45536V3.45898V3.4626V3.46623V3.46985V3.47347V3.47709V3.48072V3.48434V3.48796V3.49159V3.49521V3.49883V3.50246V3.50608V3.5097V3.51333V3.51695V3.52058V3.5242V3.52783V3.53145V3.53508V3.5387V3.54233V3.54596V3.54958V3.55321V3.55683V3.56046V3.56409V3.56772V3.57134V3.57497V3.5786V3.58223V3.58585V3.58948V3.59311V3.59674V3.60037V3.604V3.60763V3.61125V3.61488V3.61851V3.62214V3.62577V3.6294V3.63303V3.63666V3.64029V3.64393V3.64756V3.65119V3.65482V3.65845V3.66208V3.66571V3.66935V3.67298V3.67661V3.68024V3.68387V3.68751V3.69114V3.69477V3.69841V3.70204V3.70567V3.70931V3.71294V3.71658V3.72021V3.72384V3.72748V3.73111V3.73475V3.73838V3.74202V3.74565V3.74929V3.75293V3.75656V3.7602V3.76383V3.76747V3.77111V3.77474V3.77838V3.78202V3.78565V3.78929V3.79293V3.79657V3.8002V3.80384V3.80748V3.81112V3.81476V3.8184V3.82203V3.82567V3.82931V3.83295V3.83659V3.84023V3.84387V3.84751V3.85115V3.85479V3.85843V3.86207V3.86571V3.86935V3.87299V3.87663V3.88027V3.88392V3.88756V3.8912V3.89484V3.89848V3.90212V3.90577V3.90941V3.91305V3.91669V3.92034V3.92398V3.92762V3.93126V3.93491V3.93855V3.94219V3.94584V3.94948V3.95313V3.95677V3.96041V3.96406V3.9677V3.97135V3.97499V3.97864V3.98228V3.98593V3.98957V3.99322V3.99686V4.00051V4.00415V4.0078V4.01145V4.01509V4.01874V4.02239V4.02603V4.02968V4.03333V4.03697V4.04062V4.04427V4.04791V4.05156V4.05521V4.05886V4.06251V4.06615V4.0698V4.07345V4.0771V4.08075V4.0844V4.08804V4.09169V4.09534V4.09899V4.10264V4.10629V4.10994V4.11359V4.11724V4.12089V4.12454V4.12819V4.13184V4.13549V4.13914V4.14279V4.14644V4.15009V4.15374V4.15739V4.16104V4.1647V4.16835V4.172V4.17565V4.1793V4.18295V4.18661V4.19026V4.19391V4.19756V4.20121V4.20487V4.20852V4.21217V4.21583V4.21948V4.22313V4.22679V4.23044V4.23409V4.23775V4.2414V4.24505V4.24871V4.25236V4.25601V4.25967V4.26332V4.26698V4.27063V4.27429V4.27794V4.2816V4.28525V4.28891V4.29256V4.29622V4.29987V4.30353V4.30718V4.31084V4.31449V4.31815V4.32181V4.32546V4.32912V4.33277V4.33643V4.34009V4.34374V4.3474V4.35106V4.35471V4.35837V4.36203V4.36568V4.36934V4.373V4.37666V4.38031V4.38397V4.38763V4.39128V4.39494V4.3986V4.40226V4.40592V4.40957V4.41323V4.41689V4.42055V4.42421V4.42787V4.43153V4.43518V4.43884V4.4425V4.44616V4.44982V4.45348V4.45714V4.4608V4.46446V4.46812V4.47178V4.47544V4.4791V4.48276V4.48642V4.49008V4.49374V4.4974V4.50106V4.50472V4.50838V4.51204V4.5157V4.51936V4.52302V4.52668V4.53034V4.534V4.53766V4.54133V4.54499V4.54865V4.55231V4.55597V4.55963V4.56329V4.56696V4.57062V4.57428V4.57794V4.5816V4.58526V4.58893V4.59259V4.59625V4.59991V4.60358V4.60724V4.6109V4.61456V4.61823V4.62189V4.62555V4.62921V4.63288V4.63654V4.6402V4.64387V4.64753V4.65119V4.65486V4.65852V4.66218V4.66585V4.66951V4.67317V4.67684V4.6805V4.68416V4.68783V4.69149V4.69516V4.69882V4.70248V4.70615V4.70981V4.71348V4.71714V4.7208V4.72447V4.72813V4.7318V4.73546V4.73913V4.74279V4.74646V4.75012V4.75379V4.75745V4.76112V4.76478V4.76845V4.77211V4.77578V4.77944V4.78311V4.78677V4.79044V4.7941V4.79777V4.80143V4.8051V4.80877V4.81243V4.8161V4.81976V4.82343V4.82709V4.83076V4.83443V4.83809V4.84176V4.84542V4.84909V4.85276V4.85642V4.86009V4.86376V4.86742V4.87109V4.87475V4.87842V4.88209V4.88575V4.88942V4.89309V4.89675V4.90042V4.90409V4.90775V4.91142V4.91509V4.91875V4.92242V4.92609V4.92975V4.93342V4.93709V4.94076V4.94442V4.94809V4.95176V4.95542V4.95909V4.96276V4.96643V4.97009V4.97376V4.97743V4.9811V4.98476V4.98843V4.9921V4.99577V4.99943V5.0031V5.00677V5.01044V5.0141V5.01777V5.02144V5.02511V5.02877V5.03244V5.03611V5.03978V5.04345V5.04711V5.05078V5.05445V5.05812V5.06178V5.06545V5.06912V5.07279V5.07646V5.08012V5.08379V5.08746V5.09113V5.0948V5.09847V5.10213V5.1058V5.10947V5.11314V5.11681V5.12047V5.12414V5.12781V5.13148V5.13515V5.13882V5.14248V5.14615V5.14982V5.15349V5.15716V5.16083V5.16449V5.16816V5.17183V5.1755V5.17917V5.18284V5.1865V5.19017V5.19384V5.19751V5.20118V5.20485V5.20852V5.21218V5.21585V5.21952V5.22319V5.22686V5.23053V5.23419V5.23786V5.24153V5.2452V5.24887V5.25254V5.27325L-0.0353553 5.28789C-0.0328783 5.29037 -0.0304801 5.29246 -0.028635 5.29402L-0.0237152 5.29806L-0.0225339 5.29906C0.0530371 5.65371 0.197891 5.94672 0.412414 6.17584C0.627123 6.40516 0.909321 6.56803 1.25558 6.66576M-0.0127576 3.33453L1.3308 6.75745C1.32336 6.73101 1.31886 6.71506 1.30999 6.70112C1.30226 6.68897 1.28922 6.67592 1.25558 6.66576M1.25558 6.66576C1.25545 6.66572 1.25532 6.66568 1.2552 6.66565L1.26957 6.61775L1.25599 6.66588C1.25585 6.66584 1.25571 6.6658 1.25558 6.66576ZM15.2293 5.30303L15.2295 5.30216L15.2783 5.31341L15.2293 5.30303ZM15.2293 5.30303C15.1727 5.56994 14.987 5.7506 14.7356 5.86798M15.2293 5.30303L14.7356 5.86798M14.7356 5.86798C14.7128 5.87835 14.6969 5.88404 14.6852 5.88642C14.6741 5.88867 14.6702 5.88724 14.6692 5.88682C14.668 5.88632 14.6635 5.88411 14.6561 5.87312C14.6485 5.86192 14.6399 5.84464 14.6297 5.81834C14.2982 4.80829 13.1615 4.32422 12.2207 4.80803C11.7823 5.03174 11.4864 5.39056 11.3434 5.86417L11.3434 5.86417L11.3431 5.86547C11.3306 5.91114 11.3187 5.93082 11.3062 5.94116C11.2945 5.95081 11.2739 5.95906 11.2261 5.95906H11.2135H11.2008H11.1882H11.1755H11.1629H11.1503H11.1376H11.125H11.1124H11.0997H11.0871H11.0744H11.0618H11.0492H11.0365H11.0239H11.0112H10.9986H10.986H10.9733H10.9607H10.9481H10.9354H10.9228H10.9101H10.8975H10.8848H10.8722H10.8596H10.8469H10.8343H10.8216H10.809H10.7964H10.7837H10.7711H10.7584H10.7458H10.7331H10.7205H10.7079H10.6952H10.6826H10.6699H10.6573H10.6446H10.632H10.6194H10.6067H10.5941H10.5814H10.5688H10.5561H10.5435H10.5308H10.5182H10.5055H10.4929H10.4803H10.4676H10.455H10.4423H10.4297H10.417H10.4044H10.3917H10.3791H10.3664H10.3538H10.3411H10.3285H10.3158H10.3032H10.2905H10.2779H10.2652H10.2526H10.2399H10.2273H10.2146H10.202H10.1893H10.1767H10.164H10.1514H10.1387H10.1261H10.1134H10.1008H10.0881H10.0755H10.0628H10.0502H10.0375H10.0249H10.0122H9.99959H9.98694H9.97429H9.96163H9.94898H9.93633H9.92368H9.91103H9.89837H9.88572H9.87307H9.86042H9.84776H9.83511H9.82246H9.8098H9.79715H9.7845H9.77184H9.75919H9.74654H9.73388H9.72123H9.70857H9.69592H9.68327H9.67061H9.65796H9.6453H9.63265H9.61999H9.60734H9.59468H9.58203H9.56937H9.55672H9.54406H9.53141H9.51875H9.50609H9.49344H9.48078H9.46813H9.45547H9.44281H9.43016H9.4175H9.40485H9.39219H9.37953H9.36688H9.35422H9.34156H9.32891H9.31625H9.30359H9.29093H9.27828H9.26562H9.25296H9.2403H9.22765H9.21499H9.20233H9.18967H9.17702H9.16436H9.1517H9.13904H9.12638H9.11373H9.10107H9.08841H9.07575H9.06309H9.05043H9.03778H9.02512H9.01246H8.9998H8.98714H8.97448H8.96182H8.94916H8.9365H8.92384H8.91119H8.89853H8.88587H8.87321H8.86055H8.84789H8.83523H8.82257H8.80991H8.79725H8.78459H8.77193H8.75927H8.74661H8.73395H8.72129H8.70863H8.69597H8.68331H8.67065H8.65799H8.64533H8.63267H8.62001H8.60735H8.59469H8.58203H8.56937H8.55671H8.54405H8.53138H8.51872H8.50606H8.4934H8.48074H8.46808H8.45542H8.44276H8.4301H8.41744H8.40478H8.39212H8.37945H8.36679H8.35413H8.34147H8.32881H8.31615H8.30349H8.29083H8.27817H8.2655H8.25284H8.24018H8.22752H8.21486H8.2022H8.18954H8.17688H8.16422H8.15155H8.13889H8.12623H8.11357H8.10091H8.08825H8.07559H8.06293H8.05026H8.0376H8.02494H8.01228H7.99962H7.98696H7.9743H7.96163H7.94897H7.93631H7.92365H7.91099H7.89833H7.88567H7.873H7.86034H7.84768H7.83502H7.82236H7.8097H7.79704H7.78438H7.77171H7.75905H7.74639H7.73373H7.72107H7.70841H7.69575H7.68309H7.67043H7.65776H7.6451H7.63244H7.61978H7.60712H7.59446H7.5818H7.56914H7.55648H7.54382H7.53115H7.51849H7.50583H7.49317H7.48051H7.46785H7.45519H7.44253H7.42987H7.41721H7.40455H7.39189H7.37923H7.36657H7.35391H7.34125H7.32859H7.31592H7.30326H7.2906H7.27794H7.26528H7.25262H7.23996H7.2273H7.21464H7.20198H7.18932H7.17666H7.164H7.15135H7.13869H7.12603H7.11337H7.10071H7.08805H7.07539H7.06273H7.05007H7.03741H7.02475H7.01209H6.99943H6.98677H6.97412H6.96146H6.9488H6.93614H6.92348H6.91082H6.89816H6.88551H6.87285H6.86019H6.84753H6.83487H6.82221H6.80956H6.7969H6.78424H6.77158H6.75892H6.74627H6.73361H6.72095H6.70829H6.69564H6.68298H6.67032H6.65767H6.64501H6.63235H6.61969H6.60704H6.59438H6.58172H6.56907H6.55641H6.54376H6.5311H6.51844H6.50579H6.49313H6.48047H6.46782H6.45516H6.44251H6.42985H6.4172H6.40454H6.39189H6.37923H6.36658H6.35392H6.34127H6.32861H6.31596H6.3033H6.29065H6.27799H6.26534H6.25269H6.24003H6.22738H6.21472H6.20207H6.18942H6.17676H6.16411H6.15146H6.1388H6.12615H6.1135H6.10084H6.08819H6.07554H6.06289H6.05023H6.03758H6.02493H6.01228H5.99963H5.98698H5.97432H5.96167H5.94902H5.93637H5.92372H5.91107H5.89842H5.88577H5.87312H5.86047H5.84781H5.83516H5.82251H5.80986H5.79721H5.78456H5.77192H5.75927H5.74662H5.73397H5.72132H5.70867H5.69602H5.68337H5.67072H5.65808H5.64543H5.63278H5.62013H5.60748H5.59484H5.58219H5.56954H5.5569H5.54425H5.5316H5.51895H5.50631H5.49366H5.48102H5.46837H5.45572H5.44308H5.43043H5.41779H5.40514H5.3925H5.37985H5.36721H5.35456H5.34192H5.32927H5.31663H5.30399H5.29134H5.2787H5.26606H5.25341H5.24077H5.22813H5.21548H5.20284H5.1902H5.17756H5.16491H5.15227H5.13963H5.12699H5.11435H5.10171H5.08906H5.07642H5.06378H5.05114H5.0385H5.02586H5.01322H5.00058H4.98794H4.9753H4.96266H4.95003H4.93739H4.92475H4.91211H4.89947H4.88683H4.87419H4.86156H4.84892H4.83628H4.82364H4.81101H4.79837H4.78573H4.7731H4.76046H4.74783C4.70275 5.95906 4.68435 5.95246 4.67405 5.94449C4.66355 5.93638 4.6519 5.91948 4.63954 5.87416L4.63955 5.87416L4.63934 5.87343C4.42459 5.13075 3.77956 4.63786 3.0186 4.61994C3.01861 4.61994 3.01862 4.61994 3.01863 4.61994L14.7356 5.86798ZM4.74775 6.71123C4.74777 6.71123 4.7478 6.71123 4.74783 6.71123V6.66123L4.74762 6.71123C4.74766 6.71123 4.74771 6.71123 4.74775 6.71123ZM1.3344 6.77016C1.45088 7.20876 1.71102 7.54919 2.086 7.79025L2.08633 7.79045C3.03646 8.39101 4.30809 7.90682 4.6305 6.82343L1.3344 6.77016ZM3.0079 7.2808L3.00789 7.2808C2.49689 7.28905 2.05 6.8509 2.05 6.3308C2.05 5.819 2.47138 5.38949 2.9913 5.38949C3.51208 5.38949 3.95 5.81984 3.95 6.33949C3.95 6.85058 3.52917 7.27253 3.0079 7.2808ZM13 7.28079L12.9992 7.2808C12.4886 7.28904 12.0417 6.84278 12.05 6.3229V6.3221C12.05 5.8023 12.4879 5.37254 13.0079 5.38079C13.5288 5.38906 13.9496 5.81913 13.9413 6.32999V6.3308C13.9413 6.85158 13.5196 7.2808 13 7.28079ZM3.01857 4.61994C2.29151 4.60202 1.60266 5.09491 1.3699 5.81082C1.35966 5.84151 1.35062 5.86012 1.34299 5.87103C1.33935 5.87624 1.33661 5.87884 1.33502 5.88008C1.33362 5.88117 1.33293 5.88136 1.33265 5.88143C1.33193 5.88162 1.32708 5.88267 1.31347 5.8781C1.29976 5.8735 1.28242 5.86505 1.25873 5.85212L1.25873 5.85211L1.25758 5.85151C0.916777 5.67696 0.736166 5.39732 0.719526 5.02446C0.70212 4.52837 0.684918 4.03597 0.728052 3.55276C0.769372 3.11542 1.11584 2.77003 1.54297 2.73717L1.54337 2.73714C1.95388 2.7022 2.34982 2.63181 2.68399 2.35198C2.8282 2.23474 2.94445 2.09128 3.04193 1.94065C3.10213 1.84857 3.16475 1.75657 3.22792 1.66375C3.31743 1.53223 3.40804 1.39908 3.49449 1.26179L3.49449 1.26179L3.49488 1.26114C3.6126 1.06775 3.75633 0.928897 3.92561 0.839098C4.09502 0.749227 4.29283 0.707002 4.52081 0.711225L4.52116 0.711229C5.0262 0.717034 5.53543 0.715093 6.04291 0.713159C6.29595 0.712195 6.54856 0.711232 6.8 0.711232H6.80443H6.80887H6.8133H6.81773H6.82217H6.8266H6.83103H6.83547H6.8399H6.84434H6.84877H6.85321H6.85764H6.86208H6.86651H6.87095H6.87538H6.87982H6.88426H6.88869H6.89313H6.89757H6.902H6.90644H6.91088H6.91532H6.91975H6.92419H6.92863H6.93307H6.93751H6.94195H6.94638H6.95082H6.95526H6.9597H6.96414H6.96858H6.97302H6.97746H6.9819H6.98634H6.99078H6.99522H6.99966H7.0041H7.00855H7.01299H7.01743H7.02187H7.02631H7.03075H7.0352H7.03964H7.04408H7.04852H7.05297H7.05741H7.06185H7.06629H7.07074H7.07518H7.07963H7.08407H7.08851H7.09296H7.0974H7.10185H7.10629H7.11073H7.11518H7.11963H7.12407H7.12852H7.13296H7.13741H7.14185H7.1463H7.15074H7.15519H7.15964H7.16408H7.16853H7.17298H7.17742H7.18187H7.18632H7.19076H7.19521H7.19966H7.20411H7.20855H7.213H7.21745H7.2219H7.22635H7.23079H7.23524H7.23969H7.24414H7.24859H7.25304H7.25749H7.26194H7.26639H7.27083H7.27528H7.27973H7.28418H7.28863H7.29308H7.29753H7.30198H7.30643H7.31088H7.31534H7.31979H7.32424H7.32869H7.33314H7.33759H7.34204H7.34649H7.35094H7.35539H7.35985H7.3643H7.36875H7.3732H7.37765H7.38211H7.38656H7.39101H7.39546H7.39992H7.40437H7.40882H7.41327H7.41773H7.42218H7.42663H7.43109H7.43554H7.43999H7.44445H7.4489H7.45335H7.45781H7.46226H7.46671H7.47117H7.47562H7.48008H7.48453H7.48898H7.49344H7.49789H7.50235H7.5068H7.51126H7.51571H7.52017H7.52462H7.52908H7.53353H7.53798H7.54244H7.5469H7.55135H7.55581H7.56026H7.56472H7.56917H7.57363H7.57808H7.58254H7.587H7.59145H7.59591H7.60036H7.60482H7.60927H7.61373H7.61819H7.62264H7.6271H7.63156H7.63601H7.64047H7.64493H7.64938H7.65384H7.6583H7.66275H7.66721H7.67167H7.67612H7.68058H7.68504H7.68949H7.69395H7.69841H7.70286H7.70732H7.71178H7.71624H7.72069H7.72515H7.72961H7.73407H7.73852H7.74298H7.74744H7.75189H7.75635H7.76081H7.76527H7.76973H7.77418H7.77864H7.7831H7.78756H7.79201H7.79647H7.80093H7.80539H7.80985H7.8143H7.81876H7.82322H7.82768H7.83214H7.83659H7.84105H7.84551H7.84997H7.85443H7.85888H7.86334H7.8678H7.87226H7.87672H7.88117H7.88563H7.89009H7.89455H7.89901H7.90346H7.90792H7.91238H7.91684H7.9213H7.92576H7.93021H7.93467H7.93913H7.94359H7.94805H7.95251H7.95696H7.96142H7.96588H7.97034H7.9748H7.97925H7.98371H7.98817H7.99263H7.99709H8.00154H8.006H8.01046H8.01492H8.01938H8.02384H8.02829H8.03275H8.03721H8.04167H8.04613H8.05058H8.05504H8.0595H8.06396H8.06842H8.07287H8.07733H8.08179H8.08625H8.0907H8.09516H8.09962H8.10408H8.10854H8.11299H8.11745H8.12191H8.12637H8.13082H8.13528H8.13974H8.1442H8.14865H8.15311H8.15757H8.16203H8.16648H8.17094H8.1754H8.17985H8.18431H8.18877H8.19322H8.19768H8.20214H8.2066H8.21105H8.21551H8.21997H8.22442H8.22888H8.23334H8.23779H8.24225H8.24671H8.25116H8.25562H8.26007H8.26453H8.26899H8.27344H8.2779H8.28235H8.28681H8.29127H8.29572H8.30018H8.30463H8.30909H8.31354H8.318H8.32246H8.32691H8.33137H8.33582H8.34028H8.34473H8.34919H8.35364H8.3581H8.36255H8.36701H8.37146H8.37591H8.38037H8.38482H8.38928H8.39373H8.39819H8.40264H8.40709H8.41155H8.416H8.42045H8.42491H8.42936H8.43382H8.43827H8.44272H8.44718H8.45163H8.45608H8.46054H8.46499H8.46944H8.47389H8.47835H8.4828H8.48725H8.4917H8.49615H8.50061H8.50506H8.50951H8.51396H8.51841H8.52287H8.52732H8.53177H8.53622H8.54067H8.54512H8.54957H8.55402H8.55848H8.56293H8.56738H8.57183H8.57628H8.58073H8.58518H8.58963H8.59408H8.59853H8.60298H8.60743H8.61188H8.61633H8.62077H8.62522H8.62967H8.63412H8.63857H8.64302H8.64747H8.65192H8.65636H8.66081H8.66526H8.66971H8.67416H8.6786H8.68305H8.6875H8.69194H8.69639H8.70084H8.70529H8.70973H8.71418H8.71863H8.72307H8.72752H8.73196H8.73641H8.74085H8.7453H8.74975H8.75419H8.75864H8.76308H8.76753H8.77197H8.77641H8.78086H8.7853H8.78975H8.79419H8.79864H8.80308H8.80752H8.81197H8.81641H8.82085H8.8253H8.82974H8.83418H8.83862H8.84307H8.84751H8.85195H8.85639H8.86083H8.86527H8.86972H8.87416H8.8786H8.88304H8.88748H8.89192H8.89636H8.9008H8.90524H8.90968H8.91412H8.91856H8.923H8.92744H8.93188H8.93632H8.94075H8.94519H8.94963H8.95407H8.95851H8.96294H8.96738H8.97182H8.97626H8.98069H8.98513H8.98957H8.994H8.99844H9.00288H9.00731H9.01175H9.01618H9.02062H9.02505H9.02949H9.03392H9.03836H9.04279H9.04723H9.05166H9.0561H9.06053H9.06496H9.0694H9.07383H9.07826C9.38045 0.711232 9.62992 0.794617 9.86391 0.986826L9.86422 0.98707C10.2053 1.26287 10.5461 1.53534 10.8861 1.80721C11.3616 2.18749 11.8357 2.5666 12.3073 2.95201C12.6731 3.2553 13.0934 3.3983 13.5657 3.38949H13.5662H13.5672H13.5681H13.5691H13.5701H13.571H13.572H13.573H13.5739H13.5749H13.5759H13.5768L3.01857 4.61994ZM14.8813 3.81238L14.8818 3.81309L14.9217 3.78297L14.8813 3.81238Z" fill="#1E96FC" stroke="#1E96FC" stroke-width="0.1"/>
<path d="M10.8606 2.61197L10.8611 2.61197C11.0419 2.61197 11.17 2.6526 11.2559 2.72337C11.3426 2.79477 11.3795 2.8911 11.3891 2.98743L11.3896 2.9924H11.3894C11.3894 3.08927 11.36 3.19176 11.2735 3.26797C11.1878 3.34345 11.0539 3.38601 10.8601 3.38152M10.8606 2.61197L10.8611 3.33153M10.8606 2.61197C10.4044 2.61632 9.95026 2.61632 9.49588 2.61632H9.49569C9.04152 2.61632 8.58708 2.61632 8.13043 2.62066M10.8606 2.61197L10.8611 2.66197M10.8601 3.38152C10.86 3.38152 10.86 3.38152 10.8599 3.38152L10.8611 3.33153M10.8601 3.38152C10.8601 3.38152 10.8602 3.38153 10.8602 3.38153L10.8611 3.33153M10.8601 3.38152C10.519 3.37574 10.1822 3.37766 9.84347 3.37959C9.67329 3.38056 9.50261 3.38153 9.33066 3.38153H9.3276H9.32455H9.32149H9.31843H9.31538H9.31232H9.30927H9.30621H9.30315H9.3001H9.29704H9.29399H9.29093H9.28788H9.28483H9.28177H9.27872H9.27566H9.27261H9.26956H9.2665H9.26345H9.2604H9.25735H9.25429H9.25124H9.24819H9.24514H9.24209H9.23904H9.23598H9.23293H9.22988H9.22683H9.22378H9.22073H9.21768H9.21463H9.21158H9.20853H9.20548H9.20243H9.19939H9.19634H9.19329H9.19024H9.18719H9.18414H9.1811H9.17805H9.175H9.17195H9.16891H9.16586H9.16281H9.15977H9.15672H9.15367H9.15063H9.14758H9.14453H9.14149H9.13844H9.1354H9.13235H9.12931H9.12626H9.12322H9.12018H9.11713H9.11409H9.11104H9.108H9.10496H9.10191H9.09887H9.09583H9.09278H9.08974H9.0867H9.08366H9.08061H9.07757H9.07453H9.07149H9.06845H9.06541H9.06236H9.05932H9.05628H9.05324H9.0502H9.04716H9.04412H9.04108H9.03804H9.035H9.03196H9.02892H9.02588H9.02284H9.01981H9.01677H9.01373H9.01069H9.00765H9.00461H9.00158H8.99854H8.9955H8.99246H8.98943H8.98639H8.98335H8.98031H8.97728H8.97424H8.97121H8.96817H8.96513H8.9621H8.95906H8.95603H8.95299H8.94996H8.94692H8.94388H8.94085H8.93782H8.93478H8.93175H8.92871H8.92568H8.92264H8.91961H8.91658H8.91354H8.91051H8.90748H8.90444H8.90141H8.89838H8.89535H8.89231H8.88928H8.88625H8.88322H8.88018H8.87715H8.87412H8.87109H8.86806H8.86503H8.862H8.85896H8.85593H8.8529H8.84987H8.84684H8.84381H8.84078H8.83775H8.83472H8.83169H8.82866H8.82563H8.8226H8.81957H8.81655H8.81352H8.81049H8.80746H8.80443H8.8014H8.79837H8.79535H8.79232H8.78929H8.78626H8.78323H8.78021H8.77718H8.77415H8.77113H8.7681H8.76507H8.76204H8.75902H8.75599H8.75297H8.74994H8.74691H8.74389H8.74086H8.73784H8.73481H8.73178H8.72876H8.72573H8.72271H8.71968H8.71666H8.71363H8.71061H8.70759H8.70456H8.70154H8.69851H8.69549H8.69246H8.68944H8.68642H8.68339H8.68037H8.67735H8.67432H8.6713H8.66828H8.66525H8.66223H8.65921H8.65619H8.65316H8.65014H8.64712H8.6441H8.64108H8.63805H8.63503H8.63201H8.62899H8.62597H8.62295H8.61993H8.6169H8.61388H8.61086H8.60784H8.60482H8.6018H8.59878H8.59576H8.59274H8.58972H8.5867H8.58368H8.58066H8.57764H8.57462H8.5716H8.56858H8.56556H8.56254H8.55952H8.5565H8.55349H8.55047H8.54745H8.54443H8.54141H8.53839H8.53537H8.53236H8.52934H8.52632H8.5233H8.52028H8.51727H8.51425H8.51123H8.50821H8.5052H8.50218H8.49916H8.49615H8.49313H8.49011H8.48709H8.48408H8.48106H8.47804H8.47503H8.47201H8.469H8.46598H8.46296H8.45995H8.45693H8.45392H8.4509H8.44788H8.44487H8.44185H8.43884H8.43582H8.43281H8.42979H8.42678H8.42376H8.42075H8.41773H8.41472H8.4117H8.40869H8.40567H8.40266H8.39965H8.39663H8.39362H8.3906H8.38759H8.38457H8.38156H8.37855H8.37553H8.37252H8.36951H8.36649H8.36348H8.36047H8.35745H8.35444H8.35143H8.34841H8.3454H8.34239H8.33938H8.33636H8.33335H8.33034H8.32732H8.32431H8.3213H8.31829H8.31528H8.31226H8.30925H8.30624H8.30323H8.30022H8.2972H8.29419H8.29118H8.28817H8.28516H8.28214H8.27913H8.27612H8.27311H8.2701H8.26709H8.26408H8.26107H8.25806H8.25504H8.25203H8.24902H8.24601H8.243H8.23999H8.23698H8.23397H8.23096H8.22795H8.22494H8.22193H8.21892H8.21591H8.2129H8.20989H8.20688H8.20387H8.20086H8.19785H8.19484H8.19183H8.18882H8.18581H8.1828H8.17979H8.17678H8.17377H8.17076H8.16775H8.16474H8.16173H8.15872H8.15572H8.15271H8.1497H8.14669H8.14368H8.14067H8.13766H8.13465H8.13164H8.12864H8.12563H8.12262H8.11961H8.1166H8.11359H8.11058H8.10758H8.10457H8.10156H8.09855H8.09554H8.09253H8.08953H8.08652H8.08351H8.0805H8.07749H8.07449H8.07148H8.06847H8.06546H8.06245H8.05945H8.05644H8.05343H8.05042H8.04742H8.04441H8.0414H8.03839H8.03539H8.03238H8.02937H8.02636H8.02336H8.02035H8.01734H8.01433H8.01133H8.00832H8.00531H8.00231H7.9993H7.99629H7.99328H7.99028H7.98727H7.98426H7.98126H7.97825H7.97524H7.97224H7.96923H7.96622H7.96321H7.96021H7.9572H7.95419H7.95119H7.94818H7.94517H7.94217H7.93916H7.93615H7.93315H7.93014H7.92713H7.92413H7.92112H7.91811H7.91511H7.9121H7.9091H7.90609H7.90308H7.90008H7.89707H7.89406H7.89106H7.88805H7.88504H7.88204H7.87903H7.87603H7.87302H7.87001H7.86701H7.864H7.86099H7.85799H7.85498H7.85198H7.84897H7.84596H7.84296H7.83995H7.83694H7.83394H7.83093H7.82793H7.82492H7.82191H7.81891H7.8159H7.81289H7.80989H7.80688H7.80388H7.80087H7.79786H7.79486H7.79185H7.78885H7.78584H7.78283C7.6177 3.38153 7.48998 3.3507 7.40509 3.2658C7.32019 3.18091 7.28936 3.05318 7.28936 2.88806V2.88576V2.88347V2.88118V2.87888V2.87659V2.87429V2.872V2.86971V2.86741V2.86512V2.86282V2.86053V2.85823V2.85594V2.85364V2.85135V2.84905V2.84675V2.84446V2.84216V2.83986V2.83757V2.83527V2.83297V2.83067V2.82838V2.82608V2.82378V2.82148V2.81919V2.81689V2.81459V2.81229V2.80999V2.80769V2.80539V2.80309V2.80079V2.79849V2.79619V2.79389V2.79159V2.78929V2.78699V2.78469V2.78239V2.78009V2.77779V2.77548V2.77318V2.77088V2.76858V2.76628V2.76397V2.76167V2.75937V2.75707V2.75476V2.75246V2.75016V2.74785V2.74555V2.74325V2.74094V2.73864V2.73633V2.73403V2.73173V2.72942V2.72712V2.72481V2.72251V2.7202V2.7179V2.71559V2.71328V2.71098V2.70867V2.70637V2.70406V2.70175V2.69945V2.69714V2.69483V2.69253V2.69022V2.68791V2.68561V2.6833V2.68099V2.67868V2.67638V2.67407V2.67176V2.66945V2.66714V2.66484V2.66253V2.66022V2.65791V2.6556V2.65329V2.65098V2.64867V2.64636V2.64405V2.64174V2.63944V2.63713V2.63482V2.63251V2.6302V2.62789V2.62557V2.62326V2.62095V2.61864V2.61633V2.61402V2.61171V2.6094V2.60709V2.60478V2.60246V2.60015V2.59784V2.59553V2.59322V2.59091V2.58859V2.58628V2.58397V2.58166V2.57934V2.57703V2.57472V2.57241V2.57009V2.56778V2.56547V2.56316V2.56084V2.55853V2.55622V2.5539V2.55159V2.54927V2.54696V2.54465V2.54233V2.54002V2.53771V2.53539V2.53308V2.53076V2.52845V2.52613V2.52382V2.52151V2.51919V2.51688V2.51456V2.51225V2.50993V2.50762V2.5053V2.50299V2.50067V2.49836V2.49604V2.49372V2.49141V2.48909V2.48678V2.48446V2.48215V2.47983V2.47751V2.4752V2.47288V2.47057V2.46825V2.46593V2.46362V2.4613V2.45899V2.45667V2.45435V2.45204V2.44972V2.4474V2.44509V2.44277V2.44045V2.43814V2.43582V2.4335V2.43119V2.42887V2.42655V2.42423V2.42192V2.4196V2.41728V2.41497V2.41265V2.41033V2.40801V2.4057V2.40338V2.40106V2.39874V2.39643V2.39411V2.39179V2.38947V2.38716V2.38484V2.38252V2.3802V2.37788V2.37557V2.37325V2.37093V2.36861V2.3663V2.36398V2.36166V2.35934V2.35702V2.35471V2.35239V2.35007V2.34775V2.34543V2.34312V2.3408V2.33848V2.33616V2.33384V2.33152V2.32921V2.32689V2.32457V2.32225V2.31993V2.31762V2.3153V2.31298V2.31066V2.30834V2.30602V2.30371V2.30139V2.29907V2.29675V2.29443V2.29211V2.2898V2.28748V2.28516V2.28284V2.28052V2.2782V2.27589V2.27357V2.27125V2.26893V2.26661V2.2643V2.26198V2.25966V2.25734V2.25502V2.2527V2.25039V2.24807V2.24575V2.24343V2.24111V2.2388V2.23648V2.23416V2.23184V2.22952V2.22721V2.22489V2.22257V2.22025V2.21793V2.21562V2.2133V2.21098V2.20866V2.20635V2.20403V2.20171V2.19939V2.19708V2.19476V2.19244V2.19012V2.18781V2.18549V2.18317V2.18085V2.17854V2.17622V2.1739V2.17158V2.16927V2.16695V2.16463V2.16232V2.16V2.15768V2.15537V2.15305V2.15073V2.14842V2.1461V2.14378V2.14147V2.13915V2.13683V2.13452V2.1322V2.12988V2.12757V2.12525V2.12293V2.12062V2.1183V2.11599V2.11367V2.11136V2.10904V2.10672V2.10441V2.10209V2.09978V2.09746V2.09515V2.09283V2.09052V2.0882V2.08589V2.08357V2.08126V2.07894V2.07663V2.07431V2.072V2.06968V2.06737V2.06505V2.06274V2.06042V2.05811V2.0558V2.05348V2.05117V2.04885V2.04654V2.04423V2.04191V2.0396V2.03729V2.03497V2.03266V2.03035V2.02803V2.02572V2.02341V2.02109V2.01878V2.01647V2.01416V2.01184V2.00953V2.00722V2.00491V2.0026V2.00028V1.99797V1.99566V1.99335V1.99104V1.98873V1.98641V1.9841V1.98179V1.97948V1.97717V1.97486V1.97255V1.97024V1.96793V1.96562V1.96331V1.961V1.95869V1.95638V1.95407V1.95176V1.94945V1.94714V1.94483V1.94252V1.94021V1.9379V1.93559V1.93328V1.93097V1.92867V1.92636V1.92405V1.92174V1.91943V1.91713V1.91482V1.91251V1.9102V1.9079V1.90559V1.90328V1.90097V1.89867V1.89636V1.89405V1.89175V1.88944V1.88713V1.88483V1.88252V1.88022V1.87791V1.87561V1.8733V1.871V1.86869V1.86639V1.86408V1.86178V1.85947V1.85717V1.85486V1.85256V1.85026V1.84795V1.84565V1.84334V1.84104V1.83874V1.83644V1.83413V1.83183V1.82953V1.82722V1.82492V1.82262V1.82032V1.81802V1.81572V1.81341V1.81111V1.80881V1.80651V1.80421V1.80191V1.79961V1.79731V1.79501V1.79271V1.79041V1.78811V1.78581V1.78351V1.78121V1.77891V1.77661V1.77432V1.77202V1.76972V1.76742V1.76512V1.76283V1.76053V1.75823V1.75593V1.75364V1.75134V1.74904V1.74675V1.74445V1.74216V1.73986V1.73756V1.73527V1.73297V1.73068V1.72838V1.72609V1.7238V1.7215V1.71921V1.71691V1.71462V1.71233V1.71003V1.70774V1.70545C7.28936 1.58758 7.32243 1.48598 7.38627 1.41193C7.45054 1.33737 7.54225 1.29518 7.65013 1.29028L7.65023 1.29028C7.76271 1.28539 7.86377 1.3222 7.93667 1.39509C8.0093 1.46772 8.05005 1.57221 8.05022 1.69594M10.8611 3.33153C10.5194 3.32574 10.1815 3.32766 9.84241 3.3296C9.67237 3.33056 9.502 3.33153 9.33066 3.33153H7.78283C7.46109 3.33153 7.33936 3.20979 7.33936 2.88806V1.70545C7.33936 1.48806 7.46109 1.34892 7.6524 1.34023C7.8524 1.33153 8.00022 1.47066 8.00022 1.69675M8.05022 1.69594C8.05022 1.69569 8.05021 1.69544 8.0502 1.69519L8.00022 1.69675M8.05022 1.69594C8.05022 1.69621 8.05022 1.69648 8.05022 1.69675H8.00022M8.05022 1.69594C8.05892 1.97474 8.05892 2.26219 8.05023 2.54099M8.00022 1.69675C8.00892 1.97501 8.00892 2.26197 8.00022 2.54023M8.00022 2.54023H8.05022C8.05022 2.54048 8.05023 2.54074 8.05023 2.54099M8.00022 2.54023C8.00022 2.64458 8.03501 2.67066 8.13066 2.67066M8.00022 2.54023L8.0502 2.54179C8.05021 2.54152 8.05022 2.54126 8.05023 2.54099M8.05023 2.54099C8.05032 2.59014 8.05928 2.60385 8.06396 2.60828C8.06933 2.61336 8.08381 2.62064 8.13043 2.62066M8.13066 2.67066L8.13018 2.62067C8.13026 2.62067 8.13035 2.62066 8.13043 2.62066M8.13066 2.67066C8.58718 2.66632 9.04153 2.66632 9.49588 2.66632C9.95023 2.66632 10.4046 2.66632 10.8611 2.66197M8.13066 2.67066V2.62066C8.13058 2.62066 8.1305 2.62066 8.13043 2.62066M10.8611 2.66197C11.2089 2.66197 11.322 2.81849 11.3394 2.9924L10.8611 2.66197Z" fill="#1E96FC" stroke="#1E96FC" stroke-width="0.1"/>
<path d="M6.4471 2.63785L6.44709 2.63786C6.61369 2.67951 6.71011 2.84275 6.71966 3.00517L6.72 3.0109L6.71967 3.01088C6.71489 3.09686 6.69076 3.17206 6.64572 3.23254C6.60079 3.29287 6.5375 3.33526 6.4599 3.35977L6.4471 2.63785ZM6.4471 2.63785L6.44581 2.63756C6.36408 2.6194 6.28218 2.61028 6.20018 2.61028H6.19636H6.19254H6.18872H6.1849H6.18107H6.17725H6.17343H6.16961H6.16578H6.16196H6.15814H6.15431H6.15049H6.14667H6.14284H6.13902H6.13519H6.13137H6.12754H6.12372H6.11989H6.11607H6.11224H6.10841H6.10459H6.10076H6.09693H6.09311H6.08928H6.08545H6.08162H6.0778H6.07397H6.07014H6.06631H6.06248H6.05865H6.05483H6.051H6.04717H6.04334H6.03951H6.03568H6.03185H6.02802H6.02419H6.02035H6.01652H6.01269H6.00886H6.00503H6.0012H5.99736H5.99353H5.9897H5.98587H5.98203H5.9782H5.97437H5.97053H5.9667H5.96286H5.95903H5.95519H5.95136H5.94752H5.94369H5.93985H5.93602H5.93218H5.92834H5.92451H5.92067H5.91683H5.913H5.90916H5.90532H5.90148H5.89765H5.89381H5.88997H5.88613H5.88229H5.87845H5.87461H5.87077H5.86693H5.86309H5.85925H5.85541H5.85157H5.84773H5.84389H5.84005H5.8362H5.83236H5.82852H5.82468H5.82083H5.81699H5.81315H5.8093H5.80546H5.80162H5.79777H5.79393H5.79008H5.78624H5.78239H5.77855H5.7747H5.77085H5.76701H5.76316H5.75932H5.75547H5.75162H5.74777H5.74393H5.74008H5.73623H5.73238H5.72853H5.72468H5.72084H5.71699H5.71314H5.70929H5.70544H5.70159H5.69774H5.69388H5.69003H5.68618H5.68233H5.67848H5.67463H5.67077H5.66692H5.66307H5.65922H5.65536H5.65151H5.64765H5.6438H5.63995H5.63609H5.63224H5.62838H5.62453H5.62067H5.61681H5.61296H5.6091H5.60524H5.60139H5.59753H5.59367H5.58982H5.58596H5.5821H5.57824H5.57438H5.57052H5.56666H5.5628H5.55894H5.55508H5.55122H5.54736H5.5435H5.53964H5.53578H5.53192H5.52806H5.52419H5.52033H5.51647H5.5126H5.50874H5.50488H5.50101H5.49715H5.49329H5.48942H5.48556H5.48169H5.47783H5.47396H5.47009H5.46623H5.46236H5.45849H5.45463H5.45076H5.44689H5.44302H5.43916H5.43529H5.43142H5.42755H5.42368H5.41981H5.41594H5.41207H5.4082H5.40433H5.40046H5.39659H5.39272H5.38884H5.38497H5.3811H5.37723H5.37335H5.36948H5.36561H5.36173H5.35786H5.35398H5.35011H5.34623H5.34236H5.33848H5.33461H5.33073H5.32686H5.32298H5.3191H5.31522H5.31135H5.30747H5.30359H5.29971H5.29583H5.29195H5.28808H5.2842H5.28032H5.27644H5.27256H5.26867H5.26479H5.26091H5.25703H5.25315H5.24927H5.24538H5.2415H5.23762H5.23374H5.22985H5.22597H5.22208H5.2182H5.21431H5.21043H5.20654H5.20266H5.19877H5.19488H5.191H5.18711H5.18322H5.17934H5.17545H5.17156H5.16767H5.16378H5.15989H5.156H5.15211H5.14822H5.14433H5.14044H5.13655H5.13266H5.12877H5.12488H5.12099H5.11709H5.1132H5.10931H5.10541H5.10152H5.09763H5.09373H5.08984H5.08594H5.08205H5.07815H5.07426H5.07036H5.06646H5.06257H5.05867H5.05477H5.05087H5.04698H5.04308H5.03918H5.03528H5.03138H5.02748H5.02358H5.01968H5.01578H5.01188H5.00798H5.00408H5.00018H4.99627H4.99237H4.98847H4.98456H4.98066H4.97676H4.97285H4.96895H4.96504H4.96114H4.95723H4.95333H4.94942H4.94552H4.94161H4.9377H4.93379H4.92989H4.92598H4.92207H4.91816H4.91425H4.91034H4.90643H4.90252H4.89861H4.8947H4.89079H4.88688H4.88297H4.87906H4.87514H4.87123H4.86732H4.86341H4.85949H4.85558H4.85166H4.84775H4.84383H4.83992H4.836H4.83209H4.82817H4.82425H4.82034H4.81642H4.8125H4.80858H4.80467H4.80075H4.79683H4.79291H4.78899H4.78507H4.78115H4.77723H4.77331H4.76939H4.76546H4.76154H4.75762H4.7537H4.74977H4.74585H4.74193H4.738H4.73408H4.73015H4.72623H4.7223H4.71838H4.71445H4.71052H4.7066H4.70267H4.69874H4.69481H4.69088H4.68696H4.68303H4.6791H4.67517H4.67124H4.66731H4.66338H4.65945H4.65551H4.65158H4.64765H4.64372H4.63978H4.63585H4.63192H4.62798H4.62405H4.62011H4.61618H4.61224H4.60831H4.60437H4.60044H4.5965H4.59256H4.58862H4.58469H4.58075H4.57681H4.57287H4.56893H4.56499H4.56105H4.55711H4.55317H4.54923H4.54529H4.54134H4.5374H4.53346H4.52952H4.52557H4.52163H4.51769H4.51374H4.5098H4.50585H4.5019H4.49796H4.49401H4.49007H4.48612H4.48217H4.47822H4.47428H4.47033H4.46638H4.46243H4.45848H4.45453H4.45058H4.44663H4.44268H4.43872H4.43477H4.43082H4.42687H4.42291H4.41896H4.41501H4.41105H4.4071H4.40314H4.39919H4.39523H4.39128H4.38732H4.38336H4.37941H4.37545H4.37149H4.36753H4.36357H4.35961H4.35565H4.35169H4.34773H4.34377H4.33981H4.33585H4.33189H4.32793H4.32396H4.32H4.31604H4.31207H4.30811H4.30415H4.30018H4.29622H4.29225H4.28978L4.28987 2.61011L4.29004 2.60977L4.29021 2.60942L4.29038 2.60908L4.29056 2.60873L4.29073 2.60839L4.2909 2.60805L4.29107 2.6077L4.29124 2.60736L4.29141 2.60702L4.29158 2.60667L4.29176 2.60633L4.29193 2.60599L4.2921 2.60565L4.29227 2.60531L4.29244 2.60496L4.29261 2.60462L4.29278 2.60428L4.29295 2.60394L4.29312 2.6036L4.29329 2.60326L4.29346 2.60292L4.29363 2.60258L4.2938 2.60224L4.29397 2.6019L4.29414 2.60156L4.29431 2.60122L4.29448 2.60088L4.29465 2.60055L4.29482 2.60021L4.29499 2.59987L4.29516 2.59953L4.29533 2.59919L4.29549 2.59886L4.29566 2.59852L4.29583 2.59818L4.296 2.59785L4.29617 2.59751L4.29634 2.59717L4.2965 2.59684L4.29667 2.5965L4.29684 2.59616L4.29701 2.59583L4.29717 2.59549L4.29734 2.59516L4.29751 2.59482L4.29768 2.59449L4.29784 2.59416L4.29801 2.59382L4.29818 2.59349L4.29834 2.59315L4.29851 2.59282L4.29868 2.59249L4.29884 2.59215L4.29901 2.59182L4.29918 2.59149L4.29934 2.59116L4.29951 2.59082L4.29968 2.59049L4.29984 2.59016L4.30001 2.58983L4.30017 2.5895L4.30034 2.58916L4.3005 2.58883L4.30067 2.5885L4.30084 2.58817L4.301 2.58784L4.30117 2.58751L4.30133 2.58718L4.3015 2.58685L4.30166 2.58652L4.30183 2.58619L4.30199 2.58586L4.30215 2.58553L4.30232 2.5852L4.30248 2.58488L4.30265 2.58455L4.30281 2.58422L4.30298 2.58389L4.30314 2.58356L4.3033 2.58324L4.30347 2.58291L4.30363 2.58258L4.3038 2.58225L4.30396 2.58193L4.30412 2.5816L4.30429 2.58127L4.30445 2.58095L4.30461 2.58062L4.30478 2.58029L4.30494 2.57997L4.3051 2.57964L4.30526 2.57932L4.30543 2.57899L4.30559 2.57866L4.30575 2.57834L4.30591 2.57801L4.30608 2.57769L4.30624 2.57737L4.3064 2.57704L4.30656 2.57672L4.30673 2.57639L4.30689 2.57607L4.30705 2.57574L4.30721 2.57542L4.30737 2.5751L4.30753 2.57477L4.3077 2.57445L4.30786 2.57413L4.30802 2.57381L4.30818 2.57348L4.30834 2.57316L4.3085 2.57284L4.30866 2.57252L4.30882 2.57219L4.30899 2.57187L4.30915 2.57155L4.30931 2.57123L4.30947 2.57091L4.30963 2.57059L4.30979 2.57027L4.30995 2.56995L4.31011 2.56962L4.31027 2.5693L4.31043 2.56898L4.31059 2.56866L4.31075 2.56834L4.31091 2.56802L4.31107 2.5677L4.31123 2.56738L4.31139 2.56706L4.31155 2.56674L4.31171 2.56643L4.31187 2.56611L4.31203 2.56579L4.31219 2.56547L4.31235 2.56515L4.31251 2.56483L4.31267 2.56451L4.31282 2.56419L4.31298 2.56388L4.31314 2.56356L4.3133 2.56324L4.31346 2.56292L4.31362 2.56261L4.31378 2.56229L4.31394 2.56197L4.31409 2.56165L4.31425 2.56134L4.31441 2.56102L4.31457 2.5607L4.31473 2.56039L4.31489 2.56007L4.31504 2.55975L4.3152 2.55944L4.31536 2.55912L4.31552 2.55881L4.31568 2.55849L4.31583 2.55817L4.31599 2.55786L4.31615 2.55754L4.31631 2.55723L4.31647 2.55691L4.31662 2.5566L4.31678 2.55628L4.31694 2.55597L4.3171 2.55565L4.31725 2.55534L4.31741 2.55502L4.31757 2.55471L4.31772 2.55439L4.31788 2.55408L4.31804 2.55377L4.3182 2.55345L4.31835 2.55314L4.31851 2.55283L4.31867 2.55251L4.31882 2.5522L4.31898 2.55188L4.31914 2.55157L4.31929 2.55126L4.31945 2.55095L4.31961 2.55063L4.31976 2.55032L4.31992 2.55001L4.32007 2.54969L4.32023 2.54938L4.32039 2.54907L4.32054 2.54876L4.3207 2.54844L4.32086 2.54813L4.32101 2.54782L4.32117 2.54751L4.32132 2.5472L4.32148 2.54688L4.32164 2.54657L4.32179 2.54626L4.32195 2.54595L4.3221 2.54564L4.32226 2.54533L4.32241 2.54502L4.32257 2.54471L4.32272 2.54439L4.32288 2.54408L4.32304 2.54377L4.32319 2.54346L4.32335 2.54315L4.3235 2.54284L4.32366 2.54253L4.32381 2.54222L4.32397 2.54191L4.32412 2.5416L4.32428 2.54129L4.32443 2.54098L4.32459 2.54067L4.32474 2.54036L4.3249 2.54005L4.32505 2.53974L4.32521 2.53943L4.32536 2.53912L4.32552 2.53881L4.32567 2.5385L4.32583 2.53819L4.32598 2.53788L4.32613 2.53757L4.32629 2.53727L4.32644 2.53696L4.3266 2.53665L4.32675 2.53634L4.32691 2.53603L4.32706 2.53572L4.32722 2.53541L4.32737 2.5351L4.32752 2.53479L4.32768 2.53449L4.32783 2.53418L4.32799 2.53387L4.32814 2.53356L4.3283 2.53325L4.32845 2.53294L4.3286 2.53264L4.32876 2.53233L4.32891 2.53202L4.32907 2.53171L4.32922 2.5314L4.32937 2.5311L4.32953 2.53079L4.32968 2.53048L4.32983 2.53017L4.32999 2.52987L4.33014 2.52956L4.3303 2.52925L4.33045 2.52894L4.3306 2.52864L4.33076 2.52833L4.33091 2.52802L4.33106 2.52771L4.33122 2.52741L4.33137 2.5271L4.33153 2.52679L4.33168 2.52649L4.33183 2.52618L4.33199 2.52587L4.33214 2.52557L4.33229 2.52526L4.33245 2.52495L4.3326 2.52465L4.33275 2.52434L4.33291 2.52403L4.33306 2.52373L4.33321 2.52342L4.33337 2.52311L4.33352 2.52281L4.33367 2.5225L4.33383 2.52219L4.33398 2.52189L4.33413 2.52158L4.33429 2.52127L4.33444 2.52097L4.33459 2.52066L4.33474 2.52035L4.3349 2.52005L4.33505 2.51974L4.3352 2.51944L4.33536 2.51913L4.33551 2.51882L4.33566 2.51852L4.33582 2.51821L4.33597 2.5179L4.33612 2.5176L4.33628 2.51729L4.33643 2.51699L4.33658 2.51668L4.33673 2.51637L4.33689 2.51607L4.33704 2.51576L4.33719 2.51546L4.33735 2.51515L4.3375 2.51485L4.33765 2.51454L4.3378 2.51423L4.33796 2.51393L4.33811 2.51362L4.33826 2.51332L4.33842 2.51301L4.33857 2.5127L4.33872 2.5124L4.33888 2.51209L4.33903 2.51179L4.33918 2.51148L4.33933 2.51118L4.33949 2.51087L4.33964 2.51056L4.33979 2.51026L4.33995 2.50995L4.3401 2.50965L4.34025 2.50934L4.34039 2.50907C4.45324 2.29205 4.56653 2.07419 4.67117 1.8562C4.73881 1.72066 4.74037 1.56941 4.64 1.43873C4.55022 1.31919 4.41804 1.26852 4.26919 1.2981C4.09701 1.32872 4.01771 1.4527 3.95616 1.56701L3.95613 1.56699L3.95526 1.56876C3.85973 1.76417 3.762 1.95963 3.66416 2.15531L3.66411 2.15541C3.56635 2.35093 3.46847 2.54669 3.37275 2.74248L6.4471 2.63785Z" fill="#1E96FC" stroke="#1E96FC" stroke-width="0.1"/>
<path d="M7.99992 4.34827L7.94998 4.35076C7.95999 4.5509 8.11138 4.70101 8.31854 4.71122C8.39615 4.71714 8.47592 4.71511 8.55257 4.71317C8.58957 4.71223 8.62584 4.71131 8.66079 4.71131C8.69574 4.71131 8.73202 4.71223 8.76901 4.71317C8.8459 4.71512 8.92593 4.71715 9.00376 4.71116L9.00376 4.71117L9.00466 4.71109C9.2086 4.69166 9.36165 4.54387 9.36296 4.34218C9.38157 4.15153 9.24104 3.96971 9.03775 3.95923C8.79227 3.94172 8.54677 3.94172 8.30128 3.95922C8.08909 3.96968 7.93997 4.16047 7.94999 4.3509L7.99992 4.34827ZM7.99992 4.34827C8.00862 4.52218 8.13905 4.65262 8.32166 4.66131L7.99992 4.34827Z" fill="#1E96FC" stroke="#1E96FC" stroke-width="0.1"/>
</g>
<defs>
<clipPath id="clip0_280_287">
<rect width="16" height="8" fill="white"/>
</clipPath>
</defs>
</svg>
