<svg width="732" height="542" viewBox="0 0 732 542" fill="none" xmlns="http://www.w3.org/2000/svg">
<g opacity="0.2">
<path d="M61.6424 253.294C61.6211 253.838 61.6148 254.325 61.6085 254.811C61.6173 255.241 61.638 255.857 61.6737 256.415C61.6882 257.518 61.6455 258.605 61.5609 259.62C61.3797 261.464 61.1835 263.365 61.4468 265.144C61.5515 265.904 61.0016 266.369 60.4128 266.519C59.782 266.596 59.0703 266.287 58.9236 265.455C58.78 264.379 58.7505 263.334 58.7631 262.361C58.7906 261.331 58.8182 260.3 58.8878 259.342C58.9725 258.327 59.0421 257.369 59.0546 256.396C59.0609 255.909 59.0671 255.423 59.0884 254.879L59.1373 253.305C59.1768 252.461 59.8108 252.14 60.4265 252.119C61.1144 252.057 61.6819 252.45 61.6424 253.294Z" fill="#2B2B2B"/>
<path d="M63.6153 274.505C63.831 275.539 64.0467 276.572 64.1903 277.648C64.406 278.681 64.5496 279.756 64.5791 280.802C64.6387 281.733 64.6832 282.721 64.7998 283.667C64.9165 284.613 65.0331 285.56 65.2218 286.464C65.3836 287.239 64.8187 287.761 64.1728 287.896C63.527 288.031 62.8002 287.778 62.6535 286.946C62.4227 285.97 62.2641 284.951 62.1625 283.948C62.0609 282.945 61.9443 281.999 61.8427 280.995C61.7411 279.992 61.6395 278.989 61.5229 278.043C61.4213 277.039 61.2476 276.078 61.0889 275.06C60.7955 273.396 63.3068 272.898 63.6153 274.505Z" fill="#2B2B2B"/>
<path d="M67.8826 295.589L68.3353 297.112L68.8602 298.593C69.2051 299.599 69.4929 300.591 69.7086 301.624C69.9544 302.543 70.1432 303.447 70.4611 304.325C70.779 305.202 71.0819 306.136 71.4719 306.971C71.7628 307.719 71.354 308.344 70.7351 308.608C70.1162 308.872 69.3594 308.733 69.0114 307.97C68.5793 307.063 68.2194 306.114 67.9165 305.179C67.6137 304.245 67.3259 303.254 67.038 302.262C66.7502 301.271 66.5195 300.295 66.2316 299.303L65.4253 296.344C64.9305 294.749 67.4299 294.066 67.8826 295.589Z" fill="#2B2B2B"/>
<path d="M75.8128 315.497C76.3019 316.42 76.7759 317.399 77.265 318.321C77.7541 319.244 78.1711 320.208 78.5881 321.173C78.9781 322.008 79.296 322.885 79.7431 323.735C80.1331 324.571 80.6373 325.436 81.0994 326.229C81.9547 327.614 79.6472 328.959 78.7919 327.573C78.2878 326.708 77.7836 325.843 77.2945 324.92C76.8625 324.013 76.4304 323.106 75.9984 322.198L74.7744 319.434C74.3424 318.527 73.9254 317.563 73.4783 316.712C72.7252 315.171 75.1017 314.028 75.8128 315.497Z" fill="#2B2B2B"/>
<path d="M86.5093 334.187L87.3797 335.515L87.8148 336.179L88.265 336.786C88.5171 337.218 88.8413 337.609 89.1504 338.057C89.4596 338.504 89.7116 338.937 89.9637 339.37C90.4258 340.163 90.9601 340.914 91.5514 341.68C92.1427 342.447 92.7491 343.156 93.3705 343.808C93.9498 344.388 93.7542 345.13 93.2614 345.61C92.7685 346.09 91.9935 346.252 91.4141 345.672C90.6936 344.933 90.0302 344.209 89.3818 343.427L88.4244 342.198L87.539 340.927C86.9778 340.047 86.4015 339.224 85.8553 338.286C85.2941 337.406 84.79 336.541 84.2858 335.675C83.3885 334.218 85.654 332.802 86.5093 334.187Z" fill="#2B2B2B"/>
<path d="M100.411 350.426C100.792 350.831 101.116 351.222 101.498 351.628C101.879 352.033 102.203 352.424 102.584 352.83C103.29 353.626 103.965 354.537 104.511 355.474C104.763 355.907 105.03 356.282 105.226 356.7C105.493 357.075 105.688 357.493 105.97 357.812L106.378 358.346C106.519 358.506 106.66 358.665 106.858 358.839C107.141 359.158 107.48 359.491 107.834 359.768C108.428 360.291 108.29 361.048 107.854 361.543C107.418 362.038 106.67 362.329 105.977 361.719C105.58 361.371 105.184 361.022 104.86 360.631C104.479 360.226 104.155 359.835 103.83 359.444C103.506 359.054 103.197 358.606 102.888 358.158L102.045 356.959C101.468 356.136 100.949 355.328 100.301 354.547C99.7094 353.78 99.061 352.999 98.3976 352.275C97.368 351.088 99.2673 349.209 100.411 350.426Z" fill="#2B2B2B"/>
<path d="M115.712 365.078C116.591 365.677 117.471 366.275 118.408 366.888C118.876 367.195 119.273 367.543 119.669 367.892C120.065 368.241 120.461 368.589 120.873 368.881C121.566 369.491 122.26 370.101 123.025 370.669C123.791 371.237 124.572 371.748 125.383 372.145C126.776 372.879 125.543 375.239 124.036 374.475C123.126 373.991 122.231 373.45 121.408 372.867C120.586 372.284 119.778 371.644 118.97 371.003L117.766 370.014C117.37 369.666 117.016 369.389 116.62 369.041C115.869 368.416 115.046 367.832 114.224 367.249C112.86 366.401 114.364 364.174 115.712 365.078Z" fill="#2B2B2B"/>
<path d="M134.111 375.609C135.066 375.922 136.093 376.193 137.063 376.449C138.09 376.719 139.06 376.975 140.057 377.36C140.898 377.643 141.796 377.941 142.766 378.197C143.679 378.438 144.607 378.621 145.55 378.748C147.136 378.983 146.744 381.626 145.101 381.376C143.101 381.092 141.146 380.638 139.164 380.054C138.194 379.798 137.182 379.47 136.227 379.157C135.272 378.845 134.26 378.517 133.305 378.204C131.638 377.581 132.657 375.104 134.111 375.609Z" fill="#2B2B2B"/>
<path d="M155.113 379.741C156.17 379.898 157.212 380.112 158.269 380.268C158.798 380.347 159.312 380.482 159.825 380.618C160.339 380.753 160.795 380.873 161.309 381.009C163.021 381.46 164.949 381.786 166.781 381.781C168.37 381.773 168.392 384.464 166.689 384.442C165.659 384.414 164.629 384.387 163.629 384.245C163.1 384.167 162.629 384.103 162.1 384.025C161.571 383.947 161.058 383.811 160.544 383.676L157.577 382.893C156.607 382.637 155.622 382.439 154.622 382.297C153.078 382.134 153.527 379.506 155.113 379.741Z" fill="#2B2B2B"/>
<path d="M176.253 381.045C177.313 380.958 178.332 380.8 179.335 380.698C179.837 380.647 180.353 380.539 180.912 380.504C181.414 380.453 181.972 380.417 182.474 380.366C184.207 380.274 186.045 379.783 187.758 379.075C189.269 378.436 190.196 380.938 188.685 381.577C186.828 382.369 184.788 382.93 182.596 383.145C181.592 383.246 180.547 383.276 179.544 383.377C178.54 383.479 177.495 383.508 176.492 383.61C174.9 383.861 174.691 381.182 176.253 381.045Z" fill="#2B2B2B"/>
<path d="M197.131 375.932C199.198 375.5 201.265 375.069 203.244 374.737C204.133 374.605 205.038 374.416 205.9 374.155C206.762 373.894 207.597 373.504 208.375 373.099C209.024 372.721 209.721 373.088 210.057 373.665C210.393 374.242 210.369 375.029 209.633 375.506C208.695 376.052 207.731 376.469 206.724 376.814C205.718 377.159 204.685 377.375 203.651 377.59C201.585 378.022 199.578 378.225 197.641 378.629C196.064 378.824 195.524 376.24 197.131 375.932Z" fill="#2B2B2B"/>
<path d="M216.133 367.518C217.852 366.324 219.487 364.985 221.304 363.878C222.906 362.896 224.522 361.858 225.941 360.645C227.2 359.574 228.848 361.656 227.589 362.728C224.521 365.336 221.002 367.338 217.694 369.7C216.336 370.684 214.847 368.461 216.133 367.518Z" fill="#2B2B2B"/>
<path d="M233.023 354.154C234.559 352.728 235.995 351.215 237.63 349.876C238.339 349.27 239.048 348.663 239.715 347.985C240.383 347.306 241.05 346.628 241.603 345.919C242.069 345.31 242.841 345.391 243.393 345.842C243.888 346.278 244.179 347.026 243.641 347.677C243.001 348.485 242.319 349.221 241.637 349.956C240.897 350.677 240.158 351.397 239.434 352.061C238.695 352.781 237.913 353.429 237.132 354.078C236.351 354.726 235.612 355.447 234.83 356.095C233.556 357.224 231.821 355.24 233.023 354.154Z" fill="#2B2B2B"/>
<path d="M247.07 338.143C248.323 336.398 249.52 334.639 250.971 333.069C252.249 331.697 253.541 330.268 254.563 328.706C255.411 327.343 257.639 328.846 256.719 330.251C254.485 333.629 251.543 336.454 249.226 339.688C248.745 340.354 247.973 340.273 247.405 339.879C246.895 339.5 246.589 338.809 247.07 338.143Z" fill="#2B2B2B"/>
<path d="M259.08 320.38C259.976 318.602 260.575 316.563 261.558 314.686C262.424 313.023 263.392 311.203 264.387 309.513C264.826 308.774 265.556 308.783 266.123 309.177C266.706 309.514 267.054 310.277 266.63 310.958C265.722 312.55 264.841 314.271 264.002 316.063C263.163 317.856 262.351 319.778 261.44 321.613C261.058 322.366 260.256 322.399 259.659 322.119C259.148 321.741 258.713 321.076 259.08 320.38Z" fill="#2B2B2B"/>
<path d="M268.09 301.026C268.418 300.014 268.647 298.914 268.974 297.902C269.302 296.89 269.63 295.878 270.129 294.911C270.541 294.044 270.896 293.161 271.308 292.293C271.663 291.41 272.018 290.527 272.316 289.629C272.851 288.062 275.344 289.024 274.823 290.535C274.198 292.445 273.416 294.252 272.691 296.075C272.321 297.015 271.966 297.898 271.596 298.838C271.226 299.778 270.97 300.748 270.673 301.646C270.567 302.045 270.321 302.285 270.032 302.453C269.759 302.564 269.386 302.588 269.044 302.498C268.702 302.408 268.447 302.218 268.278 301.93C268.023 301.741 267.927 301.41 268.09 301.026Z" fill="#2B2B2B"/>
<path d="M275.167 280.436C275.495 279.424 275.823 278.412 276.135 277.457C276.463 276.445 276.833 275.505 277.218 274.508C277.558 273.682 277.913 272.799 278.211 271.901C278.509 271.003 278.807 270.105 278.918 269.219C279.21 267.649 281.823 268.155 281.501 269.84C281.302 270.825 281.046 271.795 280.776 272.822C280.52 273.792 280.15 274.732 279.765 275.729C279.395 276.669 279.025 277.609 278.655 278.549C278.285 279.488 277.915 280.428 277.602 281.383C277.154 282.852 274.589 281.931 275.167 280.436Z" fill="#2B2B2B"/>
<path d="M279.958 259.728C279.979 259.185 280.057 258.656 280.079 258.112C280.1 257.569 280.193 256.983 280.272 256.454C280.444 255.34 280.657 254.298 281.057 253.244C281.653 251.448 282.336 249.553 282.745 247.769C283.095 246.214 285.677 246.834 285.313 248.446C285.114 249.432 284.801 250.387 284.546 251.357C284.29 252.327 283.992 253.224 283.736 254.195C283.48 255.165 283.24 256.078 283.041 257.063C282.977 257.534 282.857 257.991 282.794 258.462C282.73 258.934 282.667 259.405 282.646 259.949C282.453 261.607 279.795 261.272 279.958 259.728Z" fill="#2B2B2B"/>
<path d="M283.924 238.436C284.051 236.334 284.121 234.216 284.549 232.132C284.901 230.333 285.185 228.333 285.294 226.531C285.358 224.9 288.046 225.12 287.982 226.751C287.788 230.728 286.92 234.71 286.654 238.729C286.614 239.573 285.923 239.879 285.209 239.813C284.509 239.689 283.899 239.223 283.924 238.436Z" fill="#2B2B2B"/>
<path d="M285.549 216.772C285.676 214.67 285.761 212.495 286.117 210.453C286.412 208.639 286.752 206.654 286.804 204.836C286.868 203.205 289.515 203.354 289.451 204.985C289.313 208.977 288.446 212.959 288.18 216.978C288.116 218.609 285.413 218.445 285.549 216.772Z" fill="#2B2B2B"/>
<path d="M286.859 195.148C286.886 194.117 286.929 193.03 286.956 192C286.984 190.97 287.027 189.882 287.183 188.825C287.31 187.882 287.365 186.981 287.434 186.023C287.504 185.065 287.501 184.149 287.442 183.218C287.409 182.416 288.016 181.965 288.689 181.96C289.362 181.954 290.058 182.321 290.091 183.123C290.135 184.111 290.165 185.156 290.095 186.114C290.068 187.145 289.998 188.103 289.914 189.118C289.744 191.148 289.575 193.179 289.478 195.167C289.498 196.942 286.795 196.779 286.859 195.148Z" fill="#2B2B2B"/>
<path d="M286.477 173.685C286.39 172.625 286.232 171.606 286.145 170.546C286.001 169.471 285.972 168.425 285.957 167.323C285.967 165.434 285.993 163.487 285.744 161.652C285.493 160.06 288.202 159.737 288.382 161.371C288.657 163.336 288.731 165.369 288.82 167.346C288.864 168.334 288.909 169.322 288.938 170.367C288.983 171.356 289.07 172.416 289.171 173.419C289.261 174.236 288.582 174.728 287.966 174.749C287.263 174.869 286.566 174.502 286.477 173.685Z" fill="#2B2B2B"/>
<path d="M284.076 152.243C283.918 151.224 283.63 150.233 283.414 149.2C283.198 148.166 282.968 147.19 282.824 146.115C282.576 144.279 282.156 142.399 281.577 140.659C281.068 139.121 283.597 138.324 284.107 139.862C284.77 141.745 285.216 143.755 285.606 145.75C285.995 147.744 286.312 149.781 286.702 151.775C286.848 152.608 286.226 153.115 285.596 153.193C284.965 153.27 284.166 153.06 284.076 152.243Z" fill="#2B2B2B"/>
<path d="M278.085 131.681C277.396 129.669 276.649 127.641 276.217 125.574C275.84 123.766 275.363 121.87 274.655 120.158C274.364 119.41 274.83 118.8 275.449 118.536C276.068 118.272 276.882 118.426 277.158 119.231C277.95 121.088 278.469 123.055 278.987 125.023C279.506 126.991 279.967 128.943 280.63 130.827C281.14 132.365 278.595 133.22 278.085 131.681Z" fill="#2B2B2B"/>
<path d="M270.501 111.619C270.264 111.129 270.012 110.696 269.76 110.264C269.508 109.831 269.256 109.399 269.019 108.909L268.278 107.554C268.026 107.121 267.789 106.631 267.537 106.199C267.147 105.364 266.685 104.57 266.165 103.762C265.646 102.954 265.112 102.203 264.521 101.436C263.506 100.192 265.588 98.5444 266.66 99.8035C267.308 100.585 267.885 101.408 268.461 102.231C269.022 103.112 269.583 103.992 270.087 104.857C270.592 105.723 271.081 106.645 271.57 107.568C271.822 108 272.059 108.49 272.254 108.908L272.938 110.247C273.301 110.954 272.934 111.65 272.3 111.971C271.636 112.406 270.864 112.325 270.501 111.619Z" fill="#2B2B2B"/>
<path d="M258.084 94.3662C256.73 92.7886 255.217 91.3521 253.879 89.7174C253.329 89.0232 252.681 88.2419 252.059 87.5898L251.579 87.097C251.381 86.9227 251.198 86.6913 251.057 86.532C250.733 86.1414 250.408 85.7507 250.069 85.4172C249.505 84.7801 249.815 84.0684 250.349 83.6602C250.884 83.252 251.701 83.1623 252.152 83.7693C252.491 84.1028 252.758 84.4784 253.04 84.797C253.181 84.9562 253.322 85.1155 253.52 85.2898L254.043 85.8548C254.763 86.5941 255.427 87.3183 256.132 88.1146C257.501 89.6352 258.726 91.2398 260.094 92.7603C261.154 93.8332 259.114 95.5532 258.084 94.3662Z" fill="#2B2B2B"/>
<path d="M243.291 79.1756C241.559 78.1084 239.595 77.2243 237.865 75.9138C237.454 75.6222 237.1 75.3457 236.704 74.9971C236.349 74.7206 235.938 74.429 235.599 74.0954C234.833 73.5273 234.052 73.0163 233.257 72.5623C232.56 72.1955 232.527 71.3935 232.864 70.811C233.201 70.2285 233.907 69.8654 234.604 70.2322C235.513 70.7163 236.336 71.2994 237.216 71.8976L238.393 72.7573C238.804 73.0489 239.158 73.3254 239.57 73.6169C241.173 74.7111 242.906 75.7783 244.695 76.8606C245.434 77.2995 245.409 78.0865 245.016 78.6539C244.679 79.2365 243.973 79.5995 243.291 79.1756Z" fill="#2B2B2B"/>
<path d="M224.558 68.9877C222.606 68.2898 220.609 67.7631 218.657 67.0653C217.774 66.7104 216.876 66.4125 215.978 66.1147C215.08 65.8168 214.167 65.5761 213.254 65.3353C211.683 65.0431 212.261 62.3882 213.874 62.7525C214.859 62.9513 215.829 63.2071 216.784 63.52C217.739 63.8329 218.709 64.0887 219.649 64.4586C220.604 64.7715 221.601 65.1565 222.556 65.4694L225.448 66.5372C226.232 66.805 226.394 67.58 226.156 68.2497C225.964 68.7482 225.342 69.2555 224.558 68.9877Z" fill="#2B2B2B"/>
<path d="M203.934 64.3407C203.447 64.3345 202.904 64.3132 202.402 64.364C201.915 64.3577 201.414 64.4085 200.855 64.4442C199.795 64.5308 198.749 64.5602 197.719 64.5327C195.845 64.4656 193.899 64.4405 192.063 64.6888C191.303 64.7936 190.853 64.1866 190.718 63.5407C190.583 62.8949 190.965 62.1412 191.854 62.0095C193.861 61.8063 195.894 61.7323 197.856 61.7003L200.862 61.6388C201.851 61.5943 202.938 61.637 203.968 61.6645C204.812 61.704 205.19 62.353 205.124 63.0678C205.145 63.6836 204.721 64.3652 203.934 64.3407Z" fill="#2B2B2B"/>
<path d="M183.306 67.8112L182.501 68.0871C182.228 68.198 181.912 68.2369 181.639 68.3479C181.05 68.4978 180.477 68.5906 179.918 68.6263C178.785 68.7549 177.74 68.7843 176.71 68.7568C175.794 68.7593 174.935 68.7769 174.103 68.9236C173.271 69.0703 172.393 69.3882 171.615 69.7933C170.909 70.1564 170.285 69.7476 169.948 69.1707C169.612 68.5938 169.709 67.7648 170.487 67.3598C170.977 67.1227 171.452 66.9428 171.941 66.7057C172.215 66.5948 172.473 66.5408 172.746 66.4299C173.02 66.3189 173.278 66.2649 173.593 66.2261C174.699 65.9683 175.801 65.9539 176.79 65.9094C177.835 65.8799 178.808 65.8924 179.739 65.8329C180.241 65.7821 180.67 65.7733 181.13 65.6504C181.388 65.5964 181.59 65.5275 181.776 65.5156L182.437 65.3237C183.17 65.0898 183.779 65.5557 184.043 66.1746C184.25 66.7784 184.111 67.5353 183.306 67.8112Z" fill="#2B2B2B"/>
<path d="M163.547 74.9288C162.609 75.475 161.786 76.0513 160.906 76.6125C160.025 77.1737 159.145 77.7349 158.223 78.224C156.594 79.0761 154.921 80.0995 153.517 81.2551C152.895 81.7624 152.168 81.5097 151.76 80.9748C151.352 80.44 151.247 79.68 151.884 79.1157C153.447 77.8189 155.136 76.7386 156.881 75.6732C157.747 75.169 158.612 74.6649 159.549 74.1187C160.415 73.6146 161.337 73.1255 162.16 72.5492C163.515 71.8081 164.932 74.0735 163.547 74.9288Z" fill="#2B2B2B"/>
<path d="M146.436 87.746C144.915 89.1149 143.536 90.643 142 92.0689C140.639 93.2966 139.305 94.6536 138.34 96.2299C137.916 96.9115 137.129 96.8871 136.618 96.5084C136.051 96.1146 135.688 95.4085 136.184 94.6849C137.308 92.9675 138.703 91.3823 140.181 89.9413C141.66 88.5004 143.18 87.1315 144.701 85.7627C145.846 84.661 147.623 86.7164 146.436 87.746Z" fill="#2B2B2B"/>
<path d="M134.924 104.789C134.596 105.801 134.238 106.927 133.708 108.008C133.194 109.032 132.581 109.969 131.926 110.833C131.373 111.542 130.805 112.308 130.366 113.046C130.146 113.416 129.984 113.8 129.806 114.241C129.629 114.683 129.467 115.067 129.346 115.524C129.151 116.265 128.418 116.499 127.733 116.319C127.105 116.153 126.526 115.573 126.751 114.717L126.947 113.976C127.007 113.747 127.14 113.477 127.2 113.249C127.392 112.75 127.585 112.252 127.891 111.783C128.391 110.816 129.046 109.952 129.629 109.129C130.212 108.306 130.78 107.541 131.234 106.745C131.688 105.949 132.043 105.066 132.299 104.096C132.552 103.37 133.285 103.136 133.912 103.301C134.669 103.44 135.191 104.005 134.924 104.789Z" fill="#2B2B2B"/>
<path d="M128.11 124.84C127.868 126.913 127.783 129.087 127.356 131.171C127.172 132.1 126.916 133.07 126.747 133.941C126.564 134.869 126.452 135.755 126.455 136.671C126.43 137.458 125.781 137.836 125.108 137.841C124.436 137.847 123.769 137.366 123.808 136.522C123.836 135.492 123.921 134.477 124.134 133.434L124.273 132.678L124.397 131.978L124.659 130.521C124.984 128.593 125.325 126.608 125.551 124.593C125.647 123.764 126.338 123.458 126.996 123.509C127.597 123.545 128.206 124.011 128.11 124.84Z" fill="#2B2B2B"/>
<path d="M126.933 146.199C127.049 148.304 127.279 150.44 127.079 152.584C127.01 153.543 126.955 154.444 126.943 155.417C126.93 156.39 126.933 157.306 127.064 158.195C127.154 159.012 126.547 159.463 125.859 159.525C125.171 159.588 124.475 159.221 124.385 158.404C124.284 157.401 124.239 156.413 124.209 155.367L124.186 153.835L124.22 152.319C124.26 150.315 124.3 148.312 124.226 146.278C124.218 144.689 126.867 144.595 126.933 146.199Z" fill="#2B2B2B"/>
<path d="M128.588 167.69C128.747 168.708 128.963 169.742 129.106 170.817C129.265 171.835 129.409 172.911 129.51 173.914C129.57 174.845 129.686 175.791 129.803 176.738C129.92 177.684 130.108 178.588 130.354 179.507C130.792 181.087 128.178 181.741 127.756 180.104C127.468 179.112 127.294 178.151 127.136 177.133C126.962 176.171 126.803 175.153 126.702 174.15C126.543 173.132 126.441 172.128 126.34 171.125C126.181 170.107 126.08 169.103 125.921 168.085C125.774 167.253 126.396 166.746 127.084 166.683C127.787 166.563 128.499 166.873 128.588 167.69Z" fill="#2B2B2B"/>
<path d="M133.385 188.605C133.73 189.612 134.018 190.603 134.363 191.609C134.708 192.616 134.995 193.607 135.211 194.64C135.589 196.449 136.122 198.359 136.83 200.072C137.412 201.568 134.91 202.495 134.328 200.999C133.968 200.049 133.665 199.115 133.305 198.166C133.002 197.231 132.714 196.24 132.426 195.249C132.139 194.257 131.908 193.281 131.62 192.29C131.332 191.298 131.102 190.322 130.799 189.388C130.361 187.808 132.932 187.082 133.385 188.605Z" fill="#2B2B2B"/>
<path d="M140.58 208.996C140.997 209.96 141.342 210.967 141.759 211.931C142.103 212.938 142.52 213.902 142.793 214.95C143.3 216.732 143.906 218.6 144.701 220.214C145.412 221.683 142.978 222.811 142.282 221.285C141.418 219.47 140.698 217.571 140.051 215.631C139.403 213.69 138.812 211.764 138.092 209.866C137.51 208.37 140.013 207.443 140.58 208.996Z" fill="#2B2B2B"/>
<path d="M149.331 228.573L150.129 229.943L150.927 231.313C151.474 232.25 151.978 233.116 152.452 234.095C153.232 235.766 154.183 237.481 155.251 238.984C156.179 240.327 153.955 241.815 153.028 240.472C152.452 239.649 151.875 238.826 151.371 237.96C150.867 237.095 150.363 236.23 149.874 235.307C149.37 234.442 148.938 233.535 148.449 232.612L147.707 231.257C147.455 230.825 147.218 230.335 146.966 229.902C146.546 229.181 146.97 228.5 147.547 228.163C148.124 227.827 148.911 227.852 149.331 228.573Z" fill="#2B2B2B"/>
<path d="M161.067 246.56C161.7 247.399 162.333 248.237 162.967 249.075C163.6 249.914 164.233 250.752 164.78 251.689C165.761 253.291 166.871 254.865 168.084 256.284C169.171 257.486 167.13 259.206 166.044 258.004C165.38 257.279 164.747 256.441 164.156 255.675C163.579 254.852 163.003 254.028 162.427 253.205L160.713 250.678C160.137 249.855 159.561 249.031 158.984 248.208C157.958 246.778 160.139 245.217 161.067 246.56Z" fill="#2B2B2B"/>
<path d="M174.737 263.226C176.147 264.819 177.66 266.255 178.927 267.932C180.068 269.392 181.307 270.94 182.622 272.202C183.796 273.305 181.954 275.199 180.723 274.081C179.252 272.717 177.955 271.154 176.643 269.649C175.347 268.086 174.05 266.524 172.738 265.018C171.667 263.759 173.65 262.024 174.737 263.226Z" fill="#2B2B2B"/>
<path d="M189.926 278.521C190.719 279.219 191.511 279.916 192.319 280.556C192.715 280.905 193.112 281.253 193.508 281.602C193.904 281.951 194.3 282.299 194.625 282.69C195.246 283.342 195.997 283.967 196.69 284.577C197.384 285.187 198.149 285.755 198.93 286.266C200.293 287.114 198.79 289.342 197.37 288.479C196.547 287.896 195.724 287.313 194.917 286.673C194.109 286.033 193.374 285.35 192.581 284.653C191.846 283.971 191.11 283.289 190.317 282.591C189.582 281.909 188.861 281.17 188.054 280.53C186.895 279.37 188.695 277.403 189.926 278.521Z" fill="#2B2B2B"/>
<path d="M207.259 290.784C209.193 291.782 211.111 292.838 212.784 294.133C214.258 295.254 215.831 296.462 217.438 297.313C218.831 298.047 217.598 300.407 216.091 299.643C212.508 297.722 209.509 294.978 206.011 293.201C205.257 292.819 205.225 292.017 205.561 291.435C205.913 290.795 206.562 290.417 207.259 290.784Z" fill="#2B2B2B"/>
<path d="M226.236 300.975C228.215 301.802 230.209 302.572 231.999 303.655C233.647 304.578 235.338 305.573 237.047 306.268C238.584 306.917 237.408 309.292 235.913 308.715C232.225 307.193 228.817 305.074 225.088 303.48C223.679 302.803 224.756 300.341 226.236 300.975Z" fill="#2B2B2B"/>
<path d="M246.049 309.618C246.989 309.988 248.016 310.258 249.028 310.586C250.04 310.914 250.995 311.227 251.992 311.612C252.818 311.952 253.701 312.307 254.599 312.605C255.497 312.903 256.41 313.143 257.338 313.327C258.909 313.619 258.331 316.274 256.718 315.91C255.733 315.711 254.763 315.455 253.808 315.142C252.853 314.83 251.898 314.517 250.943 314.204C250.003 313.834 249.048 313.521 248.051 313.136L245.159 312.068C243.576 311.59 244.539 309.097 246.049 309.618Z" fill="#2B2B2B"/>
<path d="M266.82 315.096C268.905 315.523 271.004 315.894 273.013 316.607C273.911 316.905 274.809 317.203 275.707 317.501C276.605 317.798 277.575 318.054 278.446 318.223C279.26 318.376 279.436 319.094 279.313 319.794C279.147 320.422 278.567 321.001 277.753 320.848C276.768 320.649 275.87 320.351 274.9 320.095C273.93 319.839 272.975 319.527 272.005 319.271C270.08 318.702 268.155 318.133 266.2 317.679C264.644 317.329 265.207 314.732 266.82 315.096Z" fill="#2B2B2B"/>
<path d="M287.933 319.505C290.005 319.746 292.15 319.946 294.276 320.446C294.733 320.566 295.189 320.686 295.646 320.807L296.33 320.987C296.559 321.048 296.73 321.093 296.958 321.153C297.829 321.322 298.73 321.376 299.604 321.301C300.349 321.254 300.799 321.861 300.862 322.549C300.925 323.237 300.558 323.933 299.684 324.008C298.623 324.094 297.536 324.052 296.437 323.823C295.851 323.729 295.395 323.609 294.938 323.489L293.497 323.169C291.527 322.772 289.556 322.374 287.613 322.106C285.94 321.97 286.332 319.327 287.933 319.505Z" fill="#2B2B2B"/>
<path d="M309.458 320.725C310.531 320.825 311.531 320.967 312.504 320.979C312.991 320.985 313.477 320.992 313.907 320.983C314.15 320.986 314.336 320.974 314.594 320.92C314.838 320.923 315.096 320.869 315.339 320.873C316.271 320.813 317.202 320.753 318.091 320.622C319.037 320.505 319.941 320.316 320.803 320.055C322.327 319.603 323.052 322.174 321.457 322.669C320.465 322.957 319.489 323.188 318.471 323.346L316.951 323.556L315.446 323.708C314.944 323.759 314.386 323.795 313.827 323.83C313.268 323.866 312.74 323.788 312.196 323.766C311.124 323.667 310.124 323.525 309.124 323.383C308.295 323.287 307.989 322.596 308.04 321.938C308.164 321.238 308.702 320.587 309.458 320.725Z" fill="#2B2B2B"/>
<path d="M329.949 316.853C330.956 316.508 331.92 316.091 332.869 315.731C333.819 315.371 334.825 315.026 335.831 314.681C336.694 314.421 337.628 314.118 338.505 313.8C339.382 313.482 340.275 313.107 341.053 312.702C342.465 311.976 343.665 314.367 342.181 315.135C341.274 315.567 340.366 315.999 339.417 316.359C338.468 316.719 337.518 317.079 336.569 317.439C335.619 317.799 334.628 318.087 333.694 318.39C332.703 318.678 331.753 319.038 330.819 319.34C329.266 319.907 328.411 317.363 329.949 316.853Z" fill="#2B2B2B"/>
<path d="M349.216 307.899C350.039 307.323 350.878 306.69 351.659 306.041C352.44 305.393 353.279 304.76 354.117 304.126C355.619 303.058 357.167 301.818 358.486 300.518C359.703 299.375 361.423 301.415 360.278 302.517C358.887 303.859 357.381 305.17 355.762 306.452C354.98 307.1 354.142 307.734 353.319 308.31C352.48 308.943 351.657 309.519 350.777 310.081C350.098 310.573 349.344 310.191 349.008 309.614C348.6 309.079 348.552 308.334 349.216 307.899Z" fill="#2B2B2B"/>
<path d="M365.43 293.865C366.169 293.145 366.851 292.409 367.548 291.617L368.579 290.485L369.102 289.89C369.276 289.692 369.508 289.509 369.682 289.311C371.073 287.969 372.564 286.714 373.784 285.327C374.307 284.733 375.064 284.872 375.559 285.307C376.055 285.743 376.274 286.533 375.751 287.128C374.428 288.671 372.923 289.983 371.645 291.354L370.615 292.486C370.266 292.883 369.875 293.207 369.527 293.603C368.787 294.324 368.048 295.044 367.309 295.765C366.729 296.344 365.93 296.133 365.507 295.655C365.026 295.163 364.85 294.445 365.43 293.865Z" fill="#2B2B2B"/>
<path d="M378.484 277.23C378.805 276.704 379.199 276.137 379.62 275.699C379.809 275.443 380.113 275.218 380.287 275.02C380.518 274.837 380.693 274.639 380.924 274.456C381.793 273.708 382.73 273.162 383.481 272.628C384.217 272.151 384.782 271.628 385.377 270.992C385.654 270.638 385.873 270.268 386.15 269.914C386.384 269.488 386.676 269.076 386.895 268.707C387.758 267.287 389.944 268.718 389.153 270.096C388.919 270.522 388.684 270.949 388.393 271.36C388.086 271.828 387.837 272.312 387.473 272.765C386.803 273.687 385.919 274.491 385.024 275.11C384.128 275.728 383.32 276.247 382.554 276.839C382.337 276.965 382.178 277.106 382.004 277.304C381.845 277.445 381.685 277.586 381.526 277.727C381.208 278.009 380.988 278.379 380.769 278.748C380.432 279.33 379.672 279.435 379.074 279.155C378.435 278.804 377.958 278.068 378.484 277.23Z" fill="#2B2B2B"/>
<path d="M392.31 260.431C393.662 258.774 395.087 257.074 396.722 255.736C397.431 255.129 398.197 254.538 398.921 253.875C399.645 253.211 400.355 252.605 400.965 251.911C401.488 251.317 402.244 251.456 402.725 251.948C403.22 252.384 403.439 253.174 402.844 253.811C402.495 254.207 402.162 254.546 401.813 254.943C401.48 255.282 401.089 255.606 400.755 255.945C400.031 256.609 399.307 257.272 398.568 257.992C397.119 259.319 395.656 260.703 394.39 262.261C393.867 262.856 393.095 262.774 392.6 262.339C392.063 261.831 391.772 261.083 392.31 260.431Z" fill="#2B2B2B"/>
<path d="M406.975 244.404C408.369 242.819 409.68 241.089 411.216 239.663C411.868 239.042 412.592 238.379 413.259 237.7C413.926 237.022 414.593 236.343 415.219 235.593C415.757 234.941 416.498 235.137 416.994 235.573C417.489 236.008 417.708 236.798 417.185 237.393C416.56 238.143 415.878 238.879 415.195 239.615C414.513 240.35 413.789 241.013 413.107 241.749C411.7 243.148 410.279 244.604 409.014 246.162C407.953 247.408 405.914 245.65 406.975 244.404Z" fill="#2B2B2B"/>
<path d="M421.995 228.408L423.254 227.336L423.876 226.829L424.555 226.337C425.003 226.028 425.45 225.718 425.898 225.409C426.346 225.1 426.778 224.848 427.211 224.596C428.004 224.134 428.813 223.615 429.606 223.153C430.414 222.633 431.18 222.042 431.874 221.493C433.133 220.421 434.766 222.561 433.522 223.575C432.741 224.223 431.975 224.815 431.151 225.391C430.328 225.967 429.505 226.544 428.624 227.105L427.311 227.918L426.071 228.689C425.638 228.941 425.247 229.266 424.872 229.533C424.481 229.857 424.105 230.124 423.715 230.448C422.528 231.478 420.721 229.536 421.995 228.408Z" fill="#2B2B2B"/>
<path d="M439.227 215.134C440.065 214.5 440.919 213.81 441.814 213.192C442.71 212.574 443.605 211.955 444.527 211.466C445.378 211.019 446.228 210.572 447.078 210.125C447.511 209.873 447.929 209.678 448.361 209.426C448.794 209.174 449.211 208.979 449.587 208.712C450.308 208.291 451.005 208.658 451.269 209.277C451.605 209.854 451.523 210.626 450.859 211.061C450.427 211.313 449.994 211.565 449.633 211.775L448.335 212.531C447.485 212.979 446.62 213.483 445.755 213.987C444.889 214.491 444.081 215.01 443.216 215.514C442.392 216.091 441.584 216.61 440.746 217.243C439.559 218.273 437.926 216.133 439.227 215.134Z" fill="#2B2B2B"/>
<path d="M458.689 204.52L459.479 204.301L460.212 204.067C460.729 203.959 461.203 203.78 461.663 203.657C462.654 203.369 463.646 203.081 464.622 202.85C466.388 202.401 468.242 201.852 469.87 201C470.576 200.637 471.258 201.061 471.522 201.679C471.786 202.298 471.761 203.085 470.998 203.433C470.091 203.865 469.127 204.282 468.177 204.642C467.228 205.002 466.237 205.29 465.245 205.578C464.254 205.866 463.278 206.096 462.229 206.369C461.253 206.6 460.162 206.801 459.285 207.119C458.552 207.352 457.958 206.829 457.766 206.169C457.646 205.466 457.842 204.724 458.689 204.52Z" fill="#2B2B2B"/>
<path d="M478.218 196.182C478.434 196.056 478.708 195.945 478.939 195.762L479.717 195.357C480.264 195.135 480.769 194.84 481.301 194.676C481.847 194.454 482.379 194.289 482.911 194.124C483.443 193.959 484.016 193.866 484.575 193.83C485.077 193.78 485.578 193.729 486.023 193.663C486.524 193.612 487.026 193.561 487.513 193.568C488.516 193.466 489.447 193.406 490.393 193.29C492.042 193.053 492.251 195.733 490.674 195.927C489.728 196.044 488.725 196.145 487.779 196.262C486.832 196.379 485.886 196.495 484.925 196.669C483.964 196.843 483.059 197.031 482.182 197.349C481.723 197.472 481.305 197.667 480.887 197.862C480.47 198.057 480.052 198.252 479.619 198.504C478.12 199.33 476.848 196.98 478.218 196.182Z" fill="#2B2B2B"/>
<path d="M499.848 191.695C501.899 191.321 503.981 190.832 506.159 190.674C508.021 190.555 510.055 190.481 511.932 190.305C512.749 190.215 513.184 190.879 513.262 191.51C513.268 192.183 512.901 192.88 512.141 192.984C510.207 193.146 508.257 193.364 506.323 193.525C504.373 193.743 502.352 194.003 500.372 194.336C498.708 194.629 498.256 191.947 499.848 191.695Z" fill="#2B2B2B"/>
<path d="M521.785 189.972C523.944 190.114 526.104 190.257 528.173 190.741C530.014 191.166 531.954 191.677 533.783 191.916C535.426 192.166 534.863 194.764 533.277 194.528C529.406 193.935 525.525 192.911 521.579 192.603C520.005 192.554 520.097 189.893 521.785 189.972Z" fill="#2B2B2B"/>
<path d="M543.434 193.728C544.462 193.999 545.489 194.269 546.516 194.54C547.528 194.868 548.54 195.196 549.537 195.581C550.42 195.936 551.288 196.348 552.185 196.646C553.068 197.001 553.966 197.299 554.864 197.597C556.447 198.075 555.541 200.582 554.016 200.119C553.046 199.863 552.091 199.55 551.208 199.195C550.253 198.883 549.313 198.513 548.43 198.158L545.58 197.162C544.625 196.849 543.67 196.536 542.7 196.28C541.145 195.931 541.837 193.306 543.434 193.728Z" fill="#2B2B2B"/>
<path d="M564.232 200.494C565.229 200.879 566.226 201.264 567.223 201.649C568.22 202.034 569.202 202.476 570.097 203.018C570.893 203.472 571.746 203.941 572.613 204.353C573.466 204.822 574.349 205.177 575.217 205.588C576.754 206.238 575.579 208.613 574.083 208.036C573.143 207.666 572.276 207.254 571.351 206.827C570.426 206.4 569.558 205.988 568.648 205.504C567.723 205.077 566.87 204.608 565.946 204.181C565.021 203.754 564.138 203.399 563.198 203.029C562.429 202.704 562.309 202.001 562.547 201.332C562.827 200.734 563.449 200.227 564.232 200.494Z" fill="#2B2B2B"/>
<path d="M584.14 209.471C584.623 209.721 585.107 209.971 585.59 210.22L587.04 210.969C588.007 211.468 588.887 212.066 589.767 212.664C590.532 213.232 591.298 213.8 592.079 214.311C592.859 214.823 593.682 215.406 594.478 215.86C595.913 216.665 594.467 218.908 593.089 218.118C592.236 217.649 591.398 217.123 590.561 216.596C589.723 216.07 588.9 215.487 588.062 214.961C587.225 214.435 586.402 213.852 585.564 213.326C584.727 212.8 583.874 212.331 582.964 211.847C581.514 211.098 582.704 208.666 584.14 209.471Z" fill="#2B2B2B"/>
<path d="M602.873 220.82C603.753 221.418 604.633 222.016 605.498 222.672C606.362 223.327 607.17 223.967 607.962 224.664C608.641 225.331 609.334 225.942 610.07 226.624C610.821 227.249 611.514 227.859 612.28 228.427C613.598 229.446 611.897 231.5 610.579 230.481C609.756 229.898 609.005 229.272 608.255 228.647C607.504 228.022 606.769 227.34 605.961 226.7C605.21 226.075 604.475 225.392 603.667 224.752C602.86 224.112 602.094 223.544 601.271 222.961C600.037 222.086 601.525 219.915 602.873 220.82Z" fill="#2B2B2B"/>
<path d="M619.961 234.48C620.753 235.177 621.531 235.932 622.324 236.629C623.116 237.326 623.837 238.065 624.557 238.805C625.785 240.166 627.184 241.573 628.628 242.808C629.874 243.869 628.073 245.835 626.828 244.774C625.326 243.524 623.87 242.102 622.472 240.696L620.352 238.55C619.632 237.811 618.953 237.144 618.218 236.462C617.623 235.939 617.777 235.125 618.213 234.629C618.648 234.134 619.381 233.9 619.961 234.48Z" fill="#2B2B2B"/>
<path d="M635.868 249.601C636.558 250.454 637.234 251.365 637.837 252.317C638.146 252.765 638.44 253.27 638.677 253.759L638.887 254.12L639.04 254.465L639.346 255.156C640.069 256.812 640.948 258.569 642.032 260.015C642.539 260.637 642.229 261.348 641.695 261.757C641.16 262.165 640.343 262.254 639.851 261.575C638.626 259.971 637.591 258.111 636.727 256.296L636.421 255.605L636.1 254.971C635.904 254.554 635.652 254.121 635.4 253.688C635.148 253.256 634.896 252.823 634.629 252.447C634.362 252.072 634.11 251.639 633.786 251.249C633.278 250.627 633.531 249.9 634.066 249.492C634.559 249.011 635.319 248.907 635.868 249.601Z" fill="#2B2B2B"/>
<path d="M648.394 267.364C649.63 269.154 650.867 270.945 651.758 272.889C652.538 274.559 653.417 276.317 654.471 277.876C655.383 279.277 653.075 280.621 652.205 279.293C651.686 278.485 651.125 277.604 650.678 276.754C650.173 275.889 649.684 274.966 649.237 274.116C648.301 272.343 647.365 270.571 646.269 268.939C645.834 268.275 646.144 267.564 646.679 267.155C647.085 266.774 647.902 266.684 648.394 267.364Z" fill="#2B2B2B"/>
<path d="M659.659 286.206C660.133 287.185 660.622 288.107 661.081 289.144C661.555 290.123 661.9 291.13 662.23 292.193C662.353 292.653 662.476 293.112 662.599 293.572C662.722 294.032 662.859 294.434 663.039 294.909C663.357 295.786 663.675 296.663 664.122 297.514C664.833 298.983 662.4 300.111 661.689 298.642C661.257 297.734 660.825 296.827 660.48 295.821C660.3 295.346 660.12 294.871 659.955 294.34L659.472 292.931C658.866 291.062 658.147 289.163 657.268 287.406C656.484 285.979 658.891 284.721 659.659 286.206Z" fill="#2B2B2B"/>
<path d="M668.331 306.313C668.661 307.377 669.063 308.398 669.321 309.504C669.375 309.762 669.429 310.02 669.468 310.336L669.614 311.168C669.707 311.742 669.686 312.285 669.722 312.844C669.715 313.331 669.694 313.874 669.688 314.361C669.682 314.847 669.618 315.319 669.612 315.806C669.606 316.292 669.614 316.722 669.608 317.208C669.602 317.695 669.668 318.139 669.734 318.584C669.928 320.161 667.234 320.427 667.054 318.793C667.003 318.291 666.953 317.79 666.902 317.288C666.908 316.801 666.872 316.243 666.879 315.756L666.897 314.296C666.904 313.81 666.895 313.38 666.901 312.894L666.839 312.206L666.776 311.518C666.725 311.016 666.659 310.572 666.536 310.112C666.363 309.151 666.117 308.232 665.814 307.297C665.523 306.549 666.046 305.955 666.665 305.691C667.242 305.355 668.056 305.508 668.331 306.313Z" fill="#2B2B2B"/>
<path d="M671.2 328.063C671.502 330.157 671.862 332.266 671.905 334.413C671.908 335.329 671.952 336.318 671.997 337.306C671.991 337.792 672.041 338.294 672.107 338.739C672.158 339.24 672.167 339.67 672.218 340.171C672.397 341.805 669.733 341.957 669.538 340.38C669.488 339.879 669.437 339.377 669.371 338.932C669.32 338.431 669.269 337.929 669.219 337.427C669.174 336.439 669.072 335.436 669.028 334.448C668.882 332.456 668.736 330.465 668.475 328.443C668.296 326.809 670.948 326.471 671.2 328.063Z" fill="#2B2B2B"/>
<path d="M672.863 349.985C672.842 350.528 672.764 351.057 672.727 351.658L672.631 352.487L672.477 353.301C672.399 353.829 672.305 354.415 672.17 354.928C672.035 355.442 671.884 356.012 671.692 356.511C671.514 356.952 671.394 357.409 671.201 357.907C671.024 358.349 670.903 358.805 670.726 359.247C670.428 360.145 670.187 361.058 669.947 361.971C669.597 363.526 667.014 362.906 667.364 361.351C667.562 360.365 667.818 359.395 668.131 358.44L668.58 356.972L668.998 355.617C669.296 354.72 669.494 353.734 669.735 352.822C669.795 352.593 669.856 352.365 669.859 352.122L669.925 351.407C669.988 350.935 670.052 350.464 670.073 349.92C670.155 349.148 670.804 348.77 671.476 348.765C672.221 348.717 672.903 349.141 672.863 349.985Z" fill="#2B2B2B"/>
<path d="M668.252 371.41C667.768 373.479 667.397 375.578 666.741 377.602C666.145 379.398 665.535 381.251 665.11 383.092C664.746 384.705 662.178 384.028 662.527 382.472C662.726 381.487 662.982 380.517 663.223 379.604C663.479 378.634 663.791 377.679 664.047 376.709C664.616 374.784 665.185 372.859 665.639 370.904C666.019 369.234 668.617 369.797 668.252 371.41Z" fill="#2B2B2B"/>
<path d="M662.854 392.568C662.526 393.58 662.183 394.649 661.798 395.646C661.413 396.643 660.971 397.625 660.472 398.592C659.549 400.241 658.611 401.946 657.902 403.712C657.252 405.249 654.862 404.131 655.439 402.635C656.164 400.812 657.06 399.035 657.956 397.257C658.368 396.389 658.852 395.479 659.207 394.597C659.577 393.657 659.989 392.789 660.302 391.834C660.795 390.194 663.333 390.985 662.854 392.568Z" fill="#2B2B2B"/>
<path d="M654.007 412.693C653.508 413.66 653.009 414.627 652.525 415.537C652.026 416.504 651.428 417.383 650.829 418.263C650.261 419.029 649.693 419.794 649.125 420.56C648.557 421.326 648.031 422.163 647.52 422.944C646.657 424.364 644.429 422.861 645.277 421.498C645.803 420.66 646.329 419.823 646.855 418.985C647.381 418.147 647.964 417.325 648.491 416.487C649.6 414.826 650.652 413.151 651.605 411.388C651.972 410.692 652.732 410.587 653.371 410.939C654.011 411.291 654.389 411.94 654.007 412.693Z" fill="#2B2B2B"/>
<path d="M42.2672 227.61C42.3103 217.926 50.213 210.094 59.8964 210.137C69.5798 210.18 77.4125 218.082 77.3695 227.766C77.3695 227.766 77.5672 228.674 77.1039 230.791C76.8968 232 76.5388 233.108 76.1304 234.216C74.2915 239.453 69.9649 248.361 59.6642 262.387C49.539 248.27 45.2413 239.324 43.449 234.071C43 232.959 42.7026 231.798 42.506 230.637C42.1119 228.517 42.2672 227.61 42.2672 227.61ZM59.7711 238.329C65.6719 238.356 70.4338 233.636 70.46 227.735C70.4862 221.834 65.7665 217.072 59.8657 217.046C53.9649 217.02 49.203 221.74 49.1767 227.64C49.1505 233.541 53.9207 238.303 59.7711 238.329Z" fill="#2B2B2B"/>
<path d="M66.9886 264.883C68.6724 268.167 67.3754 272.194 64.0916 273.878C60.8079 275.562 56.7809 274.265 55.0971 270.981C53.4133 267.697 54.7103 263.67 57.9941 261.986C61.2779 260.303 65.3048 261.6 66.9886 264.883Z" fill="#2B2B2B"/>
</g>
<g filter="url(#filter0_d_334_3298)">
<path d="M615.978 392.087L611.845 400.138L633.716 436.796L622.351 458.935C620.636 462.276 621.948 466.357 625.289 468.072C628.63 469.787 632.711 468.475 634.427 465.134L645.792 442.995L688.326 439.4L692.459 431.349L655.091 424.881L666.456 402.742L677.606 400.837L680.705 394.799L664.551 391.592L652.528 380.334L649.429 386.372L654.38 396.543L643.015 418.682L615.978 392.087Z" fill="#FBD2D3"/>
</g>
<defs>
<filter id="filter0_d_334_3298" x="597.846" y="373.336" width="108.613" height="116.488" filterUnits="userSpaceOnUse" color-interpolation-filters="sRGB">
<feFlood flood-opacity="0" result="BackgroundImageFix"/>
<feColorMatrix in="SourceAlpha" type="matrix" values="0 0 0 0 0 0 0 0 0 0 0 0 0 0 0 0 0 0 127 0" result="hardAlpha"/>
<feOffset dy="7"/>
<feGaussianBlur stdDeviation="7"/>
<feComposite in2="hardAlpha" operator="out"/>
<feColorMatrix type="matrix" values="0 0 0 0 0 0 0 0 0 0 0 0 0 0 0 0 0 0 0.1 0"/>
<feBlend mode="normal" in2="BackgroundImageFix" result="effect1_dropShadow_334_3298"/>
<feBlend mode="normal" in="SourceGraphic" in2="effect1_dropShadow_334_3298" result="shape"/>
</filter>
</defs>
</svg>
