<svg width="12" height="12" viewBox="0 0 12 12" fill="none" xmlns="http://www.w3.org/2000/svg">
<path d="M6.00008 11.8334C5.17369 11.8334 4.40564 11.6851 3.69592 11.3886C2.98619 11.092 2.36883 10.6813 1.84383 10.1563C1.31883 9.63127 0.908068 9.01391 0.61154 8.30419C0.315012 7.59447 0.166748 6.82641 0.166748 6.00002C0.166748 5.18335 0.315012 4.42016 0.61154 3.71044C0.908068 3.00071 1.31883 2.38335 1.84383 1.85835C2.36883 1.33335 2.98619 0.920159 3.69592 0.61877C4.40564 0.317382 5.17369 0.166687 6.00008 0.166687C6.81675 0.166687 7.57994 0.317382 8.28967 0.61877C8.99939 0.920159 9.61675 1.33335 10.1417 1.85835C10.6667 2.38335 11.0799 3.00071 11.3813 3.71044C11.6827 4.42016 11.8334 5.18335 11.8334 6.00002C11.8334 6.82641 11.6827 7.59447 11.3813 8.30419C11.0799 9.01391 10.6667 9.63127 10.1417 10.1563C9.61675 10.6813 8.99939 11.092 8.28967 11.3886C7.57994 11.6851 6.81675 11.8334 6.00008 11.8334ZM3.81258 8.80002L6.00008 6.61252L8.18758 8.80002L8.80008 8.18752L6.61258 6.00002L8.80008 3.81252L8.18758 3.20002L6.00008 5.38752L3.81258 3.20002L3.20008 3.81252L5.38758 6.00002L3.20008 8.18752L3.81258 8.80002Z" fill="white"/>
</svg>
